<svg width="13" height="13" viewBox="0 0 13 13" fill="none" xmlns="http://www.w3.org/2000/svg">
<g clip-path="url(#clip0_1_38717)">
<path d="M4.52145 7.83582C4.33838 8.01885 4.33838 8.31566 4.52145 8.49873C4.70452 8.6818 5.00131 8.68175 5.18436 8.49871L6.44389 7.23917C6.62834 7.05475 6.62462 6.757 6.44389 6.57627L5.18434 5.31674C5.00129 5.13367 4.7045 5.13369 4.52143 5.31674C4.33836 5.49978 4.33836 5.7966 4.52143 5.97967L4.98076 6.43897L1.09766 6.43895C0.838789 6.43895 0.628906 6.64881 0.628906 6.9077C0.628906 7.16659 0.838766 7.37645 1.09766 7.37645L4.98078 7.37647L4.52145 7.83582Z" fill="#C90F16"/>
<path d="M11.457 0.907715H3.81641C3.55752 0.907715 3.34766 1.11757 3.34766 1.37646V3.15771C3.34766 3.41661 3.55752 3.62646 3.81641 3.62646C4.0753 3.62646 4.28516 3.41661 4.28516 3.15771V1.84521H10.9883V11.9702H4.28516V10.6577C4.28516 10.3988 4.0753 10.189 3.81641 10.189C3.55752 10.189 3.34766 10.3988 3.34766 10.6577V12.439C3.34766 12.6979 3.55752 12.9077 3.81641 12.9077H11.457C11.7159 12.9077 11.9258 12.6979 11.9258 12.439V1.37646C11.9258 1.11757 11.7159 0.907715 11.457 0.907715Z" fill="#C90F16"/>
</g>
<defs>
<clipPath id="clip0_1_38717">
<rect width="12" height="12" fill="white" transform="translate(0.277344 0.907715)"/>
</clipPath>
</defs>
</svg>
