<svg width="41" height="40" viewBox="0 0 41 40" fill="none" xmlns="http://www.w3.org/2000/svg">
<path d="M36.1355 3.84621H31.603L31.8126 1.61036C31.8548 1.15998 31.5004 0.769287 31.0467 0.769287H9.50827C9.05596 0.769287 8.70004 1.15867 8.74235 1.61036L8.95204 3.84621H4.4195C2.60304 3.84621 1.29227 5.58236 1.79158 7.33013C2.36596 9.34044 3.45096 11.1845 4.92942 12.6629L10.2845 18.018C10.7008 21.6227 13.0004 24.6479 16.2161 26.0675L14.995 34.6154H11.0467C10.6219 34.6154 10.2775 34.9599 10.2775 35.3847V38.4616C10.2775 38.8864 10.6219 39.2308 11.0467 39.2308H29.5083C29.933 39.2308 30.2775 38.8864 30.2775 38.4616V35.3847C30.2775 34.9599 29.933 34.6154 29.5083 34.6154H25.56L24.339 26.0675C27.5599 24.6456 29.8548 21.6167 30.2705 18.018L35.6257 12.6628C37.1041 11.1844 38.189 9.34029 38.7634 7.33006C39.2625 5.58336 37.953 3.84621 36.1355 3.84621ZM30.202 2.30775L30.0578 3.84621H10.4973L10.353 2.30775H30.202ZM6.01727 11.5751C4.72327 10.2811 3.77358 8.66706 3.27088 6.90752C3.05273 6.14398 3.62511 5.38467 4.4195 5.38467H9.09627C9.20965 6.59444 9.94196 14.4054 10.0552 15.6129L6.01727 11.5751ZM28.739 37.6924H11.816V36.1539H28.739V37.6924ZM16.5491 34.6154L17.6959 26.5881C19.3123 27.0208 21.1276 27.0484 22.8593 26.5881L24.006 34.6154H16.5491ZM20.2775 25.3847C15.7743 25.3847 12.1906 21.9083 11.792 17.6577C11.7913 17.6501 11.7854 17.5864 11.7861 17.5941L10.6415 5.38467H29.9136C29.8061 6.53159 28.8718 16.4969 28.763 17.6575C28.4586 20.9043 24.7828 25.3847 20.2775 25.3847ZM37.2842 6.90752C36.7815 8.66698 35.8318 10.281 34.5378 11.5751L30.4999 15.613C30.6476 14.0374 31.302 7.05775 31.4588 5.38475H36.1356C36.5139 5.38475 36.8615 5.5579 37.0892 5.85998C37.317 6.1619 37.3881 6.54375 37.2842 6.90752Z" fill="white"/>
<path d="M26.821 12.3078H22.3811L21.0091 8.08525C20.9061 7.76833 20.6107 7.55371 20.2774 7.55371C19.9441 7.55371 19.6488 7.76833 19.5458 8.08525L18.174 12.3078H13.7341C13.4009 12.3078 13.1055 12.5224 13.0025 12.8393C12.8996 13.1562 13.0124 13.5035 13.282 13.6993L16.8739 16.3091L15.5019 20.5317C15.3397 21.0313 15.7146 21.5386 16.2335 21.5386C16.3922 21.5386 16.5508 21.4896 16.6857 21.3917L20.2775 18.782L23.8694 21.3916C24.1391 21.5876 24.5041 21.5876 24.7737 21.3916C25.0434 21.1958 25.1562 20.8486 25.0532 20.5316L23.6812 16.3091L27.2731 13.6993C27.5427 13.5034 27.6556 13.1562 27.5526 12.8392C27.4496 12.5223 27.1542 12.3078 26.821 12.3078ZM22.3247 15.3929C22.0551 15.5889 21.9423 15.9361 22.0453 16.253L22.8584 18.7555L20.7296 17.2089C20.4599 17.013 20.095 17.013 19.8253 17.2089L17.6965 18.7555L18.5097 16.253C18.6126 15.9361 18.4998 15.5889 18.2302 15.393L16.1015 13.8462H18.7329C19.0662 13.8462 19.3615 13.6316 19.4645 13.3147L20.2775 10.8122L21.0906 13.3147C21.1936 13.6316 21.489 13.8462 21.8222 13.8462H24.4536L22.3247 15.3929Z" fill="white"/>
</svg>
