<svg width="46" height="37" viewBox="0 0 46 37" fill="none" xmlns="http://www.w3.org/2000/svg">
<path d="M23.2525 18.4069C26.3509 18.4069 28.8628 15.7883 28.8628 12.5579C28.8628 9.32747 26.3509 6.7085 23.2525 6.7085C20.1542 6.7085 17.6426 9.32747 17.6426 12.5579C17.646 15.7867 20.1554 18.4034 23.2525 18.4069ZM23.2525 8.55244C25.3742 8.55244 27.0942 10.3458 27.0942 12.5579C27.0942 14.77 25.3742 16.563 23.2525 16.563C21.1309 16.563 19.4111 14.77 19.4111 12.5579C19.4133 10.3468 21.1315 8.55468 23.2525 8.55244Z" fill="white"/>
<path d="M37.9281 15.7335H35.5406C32.4121 15.7335 29.5834 17.702 28.3153 20.6392C27.1365 19.9387 25.8031 19.5706 24.4466 19.5719H22.059C20.7089 19.5706 19.3816 19.9352 18.2075 20.6289C16.9406 17.6655 14.1263 15.7502 11.0144 15.7338H8.62717C4.29358 15.7386 0.782256 19.3996 0.777344 23.9176V31.7694C0.777344 32.279 1.17343 32.6914 1.66162 32.6914H14.2098V35.6077C14.2098 36.1174 14.6053 36.5297 15.0941 36.5297H31.4112C31.8994 36.5297 32.2955 36.1174 32.2955 35.6077V32.6914H44.8931C45.3813 32.6914 45.7773 32.2784 45.7773 31.7694V23.9176C45.7724 19.3996 42.2614 15.7386 37.9281 15.7335ZM37.9281 17.5775C37.9723 17.5775 38.0156 17.5803 38.0595 17.581L36.9926 22.3535C36.9511 22.567 36.7841 22.7299 36.5765 22.7584C36.5646 22.7591 36.5492 22.7591 36.5409 22.7594C36.318 22.7466 36.1326 22.5782 36.0896 22.3503L35.0284 17.6005C35.1979 17.5855 35.3686 17.5778 35.5409 17.5775H37.9281ZM24.4466 21.4158C24.6084 21.4158 24.7683 21.4244 24.9268 21.4373L23.4739 26.3736L22.0148 21.4171C22.0295 21.4171 22.0437 21.4158 22.0584 21.4158H24.4466ZM11.0141 17.5775C11.0743 17.5775 11.1339 17.5797 11.1937 17.5813L9.71839 23.172L8.24582 17.5909C8.37171 17.5829 8.49882 17.5775 8.62655 17.5775H11.0141ZM2.5459 23.9176C2.54897 21.2673 4.13024 18.898 6.51226 17.9735L8.83411 26.7722V30.8474H2.5459V23.9176ZM10.6027 30.8474V26.7722L12.9411 17.9094C14.6943 18.5298 16.088 19.939 16.7361 21.7475C15.1251 23.2937 14.2086 25.4725 14.2092 27.7556V30.8474H10.6027ZM15.9784 27.7559C15.9814 24.9824 17.7104 22.5318 20.2493 21.7026L22.5896 29.6543V34.6858H15.9784V27.7559ZM30.5269 34.6858H24.3581V29.6543L26.6551 21.8509C28.9877 22.8016 30.5238 25.1443 30.5269 27.7556V34.6858ZM29.7817 21.7603C30.4022 20.0549 31.6814 18.6995 33.3072 18.0247L34.3677 22.7687C34.5255 23.497 35.0033 24.1049 35.6573 24.4093V30.8481H32.2955V27.7556C32.2964 25.4789 31.3848 23.3058 29.7817 21.7603ZM44.0088 30.8471H37.4258V24.4064C38.0761 24.1004 38.5527 23.4963 38.7148 22.7719L39.8066 17.8883C42.3102 18.7395 44.0054 21.1722 44.0088 23.9176V30.8471Z" fill="white"/>
<path d="M36.6851 14.6212C39.224 14.6219 41.447 12.8445 42.1044 10.287C42.7615 7.73016 41.6887 5.0318 39.4896 3.70871V2.82323C39.4896 1.40859 38.3901 0.262207 37.0333 0.262207C35.6765 0.262207 34.577 1.40859 34.577 2.82323V3.35241C32.0899 4.40403 30.6656 7.14529 31.1796 9.89167C31.6935 12.6384 34.0013 14.6209 36.6851 14.6209V14.6212ZM36.6851 12.7773C35.0824 12.7754 33.6491 11.7375 33.0863 10.1731C33.7955 10.0479 34.4882 9.83565 35.1505 9.54145C35.9715 9.17618 36.729 8.67038 37.3907 8.04453C38.0171 8.77634 38.9953 9.64869 40.3266 10.0693C39.8065 11.7017 38.3345 12.7962 36.6851 12.7773ZM40.4832 8.1697C39.6057 7.79003 38.9578 7.13184 38.5608 6.63212C38.7622 6.3216 38.9431 5.99731 39.1025 5.66149C39.8464 6.28894 40.3389 7.1837 40.4832 8.1697ZM36.3455 2.82323C36.3455 2.42724 36.6532 2.10615 37.0333 2.10615C37.4134 2.10615 37.7211 2.42724 37.7211 2.82323V3.02363C37.3796 2.95641 37.0327 2.92247 36.6851 2.92215C36.5712 2.92215 36.4579 2.92696 36.3455 2.93368V2.82323ZM36.6851 4.76609C36.9624 4.76641 37.239 4.79779 37.5095 4.86021C36.3068 7.36778 34.098 8.12136 32.8649 8.34737C33.0752 6.31231 34.7216 4.76897 36.6851 4.76609Z" fill="white"/>
<path d="M9.82022 14.6209C12.9069 14.6209 15.3715 12.0589 15.4305 8.78879C15.4305 8.78303 15.4305 8.77695 15.4305 8.77119C15.4305 5.54077 12.9189 2.92212 9.82022 2.92212C6.72187 2.92212 4.20996 5.54077 4.20996 8.77119C4.20996 12.0019 6.72187 14.6209 9.82022 14.6209ZM9.82022 4.76606C11.9379 4.76894 13.6549 6.55526 13.6619 8.76286C13.6171 11.0146 11.9308 12.7773 9.82022 12.7773C7.69857 12.7773 5.97852 10.9839 5.97852 8.77183C5.97852 6.55974 7.69857 4.76606 9.82022 4.76606Z" fill="white"/>
<path d="M41.454 22.5941H39.7837C39.2955 22.5941 38.8994 23.0071 38.8994 23.5161C38.8994 24.0251 39.2955 24.4381 39.7837 24.4381H41.454C41.9422 24.4381 42.3383 24.0251 42.3383 23.5161C42.3383 23.0071 41.9422 22.5941 41.454 22.5941Z" fill="white"/>
<path d="M26.7163 26.6915C26.2281 26.6915 25.832 27.1045 25.832 27.6135C25.832 28.1225 26.2281 28.5355 26.7163 28.5355H28.3866C28.8748 28.5355 29.2709 28.1225 29.2709 27.6135C29.2709 27.1045 28.8748 26.6915 28.3866 26.6915H26.7163Z" fill="white"/>
<path d="M14.9257 23.2088C14.9257 22.6998 14.5297 22.2869 14.0415 22.2869H12.7642C12.276 22.2869 11.8799 22.6998 11.8799 23.2088C11.8799 23.7178 12.276 24.1308 12.7642 24.1308H14.0415C14.5297 24.1308 14.9257 23.7178 14.9257 23.2088Z" fill="white"/>
</svg>
