<svg width="41" height="40" viewBox="0 0 41 40" fill="none" xmlns="http://www.w3.org/2000/svg">
<g clip-path="url(#clip0_1_29864)">
<path d="M21.6211 31.7188C21.6211 32.1503 21.2714 32.5 20.8398 32.5C20.4083 32.5 20.0586 32.1503 20.0586 31.7188C20.0586 31.2872 20.4083 30.9375 20.8398 30.9375C21.2714 30.9375 21.6211 31.2872 21.6211 31.7188Z" fill="white"/>
<path d="M38.2617 24.6875C38.2617 22.1027 36.1591 20 33.5742 20C30.9894 20 28.8867 22.1027 28.8867 24.6875C28.8867 27.2723 30.9894 29.375 33.5742 29.375C36.1591 29.375 38.2617 27.2723 38.2617 24.6875ZM33.5742 27.8125C31.8512 27.8125 30.4492 26.4105 30.4492 24.6875C30.4492 22.9645 31.8512 21.5625 33.5742 21.5625C35.2972 21.5625 36.6992 22.9645 36.6992 24.6875C36.6992 26.4105 35.2972 27.8125 33.5742 27.8125Z" fill="white"/>
<path d="M33.5742 29.375C31.6055 29.375 29.6423 30.1923 28.3051 31.5173C26.5448 29.2041 23.8306 27.8125 20.8398 27.8125C17.9758 27.8125 15.2005 29.1193 13.3749 31.5173C12.0374 30.1926 10.0745 29.375 8.10547 29.375C4.16718 29.375 0.839844 32.5949 0.839844 36.4062V37.9688C0.839844 38.4003 1.18958 38.75 1.62109 38.75H40.0586C40.4901 38.75 40.8398 38.4003 40.8398 37.9688V36.4062C40.8398 32.5949 37.5125 29.375 33.5742 29.375ZM2.40234 36.4062C2.40234 33.4418 5.01404 30.9375 8.10547 30.9375C9.79706 30.9375 11.4746 31.687 12.5131 32.8784C11.8265 34.2047 11.4648 35.683 11.4648 37.1875H2.40234V36.4062ZM20.8398 29.375C25.1871 29.375 28.6523 32.9022 28.6523 37.1875H13.0273C13.0273 32.8452 16.5634 29.375 20.8398 29.375ZM39.2773 37.1875H30.2148C30.2148 35.683 29.8532 34.2047 29.1666 32.8784C30.2051 31.687 31.8826 30.9375 33.5742 30.9375C36.6656 30.9375 39.2773 33.4418 39.2773 36.4062V37.1875Z" fill="white"/>
<path d="M12.793 24.6875C12.793 22.1027 10.6903 20 8.10547 20C5.52063 20 3.41797 22.1027 3.41797 24.6875C3.41797 27.2723 5.52063 29.375 8.10547 29.375C10.6903 29.375 12.793 27.2723 12.793 24.6875ZM8.10547 27.8125C6.38245 27.8125 4.98047 26.4105 4.98047 24.6875C4.98047 22.9645 6.38245 21.5625 8.10547 21.5625C9.82849 21.5625 11.2305 22.9645 11.2305 24.6875C11.2305 26.4105 9.82849 27.8125 8.10547 27.8125Z" fill="white"/>
<path d="M27.0898 21.5625C27.0898 18.1161 24.2862 15.3125 20.8398 15.3125C17.3935 15.3125 14.5898 18.1161 14.5898 21.5625C14.5898 25.0089 17.3935 27.8125 20.8398 27.8125C24.2862 27.8125 27.0898 25.0089 27.0898 21.5625ZM20.8398 26.25C18.255 26.25 16.1523 24.1473 16.1523 21.5625C16.1523 18.9777 18.255 16.875 20.8398 16.875C23.4247 16.875 25.5273 18.9777 25.5273 21.5625C25.5273 24.1473 23.4247 26.25 20.8398 26.25Z" fill="white"/>
<path d="M27.0226 5.79376C26.9308 5.51086 26.6863 5.30487 26.3918 5.26215L23.0221 4.77295L21.5133 1.68823C21.3824 1.41998 21.1101 1.25 20.8117 1.25C20.5132 1.25 20.241 1.41998 20.1098 1.68793L18.6013 4.77295L15.2315 5.26184C14.937 5.30457 14.6926 5.51086 14.6007 5.79376C14.5089 6.07666 14.5855 6.38702 14.7985 6.59454L17.2387 8.97278L16.6628 12.3312C16.6125 12.6242 16.733 12.9205 16.9738 13.0951C17.213 13.269 17.5317 13.2938 17.7965 13.1546L20.8117 11.5692L23.828 13.1546C24.0911 13.2932 24.41 13.27 24.6508 13.0951C24.8913 12.9202 25.0118 12.6242 24.9615 12.3309L24.385 8.97278L26.8249 6.59454C27.0379 6.38702 27.1145 6.07666 27.0226 5.79376ZM22.9998 8.14056C22.8158 8.32001 22.7315 8.5788 22.7752 8.83209L23.1533 11.0352L21.1751 9.99512C20.9475 9.87549 20.6756 9.87549 20.4479 9.99512L18.4704 11.0352L18.8482 8.83209C18.8915 8.57849 18.8073 8.32001 18.6233 8.14056L17.0229 6.58081L19.2339 6.25977C19.4897 6.22284 19.7103 6.06171 19.8235 5.82977L20.8117 3.80951L21.7995 5.82977C21.9131 6.06201 22.1337 6.22284 22.3891 6.25977L24.6004 6.58081L22.9998 8.14056Z" fill="white"/>
<path d="M38.7 11.6492C38.6081 11.3663 38.3637 11.1603 38.0692 11.1176L35.7862 10.7858L34.7654 8.71674C34.6338 8.45001 34.3625 8.28125 34.065 8.28125C34.065 8.28125 34.065 8.28125 34.0647 8.28125C33.7674 8.28125 33.4958 8.45001 33.3643 8.71674L32.3429 10.7858L30.0596 11.1176C29.7654 11.1603 29.5209 11.3663 29.4291 11.6492C29.3369 11.9321 29.4135 12.2424 29.6265 12.45L31.2784 14.061L30.8884 16.3345C30.8384 16.6275 30.9586 16.9235 31.1994 17.0984C31.4399 17.2733 31.7588 17.2964 32.0218 17.1582L34.0647 16.0849L36.1069 17.1582C36.37 17.2964 36.6892 17.2733 36.9297 17.0984C37.1701 16.9238 37.2904 16.6275 37.2403 16.3345L36.8503 14.061L38.5025 12.45C38.7156 12.2424 38.7919 11.9321 38.7 11.6492ZM35.4657 13.2291C35.2814 13.4085 35.1975 13.667 35.2411 13.9203L35.4328 15.0385L34.4284 14.5108C34.2008 14.3912 33.9289 14.3912 33.7015 14.5108L32.6963 15.0388L32.8882 13.9203C32.9316 13.667 32.8476 13.4085 32.6636 13.2291L31.8506 12.4362L32.974 12.2733C33.2285 12.2363 33.4485 12.0764 33.5624 11.846L34.0647 10.8282L34.5667 11.8457C34.6805 12.0764 34.9006 12.2363 35.1551 12.2733L36.2784 12.4362L35.4657 13.2291Z" fill="white"/>
<path d="M12.1375 11.6492C12.0456 11.3663 11.8012 11.1603 11.5067 11.1176L9.22368 10.7858L8.20286 8.71674C8.07133 8.45001 7.80003 8.28125 7.50248 8.28125C7.20494 8.28125 6.93333 8.45001 6.8018 8.71674L5.78038 10.7858L3.49705 11.1176C3.20286 11.1603 2.95842 11.3663 2.86656 11.6492C2.7744 11.9321 2.851 12.2424 3.06401 12.45L4.71592 14.061L4.32622 16.3345C4.27586 16.6275 4.39641 16.9235 4.63688 17.0984C4.87736 17.2733 5.19627 17.2964 5.45964 17.1582L7.50218 16.0849L9.54442 17.1582C9.80931 17.2974 10.1279 17.2723 10.3672 17.0984C10.6076 16.9238 10.7282 16.6275 10.6778 16.3345L10.2878 14.061L11.94 12.45C12.1531 12.2424 12.2294 11.9321 12.1375 11.6492ZM8.90294 13.2291C8.71891 13.4085 8.63499 13.667 8.67833 13.9203L8.87028 15.0385L7.86564 14.5108C7.63829 14.3912 7.36638 14.3912 7.13902 14.5108L6.13347 15.0388L6.32542 13.9203C6.36906 13.667 6.28483 13.4085 6.10081 13.2291L5.28782 12.4362L6.41148 12.2733C6.66569 12.2363 6.88572 12.0764 6.99955 11.846L7.50187 10.8282L8.00389 11.8457C8.11772 12.0764 8.33775 12.2363 8.59227 12.2733L9.71562 12.4362L8.90294 13.2291Z" fill="white"/>
<path d="M24.2631 31.9604C23.9024 31.7233 23.4181 31.8237 23.1812 32.1844C22.9441 32.5448 23.0445 33.0291 23.4052 33.2663C24.1276 33.7408 24.705 34.4024 25.0749 35.1794C25.2598 35.5685 25.7255 35.7348 26.1158 35.549C26.5055 35.3637 26.6709 34.8974 26.4857 34.508C25.9931 33.4729 25.2244 32.5918 24.2631 31.9604Z" fill="white"/>
</g>
<defs>
<clipPath id="clip0_1_29864">
<rect width="40" height="40" fill="white" transform="translate(0.839844)"/>
</clipPath>
</defs>
</svg>
