<svg width="41" height="40" viewBox="0 0 41 40" fill="none" xmlns="http://www.w3.org/2000/svg">
<g clip-path="url(#clip0_1_29829)">
<path d="M39.5864 9.05709L35.6905 1.26115C35.5847 1.04936 35.3681 0.915527 35.1314 0.915527C34.8947 0.915527 34.6782 1.04936 34.5723 1.26115L30.6763 9.05709C30.5795 9.25084 30.5899 9.48084 30.7038 9.66514C30.8177 9.84935 31.0188 9.96146 31.2355 9.96146H32.3814V15.4386C32.3814 15.7837 32.6613 16.0636 33.0064 16.0636H37.2566C37.6017 16.0636 37.8816 15.7837 37.8816 15.4386V9.96146H39.0273C39.2439 9.96146 39.4451 9.84928 39.559 9.66514C39.6729 9.481 39.6832 9.25084 39.5864 9.05709ZM37.2565 8.71154C36.9113 8.71154 36.6315 8.99139 36.6315 9.33654V14.8137H33.6312V9.33654C33.6312 8.99139 33.3514 8.71154 33.0062 8.71154H32.2463L35.1313 2.93873L38.0163 8.71154H37.2565ZM29.3945 21.0348H25.1663C24.8211 21.0348 24.5413 21.3147 24.5413 21.6598V38.4594C24.5413 38.8046 24.8211 39.0844 25.1663 39.0844H29.3945C29.7397 39.0844 30.0195 38.8046 30.0195 38.4594V21.6598C30.0195 21.3147 29.7397 21.0348 29.3945 21.0348ZM28.7695 37.8344H25.7913V22.2848H28.7695V37.8344ZM37.2455 17.0426H33.0173C32.6721 17.0426 32.3923 17.3225 32.3923 17.6676V38.4594C32.3923 38.8046 32.6721 39.0844 33.0173 39.0844H37.2455C37.5906 39.0844 37.8705 38.8046 37.8705 38.4594V17.6676C37.8705 17.3225 37.5906 17.0426 37.2455 17.0426ZM36.6205 37.8344H33.6423V18.2926H36.6205V37.8344ZM5.75555 33.8832H1.52734C1.18219 33.8832 0.902344 34.163 0.902344 34.5082V38.4594C0.902344 38.8046 1.18219 39.0844 1.52734 39.0844H5.75547C6.10063 39.0844 6.38047 38.8046 6.38047 38.4594V34.5082C6.38055 34.163 6.1007 33.8832 5.75555 33.8832ZM5.13055 37.8344H2.15234V35.1332H5.13047L5.13055 37.8344ZM29.5582 10.0228C29.7199 9.861 29.7805 9.62373 29.7158 9.4042C29.6511 9.18467 29.4716 9.01811 29.248 8.9699L26.2905 8.33256L27.6898 6.93318C27.9339 6.68912 27.9339 6.29342 27.6898 6.04936C27.4456 5.80521 27.05 5.80529 26.8059 6.04936L25.4066 7.44865L24.7692 4.49115C24.721 4.26748 24.5544 4.08803 24.3348 4.02334C24.1156 3.95873 23.8781 4.01912 23.7163 4.18092L19.1106 8.78662C18.9605 8.9367 18.897 9.15271 18.9416 9.36021L19.749 13.1063L19.1834 13.6719C17.3113 12.007 14.8474 10.9939 12.151 10.9939C6.3093 10.9939 1.55672 15.7465 1.55672 21.5882C1.55672 26.2737 4.61437 30.2578 8.83898 31.6516V38.4594C8.83898 38.8045 9.11883 39.0844 9.46398 39.0844H13.6922C14.0373 39.0844 14.3172 38.8045 14.3172 38.4594V31.9594C15.1477 31.7862 15.9428 31.5153 16.6901 31.1594V38.4594C16.6901 38.8046 16.9699 39.0844 17.3151 39.0844H21.5434C21.8885 39.0844 22.1684 38.8046 22.1684 38.4594V26.0977C22.1684 25.9065 22.0823 25.7357 21.947 25.621C22.4609 24.3772 22.7453 23.0154 22.7453 21.5882C22.7453 18.8917 21.7322 16.4279 20.0673 14.5558L20.6328 13.9902L24.379 14.7976C24.4228 14.807 24.4669 14.8116 24.5107 14.8116C24.6747 14.8116 24.8342 14.747 24.9527 14.6286L29.5582 10.0228ZM20.2352 9.42967L23.7888 5.87592L24.3545 8.50053L20.8009 12.0543L20.2352 9.42967ZM13.0671 37.8344H10.0889V31.9804C10.7562 32.1126 11.4455 32.1825 12.151 32.1825C12.4597 32.1825 12.7651 32.1684 13.0672 32.1424V37.8344H13.0671ZM20.9184 37.8345H17.9401V30.4565C19.1152 29.6867 20.1291 28.6903 20.9184 27.5293V37.8345ZM21.4952 21.5882C21.4952 26.7407 17.3034 30.9325 12.151 30.9325C6.99852 30.9325 2.80672 26.7407 2.80672 21.5882C2.80672 16.4357 6.99852 12.2439 12.151 12.2439C14.5028 12.2439 16.6541 13.1176 18.2984 14.5569L16.6468 16.2085C15.4285 15.1887 13.8603 14.5738 12.151 14.5738C8.28328 14.5738 5.13664 17.7205 5.13664 21.5882C5.13664 25.4559 8.28328 28.6026 12.151 28.6026C16.0188 28.6026 19.1653 25.4559 19.1653 21.5882C19.1653 19.8789 18.5505 18.3107 17.5306 17.0924L19.1822 15.4408C20.6216 17.0851 21.4952 19.2364 21.4952 21.5882ZM14.1082 21.5882C14.1082 22.6674 13.2302 23.5455 12.151 23.5455C11.0718 23.5455 10.1938 22.6674 10.1938 21.5882C10.1938 20.509 11.0717 19.6309 12.151 19.6309C12.463 19.6309 12.758 19.7047 13.0201 19.8351L11.7091 21.1462C11.465 21.3903 11.465 21.786 11.7091 22.0301C11.8311 22.1521 11.991 22.2131 12.151 22.2131C12.311 22.2131 12.4709 22.1521 12.593 22.0301L13.904 20.719C14.0344 20.9812 14.1082 21.2762 14.1082 21.5882ZM13.9325 18.9228C13.4226 18.5808 12.8098 18.381 12.151 18.381C10.3825 18.381 8.94375 19.8197 8.94375 21.5883C8.94375 23.3568 10.3825 24.7955 12.151 24.7955C13.9195 24.7955 15.3582 23.3568 15.3582 21.5883C15.3582 20.9295 15.1584 20.3167 14.8164 19.8068L16.6423 17.9808C17.4378 18.9692 17.9153 20.2237 17.9153 21.5883C17.9153 24.7668 15.3295 27.3526 12.151 27.3526C8.97258 27.3526 6.38664 24.7667 6.38664 21.5883C6.38664 18.4098 8.97258 15.8239 12.151 15.8239C13.5155 15.8239 14.7701 16.3015 15.7584 17.0969L13.9325 18.9228ZM24.3095 13.5039L21.6848 12.9383L25.2385 9.38451L27.8632 9.95014L24.3095 13.5039Z" fill="white"/>
</g>
<defs>
<clipPath id="clip0_1_29829">
<rect width="40" height="40" fill="white" transform="translate(0.277344)"/>
</clipPath>
</defs>
</svg>
