<svg width="59" height="62" viewBox="0 0 59 62" fill="none" xmlns="http://www.w3.org/2000/svg">
<path d="M40.5314 43.9509C39.1312 43.094 37.5742 42.5506 35.9127 42.3103L30.3326 41.537V39.4262C31.1163 38.9246 31.8582 38.3394 32.5375 37.6706C34.3685 35.8804 35.6486 33.6031 36.2262 31.1083H36.6024C37.7205 31.1083 38.7654 30.6694 39.5596 29.8857C40.3538 29.0915 40.7822 28.0465 40.7822 26.9284C40.7822 24.6191 38.9117 22.7486 36.6024 22.7486V21.7036H37.6055C38.7759 21.7036 39.7372 20.7527 39.7372 19.5719V17.5551C39.7372 16.3848 38.7863 15.4234 37.6055 15.4234H36.6024C36.6024 9.75972 32.4434 4.97379 26.9574 4.07512L27.0619 3.11376C27.1246 2.52858 26.9365 1.93295 26.5394 1.49407C26.1423 1.05519 25.578 0.793945 24.9824 0.793945H21.0429C20.4473 0.793945 19.883 1.04474 19.4859 1.49407C19.0888 1.93295 18.9007 2.52858 18.9634 3.11376L19.0679 4.07512C13.5819 4.97379 9.42292 9.75972 9.42292 15.4234H8.41975C7.2494 15.4234 6.28803 16.3743 6.28803 17.5551V19.5719C6.28803 20.7423 7.23895 21.7036 8.41975 21.7036H9.42292V22.7486C7.11355 22.7486 5.24307 24.6191 5.24307 26.9284C5.24307 28.0465 5.68195 29.0915 6.46567 29.8857C7.25985 30.6798 8.30481 31.1083 9.42292 31.1083H9.89315C10.7709 34.5253 12.8817 37.4407 15.6927 39.3217V41.5265L10.1126 42.2998C8.44065 42.5297 6.89411 43.0835 5.49386 43.93C3.81948 44.9371 2.43426 46.3605 1.47292 48.0616C0.511586 49.7627 0.00685187 51.6837 0.00781387 53.6377V60.3672C0.00781387 60.9419 0.478046 61.4122 1.05278 61.4122H44.9412C45.5159 61.4122 45.9861 60.9419 45.9861 60.3672V53.6377C45.9861 49.6877 43.8857 45.9781 40.5105 43.9404L40.5314 43.9509ZM12.5682 50.973V49.928H13.6132C14.1879 49.928 14.6582 49.4578 14.6582 48.8831V43.7941L15.7031 43.6478C15.7345 45.3302 16.5704 46.8872 17.9811 47.8277C19.4705 48.8228 21.2215 49.3539 23.0126 49.3539C24.8038 49.3539 26.5548 48.8228 28.0441 47.8277C29.4548 46.8872 30.2908 45.3302 30.3221 43.6478L31.3671 43.7941V48.8831C31.3671 49.4578 31.8373 49.928 32.4121 49.928H33.457V50.973H12.5578H12.5682ZM10.4783 47.8381V44.3688L12.5682 44.0763V47.8381H10.4783ZM33.4675 47.8381V44.0763L35.5574 44.3688V47.8381H33.4675ZM38.6923 26.9389C38.6923 27.4927 38.4728 28.0152 38.0758 28.4123C37.6787 28.8094 37.1562 29.0288 36.6024 29.0288H36.5501C36.5815 28.684 36.6024 28.3391 36.6024 27.9838V24.849C37.7518 24.849 38.6923 25.7894 38.6923 26.9389ZM24.9824 2.90477L24.1673 10.2195H21.858L21.0429 2.90477H24.9824ZM14.5641 8.53711L14.6686 9.31038C14.7418 9.83286 15.1911 10.2195 15.7031 10.2195H15.839C16.4137 10.1464 16.8108 9.62387 16.7376 9.04914L16.4973 7.16821C17.3646 6.69798 18.3051 6.36359 19.3187 6.18595L19.7889 10.4598C19.9039 11.5153 20.8025 12.3199 21.8684 12.3199H24.1778C25.2436 12.3199 26.1423 11.5257 26.2572 10.4598L26.7275 6.18595C27.7306 6.36359 28.6816 6.69798 29.5489 7.16821L29.3085 9.04914C29.2354 9.62387 29.6325 10.1464 30.2072 10.2195H30.343C30.8551 10.2195 31.3044 9.83286 31.3776 9.31038L31.482 8.53711C32.4394 9.41523 33.204 10.4826 33.7275 11.6715C34.2509 12.8605 34.5218 14.1452 34.5229 15.4443H11.5233C11.5233 12.7274 12.6936 10.2613 14.5641 8.53711ZM8.3884 19.5928L8.4302 17.5447L37.6473 17.5865V19.6033C37.6473 19.6033 37.6264 19.6451 37.6055 19.6451L8.3884 19.6033V19.5928ZM9.43336 29.0393C8.87954 29.0393 8.35705 28.8198 7.95997 28.4227C7.56288 28.0256 7.34344 27.5032 7.34344 26.9493C7.34344 25.7999 8.28391 24.8594 9.43336 24.8594V27.5763C9.43336 28.0674 9.46471 28.5586 9.50651 29.0393H9.43336ZM11.5233 27.5763V21.7245H34.5124V27.9943C34.5124 31.1083 33.2898 34.0133 31.0745 36.1972C28.8592 38.3708 25.9333 39.5307 22.8089 39.4889C16.5913 39.3739 11.5233 34.0342 11.5233 27.5763ZM22.7671 41.5788H23.0179C24.8361 41.5788 26.6021 41.2235 28.2427 40.5338V43.5642C28.2427 44.5778 27.7411 45.5288 26.8947 46.093C24.5958 47.6291 21.4504 47.6291 19.1515 46.093C18.3051 45.5288 17.7931 44.5778 17.7931 43.5642V40.4711C19.3291 41.1399 21.0115 41.537 22.7671 41.5683V41.5788ZM2.11864 53.6586C2.11864 52.0702 2.52617 50.4923 3.30989 49.113C4.09695 47.7258 5.22668 46.5637 6.59107 45.7377C7.15535 45.3929 7.76143 45.1108 8.3884 44.8809V48.8831C8.3884 49.4578 8.85864 49.928 9.43336 49.928H10.4783V50.973H9.43336C8.28391 50.973 7.34344 51.9135 7.34344 53.0629V59.3327H2.11864V53.6481V53.6586ZM9.43336 59.3431V53.0734H36.6024V59.3431H9.43336ZM43.9171 59.3431H38.6923V53.0734C38.6923 51.9239 37.7518 50.9834 36.6024 50.9834H35.5574V49.9385H36.6024C37.1771 49.9385 37.6473 49.4683 37.6473 48.8935V44.8913C38.2743 45.1108 38.8804 45.4034 39.4447 45.7482C40.8056 46.5729 41.9317 47.7335 42.7149 49.1187C43.4981 50.504 43.9121 52.0673 43.9171 53.6586V59.3431ZM12.5682 55.1633C12.5682 55.738 12.098 56.2083 11.5233 56.2083C10.9486 56.2083 10.4783 55.738 10.4783 55.1633C10.4783 54.5886 10.9486 54.1183 11.5233 54.1183C12.098 54.1183 12.5682 54.5886 12.5682 55.1633ZM35.5574 55.1633C35.5574 55.738 35.0872 56.2083 34.5124 56.2083C33.9377 56.2083 33.4675 55.738 33.4675 55.1633C33.4675 54.5886 33.9377 54.1183 34.5124 54.1183C35.0872 54.1183 35.5574 54.5886 35.5574 55.1633ZM58.2331 30.9097C58.045 30.5753 57.7001 30.3664 57.3135 30.3664H52.3499L55.3908 24.2742C55.5475 23.9503 55.5371 23.5637 55.349 23.2606C55.1609 22.9576 54.8265 22.7695 54.4607 22.7695H48.7657C48.3582 22.7695 47.9924 23.0098 47.8148 23.3756L42.1198 35.727C41.9735 36.0509 41.9944 36.4271 42.1929 36.7302C42.381 37.0332 42.7154 37.2109 43.0707 37.2109H49.3718L47.7521 44.4838C47.6371 44.9749 47.8984 45.4765 48.3686 45.675C48.494 45.7273 48.6403 45.7586 48.7657 45.7586C49.1105 45.7586 49.4449 45.581 49.6435 45.278L58.1913 31.9756C58.4003 31.6517 58.4107 31.2441 58.2331 30.9097ZM51.0542 39.2172L51.6812 36.3958C51.7543 36.0823 51.6811 35.7584 51.4722 35.518C51.3743 35.3962 51.2502 35.2981 51.109 35.2312C50.9678 35.1642 50.8133 35.1301 50.6571 35.1314H44.6904L49.424 24.8699H52.7679L49.7271 30.962C49.5703 31.2859 49.5808 31.6726 49.7689 31.9756C49.957 32.2786 50.2914 32.4667 50.6571 32.4667H55.3908L51.0437 39.2276L51.0542 39.2172Z" fill="#C90F16"/>
</svg>
