<svg width="61" height="61" viewBox="0 0 61 61" fill="none" xmlns="http://www.w3.org/2000/svg">
<g clip-path="url(#clip0_1_34641)">
<path d="M0.437438 5.50918L4.44289 12.5182C4.50978 12.6354 4.59969 12.7379 4.7072 12.8194C4.81472 12.901 4.93762 12.9599 5.06851 12.9927L8.80538 13.927L21.6219 26.7434L23.038 25.3276L10.0209 12.311C9.89283 12.1826 9.73221 12.0914 9.55628 12.0474L5.96577 11.1465L2.55557 5.17555L5.47923 2.25178L11.4527 5.66535L12.3539 9.25586C12.3977 9.43205 12.4887 9.59297 12.6171 9.72131L25.6343 22.7385L27.0499 21.3223L14.2335 8.50581L13.2993 4.77105C13.2665 4.63998 13.2075 4.51689 13.126 4.40916C13.0445 4.30144 12.942 4.2113 12.8247 4.14416L5.81529 0.139131C5.62496 0.0309321 5.40442 -0.0119061 5.18742 0.0171752C4.97043 0.0462564 4.76894 0.145654 4.61382 0.30015L0.608897 4.3056C0.452227 4.45962 0.350564 4.66089 0.319579 4.87839C0.288595 5.09589 0.330009 5.31754 0.437438 5.50918ZM42.0669 19.734L20.0385 41.7627L18.6223 40.3465L40.6511 18.3184L42.0669 19.734ZM16.1831 42.542C16.0941 42.3939 15.9682 42.2713 15.8178 42.1862C15.6674 42.1011 15.4974 42.0564 15.3246 42.0565H9.31691C9.14415 42.0564 8.97432 42.1011 8.82397 42.1862C8.67362 42.2713 8.54788 42.3939 8.45898 42.542L5.45487 47.5484C5.36129 47.7041 5.31185 47.8824 5.31185 48.0641C5.31185 48.2458 5.36129 48.4241 5.45487 48.5798L8.45898 53.5862C8.54795 53.7342 8.67371 53.8568 8.82404 53.9419C8.97438 54.027 9.14417 54.0717 9.31691 54.0718H15.3246C15.4974 54.0717 15.6673 54.027 15.8177 53.9419C15.9681 53.8568 16.0939 53.7343 16.183 53.5862L19.1866 48.5798C19.2802 48.4241 19.3297 48.2458 19.3297 48.0641C19.3297 47.8824 19.2802 47.7041 19.1866 47.5484L16.1831 42.542ZM14.7582 52.0691H9.88369L7.48064 48.0643L9.8838 44.0588H14.7582L17.1613 48.0643L14.7582 52.0691Z" fill="#C90F16"/>
<path d="M48.3679 24.0331C54.981 24.0553 60.3605 18.7122 60.3826 12.0989C60.386 11.0924 60.2624 10.0894 60.0149 9.11384C59.8814 8.57711 59.3382 8.25043 58.8014 8.38393C58.6254 8.42798 58.4645 8.51893 58.336 8.64713L52.103 14.8759L47.1576 13.2279L45.5084 8.28386L51.7414 2.04966C51.8669 1.92409 51.9567 1.76742 52.0018 1.59568C52.0468 1.42395 52.0453 1.24334 51.9975 1.07235C51.9497 0.901371 51.8574 0.746169 51.7298 0.622653C51.6023 0.499136 51.4442 0.411749 51.2718 0.369446C44.8585 -1.25467 38.3432 2.62751 36.7191 9.04045C36.4724 10.0134 36.3492 11.0135 36.3525 12.0172C36.355 12.8057 36.4361 13.5916 36.596 14.3635L14.6673 36.2919C13.8954 36.1327 13.1096 36.0512 12.3215 36.0485C5.68521 36.0485 0.305664 41.4279 0.305664 48.0643C0.305664 54.7001 5.68521 60.0796 12.3215 60.0796C18.9573 60.0796 24.3368 54.7 24.3368 48.0643C24.3343 47.276 24.2527 46.49 24.0933 45.7181L29.3431 40.4682L31.6391 42.7642C31.8269 42.952 32.0816 43.0574 32.3471 43.0574C32.6127 43.0574 32.8674 42.952 33.0552 42.7642L33.5557 42.2634C33.9948 41.8271 34.7044 41.8271 35.1435 42.2634C35.5822 42.7008 35.583 43.411 35.1456 43.8496L35.1435 43.8517L34.6431 44.3521C34.2522 44.743 34.2522 45.377 34.6431 45.7678L46.5876 57.7123C49.7292 60.8827 54.8459 60.9058 58.0163 57.7641C61.1864 54.6225 61.2095 49.5054 58.0678 46.3353C58.051 46.3181 58.0337 46.3008 58.0163 46.2835L46.072 34.3394C45.6811 33.9485 45.0471 33.9485 44.6562 34.3394L44.1558 34.8398C43.7162 35.2765 43.007 35.2765 42.5675 34.8398C42.1291 34.4024 42.128 33.6923 42.5654 33.254C42.5662 33.2532 42.5671 33.2528 42.5675 33.2519L43.0684 32.751C43.4593 32.3602 43.4593 31.7262 43.0684 31.3353L40.7723 29.0394L46.0221 23.7896C46.7939 23.949 47.5798 24.0306 48.368 24.0332L48.3679 24.0331ZM52.3019 58.0772C51.5746 58.076 50.8533 57.9445 50.1724 57.6887L57.9924 49.8683C59.1725 53.0075 57.5847 56.5087 54.4455 57.6887C53.7602 57.9464 53.034 58.078 52.3019 58.0772ZM40.9585 32.0533C39.8496 33.376 40.0234 35.3473 41.3461 36.4558C42.5084 37.4299 44.2027 37.4291 45.3638 36.4529L56.6006 47.6996C56.7225 47.822 56.8366 47.9508 56.947 48.0819L48.3859 56.6429C48.2533 56.5331 48.1256 56.4176 48.0032 56.2965L36.7578 45.0503C37.8667 43.7276 37.6928 41.7562 36.3702 40.6478C35.2078 39.6731 33.5132 39.6745 32.3521 40.6502L30.7501 39.0484L39.3562 30.4551L40.9585 32.0533ZM45.0018 21.9826L22.2871 44.6927C22.1646 44.815 22.0759 44.9669 22.0296 45.1336C21.9833 45.3003 21.9809 45.4762 22.0226 45.6441C23.3963 51.0389 20.1365 56.526 14.7413 57.8993C9.34658 59.2729 3.85958 56.0131 2.4858 50.6179C1.11255 45.2232 4.37227 39.7362 9.76753 38.3625C11.3995 37.9473 13.1094 37.9473 14.7413 38.3625C14.9092 38.4036 15.0849 38.4009 15.2515 38.3547C15.4181 38.3084 15.57 38.2202 15.6928 38.0985L38.4021 15.388C38.5244 15.2657 38.613 15.1138 38.6591 14.9471C38.7052 14.7804 38.7073 14.6046 38.6653 14.4369C37.301 9.10519 40.5172 3.67704 45.8489 2.31243C46.8566 2.05475 47.8984 1.95634 48.9366 2.02076L43.6547 7.30477C43.5232 7.4361 43.4309 7.60146 43.3881 7.78231C43.3453 7.96316 43.3537 8.15235 43.4124 8.32867L45.4148 14.3368C45.4642 14.4842 45.5471 14.6181 45.6571 14.7279C45.7671 14.8377 45.9012 14.9204 46.0487 14.9695L52.0568 16.9722C52.233 17.0309 52.4221 17.0394 52.603 16.9968C52.7838 16.9541 52.9492 16.862 53.0807 16.7308L58.3626 11.4489C58.3746 11.6381 58.3807 11.8276 58.3808 12.0172C58.4088 17.5192 53.9717 22.0019 48.4698 22.0304C47.6193 22.0345 46.7717 21.9299 45.9477 21.719C45.7799 21.677 45.6041 21.6792 45.4374 21.7253C45.2706 21.7714 45.1187 21.8599 44.9963 21.9822H45.0016L45.0018 21.9826Z" fill="#C90F16"/>
<path d="M52.081 50.3598L50.6649 51.776L40.6523 41.7633L42.068 40.3472L52.081 50.3598Z" fill="#C90F16"/>
</g>
<defs>
<clipPath id="clip0_1_34641">
<rect width="60" height="60.0579" fill="white" transform="translate(0.277344)"/>
</clipPath>
</defs>
</svg>
