<svg width="61" height="61" viewBox="0 0 61 61" fill="none" xmlns="http://www.w3.org/2000/svg">
<path d="M47.7986 48.7388C47.2881 48.3486 46.5586 48.4465 46.1687 48.9566C45.7787 49.4668 45.8762 50.1965 46.3864 50.5865L48.3734 52.1051C48.5835 52.2656 48.8319 52.344 49.0789 52.344C49.3969 52.344 49.7127 52.214 49.9412 51.9618L53.7391 47.7684C54.1701 47.2924 54.1338 46.5571 53.6578 46.1261C53.1819 45.6951 52.4465 45.7315 52.0155 46.2074L48.9357 49.608L47.7986 48.7388Z" fill="#C90F16"/>
<path d="M60.1432 42.5321C60.1299 41.9392 59.6726 41.4516 59.0821 41.3999C56.3161 41.1582 52.9124 39.3002 50.4104 36.6668C50.1909 36.4359 49.8864 36.3051 49.5678 36.305C49.5677 36.305 49.5675 36.305 49.5674 36.305C49.2491 36.305 48.9446 36.4355 48.725 36.6662C47.602 37.8467 46.2984 38.8707 44.9531 39.6638C42.5926 37.0286 39.6872 35.0871 36.282 33.865C36.2523 33.8531 36.2223 33.8424 36.1916 33.8328C35.9264 33.7389 35.6581 33.6492 35.3868 33.5639C38.2666 30.6918 40.2037 26.9174 40.2037 23.5315V21.7047C41.565 21.112 42.5197 19.7532 42.5197 18.1751C42.5197 16.5358 41.4879 15.1337 40.04 14.582C39.4423 8.77996 35.3546 3.90264 29.7395 2.28903C29.5736 1.49874 28.8715 0.90332 28.0327 0.90332H23.8194C23.0104 0.90332 22.3303 1.4577 22.134 2.20613C19.372 2.94271 16.8492 4.51492 14.9577 6.70081C13.0378 8.91949 11.844 11.6902 11.5407 14.5826C10.0921 15.1346 9.05998 16.5364 9.05998 18.1752C9.05998 19.7539 10.0161 21.113 11.3792 21.7054V23.5316C11.3792 26.9144 13.3167 30.6901 16.1963 33.5642C15.933 33.647 15.6722 33.7336 15.4144 33.8246C15.3637 33.839 15.3144 33.8568 15.2664 33.8778C11.455 35.2527 8.27306 37.5286 5.78115 40.6715C3.38458 43.6943 1.68086 47.4272 0.717442 51.7673C0.37456 53.3184 0.116672 55.2676 1.17427 56.5844C2.20734 57.8707 4.05581 58.0356 5.55093 58.0356H13.1568C13.7989 58.0356 14.3195 57.515 14.3195 56.8729C14.3195 56.2309 13.7989 55.7102 13.1568 55.7102H5.55093C4.15999 55.7102 3.29749 55.5144 2.9874 55.1283C2.65893 54.7192 2.65916 53.7573 2.98774 52.2702C4.19615 46.8274 7.15082 40.1668 14.2697 36.8039C14.0508 40.7319 16.1791 43.2994 17.5319 44.9289C17.739 45.1784 18.0408 45.33 18.3647 45.3473C18.6882 45.3652 19.0047 45.246 19.2372 45.0199L25.7899 38.6474L32.3459 45.0202C32.5634 45.2315 32.8543 45.3491 33.1563 45.3491C33.1771 45.3491 33.1979 45.3485 33.2189 45.3473C33.5428 45.3299 33.8447 45.1779 34.0517 44.9281C35.4026 43.2971 37.5278 40.7281 37.3109 36.8084C39.3762 37.7881 41.2009 39.0984 42.7701 40.7306C41.8331 41.0932 40.9118 41.325 40.0526 41.4001C39.4625 41.4516 39.0054 41.9389 38.9916 42.5313C38.8942 46.6883 39.5871 49.6666 41.4616 53.1525C41.4774 53.182 42.1109 54.3175 43.0979 55.7104H23.6831C23.041 55.7104 22.5204 56.2311 22.5204 56.8731C22.5204 57.5152 23.041 58.0359 23.6831 58.0359H44.9445C46.3463 59.585 47.9995 60.9035 49.5673 60.9035C53.3498 60.9035 57.6314 53.23 57.6725 53.1533C59.544 49.6668 60.2367 46.689 60.1432 42.5321ZM37.6667 14.331H31.265C30.0556 11.1715 29.8267 8.56626 29.7857 4.74177C33.9795 6.22503 37.0282 9.92546 37.6667 14.331ZM24.4002 3.22873H27.4518C27.4591 7.72934 27.5732 10.7775 28.7916 14.331H23.0627C24.279 10.7774 24.393 7.72888 24.4002 3.22873ZM22.0674 4.65003C22.0291 8.52487 21.8067 11.1462 20.5899 14.3311H13.9157C14.5789 9.86826 17.787 6.06748 22.0674 4.65003ZM12.9075 16.6564H20.6858C20.7543 16.712 20.8205 16.719 20.8761 16.6564H38.6754C39.5129 16.6564 40.1943 17.3376 40.1943 18.1752C40.1943 19.0146 39.513 19.6974 38.6754 19.6974H12.9075C12.0683 19.6974 11.3854 19.0146 11.3854 18.1752C11.3854 17.3377 12.0681 16.6564 12.9075 16.6564ZM13.7046 23.5316V22.0227H37.8782V23.5316C37.8782 27.9645 33.5836 33.447 28.6876 35.2645C26.5454 36.0606 25.0244 36.0599 22.8771 35.2619C17.9909 33.437 13.7046 27.9555 13.7046 23.5316ZM18.5301 42.4637C17.3267 40.8927 16.168 38.83 16.7249 35.8359C17.2378 35.6704 17.7677 35.5193 18.3172 35.3857C19.4897 36.2459 20.7543 36.9514 22.0652 37.441C22.4872 37.5978 22.8932 37.727 23.2904 37.8344L18.5301 42.4637ZM33.0516 42.463L28.2885 37.833C28.6806 37.7266 29.0812 37.5991 29.4972 37.4444C30.8147 36.9554 32.0854 36.2485 33.2634 35.3855C33.8061 35.5176 34.3369 35.6672 34.8548 35.8349C35.413 38.8248 34.2547 40.8895 33.0516 42.463ZM55.6233 52.0541C54.2483 54.6203 51.0281 58.5779 49.5673 58.5779C48.1065 58.5779 44.8864 54.6203 43.5105 52.0524C41.974 49.1954 41.3435 46.8129 41.3093 43.569C42.5636 43.3303 43.8695 42.8622 45.1536 42.2085C45.1987 42.1888 45.2426 42.1657 45.2858 42.1399C46.7852 41.3605 48.2516 40.3291 49.5668 39.1033C52.0432 41.4136 55.058 43.0429 57.8244 43.5691C57.7878 46.8135 57.1573 49.1965 55.6233 52.0541Z" fill="#C90F16"/>
<path d="M18.4205 55.71C17.7784 55.71 17.2578 56.2306 17.2578 56.8727C17.2578 57.5147 17.7784 58.0354 18.4205 58.0354H18.4271C19.0693 58.0354 19.5865 57.5147 19.5865 56.8727C19.5865 56.2306 19.0627 55.71 18.4205 55.71Z" fill="#C90F16"/>
</svg>
