<svg width="61" height="61" viewBox="0 0 61 61" fill="none" xmlns="http://www.w3.org/2000/svg">
<path d="M25.6014 53.4147C25.6014 54.8138 26.7398 55.9521 28.1389 55.9521H32.4158C33.8149 55.9521 34.9532 54.8138 34.9532 53.4147C34.9532 52.0156 33.8149 50.8772 32.4158 50.8772H28.1389C26.7397 50.8771 25.6014 52.0155 25.6014 53.4147ZM33.0782 53.4147C33.0782 53.7737 32.7748 54.0771 32.4158 54.0771H28.1389C27.7798 54.0771 27.4764 53.7737 27.4764 53.4147C27.4764 53.0494 27.7736 52.7522 28.1389 52.7522H32.4158C32.7811 52.7521 33.0782 53.0493 33.0782 53.4147ZM58.4023 10.5402H46.5929V5.21395C46.5929 3.35395 45.0797 1.84082 43.2197 1.84082H38.9538C38.9518 1.84082 38.9499 1.84082 38.9479 1.84082H21.6062C21.6045 1.84082 21.6029 1.84082 21.6012 1.84082H17.335C15.475 1.84082 13.9618 3.35395 13.9618 5.21395V19.817C13.8042 19.9848 13.7069 20.21 13.7069 20.4583V24.9297C13.7069 27.5922 11.6076 29.0721 9.38516 30.6389C9.05375 30.8725 8.71379 31.1126 8.38144 31.3565H2.15234C1.63461 31.3565 1.21484 31.7763 1.21484 32.294V47.023C1.21484 47.5408 1.63461 47.9605 2.15234 47.9605H8.32379C10.1149 49.5693 11.9145 50.1743 13.9618 50.2572V56.5926C13.9618 58.4526 15.475 59.9657 17.335 59.9657H43.2198C45.0798 59.9657 46.5929 58.4526 46.5929 56.5926V27.9503H58.4023C58.9201 27.9503 59.3398 27.5305 59.3398 27.0128V11.4777C59.3398 10.96 58.9201 10.5402 58.4023 10.5402ZM37.6497 3.71582L37.0829 5.46039H23.4717L22.9048 3.71582H37.6497ZM15.5819 24.9297V21.4956C17.5735 21.9268 19.0701 23.7021 19.0701 25.8205V29.218C18.9807 29.7448 18.616 30.5972 17.8571 31.3566C17.5382 31.6757 17.4918 32.1767 17.7468 32.549C18.3816 33.4757 18.5968 34.3348 18.4048 35.1756C18.033 36.8039 16.2 38.0095 15.4291 38.4521C14.98 38.7099 14.8251 39.2829 15.0829 39.732C15.2563 40.0338 15.5721 40.2027 15.8968 40.2027C16.0552 40.2027 16.2157 40.1625 16.3629 40.0782C16.7778 39.8398 17.2971 39.5075 17.8223 39.0843C18.0598 39.6776 18.4773 40.1801 19.007 40.5238C18.6875 41.0078 18.5014 41.5873 18.5014 42.2095C18.5015 43.0368 18.8306 43.7887 19.3648 44.341C18.8076 44.9171 18.5014 45.6715 18.5015 46.4711C18.5015 46.9886 18.6308 47.4762 18.858 47.9043C17.355 48.1586 16.0802 48.3487 14.9523 48.3934C14.9347 48.3925 14.9172 48.3907 14.8994 48.3907C14.8607 48.3907 14.823 48.3938 14.7855 48.3984C12.7704 48.4529 11.2175 48.0193 9.63219 46.6161C9.63277 46.4789 9.63324 46.3083 9.63359 46.1029C9.63477 45.4884 9.63535 44.567 9.63535 43.3388C9.63535 40.9634 9.63312 37.4396 9.62855 32.7674C9.89926 32.5709 10.1766 32.375 10.4655 32.1713C12.8636 30.4807 15.5819 28.5645 15.5819 24.9297ZM21.5697 47.6644C21.449 47.6644 21.3327 47.6461 21.2229 47.6126C21.2186 47.6112 21.2143 47.6102 21.2101 47.6087C20.7273 47.4558 20.3764 47.0037 20.3764 46.4709C20.3764 46.1546 20.5011 45.8555 20.7277 45.6289C20.9544 45.4022 21.2534 45.2775 21.5698 45.2775H21.5729L22.2774 45.2752L25.0089 45.2775H25.0098C25.6678 45.2775 26.2031 45.8129 26.2031 46.4711C26.2031 47.129 25.6678 47.6644 25.0096 47.6644H21.5697ZM25.0105 43.4027L22.2751 43.4003L21.5696 43.4027C20.9117 43.4025 20.3763 42.8672 20.3763 42.2093C20.3763 41.5512 20.9117 41.0158 21.5698 41.0158H26.2807C26.9387 41.0158 27.474 41.5511 27.474 42.2092C27.474 42.8673 26.9387 43.4027 26.2807 43.4027H25.0105ZM26.2807 39.1409H21.5698H20.6722C20.0141 39.1409 19.4788 38.6056 19.4788 37.9476C19.4788 37.2895 20.0141 36.754 20.6722 36.754H21.5698H26.8783H27.776C28.4341 36.754 28.9695 37.2895 28.9695 37.9476C28.9695 38.6055 28.4341 39.1409 27.776 39.1409H26.2807ZM26.8782 34.8791H21.5697C20.9117 34.8791 20.3763 34.3438 20.3763 33.6857C20.3763 33.3693 20.501 33.0702 20.7276 32.8436C20.9541 32.6171 21.2531 32.4924 21.5695 32.4924H21.5696H26.8782C27.5362 32.4924 28.0715 33.0277 28.0715 33.6857C28.0715 34.3437 27.5362 34.8791 26.8782 34.8791ZM3.08984 33.2315H7.75309V46.0855H3.08984V33.2315ZM44.7179 56.5927C44.7179 57.4188 44.0458 58.0908 43.2198 58.0908H17.335C16.509 58.0908 15.8368 57.4188 15.8368 56.5927V50.2077C17.2105 50.0946 18.7064 49.8354 20.3817 49.5449L20.8759 49.4595C21.099 49.5113 21.3311 49.5396 21.5697 49.5396H25.0096C26.7016 49.5396 28.0781 48.1633 28.0781 46.4713C28.0781 45.916 27.9297 45.3945 27.6706 44.9446C28.6659 44.4367 29.349 43.4014 29.349 42.2095C29.349 41.6882 29.2183 41.1968 28.988 40.7665C30.0789 40.2957 30.8444 39.2096 30.8444 37.9478C30.8444 36.8692 30.285 35.9189 29.4411 35.3716C29.7605 34.8875 29.9465 34.3081 29.9465 33.6859C29.9465 31.994 28.57 30.6176 26.8782 30.6176H21.5697C21.5696 30.6176 21.5696 30.6176 21.5694 30.6176C21.1988 30.6176 20.8382 30.6841 20.5004 30.8102C20.7429 30.2915 20.8825 29.8064 20.9361 29.4175C20.942 29.3751 20.9449 29.3322 20.9449 29.2894V25.8208C20.9449 22.7547 18.7425 20.1946 15.8367 19.6355V5.21395C15.8367 4.38789 16.5087 3.71582 17.3349 3.71582H20.9333L21.8989 6.68758C22.0244 7.07383 22.3844 7.33527 22.7905 7.33527H37.7639C38.17 7.33527 38.53 7.07383 38.6554 6.68746L39.6212 3.71582H43.2197C44.0457 3.71582 44.7178 4.38789 44.7178 5.21395V10.5402H26.8865C26.3688 10.5402 25.949 10.96 25.949 11.4777V27.0127C25.949 27.5304 26.3688 27.9502 26.8865 27.9502H44.7178V56.5927H44.7179ZM57.4648 26.0753H27.8241V12.4152H57.4648V26.0753ZM30.3973 14.1647C30.3973 14.6879 29.9914 15.1135 29.4923 15.1135C28.9746 15.1135 28.5548 15.5332 28.5548 16.051V22.4398C28.5548 22.9575 28.9746 23.3773 29.4923 23.3773C29.9913 23.3773 30.3973 23.8029 30.3973 24.3261C30.3973 24.8438 30.8171 25.2636 31.3348 25.2636H53.954C54.4718 25.2636 54.8915 24.8438 54.8915 24.3261C54.8915 23.8029 55.2975 23.3773 55.7966 23.3773C56.3143 23.3773 56.7341 22.9575 56.7341 22.4398V16.051C56.7341 15.5332 56.3143 15.1135 55.7966 15.1135C55.2975 15.1135 54.8915 14.6879 54.8915 14.1647C54.8915 13.647 54.4718 13.2272 53.954 13.2272H31.3348C30.8171 13.2272 30.3973 13.647 30.3973 14.1647ZM32.115 15.1022H53.1741C53.4519 15.9014 54.0743 16.5368 54.8592 16.8232V21.6675C54.0743 21.9538 53.4519 22.5892 53.1741 23.3886H32.115C31.8372 22.5893 31.2148 21.9539 30.4299 21.6675V16.8232C31.2148 16.5368 31.8372 15.9014 32.115 15.1022ZM32.7307 19.2455C32.7307 18.7278 33.1504 18.308 33.6682 18.308H36.446C36.9637 18.308 37.3835 18.7278 37.3835 19.2455C37.3835 19.7632 36.9637 20.183 36.446 20.183H33.6682C33.1503 20.183 32.7307 19.7632 32.7307 19.2455ZM47.9053 19.2455C47.9053 18.7278 48.325 18.308 48.8428 18.308H51.6206C52.1383 18.308 52.5581 18.7278 52.5581 19.2455C52.5581 19.7632 52.1383 20.183 51.6206 20.183H48.8428C48.325 20.183 47.9053 19.7632 47.9053 19.2455ZM40.2165 20.7452C40.4073 21.5109 40.9671 22.0892 41.7137 22.3524C41.769 22.8174 42.1647 23.178 42.6445 23.178C43.1182 23.178 43.5098 22.8266 43.5731 22.3704C44.0095 22.2333 44.3882 21.9999 44.6527 21.694C44.9972 21.2959 45.1508 20.7796 45.0853 20.2404C45.0252 19.745 44.7889 19.1574 44.098 18.7432C44.1996 18.7367 44.3018 18.7135 44.4009 18.6719C44.8783 18.4715 45.1027 17.922 44.9023 17.4446C44.6434 16.8276 44.1621 16.3758 43.5765 16.1474C43.5253 15.678 43.1275 15.3127 42.6445 15.3127C42.1577 15.3127 41.7576 15.6837 41.7114 16.1583C40.8396 16.497 40.3034 17.2702 40.3475 18.1773C40.3664 18.5662 40.5021 19.1406 41.0625 19.5831C41.0083 19.5868 40.9537 19.5953 40.8992 19.6089C40.397 19.7341 40.0912 20.2429 40.2165 20.7452ZM42.4931 17.875C42.5451 17.8628 43.006 17.7713 43.1736 18.1703C43.2126 18.2634 43.2649 18.3468 43.3273 18.4193C43.1662 18.3735 42.9911 18.3344 42.8006 18.3032C42.3421 18.228 42.2266 18.1097 42.2231 18.1097C42.2226 18.1081 42.221 18.1009 42.2204 18.0866C42.2135 17.9457 42.4463 17.8855 42.4931 17.875ZM42.497 20.1535C42.7084 20.1882 43.2023 20.288 43.224 20.4664C43.2246 20.4708 43.2249 20.4747 43.2252 20.478C43.1642 20.536 42.9538 20.6274 42.684 20.6338C42.4757 20.6413 42.1058 20.5725 42.0358 20.2919C42.0111 20.1924 41.9712 20.1007 41.9196 20.0186C42.0927 20.0729 42.2845 20.1186 42.497 20.1535Z" fill="#C90F16"/>
</svg>
