<svg width="61" height="61" viewBox="0 0 61 61" fill="none" xmlns="http://www.w3.org/2000/svg">
<path fill-rule="evenodd" clip-rule="evenodd" d="M36.5215 37.7819C36.6596 38.1026 36.9646 38.32 37.3128 38.3459C37.3363 38.3477 37.3595 38.3485 37.3828 38.3485C37.7053 38.3485 38.0074 38.1822 38.1792 37.9053L40.4506 34.2449L44.6708 35.1092C45.0133 35.179 45.3657 35.0533 45.5862 34.7825C45.8066 34.5117 45.8581 34.1407 45.7201 33.8199L42.5859 26.543C42.6818 26.5024 42.7799 26.4605 42.8832 26.4164C44.4995 25.7242 45.4451 24.0862 45.2365 22.3405C45.1977 22.0162 45.1615 21.7277 45.129 21.4687C44.9988 20.4298 44.9333 19.9083 45.0036 19.5099C45.0739 19.1115 45.3137 18.6438 45.7915 17.7121C45.9106 17.4797 46.0433 17.2211 46.1906 16.9296C46.9839 15.3604 46.6554 13.4977 45.3733 12.2947C45.1353 12.0712 44.9221 11.8735 44.7308 11.6958C43.9631 10.9838 43.5778 10.6264 43.3756 10.276C43.1733 9.92561 43.0564 9.41327 42.8236 8.39256C42.7655 8.13803 42.7008 7.85444 42.6262 7.53639C42.2252 5.82452 40.7763 4.60881 39.0208 4.5112C38.6948 4.49303 38.4044 4.47862 38.1437 4.46561C37.0979 4.41358 36.573 4.38745 36.1929 4.24905C35.8127 4.11065 35.3939 3.79331 34.5593 3.16096C34.3513 3.00323 34.1194 2.82768 33.858 2.63198C32.4504 1.57846 30.5592 1.57834 29.1515 2.63198C28.8902 2.82768 28.6583 3.00323 28.4503 3.16096C27.6157 3.79331 27.1969 4.11065 26.8167 4.24905C26.4365 4.38745 25.9115 4.41358 24.8659 4.46561C24.605 4.47862 24.3147 4.49303 23.9887 4.5112C22.2333 4.60881 20.7842 5.82463 20.3833 7.53639C20.3088 7.85444 20.2441 8.13792 20.186 8.39256C19.9531 9.41327 19.8363 9.92573 19.6339 10.276C19.4317 10.6264 19.0464 10.9838 18.2788 11.6958C18.0874 11.8735 17.8742 12.0712 17.6362 12.2947C16.3543 13.4978 16.0257 15.3605 16.8189 16.9297C16.9662 17.221 17.0988 17.4796 17.2179 17.7119C17.6956 18.6437 17.9355 19.1114 18.0058 19.5098C18.0762 19.9081 18.0106 20.4296 17.8805 21.4683C17.848 21.7274 17.8118 22.0161 17.773 22.3405C17.5644 24.0862 18.51 25.7242 20.1262 26.4164C20.4265 26.5449 20.6944 26.6579 20.9349 26.7592C21.0081 26.7901 21.0774 26.8194 21.1452 26.848L17.3006 35.1055C17.1532 35.4221 17.1941 35.7943 17.4064 36.0715C17.6189 36.3487 17.9678 36.4852 18.3119 36.4246L22.5556 35.6832L24.72 39.4078C24.8884 39.6973 25.1975 39.8742 25.5305 39.8742C25.5445 39.8742 25.5588 39.8738 25.573 39.8732C25.922 39.8574 26.2331 39.6489 26.3805 39.3324L30.2066 31.1142C30.8204 30.9297 31.1925 30.8368 31.505 30.8368C31.9096 30.8368 32.4118 30.9917 33.4124 31.3005C33.5281 31.3362 33.6507 31.3741 33.7793 31.4135L36.5215 37.7819ZM40.1866 32.2769C39.802 32.1983 39.409 32.3675 39.2019 32.701L37.533 35.3905L35.9398 31.691C37.0333 31.5392 38.0342 30.9264 38.6741 29.9479C38.8528 29.6745 39.0105 29.4303 39.1522 29.2109C39.7202 28.3313 40.0052 27.8899 40.3152 27.6297C40.4543 27.513 40.629 27.4075 40.866 27.29L43.2873 32.9118L40.1866 32.2769ZM25.438 36.9127L23.8479 34.1762C23.6505 33.8367 23.2626 33.6563 22.8759 33.7237L19.758 34.2684L22.8023 27.7298C23.0743 28 23.3553 28.4348 23.8565 29.211C23.9982 29.4304 24.156 29.6746 24.3347 29.9479C25.1257 31.1576 26.4678 31.8093 27.8553 31.7205L25.438 36.9127ZM31.5043 28.9608C30.8664 28.9608 30.2281 29.1435 29.0441 29.5089C28.7976 29.585 28.5234 29.6696 28.2148 29.7629C27.3221 30.0324 26.4146 29.7026 25.9038 28.9217C25.7272 28.6518 25.5715 28.4105 25.4317 28.194C24.0872 26.112 23.9463 25.9939 21.6624 25.0314C21.4249 24.9314 21.1603 24.8198 20.8638 24.6928C20.0061 24.3254 19.5234 23.4894 19.6342 22.5629C19.6725 22.2426 19.7082 21.9575 19.7403 21.7017C20.0487 19.2428 20.0167 19.0617 18.8857 16.8562C18.768 16.6267 18.6371 16.3714 18.4917 16.0837C18.0708 15.251 18.2385 14.3003 18.9189 13.6618C19.154 13.4411 19.3645 13.2459 19.5535 13.0705C21.3705 11.3849 21.4624 11.2257 22.0137 8.80963C22.071 8.55815 22.1348 8.27819 22.2084 7.96401C22.4211 7.05557 23.1607 6.43506 24.0923 6.38327C24.4144 6.36534 24.7011 6.35104 24.9587 6.33827C27.4339 6.21499 27.6069 6.15206 29.5822 4.65545C29.7878 4.49971 30.0166 4.32627 30.2748 4.13303C31.0219 3.57393 31.987 3.57393 32.7341 4.13303C32.9922 4.32627 33.2211 4.49971 33.4267 4.65545C35.402 6.15206 35.5749 6.21499 38.0502 6.33827C38.3076 6.35104 38.5945 6.36534 38.9165 6.38327C39.8482 6.43506 40.5876 7.05557 40.8005 7.96401C40.874 8.27807 40.9379 8.55803 40.9952 8.80952C41.5465 11.2256 41.6383 11.3849 43.4553 13.0703C43.6444 13.2458 43.8548 13.441 44.09 13.6617C44.7704 14.3002 44.9379 15.2508 44.5171 16.0836C44.3716 16.3714 44.2406 16.627 44.1228 16.8564C42.9921 19.0617 42.9601 19.2428 43.2685 21.7019C43.3005 21.9577 43.3364 22.2426 43.3746 22.5628C43.4853 23.4892 43.0026 24.3254 42.1449 24.6926C41.8485 24.8196 41.5839 24.9311 41.3463 25.0313C39.0626 25.9938 38.9217 26.112 37.5772 28.1939C37.4374 28.4105 37.2817 28.6517 37.1051 28.9217C36.5945 29.7025 35.6877 30.0329 34.7941 29.7629C34.4855 29.6696 34.2111 29.5849 33.9648 29.5089C32.7805 29.1435 32.1423 28.9608 31.5043 28.9608ZM40.8087 16.7848C40.8087 11.6544 36.6348 7.48049 31.5043 7.48049C26.374 7.48049 22.2001 11.6544 22.2001 16.7848C22.2001 21.9153 26.374 26.0893 31.5043 26.0893C36.6347 26.0893 40.8087 21.9154 40.8087 16.7848ZM31.5042 24.2143C27.4077 24.2143 24.075 20.8815 24.075 16.7848C24.075 12.6883 27.4077 9.35549 31.5042 9.35549C35.6007 9.35549 38.9335 12.6883 38.9335 16.7848C38.9337 20.8815 35.6007 24.2143 31.5042 24.2143ZM36.6532 14.5743L30.2514 20.3841C30.0723 20.5467 29.8467 20.6274 29.6215 20.6274C29.381 20.6274 29.141 20.5354 28.9584 20.3528L26.3226 17.7171C25.9565 17.351 25.9565 16.7574 26.3226 16.3913C26.6889 16.0252 27.2823 16.0252 27.6485 16.3913L29.6528 18.3956L35.3932 13.186C35.7765 12.8382 36.3695 12.8668 36.7174 13.2502C37.0653 13.6334 37.0366 14.2264 36.6532 14.5743ZM54.451 45.291C55.6868 44.0555 56.3143 42.4968 56.2659 40.7834L55.8094 24.6663C55.7644 23.0748 54.1821 21.6487 52.476 21.6487C52.4596 21.6487 52.4433 21.6488 52.427 21.649C51.5946 21.6624 48.8806 22.1108 48.9003 27.3201L48.9337 36.0751C48.9346 36.2752 48.9219 36.4696 48.8959 36.6591C48.8298 36.5801 48.759 36.5029 48.6835 36.4274C47.5264 35.2705 45.6315 35.2558 44.3694 36.394C44.338 36.4223 44.3085 36.4526 44.2813 36.4849C42.869 38.1546 41.1339 39.6171 39.7394 40.7921C39.2504 41.2042 38.7887 41.5934 38.4095 41.9351C36.8194 43.3683 36.6071 45.3431 36.6092 47.0856L36.6167 53.3207L35.8083 53.3138C35.2609 53.3088 34.745 53.5184 34.3536 53.903C33.9622 54.2878 33.744 54.8008 33.7393 55.3475L33.7183 57.7864C33.7137 58.3331 33.923 58.8498 34.3077 59.2412C34.6923 59.6326 35.2053 59.8506 35.752 59.8553L48.4219 59.9642C48.4278 59.9642 48.4338 59.9643 48.4398 59.9643C48.9798 59.9643 49.4894 59.7554 49.8765 59.3749C50.2679 58.9901 50.486 58.4772 50.4907 57.9305L50.5117 55.4916C50.5163 54.9449 50.3071 54.4283 49.9223 54.0369C49.5377 53.6455 49.0247 53.4274 48.478 53.4227L47.4356 53.4138V52.3065L54.451 45.291ZM48.6367 55.4756L48.6157 57.9145C48.6152 57.9733 48.5863 58.0141 48.562 58.0379C48.5379 58.0618 48.5001 58.0897 48.4378 58.0894L35.768 57.9806C35.7092 57.9801 35.6685 57.9512 35.6447 57.9269C35.6209 57.9026 35.5926 57.8615 35.5932 57.8027L35.6142 55.3638C35.6147 55.3049 35.6436 55.2642 35.6679 55.2404C35.6918 55.2168 35.7326 55.1888 35.7903 55.1888H35.792H35.7921L48.4619 55.2977C48.5576 55.2986 48.6376 55.3799 48.6367 55.4756ZM38.4917 53.337L38.4842 47.0835C38.4819 45.174 38.824 44.086 39.6649 43.328C40.0208 43.0072 40.4503 42.6452 40.9476 42.2261C42.3811 41.0179 44.1617 39.5173 45.6665 37.7505C46.1928 37.309 46.9113 37.3071 47.3577 37.7534C47.8328 38.2284 47.8333 38.7935 47.3617 39.4331C46.6162 40.271 45.8325 41.03 45.0032 41.8325C44.6051 42.2178 44.1933 42.6162 43.778 43.0317C43.4119 43.3978 43.4119 43.9913 43.7781 44.3574C43.9611 44.5405 44.2009 44.632 44.4409 44.632C44.6809 44.632 44.9209 44.5405 45.1038 44.3573C45.5082 43.9529 45.9143 43.5598 46.3071 43.1798C47.1736 42.3413 47.9919 41.5494 48.7936 40.6449C48.7978 40.6401 49.4215 39.8772 49.4215 39.8772C50.3603 38.7215 50.814 37.4755 50.8087 36.0681L50.7753 27.3131C50.7665 24.9926 51.411 23.5407 52.457 23.5239C52.4634 23.5238 52.4696 23.5238 52.476 23.5238C53.1722 23.5238 53.9185 24.1326 53.9351 24.7195L54.3916 40.8366C54.4256 42.0385 53.9995 43.0912 53.1252 43.9653L45.8352 51.2553C45.6594 51.4311 45.5606 51.6696 45.5606 51.9181V53.3977L38.4917 53.337ZM36.5161 56.3172C36.6706 55.9283 37.1114 55.7383 37.5003 55.893C37.8893 56.0476 38.0792 56.4883 37.9247 56.8773C37.77 57.2662 37.3294 57.4562 36.9404 57.3015C36.5514 57.1468 36.3614 56.7062 36.5161 56.3172ZM26.1999 53.9033C25.8085 53.5184 25.2915 53.3098 24.7452 53.314L23.9368 53.321L23.9443 47.0859C23.9464 45.3432 23.7342 43.3685 22.1441 41.9354C21.7651 41.5935 21.3031 41.2045 20.8142 40.7924C19.4199 39.6173 17.6846 38.1548 16.2724 36.4851C16.2452 36.4529 16.2158 36.4225 16.1844 36.3943C14.9217 35.256 13.0267 35.2708 11.8701 36.4277C11.7946 36.5032 11.7239 36.5804 11.6578 36.6594C11.6317 36.4699 11.6191 36.2756 11.6199 36.0754L11.6533 27.3202C11.673 22.1109 8.95909 21.6626 8.1267 21.6492C8.1103 21.6489 8.09424 21.6488 8.07772 21.6488C6.37159 21.6488 4.7892 23.075 4.74432 24.6664L4.28776 40.7837C4.23936 42.4971 4.8669 44.0556 6.10252 45.2912L13.118 52.3067V53.414L12.0756 53.4229C11.5289 53.4276 11.0158 53.6457 10.6312 54.0371C10.2465 54.4285 10.0372 54.9452 10.0419 55.4919L10.0629 57.9308C10.0676 58.4774 10.2856 58.9904 10.6771 59.3751C11.0641 59.7556 11.5737 59.9646 12.1138 59.9646C12.1198 59.9646 12.1258 59.9646 12.1317 59.9644L24.8015 59.8556C25.3482 59.8509 25.8613 59.6328 26.2459 59.2414C26.6306 58.85 26.8399 58.3333 26.8352 57.7866L26.8142 55.3477C26.8097 54.801 26.5914 54.288 26.1999 53.9033ZM14.993 51.9181C14.993 51.6694 14.8942 51.4311 14.7184 51.2553L7.42827 43.9652C6.55405 43.0911 6.12795 42.0385 6.16194 40.8366L6.6185 24.7194C6.63526 24.1271 7.39991 23.5137 8.09659 23.5239C9.1426 23.5407 9.78702 24.9926 9.77823 27.313L9.74483 36.0681C9.73955 37.4755 10.1933 38.7214 11.1337 39.8792L11.7356 40.6161C11.7397 40.6211 11.7559 40.6401 11.7601 40.6449C12.5618 41.5494 13.3801 42.3413 14.2466 43.1798C14.6394 43.5599 15.0453 43.9529 15.4499 44.3573C15.6329 44.5403 15.8728 44.632 16.1128 44.632C16.3527 44.632 16.5927 44.5405 16.7756 44.3574C17.1418 43.9913 17.1418 43.3978 16.7757 43.0317C16.3604 42.6164 15.9486 42.2178 15.5505 41.8325C14.7212 41.0299 13.9374 40.271 13.192 39.4331C12.7205 38.7936 12.7209 38.2285 13.196 37.7535C13.6426 37.3071 14.3608 37.309 14.8873 37.7505C16.3919 39.5174 18.1725 41.018 19.6062 42.2262C20.1034 42.6454 20.5329 43.0073 20.8889 43.3283C21.7297 44.086 22.0718 45.1741 22.0694 47.0837L22.0619 53.3371L14.9931 53.3978L14.993 51.9181ZM24.9088 57.927C24.885 57.9513 24.8442 57.9802 24.7855 57.9807L12.1156 58.0896C12.0558 58.0897 12.0156 58.0619 11.9914 58.038C11.9672 58.0142 11.9382 57.9735 11.9378 57.9146L11.9168 55.4757C11.9162 55.4169 11.9444 55.3756 11.9682 55.3515C11.992 55.3273 12.0328 55.2983 12.0915 55.2978L24.7612 55.1889H24.763C24.8209 55.1889 24.8617 55.2169 24.8856 55.2405C24.9098 55.2643 24.9388 55.3051 24.9392 55.3639L24.9602 57.8028C24.9608 57.8616 24.9326 57.9028 24.9088 57.927ZM24.0375 56.3172C24.1922 56.7062 24.0022 57.1468 23.6133 57.3015C23.2243 57.4562 22.7836 57.2662 22.629 56.8773C22.4743 56.4883 22.6643 56.0477 23.0532 55.893C23.4422 55.7383 23.8828 55.9283 24.0375 56.3172Z" fill="#C90F16"/>
</svg>
