<svg width="61" height="61" viewBox="0 0 61 61" fill="none" xmlns="http://www.w3.org/2000/svg">
<g clip-path="url(#clip0_1_21634)">
<path d="M30.2773 60.9033C30.2032 60.9033 30.129 60.8965 30.0558 60.8823C22.9463 59.5149 16.4913 55.688 11.8803 50.106C7.26968 44.5241 4.73047 37.4626 4.73047 30.2226V9.71252C4.73047 9.20029 5.06326 8.7471 5.55215 8.59421L29.8901 0.969238C30.0132 0.926208 30.1483 0.906067 30.2773 0.90332H30.2787C30.4115 0.90332 30.5419 0.926208 30.6651 0.969238L55.0025 8.59421C55.4914 8.74756 55.8242 9.20029 55.8242 9.71252V30.2226C55.8242 37.4626 53.285 44.5241 48.674 50.106C44.0634 55.688 37.6084 59.5149 30.4989 60.8823C30.4257 60.8965 30.3515 60.9033 30.2773 60.9033ZM7.07422 10.5731V30.2226C7.07422 43.9693 16.8186 55.8409 30.2773 58.5371C43.7361 55.8409 53.48 43.9693 53.48 30.2226V10.5731L30.2773 3.30383L7.07422 10.5731Z" fill="#C90F16"/>
<path d="M30.2773 54.1856C30.1821 54.1856 30.0869 54.1742 29.9944 54.1513C24.7036 52.8347 19.9296 49.7366 16.5508 45.4277C13.1602 41.1027 11.293 35.7029 11.293 30.2226V14.5332C11.293 14.021 11.6258 13.5682 12.1142 13.4153L29.9267 7.83475C30.1547 7.76334 30.3996 7.76334 30.6275 7.83475L48.44 13.4153C48.9285 13.5682 49.2613 14.021 49.2613 14.5332V30.2226C49.2613 34.2285 48.2688 38.2161 46.3915 41.7541C46.088 42.3259 45.379 42.5428 44.8072 42.2398C44.2355 41.9363 44.018 41.2272 44.3211 40.6555C46.0198 37.4548 46.9175 33.8472 46.9175 30.2226V15.3943L30.2769 10.1808L13.6367 15.3943V30.2226C13.6367 40.3955 20.4647 49.2285 30.2769 51.8043C33.0029 51.0888 35.5357 49.8781 37.8098 48.2031C38.3308 47.8195 39.0646 47.9307 39.4482 48.4517C39.8322 48.9726 39.721 49.7064 39.1996 50.09C36.5991 52.0057 33.6923 53.3717 30.5598 54.1513C30.4673 54.1742 30.3721 54.1856 30.2773 54.1856Z" fill="#C90F16"/>
<path d="M28.1482 39.7226C27.8479 39.7226 27.5486 39.6082 27.3197 39.3793L19.4722 31.5318C19.0145 31.0745 19.0145 30.3325 19.4722 29.8747L23.4497 25.8972C23.6695 25.6775 23.9675 25.5539 24.2783 25.5539C24.5891 25.5539 24.8871 25.6775 25.1068 25.8972L28.1482 28.9386L35.4464 21.64C35.9041 21.1827 36.6461 21.1823 37.1039 21.64L41.0814 25.6175C41.3011 25.8373 41.4247 26.1353 41.4247 26.4461C41.4247 26.7569 41.3011 27.0549 41.0814 27.2746L28.9768 39.3793C28.7479 39.6082 28.4481 39.7226 28.1482 39.7226ZM21.9579 30.7033L28.1482 36.8932L38.5953 26.4461L36.2749 24.1261L28.9768 31.4247C28.757 31.6445 28.459 31.7676 28.1482 31.7676C27.8374 31.7676 27.5394 31.6445 27.3197 31.4247L24.2783 28.3833L21.9579 30.7033Z" fill="#C90F16"/>
<path d="M42.373 46.7354C42.065 46.7354 41.7624 46.6108 41.5445 46.392C41.3266 46.1741 41.2012 45.8716 41.2012 45.5635C41.2012 45.2554 41.3266 44.9528 41.5445 44.7349C41.7624 44.517 42.065 44.3916 42.373 44.3916C42.6811 44.3916 42.9837 44.517 43.2016 44.7349C43.4195 44.9528 43.5449 45.2554 43.5449 45.5635C43.5449 45.8716 43.4195 46.1741 43.2016 46.392C42.9837 46.6108 42.6811 46.7354 42.373 46.7354Z" fill="#C90F16"/>
</g>
<defs>
<clipPath id="clip0_1_21634">
<rect width="60" height="60" fill="white" transform="translate(0.277344 0.90332)"/>
</clipPath>
</defs>
</svg>
