<svg width="51" height="51" viewBox="0 0 51 51" fill="none" xmlns="http://www.w3.org/2000/svg">
<g clip-path="url(#clip0_1_38831)">
<path d="M44.3099 41.3465H44.2044C44.2136 39.7622 44.2185 38.0631 44.1988 37.8278C44.1078 36.7374 42.9185 36.2625 42.1553 37.1986C41.7809 37.658 40.0493 40.7796 39.5275 41.7253C39.2585 42.2129 39.6118 42.8121 40.1692 42.8121H42.7288C42.7257 43.2394 42.7224 43.6492 42.7192 44.019C42.7107 44.9914 44.1765 45.0092 44.1848 44.0316C44.1868 43.8042 44.1904 43.3613 44.1945 42.8121H44.3098C44.7145 42.8121 45.0426 42.4841 45.0426 42.0793C45.0426 41.6745 44.7146 41.3465 44.3099 41.3465ZM42.7385 41.3465H41.4146C41.9088 40.4624 42.391 39.6141 42.7472 39.006C42.747 39.6355 42.7435 40.4752 42.7385 41.3465Z" fill="#C90F16"/>
<path d="M37.8827 43.5016C37.8796 43.5016 37.8764 43.5016 37.8734 43.5017C37.1958 43.5102 36.4764 43.5157 35.8859 43.5165C37.2527 41.6907 38.3359 40.31 38.3359 39.214C38.3359 37.8795 37.2502 36.7939 35.9158 36.7939C34.762 36.7939 33.7633 37.6148 33.5412 38.7458C33.4632 39.143 33.722 39.5281 34.1191 39.6062C34.5161 39.6841 34.9014 39.4254 34.9794 39.0283C35.0669 38.583 35.4608 38.2597 35.9158 38.2597C36.4286 38.2597 36.8484 38.6661 36.8694 39.174C36.8603 39.2009 36.8802 39.6075 36.2691 40.4804C35.2244 41.9729 34.6011 42.7892 34.2662 43.2277C33.8563 43.7645 33.6693 44.0094 33.7944 44.4166C33.8679 44.6555 34.0487 44.8387 34.2907 44.9193C34.5983 45.0217 36.9556 44.979 37.8919 44.9673C38.2966 44.9622 38.6205 44.6301 38.6154 44.2254C38.6103 43.8236 38.2832 43.5016 37.8827 43.5016Z" fill="#C90F16"/>
<path d="M39.1319 30.8005C33.5958 30.8005 29.0918 35.3045 29.0918 40.8408C29.0918 46.377 33.5958 50.8809 39.1319 50.8809C44.6681 50.8809 49.1721 46.377 49.1721 40.8408C49.1721 35.3045 44.6681 30.8005 39.1319 30.8005ZM39.1319 49.4153C34.4039 49.4153 30.5574 45.5688 30.5574 40.8408C30.5574 36.1126 34.4039 32.2662 39.1319 32.2662C43.86 32.2662 47.7064 36.1126 47.7064 40.8408C47.7064 45.5687 43.86 49.4153 39.1319 49.4153Z" fill="#C90F16"/>
<path d="M29.6017 47.4739H25.4531L23.4741 36.3088L24.3825 34.7485C25.0515 34.9449 25.7842 34.7722 26.2996 34.2703C26.3022 34.268 26.3046 34.2654 26.307 34.263L30.7365 29.8267C31.5683 30.055 32.3752 30.3681 33.1403 30.7597C33.4998 30.9435 33.9416 30.8024 34.1266 30.4411C34.3109 30.0808 34.1684 29.6393 33.8081 29.4549C32.8562 28.9677 31.8466 28.5895 30.8055 28.3296L28.8514 27.1314C28.2326 26.752 27.4369 26.758 26.824 27.1469L26.6025 27.2874C26.2068 26.7108 26.2998 26.2339 26.3395 25.4677C26.7648 25.1937 27.1766 24.8819 27.5738 24.5326C28.2276 23.9579 28.7824 23.2775 29.2239 22.5228H30.7173C32.4086 22.5228 33.7846 21.1468 33.7846 19.4555V13.7581C33.7846 12.8024 33.228 11.9582 32.3975 11.5646V7.54766C32.3975 5.74395 30.93 4.27656 29.1263 4.27656H29.0407C28.9721 4.27656 28.9162 4.2207 28.9162 4.15205C28.9163 2.34834 27.4489 0.880859 25.6451 0.880859H17.5659C13.5722 0.880859 10.3229 4.13008 10.3229 8.12393V11.5647C9.49238 11.9583 8.93574 12.8026 8.93574 13.7582V16.6558C8.93574 17.9949 10.0252 19.0843 11.3643 19.0843H12.373C12.6217 21.2435 13.634 23.2155 15.2191 24.5854C15.5942 24.9095 15.9816 25.2005 16.381 25.4584C16.3369 26.2101 16.5131 26.719 16.1183 27.2877L15.8963 27.1469C15.2835 26.758 14.4877 26.7521 13.869 27.1314L11.9156 28.3292C8.91035 29.0797 6.20186 30.8286 4.27803 33.264C2.32285 35.739 1.24609 38.8395 1.24609 41.9943V44.9339C1.24609 47.1426 3.04297 48.9395 5.25166 48.9395H29.6016C30.0063 48.9395 30.3344 48.6114 30.3344 48.2066C30.3345 47.8021 30.0064 47.4739 29.6017 47.4739ZM27.6091 28.3846C27.753 28.2932 27.9399 28.2918 28.0852 28.381L29.3403 29.1506L25.2742 33.223C25.0921 33.3975 24.8097 33.4073 24.6157 33.2454C23.97 32.7061 22.9479 31.8522 22.6004 31.562C23.8633 30.7608 26.3532 29.1812 27.6091 28.3846ZM25.3651 28.0725L21.3603 30.6131L17.3576 28.0739C17.9405 27.1981 17.8337 26.337 17.8468 26.234C18.9578 26.7004 20.1447 26.9398 21.3983 26.9486H21.4035C21.4073 26.9486 21.411 26.9486 21.4148 26.9485C22.6357 26.9296 23.7916 26.6924 24.8738 26.2403C24.8872 26.3438 24.7758 27.1787 25.3651 28.0725ZM23.1586 33.9379L22.2844 35.4394H20.4362L19.562 33.9379L21.3604 32.4357L23.1586 33.9379ZM27.1175 22.2547H25.2029C24.8777 22.2547 24.6132 21.9901 24.6132 21.6649C24.6132 21.3397 24.8777 21.0752 25.2029 21.0752H27.1175C27.4426 21.0752 27.7072 21.3398 27.7072 21.6649C27.7071 21.9901 27.4426 22.2547 27.1175 22.2547ZM32.319 19.4557C32.319 20.3388 31.6006 21.0573 30.7174 21.0573H29.9052C30.1297 20.4267 30.2844 19.7646 30.3631 19.0844H31.3562C31.6981 19.0844 32.0236 19.0133 32.319 18.8853V19.4557ZM32.2111 13.3155C32.2803 13.4487 32.319 13.5996 32.319 13.7583V16.6559C32.319 17.1868 31.8871 17.6187 31.3562 17.6187H30.4188V14.6916C30.6358 14.5764 31.7117 14.4542 32.2111 13.3155ZM12.3017 17.6187H11.3644C10.8334 17.6187 10.4015 17.1867 10.4015 16.6558V13.7582C10.4015 13.5996 10.4402 13.4486 10.5094 13.3154C11.0092 14.4551 12.0879 14.5779 12.3017 14.6914V17.6187ZM12.2936 13.1366C11.9916 13.0314 11.7887 12.746 11.7887 12.4262C11.7887 11.3185 11.7887 8.69385 11.7887 8.12393C11.7887 4.93818 14.3804 2.34648 17.566 2.34648H25.6452C26.6408 2.34648 27.4507 3.15645 27.4507 4.15205C27.4507 5.02891 28.164 5.74219 29.0408 5.74219H29.1264C30.122 5.74219 30.9319 6.55215 30.9319 7.54766V12.4263C30.9319 12.746 30.7291 13.0314 30.4271 13.1366C30.0647 13.2629 29.2041 13.5626 28.824 13.695C28.7411 13.7239 28.6527 13.6644 28.6528 13.5729L28.6558 10.5412C28.6652 8.27549 26.5547 6.45254 23.7301 7.36035C22.2512 7.83545 20.441 7.82627 18.9905 7.36045C16.1909 6.46035 14.0552 8.24834 14.0647 10.539L14.0683 13.573C14.0685 13.6624 13.9816 13.7243 13.8972 13.6949C13.5185 13.5631 12.6554 13.2626 12.2936 13.1366ZM16.1775 23.4765C13.6885 21.3256 13.8046 18.2948 13.7673 18.1082V15.1583C13.8243 15.1645 13.8814 15.1676 13.9385 15.1676C14.8288 15.1676 15.5352 14.4439 15.5338 13.5712L15.5303 10.5352C15.5252 9.32256 16.6213 8.13848 18.542 8.75586C20.3254 9.32871 22.4563 9.30908 24.1784 8.75576C25.9765 8.17812 27.1956 9.19893 27.1899 10.5376L27.187 13.5712C27.1857 14.5112 28.0005 15.2607 28.953 15.1584V18.2997C28.9299 18.9779 28.8173 19.6401 28.6236 20.268C28.2481 19.8632 27.7117 19.6096 27.1173 19.6096H25.2027C24.0693 19.6096 23.1474 20.5316 23.1474 21.665C23.1474 22.7983 24.0694 23.7204 25.2027 23.7204H26.2616C24.8605 24.8366 23.2345 25.4527 21.4001 25.483C19.4118 25.4671 17.6643 24.761 16.1775 23.4765ZM14.6353 28.381C14.7806 28.2919 14.9674 28.2933 15.1113 28.3846C16.3879 29.1943 18.862 30.764 20.12 31.562C18.1481 33.2084 18.1444 33.2123 18.1048 33.2454C17.9107 33.4073 17.6283 33.3976 17.4463 33.223L13.3802 29.1506L14.6353 28.381ZM17.2675 47.4739H10.0063V44.0346C10.0063 43.6298 9.67813 43.3018 9.27344 43.3018C8.86875 43.3018 8.54063 43.6298 8.54063 44.0346V47.4739H5.25176C3.85127 47.4739 2.71182 46.3345 2.71182 44.934V41.9944C2.71182 39.1679 3.67656 36.39 5.42822 34.1726C7.09053 32.0683 9.40645 30.536 11.9839 29.8267L16.4135 34.2631C16.4159 34.2655 16.4184 34.2681 16.4209 34.2704C16.9352 34.7712 17.6675 34.9454 18.338 34.7486L19.2464 36.3089L17.2675 47.4739ZM18.7559 47.4739L20.6292 36.9051H22.0912L23.9646 47.4739H18.7559Z" fill="#C90F16"/>
</g>
<defs>
<clipPath id="clip0_1_38831">
<rect width="50" height="50" fill="white" transform="translate(0.208984 0.880859)"/>
</clipPath>
</defs>
</svg>
