<svg width="51" height="50" viewBox="0 0 51 50" fill="none" xmlns="http://www.w3.org/2000/svg">
<path d="M46.2939 42.0756L39.75 30.7412C40.0015 30.3406 40.3879 30.0305 40.8736 29.8624C42.4261 29.3249 43.6911 27.9639 44.2572 26.2215C44.8233 24.4792 44.6001 22.6346 43.6599 21.2869C43.1294 20.5268 43.1294 19.5822 43.6598 18.8222C44.6 17.4746 44.8233 15.63 44.2572 13.8877C43.6912 12.1453 42.4262 10.7842 40.8737 10.2466C39.9976 9.94336 39.4424 9.1792 39.4247 8.25264C39.3934 6.60996 38.4899 4.98633 37.0078 3.90938C35.5256 2.83232 33.7022 2.47461 32.13 2.95234C31.2432 3.22187 30.3449 2.92998 29.7858 2.19072C28.7949 0.880078 27.1095 0.0976562 25.2774 0.0976562C25.2773 0.0976562 25.2774 0.0976562 25.2773 0.0976562C23.4454 0.0976562 21.7597 0.880176 20.7689 2.19062C20.2097 2.92998 19.3114 3.22207 18.4247 2.95244C16.8524 2.47471 15.0292 2.83232 13.5471 3.90908C12.0649 4.98584 11.1612 6.60947 11.1297 8.25234C11.112 9.1792 10.557 9.94326 9.68101 10.2465C8.12847 10.784 6.86343 12.145 6.29732 13.8874C5.73111 15.6299 5.95445 17.4745 6.89459 18.8221C7.42506 19.5822 7.42506 20.5267 6.89468 21.2867C5.95445 22.6342 5.73111 24.4789 6.29722 26.2212C6.86334 27.9637 8.12818 29.3248 9.68082 29.8624C10.1666 30.0306 10.5531 30.3407 10.8045 30.7413L4.2606 42.0758C4.01031 42.5094 4.03345 43.0332 4.32095 43.4426C4.60845 43.852 5.09361 44.0516 5.58629 43.963L12.1537 42.7853L14.4174 49.0619C14.5876 49.5328 15.0028 49.8529 15.5012 49.8972C15.5402 49.9006 15.5791 49.9023 15.6174 49.9023C16.071 49.9023 16.484 49.6655 16.7146 49.2659L22.4521 39.3284C23.2859 39.7685 24.2586 40.011 25.2773 40.011H25.2774C26.296 40.011 27.2688 39.7685 28.1026 39.3284L33.84 49.2659C34.0707 49.6656 34.4838 49.9024 34.9373 49.9024C34.9758 49.9024 35.0147 49.9007 35.0537 49.8973C35.5521 49.853 35.9672 49.5329 36.1374 49.0616L38.401 42.7853L44.9684 43.963C45.4617 44.0521 45.9462 43.852 46.2338 43.4425C46.5213 43.0331 46.5444 42.5093 46.2939 42.0756ZM15.6746 47.9424L13.3997 41.6349C13.2705 41.2766 12.9011 41.0637 12.5268 41.131L5.92691 42.3145L11.2967 33.0138C11.6236 34.2377 12.4161 35.378 13.5469 36.1997C15.0291 37.2765 16.8527 37.6343 18.4245 37.1565C19.3116 36.8869 20.2096 37.1788 20.7687 37.9181C20.8963 38.0869 21.036 38.2466 21.1855 38.3974L15.6746 47.9424ZM25.2773 38.4485C23.932 38.4485 22.7125 37.8979 22.0151 36.9756C21.2953 36.0235 20.2092 35.4967 19.0694 35.4967C18.7052 35.4967 18.3353 35.5506 17.9703 35.6615C16.8639 35.998 15.5539 35.7263 14.4654 34.9355C13.377 34.1447 12.714 32.9825 12.6919 31.8265C12.662 30.2517 11.6808 28.9012 10.192 28.3858C9.09947 28.0075 8.19898 27.0178 7.78326 25.7384C7.36763 24.4589 7.51441 23.1289 8.17603 22.1808C9.0773 20.889 9.0773 19.2196 8.17593 17.9278C7.51441 16.9795 7.36763 15.6495 7.78326 14.3701C8.19898 13.0906 9.09957 12.101 10.192 11.7228C11.6805 11.2077 12.6618 9.85713 12.6919 8.28203C12.7141 7.12598 13.3771 5.96377 14.4655 5.17305C15.5539 4.38232 16.8639 4.11104 17.9704 4.44727C19.4774 4.90518 21.0651 4.38926 22.0152 3.13291C22.7127 2.21064 23.9321 1.66016 25.2774 1.66016C26.6226 1.66016 27.8421 2.21084 28.5395 3.13311C29.4895 4.38945 31.0768 4.90547 32.5843 4.44727C33.6906 4.11104 35.0009 4.38252 36.0893 5.17334C37.1777 5.96416 37.8405 7.12637 37.8626 8.28232C37.8926 9.85713 38.8739 11.2076 40.3626 11.7229C41.4551 12.1013 42.3556 13.091 42.7712 14.3703C43.187 15.6498 43.0401 16.9797 42.3786 17.9279C41.4773 19.2197 41.4773 20.8891 42.3787 22.181C43.0402 23.1293 43.187 24.4593 42.7713 25.7387C42.3557 27.0181 41.4551 28.0076 40.3626 28.3859C38.874 28.9012 37.8927 30.2518 37.8627 31.8267C37.8405 32.9827 37.1775 34.145 36.0892 34.9357C35.0007 35.7265 33.6905 35.9978 32.5843 35.6616C31.0772 35.2034 29.4896 35.7193 28.5395 36.9758C27.842 37.898 26.6226 38.4485 25.2773 38.4485ZM38.0277 41.131C37.6531 41.063 37.2841 41.2766 37.1548 41.6349L34.8799 47.9424L29.369 38.3973C29.5185 38.2466 29.6581 38.0869 29.7857 37.9182C30.3449 37.1787 31.2432 36.8869 32.1299 37.1565C33.702 37.6343 35.5253 37.2767 37.0075 36.1998C38.1384 35.378 38.931 34.2377 39.2578 33.0136L44.6277 42.3145L38.0277 41.131ZM38.3036 20.0545C38.3036 12.8717 32.46 7.02813 25.2772 7.02813C18.0945 7.02813 12.2509 12.8717 12.2509 20.0545C12.2509 27.2373 18.0946 33.081 25.2773 33.081C32.46 33.081 38.3036 27.2373 38.3036 20.0545ZM23.3556 31.3564V27.0701C23.3556 26.7471 23.1568 26.4574 22.8554 26.3411C20.3559 25.3776 18.5418 22.7338 18.5418 20.0545C18.5418 17.7678 19.4845 16.2285 20.5662 15.2152V19.8932C20.5662 20.1723 20.715 20.4302 20.9568 20.5697L24.8867 22.8389C25.1284 22.9785 25.4262 22.9785 25.6679 22.8389L29.5977 20.5699C29.8395 20.4304 29.9883 20.1726 29.9883 19.8934V15.2154C31.07 16.2287 32.0128 17.768 32.0128 20.0547C32.0128 22.7339 30.1986 25.3777 27.6991 26.3413C27.3977 26.4575 27.1989 26.7473 27.1989 27.0703V31.3566C26.5738 31.4626 25.932 31.5186 25.2772 31.5186C24.6224 31.5186 23.9806 31.4624 23.3556 31.3564ZM28.7614 30.9765V27.5848C31.5795 26.2536 33.5753 23.1734 33.5753 20.0546C33.5753 17.0617 32.1692 14.5494 29.6161 12.9805C29.375 12.8323 29.0726 12.8262 28.8257 12.9643C28.5788 13.1023 28.4257 13.3632 28.4257 13.6461V19.4423L25.2773 21.2603L22.1288 19.4423V13.6461C22.1288 13.3632 21.9758 13.1023 21.7288 12.9643C21.4819 12.8261 21.1796 12.8322 20.9384 12.9805C18.3853 14.5494 16.9793 17.0617 16.9793 20.0546C16.9793 23.1736 18.9751 26.2537 21.7931 27.5848V30.9765C17.1704 29.4983 13.8135 25.1613 13.8135 20.0545C13.8135 13.7333 18.9561 8.59062 25.2773 8.59062C31.5985 8.59062 36.7412 13.7333 36.7412 20.0545C36.7411 25.1613 33.3842 29.4983 28.7614 30.9765Z" fill="#C90F16"/>
</svg>
