<svg width="49" height="44" viewBox="0 0 49 44" fill="none" xmlns="http://www.w3.org/2000/svg">
<path d="M48.1385 12.0232C48.1382 11.1373 47.8171 10.356 47.2101 9.76399L39.9532 2.685C39.0506 1.80473 37.9125 0.905029 36.3124 0.905029C36.3119 0.905029 36.3112 0.905029 36.3107 0.905029C34.7096 0.905636 33.5714 1.80655 32.6693 2.68783L25.4171 9.77218C24.8103 10.3648 24.4898 11.1464 24.4901 12.0323L24.4935 21.1244H19.6772C20.5489 19.16 21.156 16.0568 20.4742 13.7331C19.9943 12.0978 18.9376 11.0197 17.4182 10.6153C17.2242 10.5636 17.0194 10.5986 16.8494 10.7123C16.6794 10.8258 16.5585 11.0088 16.5136 11.2198C16.4309 11.6097 16.3543 11.9752 16.2824 12.3188C15.3864 16.6006 15.2713 17.1509 12.7964 18.9063C11.048 20.1464 10.9239 20.3065 9.83658 22.028C9.72552 22.2038 9.60299 22.3977 9.46583 22.6131C9.02551 23.3042 8.46221 23.6159 7.6436 23.6237L7.58047 23.6239V23.43C7.58047 22.4217 6.82461 21.6014 5.89541 21.6014H2.09122C1.16211 21.6014 0.40625 22.4217 0.40625 23.43V41.2664C0.40625 42.2748 1.16211 43.095 2.09122 43.095H5.8955C6.82461 43.095 7.58056 42.2748 7.58056 41.2664V40.4366C7.91681 40.5639 8.25297 40.6997 8.5991 40.84C10.2939 41.5269 12.2146 42.3054 15.0666 42.3054H24.969C25.3912 42.3054 25.7929 42.2098 26.1576 42.0383C26.5156 42.213 26.9035 42.3054 27.3012 42.3054L45.3489 42.2986C46.8932 42.2979 48.1492 40.934 48.1485 39.258L48.1385 12.0232ZM6.08861 41.2664C6.08861 41.38 6.00022 41.476 5.8955 41.476H2.09122C1.9866 41.476 1.8982 41.38 1.8982 41.2664V23.43C1.8982 23.3164 1.9866 23.2205 2.09122 23.2205H5.8955C6.00022 23.2205 6.08861 23.3164 6.08861 23.43V41.2664ZM15.0666 40.6864C12.4842 40.6864 10.7745 39.9933 9.12119 39.3232C8.62204 39.1209 8.1102 38.9135 7.58066 38.7283V25.2429L7.65255 25.2427C8.95567 25.2304 9.97878 24.6553 10.6932 23.5336C10.8316 23.3164 10.9552 23.1208 11.0672 22.9433C12.07 21.3557 12.07 21.3557 13.6128 20.2614C16.5927 18.1478 16.8124 17.0976 17.7374 12.6773C17.7511 12.6117 17.765 12.5451 17.7791 12.4779C18.3938 12.832 18.8133 13.409 19.0526 14.2243C19.7564 16.623 18.6465 20.3158 17.7781 21.4039C17.587 21.6434 17.5422 21.982 17.6635 22.2703C17.7849 22.5586 18.05 22.7435 18.3421 22.7435H26.8704C27.7015 22.7435 28.3777 23.4772 28.3777 24.3792C28.3777 25.2811 27.7015 26.0149 26.8704 26.0149H20.9908C20.5788 26.0149 20.2448 26.3774 20.2448 26.8245C20.2448 27.2715 20.5788 27.634 20.9908 27.634H28.1026C28.9337 27.634 29.6098 28.3677 29.6098 29.2697C29.6098 30.1716 28.9337 30.9054 28.1026 30.9054H20.9908C20.5788 30.9054 20.2448 31.2679 20.2448 31.715C20.2448 32.162 20.5788 32.5245 20.9908 32.5245H27.3281C28.1592 32.5245 28.8353 33.2583 28.8353 34.1602C28.8353 35.0621 28.1592 35.7958 27.3281 35.7958H20.9908C20.5788 35.7958 20.2448 36.1583 20.2448 36.6054C20.2448 37.0524 20.5788 37.4149 20.9908 37.4149H24.9691C25.8002 37.4149 26.4765 38.1488 26.4765 39.0507C26.4765 39.9526 25.8003 40.6864 24.9691 40.6864H15.0666ZM45.3483 40.6796L27.5605 40.6863C27.8192 40.2053 27.9683 39.6467 27.9683 39.0507C27.9683 38.4509 27.8181 37.8886 27.5564 37.4056C29.1039 37.2785 30.3273 35.8714 30.3273 34.1602C30.3273 33.3661 30.0638 32.6375 29.6269 32.072C30.509 31.5047 31.1018 30.4608 31.1018 29.2697C31.1018 27.9367 30.3594 26.7883 29.3 26.2856C29.6582 25.7494 29.8696 25.0906 29.8696 24.3792C29.8696 22.5845 28.5242 21.1244 26.8704 21.1244H25.9855L25.9822 12.0318C25.9821 11.606 26.1237 11.2605 26.4153 10.9757L33.6675 3.89121C34.6612 2.92047 35.4272 2.52451 36.3114 2.5241H36.3125C37.1959 2.5241 37.962 2.91966 38.956 3.88908L46.2129 10.9681C46.5047 11.2527 46.6466 11.5981 46.6468 12.0239L46.6566 39.2586C46.6569 40.0419 46.07 40.6793 45.3483 40.6796ZM40.7926 29.7242C40.9019 30.7012 40.6606 31.5929 40.0949 32.3028C39.4295 33.1376 38.3237 33.6973 37.0654 33.8544V34.8841C37.0654 35.3312 36.7314 35.6936 36.3194 35.6936C35.9074 35.6936 35.5734 35.3312 35.5734 34.8841V33.8426C33.71 33.5648 32.2615 32.2861 31.8422 30.4608C31.7425 30.027 31.9858 29.5876 32.3855 29.4794C32.7855 29.372 33.1901 29.6354 33.2898 30.0691C33.6762 31.7508 35.2357 32.3119 36.4544 32.2789C37.5008 32.2519 38.4868 31.8456 38.9665 31.2437C39.2576 30.8785 39.3705 30.4452 39.3117 29.9193C39.1725 28.6747 38.2157 27.9602 36.2093 27.6027C33.0161 27.0337 32.2726 25.2763 32.2112 23.9023C32.126 21.9984 33.3542 20.4026 35.2676 19.9317C35.3679 19.9071 35.47 19.8857 35.5736 19.868V18.8151C35.5736 18.368 35.9076 18.0056 36.3196 18.0056C36.7316 18.0056 37.0656 18.368 37.0656 18.8151V19.8611C38.4313 20.0806 39.7787 20.9392 40.4518 22.6792C40.6113 23.0914 40.4327 23.566 40.0528 23.739C39.6728 23.9123 39.2357 23.7183 39.0762 23.306C38.4292 21.6337 36.8629 21.1994 35.5976 21.5109C34.6414 21.7461 33.6412 22.4775 33.7015 23.824C33.7203 24.2457 33.7777 25.5289 36.4511 26.0052C37.4415 26.1815 40.4565 26.7187 40.7926 29.7242ZM36.3132 11.7602C37.7781 11.7602 38.9698 10.467 38.9698 8.87724C38.9698 7.28752 37.7782 5.99428 36.3132 5.99428C34.8483 5.99428 33.6566 7.28752 33.6566 8.87724C33.6566 10.467 34.8483 11.7602 36.3132 11.7602ZM36.3132 7.61325C36.9554 7.61325 37.4779 8.18033 37.4779 8.87714C37.4779 9.57395 36.9554 10.141 36.3132 10.141C35.6711 10.141 35.1485 9.57395 35.1485 8.87714C35.1485 8.18033 35.6711 7.61325 36.3132 7.61325Z" fill="#C90F16"/>
</svg>
