<svg width="61" height="61" viewBox="0 0 61 61" fill="none" xmlns="http://www.w3.org/2000/svg">
<g clip-path="url(#clip0_1_37075)">
<path d="M53.0988 30.374C53.1002 32.3771 52.8418 34.3718 52.3301 36.3084C50.379 35.7583 48.3269 35.6679 46.335 36.0443C44.3431 36.4206 42.4655 37.2534 40.8496 38.4774C39.2336 39.7014 37.9233 41.2832 37.0215 43.0987C36.1197 44.9142 35.6509 46.9141 35.6519 48.9412C35.6509 49.6036 35.7026 50.2651 35.8066 50.9193C35.8949 51.5318 36.0297 52.1367 36.2097 52.7287C35.7691 52.8553 35.3238 52.9678 34.8738 53.0662C33.2257 53.4342 31.5422 53.6197 29.8535 53.6193C27.8148 53.6189 25.785 53.351 23.816 52.8225C23.8254 52.799 23.8301 52.7709 23.8394 52.7475C24.4328 50.7863 24.5588 48.7134 24.2076 46.6948C23.8563 44.6762 23.0375 42.7677 21.8166 41.1222C20.5956 39.4767 19.0066 38.1398 17.1764 37.2185C15.3463 36.2971 13.3259 35.8169 11.2769 35.8162C9.96263 35.8154 8.65573 36.013 7.40037 36.4021C6.30695 32.3389 6.33936 28.0547 7.49412 24.0084C9.45429 24.5989 11.5254 24.7227 13.542 24.3697C15.5585 24.0167 17.4645 23.1968 19.1075 21.9756C20.7506 20.7544 22.0851 19.1656 23.0044 17.3365C23.9237 15.5073 24.4023 13.4884 24.4019 11.4412C24.4026 10.7788 24.3509 10.1174 24.2472 9.46309C24.1686 8.93293 24.0559 8.40841 23.9097 7.89277C25.85 7.38336 27.8475 7.125 29.8535 7.12402C31.9706 7.12438 34.0776 7.41458 36.116 7.98652C35.9841 8.47225 35.8808 8.96528 35.8066 9.46309C35.703 10.1174 35.6512 10.7788 35.6519 11.4412C35.652 13.4599 36.1176 15.4513 37.0127 17.2607C37.9077 19.0701 39.2081 20.6486 40.8126 21.8736C42.4172 23.0985 44.2826 23.9368 46.2639 24.3234C48.2452 24.7099 50.289 24.6342 52.2363 24.1021C52.8086 26.1436 53.0988 28.2538 53.0988 30.374Z" fill="#FFDB80"/>
<path d="M48.7774 0.191162C46.5523 0.191162 44.3772 0.850963 42.5272 2.08713C40.6771 3.32329 39.2352 5.0803 38.3837 7.13597C37.5322 9.19164 37.3094 11.4536 37.7435 13.6359C38.1776 15.8182 39.2491 17.8228 40.8224 19.3961C42.3957 20.9695 44.4003 22.0409 46.5826 22.475C48.7649 22.9091 51.0269 22.6863 53.0825 21.8348C55.1382 20.9833 56.8952 19.5414 58.1314 17.6913C59.3675 15.8413 60.0273 13.6662 60.0273 11.4412C60.0234 8.45869 58.8369 5.5995 56.7279 3.49057C54.619 1.38165 51.7598 0.195112 48.7774 0.191162ZM48.7774 20.8162C46.9232 20.8162 45.1106 20.2663 43.5689 19.2362C42.0272 18.2061 40.8255 16.7419 40.116 15.0288C39.4064 13.3158 39.2208 11.4308 39.5825 9.61219C39.9442 7.79362 40.8371 6.12315 42.1482 4.81204C43.4593 3.50092 45.1298 2.60804 46.9484 2.2463C48.7669 1.88456 50.652 2.07022 52.365 2.77979C54.0781 3.48936 55.5422 4.69098 56.5724 6.23269C57.6025 7.7744 58.1523 9.58696 58.1523 11.4412C58.1527 12.6724 57.9104 13.8916 57.4394 15.0292C56.9684 16.1668 56.2778 17.2004 55.4072 18.071C54.5366 18.9417 53.503 19.6322 52.3654 20.1032C51.2278 20.5742 50.0086 20.8165 48.7774 20.8162Z" fill="#2D4356"/>
<path d="M48.7773 2.06616C46.9231 2.06616 45.1106 2.616 43.5689 3.64613C42.0272 4.67627 40.8255 6.14045 40.116 7.85351C39.4064 9.56656 39.2207 11.4516 39.5825 13.2701C39.9442 15.0887 40.8371 16.7592 42.1482 18.0703C43.4593 19.3814 45.1298 20.2743 46.9484 20.636C48.7669 20.9978 50.6519 20.8121 52.365 20.1025C54.0781 19.393 55.5422 18.1913 56.5724 16.6496C57.6025 15.1079 58.1523 13.2954 58.1523 11.4412C58.1527 10.2099 57.9104 8.99069 57.4394 7.85311C56.9684 6.71553 56.2778 5.6819 55.4072 4.81128C54.5366 3.94067 53.503 3.25012 52.3654 2.7791C51.2278 2.30809 50.0086 2.06582 48.7773 2.06616ZM48.7773 18.9412C47.294 18.9412 45.8439 18.5013 44.6106 17.6772C43.3772 16.8531 42.4159 15.6817 41.8483 14.3113C41.2806 12.9408 41.1321 11.4328 41.4215 9.97798C41.7108 8.52313 42.4252 7.18676 43.474 6.13786C44.5229 5.08897 45.8593 4.37466 47.3142 4.08527C48.769 3.79588 50.277 3.94441 51.6475 4.51207C53.0179 5.07972 54.1893 6.04102 55.0134 7.27439C55.8375 8.50775 56.2773 9.9578 56.2773 11.4412C56.2747 13.4295 55.4837 15.3356 54.0777 16.7416C52.6718 18.1475 50.7657 18.9385 48.7773 18.9412Z" fill="#E1EBF4"/>
<path d="M48.7774 37.6912C46.5523 37.6912 44.3772 38.351 42.5272 39.5871C40.6771 40.8233 39.2352 42.5803 38.3837 44.636C37.5322 46.6916 37.3094 48.9536 37.7435 51.1359C38.1776 53.3182 39.2491 55.3228 40.8224 56.8961C42.3957 58.4695 44.4003 59.5409 46.5826 59.975C48.7649 60.4091 51.0269 60.1863 53.0825 59.3348C55.1382 58.4833 56.8952 57.0414 58.1314 55.1913C59.3675 53.3413 60.0273 51.1662 60.0273 48.9412C60.0234 45.9587 58.8369 43.0995 56.7279 40.9906C54.619 38.8816 51.7598 37.6951 48.7774 37.6912ZM48.7774 58.3162C46.9232 58.3162 45.1106 57.7663 43.5689 56.7362C42.0272 55.7061 40.8255 54.2419 40.116 52.5288C39.4064 50.8158 39.2208 48.9308 39.5825 47.1122C39.9442 45.2936 40.8371 43.6232 42.1482 42.312C43.4593 41.0009 45.1298 40.108 46.9484 39.7463C48.7669 39.3846 50.652 39.5702 52.365 40.2798C54.0781 40.9894 55.5422 42.191 56.5724 43.7327C57.6025 45.2744 58.1523 47.087 58.1523 48.9412C58.1527 50.1724 57.9104 51.3916 57.4394 52.5292C56.9684 53.6668 56.2778 54.7004 55.4072 55.571C54.5366 56.4417 53.503 57.1322 52.3654 57.6032C51.2278 58.0742 50.0086 58.3165 48.7774 58.3162Z" fill="#2D4356"/>
<path d="M48.7773 39.5662C46.9231 39.5662 45.1106 40.116 43.5689 41.1461C42.0272 42.1763 40.8255 43.6404 40.116 45.3535C39.4064 47.0666 39.2207 48.9516 39.5825 50.7701C39.9442 52.5887 40.8371 54.2592 42.1482 55.5703C43.4593 56.8814 45.1298 57.7743 46.9484 58.136C48.7669 58.4978 50.6519 58.3121 52.365 57.6025C54.0781 56.893 55.5422 55.6913 56.5724 54.1496C57.6025 52.6079 58.1523 50.7954 58.1523 48.9412C58.1527 47.7099 57.9104 46.4907 57.4394 45.3531C56.9684 44.2155 56.2778 43.1819 55.4072 42.3113C54.5366 41.4407 53.503 40.7501 52.3654 40.2791C51.2278 39.8081 50.0086 39.5658 48.7773 39.5662ZM54.7399 51.4115C54.8189 51.796 54.8017 52.1941 54.6896 52.5703C54.5776 52.9465 54.3742 53.2891 54.0977 53.5677L53.4039 54.2615C52.9599 54.7051 52.3581 54.9546 51.7305 54.9552C51.5682 54.9548 51.4064 54.9375 51.2477 54.9037C51.0319 55.2314 50.7383 55.5005 50.3931 55.687C50.0479 55.8735 49.6619 55.9715 49.2695 55.9724H48.2852C47.8928 55.9715 47.5068 55.8735 47.1616 55.687C46.8164 55.5005 46.5228 55.2314 46.307 54.9037C46.1483 54.9375 45.9865 54.9548 45.8242 54.9552C45.1966 54.9546 44.5948 54.7051 44.1508 54.2615L43.457 53.5677C43.1805 53.2891 42.9771 52.9465 42.8651 52.5703C42.753 52.1941 42.7358 51.796 42.8148 51.4115C42.4868 51.1961 42.2173 50.9026 42.0308 50.5573C41.8442 50.212 41.7464 49.8258 41.7461 49.4334V48.449C41.7464 48.0565 41.8442 47.6703 42.0308 47.325C42.2173 46.9797 42.4868 46.6862 42.8148 46.4709C42.7358 46.0864 42.753 45.6883 42.8651 45.312C42.9771 44.9358 43.1805 44.5932 43.457 44.3146L44.1508 43.6209C44.5948 43.1772 45.1966 42.9277 45.8242 42.9271C45.9865 42.9275 46.1483 42.9448 46.307 42.9787C46.5228 42.651 46.8164 42.3818 47.1616 42.1953C47.5068 42.0088 47.8928 41.9108 48.2852 41.9099H49.2695C49.6619 41.9108 50.0479 42.0088 50.3931 42.1953C50.7383 42.3818 51.0319 42.651 51.2477 42.9787C51.6321 42.8968 52.031 42.9126 52.4077 43.0248C52.7844 43.137 53.1269 43.342 53.4039 43.6209L54.0977 44.3146C54.3742 44.5932 54.5776 44.9358 54.6896 45.312C54.8017 45.6883 54.8189 46.0864 54.7399 46.4709C55.0679 46.6862 55.3374 46.9797 55.5239 47.325C55.7105 47.6703 55.8083 48.0565 55.8086 48.449V49.4334C55.8083 49.8258 55.7105 50.212 55.5239 50.5573C55.3374 50.9026 55.0679 51.1961 54.7399 51.4115Z" fill="#E1EBF4"/>
<path d="M11.2773 0.191162C9.05231 0.191162 6.87724 0.850963 5.02718 2.08713C3.17713 3.32329 1.73519 5.0803 0.883704 7.13597C0.0322182 9.19164 -0.190569 11.4536 0.243514 13.6359C0.677598 15.8182 1.74906 17.8228 3.3224 19.3961C4.89574 20.9695 6.9003 22.0409 9.08258 22.475C11.2649 22.9091 13.5269 22.6863 15.5825 21.8348C17.6382 20.9833 19.3952 19.5414 20.6314 17.6913C21.8675 15.8413 22.5273 13.6662 22.5273 11.4412C22.5234 8.45869 21.3369 5.5995 19.2279 3.49057C17.119 1.38165 14.2598 0.195112 11.2773 0.191162ZM11.2773 20.8162C9.42315 20.8162 7.61059 20.2663 6.06888 19.2362C4.52717 18.2061 3.32555 16.7419 2.61598 15.0288C1.90641 13.3158 1.72075 11.4308 2.08249 9.61219C2.44422 7.79362 3.33711 6.12315 4.64822 4.81204C5.95934 3.50092 7.62981 2.60804 9.44838 2.2463C11.2669 1.88456 13.1519 2.07022 14.865 2.77979C16.5781 3.48936 18.0422 4.69098 19.0724 6.23269C20.1025 7.7744 20.6523 9.58696 20.6523 11.4412C20.6527 12.6724 20.4104 13.8916 19.9394 15.0292C19.4684 16.1668 18.7778 17.2004 17.9072 18.071C17.0366 18.9417 16.003 19.6322 14.8654 20.1032C13.7278 20.5742 12.5086 20.8165 11.2773 20.8162Z" fill="#2D4356"/>
<path d="M11.2773 2.06616C9.42315 2.06616 7.61059 2.616 6.06888 3.64613C4.52717 4.67627 3.32555 6.14045 2.61598 7.85351C1.90641 9.56656 1.72075 11.4516 2.08249 13.2701C2.44422 15.0887 3.3371 16.7592 4.64822 18.0703C5.95934 19.3814 7.6298 20.2743 9.44838 20.636C11.2669 20.9978 13.1519 20.8121 14.865 20.1025C16.5781 19.393 18.0422 18.1913 19.0724 16.6496C20.1025 15.1079 20.6523 13.2954 20.6523 11.4412C20.6527 10.2099 20.4104 8.99069 19.9394 7.85311C19.4684 6.71553 18.7778 5.6819 17.9072 4.81128C17.0366 3.94067 16.003 3.25012 14.8654 2.7791C13.7278 2.30809 12.5086 2.06582 11.2773 2.06616ZM16.1992 15.6599H14.3242C14.0758 15.6592 13.8378 15.5602 13.6621 15.3845C13.4865 15.2089 13.3875 14.9708 13.3867 14.7224V12.3787H9.16797V14.7224C9.16724 14.9708 9.06823 15.2089 8.89258 15.3845C8.71692 15.5602 8.47889 15.6592 8.23047 15.6599H6.35547C5.60973 15.6593 4.89471 15.3628 4.36739 14.8355C3.84007 14.3082 3.54356 13.5932 3.54297 12.8474V10.0349C3.54356 9.28917 3.84007 8.57415 4.36739 8.04683C4.89471 7.51951 5.60973 7.223 6.35547 7.22241H8.23047C8.47889 7.22314 8.71693 7.32214 8.89258 7.4978C9.06824 7.67346 9.16725 7.9115 9.16797 8.15991V10.5037H13.3867V8.15991C13.3874 7.9115 13.4865 7.67346 13.6621 7.4978C13.8378 7.32214 14.0758 7.22314 14.3242 7.22241H16.1992C16.945 7.223 17.66 7.51951 18.1873 8.04683C18.7146 8.57415 19.0111 9.28917 19.0117 10.0349V12.8474C19.0111 13.5932 18.7146 14.3082 18.1873 14.8355C17.66 15.3628 16.945 15.6593 16.1992 15.6599Z" fill="#E1EBF4"/>
<path d="M53.4446 36.6766C54.6255 32.4336 54.6255 27.9486 53.4446 23.7056C52.8609 23.9282 52.2619 24.1085 51.6523 24.245C52.7229 28.1368 52.7229 32.2454 51.6523 36.1372C52.2619 36.2737 52.8609 36.454 53.4446 36.6766Z" fill="#2D4356"/>
<path opacity="0.5" d="M36.1164 7.98652C35.9845 8.47225 35.8812 8.96528 35.807 9.46309C32.0212 8.44434 28.0334 8.44434 24.2477 9.46309C24.169 8.93293 24.0563 8.40841 23.9102 7.89277C25.8504 7.38336 27.8479 7.125 29.8539 7.12402C31.971 7.12438 34.078 7.41458 36.1164 7.98652Z" fill="#F9EDD2"/>
<path opacity="0.45" d="M36.2102 52.7286C35.7695 52.8551 35.3242 52.9676 34.8742 53.0661C31.2211 53.8166 27.4435 53.7075 23.8398 52.7473C24.0203 52.1484 24.1582 51.5375 24.2523 50.9192C28.0365 51.9379 32.0228 51.9379 35.807 50.9192C35.8953 51.5317 36.0301 52.1365 36.2102 52.7286Z" fill="#AD9359"/>
<path d="M6.6103 23.7056C5.42938 27.9486 5.42938 32.4336 6.6103 36.6766C7.19397 36.454 7.79294 36.2737 8.40253 36.1372C7.33197 32.2454 7.33197 28.1368 8.40253 24.245C7.79294 24.1085 7.19397 23.9282 6.6103 23.7056Z" fill="#2D4356"/>
<path d="M11.2773 37.6912C9.05231 37.6912 6.87724 38.351 5.02718 39.5871C3.17713 40.8233 1.73519 42.5803 0.883704 44.636C0.0322182 46.6916 -0.190569 48.9536 0.243514 51.1359C0.677598 53.3182 1.74906 55.3228 3.3224 56.8961C4.89574 58.4695 6.9003 59.5409 9.08258 59.975C11.2649 60.4091 13.5269 60.1863 15.5825 59.3348C17.6382 58.4833 19.3952 57.0414 20.6314 55.1913C21.8675 53.3413 22.5273 51.1662 22.5273 48.9412C22.5234 45.9587 21.3369 43.0995 19.2279 40.9906C17.119 38.8816 14.2598 37.6951 11.2773 37.6912ZM11.2773 58.3162C9.42315 58.3162 7.61059 57.7663 6.06888 56.7362C4.52717 55.7061 3.32555 54.2419 2.61598 52.5288C1.90641 50.8158 1.72075 48.9308 2.08249 47.1122C2.44422 45.2936 3.33711 43.6232 4.64822 42.312C5.95934 41.0009 7.62981 40.108 9.44838 39.7463C11.2669 39.3846 13.1519 39.5702 14.865 40.2798C16.5781 40.9894 18.0422 42.191 19.0724 43.7327C20.1025 45.2744 20.6523 47.087 20.6523 48.9412C20.6527 50.1724 20.4104 51.3916 19.9394 52.5292C19.4684 53.6668 18.7778 54.7004 17.9072 55.571C17.0366 56.4417 16.003 57.1322 14.8654 57.6032C13.7278 58.0742 12.5086 58.3165 11.2773 58.3162Z" fill="#2D4356"/>
<path d="M11.2773 39.5662C9.42315 39.5662 7.61059 40.116 6.06888 41.1461C4.52717 42.1763 3.32555 43.6404 2.61598 45.3535C1.90641 47.0666 1.72075 48.9516 2.08249 50.7701C2.44422 52.5887 3.3371 54.2592 4.64822 55.5703C5.95934 56.8814 7.6298 57.7743 9.44838 58.136C11.2669 58.4978 13.1519 58.3121 14.865 57.6025C16.5781 56.893 18.0422 55.6913 19.0724 54.1496C20.1025 52.6079 20.6523 50.7954 20.6523 48.9412C20.6527 47.7099 20.4104 46.4907 19.9394 45.3531C19.4684 44.2155 18.7778 43.1819 17.9072 42.3113C17.0366 41.4407 16.003 40.7501 14.8654 40.2791C13.7278 39.8081 12.5086 39.5658 11.2773 39.5662ZM16.9023 53.1599C16.9024 53.4062 16.854 53.65 16.7598 53.8775C16.6656 54.105 16.5274 54.3118 16.3533 54.4859C16.1792 54.66 15.9725 54.7981 15.745 54.8923C15.5174 54.9865 15.2736 55.035 15.0273 55.0349H7.52735C7.2811 55.035 7.03725 54.9865 6.80974 54.8923C6.58222 54.7981 6.3755 54.66 6.20137 54.4859C6.02725 54.3118 5.88914 54.105 5.79494 53.8775C5.70073 53.65 5.65228 53.4062 5.65235 53.1599V44.7224C5.65228 44.4762 5.70073 44.2323 5.79493 44.0048C5.88913 43.7773 6.02724 43.5706 6.20137 43.3964C6.37549 43.2223 6.58222 43.0842 6.80973 42.99C7.03725 42.8958 7.2811 42.8473 7.52735 42.8474H10.3398C10.3398 42.5988 10.4386 42.3603 10.6144 42.1845C10.7903 42.0087 11.0287 41.9099 11.2773 41.9099C11.526 41.9099 11.7644 42.0087 11.9403 42.1845C12.1161 42.3603 12.2148 42.5988 12.2148 42.8474H15.0273C15.2736 42.8473 15.5174 42.8958 15.745 42.99C15.9725 43.0842 16.1792 43.2223 16.3533 43.3964C16.5275 43.5706 16.6656 43.7773 16.7598 44.0048C16.854 44.2323 16.9024 44.4762 16.9023 44.7224V53.1599Z" fill="#E1EBF4"/>
<path d="M48.7773 3.94116C47.294 3.94116 45.8439 4.38103 44.6106 5.20514C43.3772 6.02925 42.4159 7.20059 41.8483 8.57104C41.2806 9.94148 41.1321 11.4495 41.4215 12.9043C41.7108 14.3592 42.4252 15.6956 43.474 16.7445C44.5229 17.7934 45.8593 18.5077 47.3142 18.7971C48.769 19.0864 50.277 18.9379 51.6475 18.3703C53.0179 17.8026 54.1893 16.8413 55.0134 15.6079C55.8375 14.3746 56.2773 12.9245 56.2773 11.4412C56.2747 9.45285 55.4837 7.54672 54.0777 6.14077C52.6718 4.73482 50.7657 3.9438 48.7773 3.94116ZM53.2492 14.8396C53.1152 14.8136 52.977 14.8175 52.8447 14.8512C52.7124 14.8848 52.5891 14.9474 52.4838 15.0343C52.3785 15.1212 52.2938 15.2304 52.2356 15.354C52.1775 15.4775 52.1475 15.6124 52.1477 15.749C52.1495 15.8072 52.1558 15.8652 52.1664 15.9224C51.4022 16.5024 50.5013 16.8753 49.5508 17.0052C49.5172 16.9582 49.4796 16.9143 49.4383 16.874C49.3297 16.7649 49.1959 16.6842 49.0487 16.6393C48.9015 16.5943 48.7455 16.5864 48.5945 16.6162C48.534 16.629 48.4744 16.6462 48.4164 16.6677C48.3608 16.6928 48.3075 16.7226 48.257 16.7568C48.2044 16.7903 48.1556 16.8296 48.1117 16.874C48.0719 16.9144 48.0358 16.9583 48.0039 17.0052C47.0537 16.8741 46.1531 16.5013 45.3883 15.9224C45.3989 15.8652 45.4051 15.8072 45.407 15.749C45.4047 15.501 45.3054 15.2638 45.1304 15.088C45.0227 14.9806 44.8904 14.9011 44.7451 14.8561C44.5997 14.8112 44.4456 14.8023 44.2961 14.8302C43.7172 14.0654 43.3444 13.1648 43.2133 12.2146C43.2617 12.1828 43.3072 12.1467 43.3492 12.1068C43.523 11.9288 43.6205 11.69 43.6211 11.4412C43.6214 11.1936 43.5236 10.9559 43.3492 10.7802C43.3072 10.7389 43.2618 10.7012 43.2133 10.6677C43.3432 9.71721 43.7161 8.81629 44.2961 8.0521C44.353 8.06528 44.4112 8.07158 44.4695 8.07085C44.7176 8.06905 44.955 7.9697 45.1305 7.79427C45.3059 7.61885 45.4052 7.38143 45.407 7.13335C45.4077 7.075 45.4015 7.01677 45.3883 6.95991C46.152 6.37915 47.0532 6.0061 48.0039 5.8771C48.0897 6.00326 48.205 6.10653 48.3398 6.17791C48.4746 6.24929 48.6248 6.2866 48.7773 6.2866C48.9299 6.2866 49.0801 6.24929 49.2149 6.17791C49.3497 6.10653 49.465 6.00326 49.5508 5.8771C50.5015 6.0061 51.4027 6.37915 52.1664 6.95991C52.1558 7.01717 52.1495 7.07515 52.1477 7.13335C52.1495 7.38143 52.2488 7.61885 52.4242 7.79427C52.5997 7.9697 52.8371 8.06905 53.0852 8.07085C53.1435 8.07158 53.2017 8.06528 53.2586 8.0521C53.8386 8.81629 54.2115 9.71721 54.3414 10.6677C54.2935 10.7001 54.2495 10.7378 54.2102 10.7802C54.1223 10.8663 54.0525 10.9692 54.005 11.0827C53.9575 11.1962 53.9332 11.3181 53.9336 11.4412C53.933 11.5936 53.9698 11.7439 54.041 11.8788C54.1121 12.0137 54.2153 12.129 54.3414 12.2146C54.21 13.1692 53.8338 14.0735 53.2492 14.8396Z" fill="#2D4356"/>
<path d="M53.9332 11.441C53.9328 11.318 53.9571 11.1961 54.0046 11.0826C54.0521 10.9691 54.1219 10.8662 54.2098 10.7801C54.2491 10.7377 54.2931 10.6999 54.341 10.6676C54.2111 9.71706 53.8382 8.81615 53.2582 8.05195C53.2014 8.06514 53.1431 8.07143 53.0848 8.0707C52.8367 8.0689 52.5993 7.96955 52.4238 7.79413C52.2484 7.6187 52.1491 7.38129 52.1473 7.1332C52.1491 7.075 52.1554 7.01702 52.166 6.95977C51.4023 6.37901 50.5011 6.00596 49.5504 5.87695C49.4646 6.00311 49.3493 6.10639 49.2145 6.17776C49.0797 6.24914 48.9295 6.28646 48.777 6.28646C48.6244 6.28646 48.4742 6.24914 48.3394 6.17776C48.2046 6.10639 48.0893 6.00311 48.0035 5.87695C47.0528 6.00596 46.1516 6.37901 45.3879 6.95977C45.4011 7.01662 45.4074 7.07485 45.4066 7.1332C45.4048 7.38129 45.3055 7.6187 45.1301 7.79413C44.9546 7.96955 44.7172 8.0689 44.4691 8.0707C44.4108 8.07143 44.3526 8.06514 44.2957 8.05195C43.7157 8.81615 43.3428 9.71706 43.2129 10.6676C43.2614 10.7011 43.3069 10.7387 43.3488 10.7801C43.5233 10.9558 43.621 11.1934 43.6207 11.441C43.6202 11.6898 43.5226 11.9286 43.3488 12.1066C43.3068 12.1465 43.2613 12.1826 43.2129 12.2145C43.344 13.1646 43.7168 14.0653 44.2957 14.8301C44.4453 14.8022 44.5994 14.8111 44.7447 14.856C44.8901 14.9009 45.0223 14.9805 45.1301 15.0879C45.3051 15.2636 45.4043 15.5008 45.4066 15.7488C45.4048 15.807 45.3985 15.865 45.3879 15.9223C46.1527 16.5011 47.0533 16.8739 48.0035 17.0051C48.0354 16.9582 48.0715 16.9142 48.1113 16.8738C48.1553 16.8295 48.204 16.7902 48.2566 16.7566C48.3071 16.7224 48.3604 16.6926 48.416 16.6676C48.4741 16.6461 48.5336 16.6289 48.5941 16.616C48.7451 16.5862 48.9012 16.5941 49.0483 16.6391C49.1955 16.6841 49.3293 16.7647 49.4379 16.8738C49.4792 16.9142 49.5168 16.9581 49.5504 17.0051C50.5009 16.8752 51.4018 16.5022 52.166 15.9223C52.1554 15.865 52.1492 15.807 52.1473 15.7488C52.1471 15.6123 52.1772 15.4774 52.2353 15.3538C52.2934 15.2303 52.3782 15.1211 52.4835 15.0342C52.5888 14.9472 52.712 14.8847 52.8443 14.851C52.9767 14.8174 53.1148 14.8134 53.2489 14.8395C53.8334 14.0734 54.2097 13.1691 54.341 12.2145C54.2149 12.1288 54.1117 12.0135 54.0406 11.8786C53.9695 11.7438 53.9326 11.5935 53.9332 11.441ZM50.1832 12.3785H48.777C48.5285 12.3778 48.2905 12.2788 48.1148 12.1031C47.9392 11.9275 47.8402 11.6894 47.8395 11.441V9.09727C47.8395 8.84863 47.9382 8.61017 48.114 8.43435C48.2899 8.25854 48.5283 8.15977 48.777 8.15977C49.0256 8.15977 49.2641 8.25854 49.4399 8.43435C49.6157 8.61017 49.7145 8.84863 49.7145 9.09727V10.5035H50.1832C50.4318 10.5035 50.6703 10.6023 50.8461 10.7781C51.0219 10.9539 51.1207 11.1924 51.1207 11.441C51.1207 11.6897 51.0219 11.9281 50.8461 12.1039C50.6703 12.2797 50.4318 12.3785 50.1832 12.3785Z" fill="#81D9E3"/>
<path d="M51.1211 11.4412C51.1204 11.6896 51.0214 11.9276 50.8457 12.1033C50.67 12.2789 50.432 12.3779 50.1836 12.3787H48.7773C48.5289 12.3779 48.2909 12.2789 48.1152 12.1033C47.9396 11.9276 47.8406 11.6896 47.8398 11.4412V9.09741C47.8398 8.84877 47.9386 8.61032 48.1144 8.4345C48.2902 8.25868 48.5287 8.15991 48.7773 8.15991C49.026 8.15991 49.2644 8.25868 49.4403 8.4345C49.6161 8.61032 49.7148 8.84877 49.7148 9.09741V10.5037H50.1836C50.432 10.5044 50.67 10.6034 50.8457 10.7791C51.0214 10.9547 51.1204 11.1927 51.1211 11.4412Z" fill="#2D4356"/>
<path d="M54.7398 46.4709C54.8189 46.0864 54.8017 45.6883 54.6896 45.312C54.5776 44.9358 54.3742 44.5932 54.0977 44.3146L53.4039 43.6209C53.1269 43.342 52.7844 43.137 52.4077 43.0248C52.0309 42.9126 51.6321 42.8968 51.2477 42.9787C51.0319 42.651 50.7383 42.3818 50.3931 42.1953C50.0479 42.0088 49.6619 41.9108 49.2695 41.9099H48.2852C47.8928 41.9108 47.5068 42.0088 47.1616 42.1953C46.8164 42.3818 46.5228 42.651 46.307 42.9787C46.1483 42.9448 45.9865 42.9275 45.8242 42.9271C45.1966 42.9277 44.5948 43.1772 44.1508 43.6209L43.457 44.3146C43.1805 44.5932 42.9771 44.9358 42.8651 45.312C42.753 45.6883 42.7358 46.0864 42.8148 46.4709C42.4868 46.6862 42.2173 46.9797 42.0308 47.325C41.8442 47.6703 41.7464 48.0565 41.7461 48.449V49.4334C41.7464 49.8258 41.8442 50.212 42.0308 50.5573C42.2173 50.9026 42.4867 51.1961 42.8148 51.4115C42.7358 51.796 42.753 52.1941 42.8651 52.5703C42.9771 52.9465 43.1805 53.2891 43.457 53.5677L44.1508 54.2615C44.5948 54.7051 45.1966 54.9546 45.8242 54.9552C45.9865 54.9548 46.1483 54.9375 46.307 54.9037C46.5228 55.2314 46.8164 55.5005 47.1616 55.687C47.5068 55.8735 47.8928 55.9715 48.2852 55.9724H49.2695C49.6619 55.9715 50.0479 55.8735 50.3931 55.687C50.7383 55.5005 51.0319 55.2314 51.2477 54.9037C51.4064 54.9375 51.5682 54.9548 51.7305 54.9552C52.3581 54.9546 52.9599 54.7051 53.4039 54.2615L54.0977 53.5677C54.3742 53.2891 54.5776 52.9465 54.6896 52.5703C54.8017 52.1941 54.8189 51.796 54.7398 51.4115C55.0679 51.1961 55.3374 50.9026 55.5239 50.5573C55.7105 50.212 55.8083 49.8258 55.8086 49.4334V48.449C55.8083 48.0565 55.7105 47.6703 55.5239 47.325C55.3374 46.9797 55.0679 46.6862 54.7398 46.4709ZM53.9336 49.4334C53.9336 49.498 53.9209 49.562 53.8962 49.6217C53.8714 49.6814 53.8352 49.7357 53.7895 49.7814C53.7438 49.8271 53.6895 49.8634 53.6298 49.8881C53.5701 49.9128 53.506 49.9255 53.4414 49.9255C53.3426 49.9256 53.2463 49.9569 53.1663 50.015C53.0863 50.0731 53.0267 50.155 52.9961 50.249C52.9182 50.5071 52.8145 50.7568 52.6867 50.9943C52.6407 51.0828 52.624 51.1837 52.6392 51.2823C52.6544 51.3809 52.7006 51.4721 52.7711 51.5427V51.5474C52.8168 51.5929 52.853 51.6469 52.8778 51.7065C52.9025 51.766 52.9152 51.8298 52.9152 51.8943C52.9152 51.9588 52.9025 52.0226 52.8778 52.0821C52.853 52.1416 52.8168 52.1957 52.7711 52.2412L52.0773 52.9349C51.9844 53.0257 51.8604 53.0776 51.7305 53.0802C51.6002 53.0794 51.4755 53.0272 51.3836 52.9349H51.3789C51.3095 52.8624 51.2182 52.8148 51.119 52.7996C51.0198 52.7843 50.9184 52.8022 50.8305 52.8505C50.5943 52.9775 50.3462 53.0812 50.0898 53.1599C49.9948 53.1895 49.9118 53.2486 49.8527 53.3288C49.7937 53.4089 49.7618 53.5057 49.7617 53.6052C49.7617 53.6699 49.749 53.7339 49.7243 53.7936C49.6995 53.8533 49.6633 53.9076 49.6176 53.9533C49.5719 53.999 49.5176 54.0352 49.4579 54.06C49.3982 54.0847 49.3342 54.0974 49.2695 54.0974H48.2852C48.2205 54.0974 48.1565 54.0847 48.0968 54.06C48.0371 54.0352 47.9828 53.999 47.9371 53.9533C47.8914 53.9076 47.8551 53.8533 47.8304 53.7936C47.8057 53.7339 47.793 53.6699 47.793 53.6052C47.7929 53.5064 47.7616 53.4101 47.7035 53.3301C47.6454 53.2501 47.5635 53.1905 47.4695 53.1599C47.2114 53.082 46.9617 52.9784 46.7242 52.8505C46.6363 52.8022 46.5348 52.7843 46.4357 52.7996C46.3365 52.8148 46.2451 52.8624 46.1758 52.9349H46.1711C46.0791 53.0272 45.9545 53.0794 45.8242 53.0802C45.6943 53.0776 45.5703 53.0257 45.4773 52.9349L44.7836 52.2412C44.7379 52.1957 44.7017 52.1416 44.6769 52.0821C44.6522 52.0226 44.6395 51.9588 44.6395 51.8943C44.6395 51.8298 44.6522 51.766 44.6769 51.7065C44.7017 51.6469 44.7379 51.5929 44.7836 51.5474V51.5427C44.8541 51.4721 44.9003 51.3809 44.9155 51.2823C44.9306 51.1837 44.914 51.0828 44.868 50.9943C44.7401 50.7568 44.6365 50.5071 44.5586 50.249C44.528 50.155 44.4684 50.0731 44.3884 50.015C44.3084 49.9569 44.2121 49.9256 44.1133 49.9255C44.0486 49.9255 43.9846 49.9128 43.9249 49.8881C43.8652 49.8634 43.8109 49.8271 43.7652 49.7814C43.7195 49.7357 43.6833 49.6814 43.6585 49.6217C43.6338 49.562 43.6211 49.498 43.6211 49.4334V48.449C43.6211 48.3843 43.6338 48.3203 43.6585 48.2606C43.6833 48.2009 43.7195 48.1466 43.7652 48.1009C43.8109 48.0552 43.8652 48.019 43.9249 47.9942C43.9846 47.9695 44.0486 47.9568 44.1133 47.9568C44.2121 47.9567 44.3084 47.9254 44.3884 47.8673C44.4684 47.8092 44.528 47.7273 44.5586 47.6333C44.6365 47.3752 44.7401 47.1255 44.868 46.888C44.914 46.7995 44.9306 46.6986 44.9155 46.6C44.9003 46.5014 44.8541 46.4102 44.7836 46.3396V46.3349C44.7379 46.2894 44.7017 46.2354 44.6769 46.1759C44.6522 46.1163 44.6395 46.0525 44.6395 45.988C44.6395 45.9236 44.6522 45.8598 44.6769 45.8002C44.7017 45.7407 44.7379 45.6866 44.7836 45.6412L45.4773 44.9474C45.5703 44.8566 45.6943 44.8047 45.8242 44.8021C45.9545 44.8029 46.0791 44.8551 46.1711 44.9474H46.1758C46.2451 45.0199 46.3365 45.0675 46.4357 45.0827C46.5348 45.098 46.6363 45.0801 46.7242 45.0318C46.9617 44.904 47.2114 44.8003 47.4695 44.7224C47.5635 44.6918 47.6454 44.6322 47.7035 44.5522C47.7616 44.4723 47.7929 44.376 47.793 44.2771C47.793 44.2125 47.8057 44.1485 47.8304 44.0887C47.8551 44.029 47.8914 43.9748 47.9371 43.929C47.9828 43.8833 48.0371 43.8471 48.0968 43.8224C48.1565 43.7976 48.2205 43.7849 48.2852 43.7849H49.2695C49.3342 43.7849 49.3982 43.7976 49.4579 43.8224C49.5176 43.8471 49.5719 43.8833 49.6176 43.929C49.6633 43.9748 49.6995 44.029 49.7243 44.0887C49.749 44.1485 49.7617 44.2125 49.7617 44.2771C49.7618 44.3766 49.7937 44.4735 49.8528 44.5536C49.9118 44.6337 49.9948 44.6928 50.0898 44.7224C50.3462 44.8012 50.5943 44.9048 50.8305 45.0318C50.9184 45.0801 51.0198 45.098 51.119 45.0827C51.2182 45.0675 51.3095 45.0199 51.3789 44.9474H51.3836C51.4755 44.8551 51.6002 44.8029 51.7305 44.8021C51.8604 44.8047 51.9844 44.8566 52.0773 44.9474L52.7711 45.6412C52.8168 45.6866 52.853 45.7407 52.8778 45.8002C52.9025 45.8598 52.9152 45.9236 52.9152 45.988C52.9152 46.0525 52.9025 46.1163 52.8778 46.1759C52.853 46.2354 52.8168 46.2894 52.7711 46.3349V46.3396C52.7006 46.4102 52.6544 46.5014 52.6392 46.6C52.624 46.6986 52.6407 46.7995 52.6867 46.888C52.8146 47.1255 52.9182 47.3752 52.9961 47.6333C53.0267 47.7273 53.0863 47.8092 53.1663 47.8673C53.2463 47.9254 53.3426 47.9567 53.4414 47.9568C53.506 47.9568 53.57 47.9695 53.6298 47.9942C53.6895 48.019 53.7437 48.0552 53.7895 48.1009C53.8352 48.1466 53.8714 48.2009 53.8961 48.2606C53.9209 48.3203 53.9336 48.3843 53.9336 48.449V49.4334Z" fill="#2D4356"/>
<path d="M53.4414 47.9568C53.3426 47.9567 53.2463 47.9254 53.1663 47.8673C53.0863 47.8092 53.0267 47.7273 52.9961 47.6333C52.9182 47.3752 52.8146 47.1255 52.6867 46.888C52.6407 46.7995 52.624 46.6986 52.6392 46.6C52.6544 46.5014 52.7006 46.4102 52.7711 46.3396V46.3349C52.8168 46.2894 52.853 46.2354 52.8778 46.1759C52.9025 46.1163 52.9152 46.0525 52.9152 45.988C52.9152 45.9236 52.9025 45.8598 52.8778 45.8002C52.853 45.7407 52.8168 45.6866 52.7711 45.6412L52.0773 44.9474C51.9844 44.8566 51.8604 44.8047 51.7305 44.8021C51.6002 44.8029 51.4755 44.8551 51.3836 44.9474H51.3789C51.3095 45.0199 51.2182 45.0675 51.119 45.0827C51.0198 45.098 50.9184 45.0801 50.8305 45.0318C50.5943 44.9048 50.3462 44.8012 50.0898 44.7224C49.9948 44.6928 49.9118 44.6337 49.8528 44.5536C49.7937 44.4735 49.7618 44.3766 49.7617 44.2771C49.7617 44.2125 49.749 44.1485 49.7243 44.0887C49.6995 44.029 49.6633 43.9748 49.6176 43.929C49.5719 43.8833 49.5176 43.8471 49.4579 43.8224C49.3982 43.7976 49.3342 43.7849 49.2695 43.7849H48.2852C48.2205 43.7849 48.1565 43.7976 48.0968 43.8224C48.0371 43.8471 47.9828 43.8833 47.9371 43.929C47.8914 43.9748 47.8551 44.029 47.8304 44.0887C47.8057 44.1485 47.793 44.2125 47.793 44.2771C47.7929 44.376 47.7616 44.4723 47.7035 44.5522C47.6454 44.6322 47.5635 44.6918 47.4695 44.7224C47.2114 44.8003 46.9617 44.904 46.7242 45.0318C46.6363 45.0801 46.5348 45.098 46.4357 45.0827C46.3365 45.0675 46.2451 45.0199 46.1758 44.9474H46.1711C46.0791 44.8551 45.9545 44.8029 45.8242 44.8021C45.6943 44.8047 45.5703 44.8566 45.4773 44.9474L44.7836 45.6412C44.7379 45.6866 44.7017 45.7407 44.6769 45.8002C44.6522 45.8598 44.6395 45.9236 44.6395 45.988C44.6395 46.0525 44.6522 46.1163 44.6769 46.1759C44.7017 46.2354 44.7379 46.2894 44.7836 46.3349V46.3396C44.8541 46.4102 44.9003 46.5014 44.9155 46.6C44.9306 46.6986 44.914 46.7995 44.868 46.888C44.7401 47.1255 44.6365 47.3752 44.5586 47.6333C44.528 47.7273 44.4684 47.8092 44.3884 47.8673C44.3084 47.9254 44.2121 47.9567 44.1133 47.9568C44.0486 47.9568 43.9846 47.9695 43.9249 47.9942C43.8652 48.019 43.8109 48.0552 43.7652 48.1009C43.7195 48.1466 43.6833 48.2009 43.6585 48.2606C43.6338 48.3203 43.6211 48.3843 43.6211 48.449V49.4334C43.6211 49.498 43.6338 49.562 43.6585 49.6217C43.6833 49.6814 43.7195 49.7357 43.7652 49.7814C43.8109 49.8271 43.8652 49.8634 43.9249 49.8881C43.9846 49.9128 44.0486 49.9255 44.1133 49.9255C44.2121 49.9256 44.3084 49.9569 44.3884 50.015C44.4684 50.0731 44.528 50.155 44.5586 50.249C44.6365 50.5071 44.7401 50.7568 44.868 50.9943C44.914 51.0828 44.9306 51.1837 44.9155 51.2823C44.9003 51.3809 44.8541 51.4721 44.7836 51.5427V51.5474C44.7379 51.5929 44.7017 51.6469 44.6769 51.7065C44.6522 51.766 44.6395 51.8298 44.6395 51.8943C44.6395 51.9588 44.6522 52.0226 44.6769 52.0821C44.7017 52.1416 44.7379 52.1957 44.7836 52.2412L45.4773 52.9349C45.5703 53.0257 45.6943 53.0776 45.8242 53.0802C45.9545 53.0794 46.0791 53.0272 46.1711 52.9349H46.1758C46.2451 52.8624 46.3365 52.8148 46.4357 52.7996C46.5348 52.7843 46.6363 52.8022 46.7242 52.8505C46.9617 52.9784 47.2114 53.082 47.4695 53.1599C47.5635 53.1905 47.6454 53.2501 47.7035 53.3301C47.7616 53.4101 47.7929 53.5064 47.793 53.6052C47.793 53.6699 47.8057 53.7339 47.8304 53.7936C47.8551 53.8533 47.8914 53.9076 47.9371 53.9533C47.9828 53.999 48.0371 54.0352 48.0968 54.06C48.1565 54.0847 48.2205 54.0974 48.2852 54.0974H49.2695C49.3342 54.0974 49.3982 54.0847 49.4579 54.06C49.5176 54.0352 49.5719 53.999 49.6176 53.9533C49.6633 53.9076 49.6995 53.8533 49.7243 53.7936C49.749 53.7339 49.7617 53.6699 49.7617 53.6052C49.7618 53.5057 49.7937 53.4089 49.8527 53.3288C49.9118 53.2486 49.9948 53.1895 50.0898 53.1599C50.3462 53.0812 50.5943 52.9775 50.8305 52.8505C50.9184 52.8022 51.0198 52.7843 51.119 52.7996C51.2182 52.8148 51.3095 52.8624 51.3789 52.9349H51.3836C51.4755 53.0272 51.6002 53.0794 51.7305 53.0802C51.8604 53.0776 51.9844 53.0257 52.0773 52.9349L52.7711 52.2412C52.8168 52.1957 52.853 52.1416 52.8778 52.0821C52.9025 52.0226 52.9152 51.9588 52.9152 51.8943C52.9152 51.8298 52.9025 51.766 52.8778 51.7065C52.853 51.6469 52.8168 51.5929 52.7711 51.5474V51.5427C52.7006 51.4721 52.6544 51.3809 52.6392 51.2823C52.624 51.1837 52.6407 51.0828 52.6867 50.9943C52.8145 50.7568 52.9182 50.5071 52.9961 50.249C53.0267 50.155 53.0863 50.0731 53.1663 50.015C53.2463 49.9569 53.3426 49.9256 53.4414 49.9255C53.506 49.9255 53.5701 49.9128 53.6298 49.8881C53.6895 49.8634 53.7438 49.8271 53.7895 49.7814C53.8352 49.7357 53.8714 49.6814 53.8962 49.6217C53.9209 49.562 53.9336 49.498 53.9336 49.4334V48.449C53.9336 48.3843 53.9209 48.3203 53.8961 48.2606C53.8714 48.2009 53.8352 48.1466 53.7895 48.1009C53.7437 48.0552 53.6895 48.019 53.6298 47.9942C53.57 47.9695 53.506 47.9568 53.4414 47.9568ZM48.7773 51.7537C48.2211 51.7537 47.6773 51.5887 47.2148 51.2797C46.7523 50.9706 46.3918 50.5314 46.1789 50.0175C45.9661 49.5035 45.9104 48.938 46.0189 48.3925C46.1274 47.8469 46.3953 47.3458 46.7886 46.9524C47.1819 46.5591 47.6831 46.2912 48.2287 46.1827C48.7742 46.0742 49.3397 46.1299 49.8536 46.3428C50.3676 46.5556 50.8068 46.9161 51.1159 47.3786C51.4249 47.8411 51.5898 48.3849 51.5898 48.9412C51.5893 49.6869 51.2927 50.4019 50.7654 50.9292C50.2381 51.4566 49.5231 51.7531 48.7773 51.7537Z" fill="#81D9E3"/>
<path d="M48.7773 46.1287C48.2211 46.1287 47.6773 46.2936 47.2148 46.6027C46.7523 46.9117 46.3918 47.3509 46.1789 47.8649C45.9661 48.3788 45.9104 48.9443 46.0189 49.4899C46.1274 50.0354 46.3953 50.5366 46.7886 50.9299C47.1819 51.3232 47.6831 51.5911 48.2287 51.6996C48.7742 51.8081 49.3397 51.7524 49.8536 51.5396C50.3676 51.3267 50.8068 50.9662 51.1159 50.5037C51.4249 50.0412 51.5898 49.4974 51.5898 48.9412C51.5893 48.1954 51.2927 47.4804 50.7654 46.9531C50.2381 46.4258 49.5231 46.1293 48.7773 46.1287ZM48.7773 49.8787C48.5919 49.8787 48.4107 49.8237 48.2565 49.7207C48.1023 49.6177 47.9822 49.4712 47.9112 49.2999C47.8403 49.1286 47.8217 48.9401 47.8579 48.7583C47.894 48.5764 47.9833 48.4094 48.1144 48.2782C48.2455 48.1471 48.4126 48.0578 48.5944 48.0217C48.7763 47.9855 48.9648 48.0041 49.1361 48.075C49.3074 48.146 49.4538 48.2661 49.5568 48.4203C49.6599 48.5745 49.7148 48.7557 49.7148 48.9412C49.7141 49.1896 49.6151 49.4276 49.4395 49.6033C49.2638 49.7789 49.0258 49.8779 48.7773 49.8787Z" fill="#2D4356"/>
<path d="M15.0273 42.8474H12.2148C12.2148 42.5988 12.1161 42.3603 11.9403 42.1845C11.7644 42.0087 11.526 41.9099 11.2773 41.9099C11.0287 41.9099 10.7902 42.0087 10.6144 42.1845C10.4386 42.3603 10.3398 42.5988 10.3398 42.8474H7.52734C7.2811 42.8473 7.03725 42.8958 6.80973 42.99C6.58221 43.0842 6.37549 43.2223 6.20136 43.3964C6.02724 43.5706 5.88913 43.7773 5.79493 44.0048C5.70072 44.2323 5.65227 44.4762 5.65234 44.7224V53.1599C5.65228 53.4062 5.70073 53.65 5.79493 53.8775C5.88914 54.105 6.02725 54.3118 6.20137 54.4859C6.37549 54.66 6.58222 54.7981 6.80973 54.8923C7.03725 54.9865 7.2811 55.035 7.52734 55.0349H15.0273C15.2736 55.035 15.5174 54.9865 15.745 54.8923C15.9725 54.7981 16.1792 54.66 16.3533 54.4859C16.5274 54.3118 16.6656 54.105 16.7598 53.8775C16.854 53.65 16.9024 53.4062 16.9023 53.1599V44.7224C16.9024 44.4762 16.854 44.2323 16.7598 44.0048C16.6656 43.7773 16.5274 43.5706 16.3533 43.3964C16.1792 43.2223 15.9725 43.0842 15.745 42.99C15.5174 42.8958 15.2736 42.8473 15.0273 42.8474ZM15.0273 53.1599H7.52734V44.7224H15.0273V53.1599Z" fill="#2D4356"/>
<path d="M7.52734 44.7224V53.1599H15.0273V44.7224H7.52734ZM12.2148 51.2849H10.3398C10.0912 51.2849 9.85275 51.1861 9.67693 51.0103C9.50112 50.8345 9.40234 50.5961 9.40234 50.3474C9.40234 50.0988 9.50112 49.8603 9.67693 49.6845C9.85275 49.5087 10.0912 49.4099 10.3398 49.4099H12.2148C12.4635 49.4099 12.7019 49.5087 12.8778 49.6845C13.0536 49.8603 13.1523 50.0988 13.1523 50.3474C13.1523 50.5961 13.0536 50.8345 12.8778 51.0103C12.7019 51.1861 12.4635 51.2849 12.2148 51.2849ZM12.2148 48.4724H10.3398C10.0912 48.4724 9.85275 48.3736 9.67693 48.1978C9.50112 48.022 9.40234 47.7836 9.40234 47.5349C9.40234 47.2863 9.50112 47.0478 9.67693 46.872C9.85275 46.6962 10.0912 46.5974 10.3398 46.5974H12.2148C12.4635 46.5974 12.7019 46.6962 12.8778 46.872C13.0536 47.0478 13.1523 47.2863 13.1523 47.5349C13.1523 47.7836 13.0536 48.022 12.8778 48.1978C12.7019 48.3736 12.4635 48.4724 12.2148 48.4724Z" fill="#81D9E3"/>
<path d="M13.1523 47.5349C13.1516 47.7833 13.0526 48.0214 12.8769 48.197C12.7013 48.3727 12.4633 48.4717 12.2148 48.4724H10.3398C10.0912 48.4724 9.85275 48.3736 9.67693 48.1978C9.50112 48.022 9.40234 47.7836 9.40234 47.5349C9.40234 47.2863 9.50112 47.0478 9.67693 46.872C9.85275 46.6962 10.0912 46.5974 10.3398 46.5974H12.2148C12.4633 46.5981 12.7013 46.6971 12.877 46.8728C13.0526 47.0485 13.1516 47.2865 13.1523 47.5349Z" fill="#2D4356"/>
<path d="M13.1523 50.3474C13.1516 50.5958 13.0526 50.8339 12.8769 51.0095C12.7013 51.1852 12.4633 51.2842 12.2148 51.2849H10.3398C10.0912 51.2849 9.85275 51.1861 9.67693 51.0103C9.50112 50.8345 9.40234 50.5961 9.40234 50.3474C9.40234 50.0988 9.50112 49.8603 9.67693 49.6845C9.85275 49.5087 10.0912 49.4099 10.3398 49.4099H12.2148C12.4633 49.4106 12.7013 49.5096 12.877 49.6853C13.0526 49.861 13.1516 50.099 13.1523 50.3474Z" fill="#2D4356"/>
<path d="M16.1992 7.22241H14.3242C14.0758 7.22314 13.8378 7.32214 13.6621 7.4978C13.4865 7.67346 13.3874 7.91149 13.3867 8.15991V10.5037H9.16797V8.15991C9.16724 7.91149 9.06824 7.67346 8.89258 7.4978C8.71692 7.32214 8.47889 7.22314 8.23047 7.22241H6.35547C5.60973 7.223 4.8947 7.51951 4.36738 8.04683C3.84007 8.57414 3.54356 9.28917 3.54297 10.0349V12.8474C3.54356 13.5932 3.84007 14.3082 4.36738 14.8355C4.8947 15.3628 5.60973 15.6593 6.35547 15.6599H8.23047C8.47888 15.6592 8.71692 15.5602 8.89257 15.3845C9.06823 15.2089 9.16724 14.9708 9.16797 14.7224V12.3787H13.3867V14.7224C13.3874 14.9708 13.4865 15.2089 13.6621 15.3845C13.8378 15.5602 14.0758 15.6592 14.3242 15.6599H16.1992C16.945 15.6593 17.66 15.3628 18.1873 14.8355C18.7146 14.3082 19.0111 13.5932 19.0117 12.8474V10.0349C19.0111 9.28917 18.7146 8.57414 18.1873 8.04683C17.66 7.51951 16.945 7.223 16.1992 7.22241ZM7.29297 13.7849H6.35547C6.10705 13.7842 5.86902 13.6852 5.69336 13.5095C5.51771 13.3339 5.4187 13.0958 5.41797 12.8474V10.0349C5.41869 9.78649 5.5177 9.54846 5.69336 9.3728C5.86902 9.19714 6.10705 9.09814 6.35547 9.09741H7.29297V13.7849ZM17.1367 12.8474C17.136 13.0958 17.037 13.3339 16.8613 13.5095C16.6857 13.6852 16.4476 13.7842 16.1992 13.7849H15.2617V9.09741H16.1992C16.4476 9.09814 16.6857 9.19714 16.8613 9.3728C17.037 9.54846 17.136 9.78649 17.1367 10.0349V12.8474Z" fill="#2D4356"/>
<path d="M17.1367 10.0349V12.8474C17.136 13.0958 17.037 13.3339 16.8613 13.5095C16.6857 13.6852 16.4476 13.7842 16.1992 13.7849H15.2617V9.09741H16.1992C16.4476 9.09814 16.6857 9.19714 16.8613 9.3728C17.037 9.54846 17.136 9.78649 17.1367 10.0349Z" fill="#D68751"/>
<path d="M7.29297 9.09741V13.7849H6.35547C6.10705 13.7842 5.86902 13.6852 5.69336 13.5095C5.51771 13.3339 5.4187 13.0958 5.41797 12.8474V10.0349C5.41869 9.78649 5.5177 9.54846 5.69336 9.3728C5.86902 9.19714 6.10705 9.09814 6.35547 9.09741H7.29297Z" fill="#D68751"/>
<path d="M38.6711 25.724L34.2461 23.6146V16.5974C34.2461 15.4785 33.8016 14.4055 33.0105 13.6143C32.2193 12.8231 31.1462 12.3787 30.0273 12.3787C28.9085 12.3787 27.8354 12.8231 27.0442 13.6143C26.2531 14.4055 25.8086 15.4785 25.8086 16.5974V23.6146L21.3836 25.724C20.7452 26.0301 20.206 26.51 19.8279 27.1086C19.4498 27.7072 19.2482 28.4003 19.2461 29.1083V37.5833C19.2464 38.0345 19.3535 38.4791 19.5589 38.8808C19.7642 39.2825 20.0618 39.6299 20.4273 39.8943C20.9615 40.2906 21.6091 40.5043 22.2742 40.5037C22.5792 40.5025 22.8825 40.4567 23.1742 40.3677L30.0273 38.3052L36.8805 40.3677C37.1722 40.4567 37.4754 40.5025 37.7805 40.5037C38.4456 40.5043 39.0932 40.2906 39.6273 39.8943C39.9929 39.6299 40.2905 39.2825 40.4958 38.8808C40.7011 38.4791 40.8083 38.0345 40.8086 37.5833V29.1083C40.8065 28.4003 40.6049 27.7072 40.2268 27.1086C39.8487 26.51 39.3095 26.0301 38.6711 25.724ZM27.6836 16.5974C27.6836 15.9758 27.9305 15.3797 28.3701 14.9401C28.8096 14.5006 29.4057 14.2537 30.0273 14.2537C30.6489 14.2537 31.2451 14.5006 31.6846 14.9401C32.1242 15.3797 32.3711 15.9758 32.3711 16.5974V19.4099C32.3711 20.0315 32.1242 20.6277 31.6846 21.0672C31.2451 21.5067 30.6489 21.7537 30.0273 21.7537C29.4057 21.7537 28.8096 21.5067 28.3701 21.0672C27.9305 20.6277 27.6836 20.0315 27.6836 19.4099V16.5974ZM27.6836 22.9162C28.377 23.3807 29.1927 23.6287 30.0273 23.6287C30.8619 23.6287 31.6777 23.3807 32.3711 22.9162V23.9146L30.0273 25.724L27.6836 23.9146V22.9162ZM38.9336 37.5833C38.9327 37.7417 38.894 37.8975 38.8206 38.0377C38.7472 38.178 38.6413 38.2986 38.5117 38.3896C38.3577 38.5037 38.1789 38.5798 37.9899 38.6115C37.8009 38.6433 37.6071 38.6299 37.4242 38.5724L33.2758 37.3255L34.293 37.0162C34.7921 36.869 35.2338 36.572 35.5583 36.1653C35.8828 35.7586 36.0744 35.262 36.1071 34.7427C36.1164 34.6958 36.1211 30.3787 36.1211 30.3787C36.1211 30.13 36.0223 29.8916 35.8465 29.7157C35.6707 29.5399 35.4323 29.4412 35.1836 29.4412C34.935 29.4412 34.6965 29.5399 34.5207 29.7157C34.3449 29.8916 34.2461 30.13 34.2461 30.3787V32.1974C33.8453 32.0829 33.4235 32.0621 33.0133 32.1365L26.0899 33.5427V30.3787C26.0899 30.13 25.9911 29.8916 25.8153 29.7157C25.6395 29.5399 25.401 29.4412 25.1524 29.4412C24.9037 29.4412 24.6653 29.5399 24.4895 29.7157C24.3136 29.8916 24.2149 30.13 24.2149 30.3787V34.6771C24.2143 34.815 24.2443 34.9513 24.3027 35.0762C24.3612 35.2011 24.4466 35.3115 24.5529 35.3994C24.6592 35.4873 24.7836 35.5505 24.9173 35.5845C25.0509 35.6184 25.1905 35.6223 25.3258 35.5958L33.3649 33.9787C33.5442 33.9371 33.7326 33.9648 33.8924 34.056C34.0523 34.1472 34.1719 34.2953 34.2274 34.4708C34.2613 34.6335 34.2303 34.803 34.1409 34.9432C34.0516 35.0833 33.911 35.1829 33.7492 35.2209L22.6305 38.5724C22.4476 38.6297 22.2538 38.643 22.0648 38.6112C21.8758 38.5795 21.697 38.5035 21.543 38.3896C21.4134 38.2986 21.3075 38.178 21.2341 38.0377C21.1607 37.8975 21.122 37.7417 21.1211 37.5833V29.1083C21.122 28.7543 21.2227 28.4077 21.4118 28.1083C21.6008 27.809 21.8705 27.5691 22.1898 27.4162L26.493 25.363L29.4555 27.6505C29.6188 27.7781 29.8201 27.8474 30.0273 27.8474C30.2346 27.8474 30.4359 27.7781 30.5992 27.6505L33.5617 25.363L37.8648 27.4162C38.1842 27.5691 38.4539 27.809 38.6429 28.1083C38.832 28.4077 38.9327 28.7543 38.9336 29.1083V37.5833Z" fill="#2D4356"/>
<path d="M38.9336 29.1083V37.5833C38.9327 37.7417 38.894 37.8975 38.8206 38.0377C38.7472 38.178 38.6413 38.2986 38.5117 38.3896C38.3577 38.5037 38.1789 38.5798 37.9899 38.6115C37.8009 38.6433 37.6071 38.6299 37.4242 38.5724L33.2758 37.3255L34.293 37.0162C34.7921 36.869 35.2338 36.572 35.5583 36.1653C35.8828 35.7586 36.0744 35.262 36.1071 34.7427C36.1164 34.6958 36.1211 30.3787 36.1211 30.3787C36.1211 30.13 36.0223 29.8916 35.8465 29.7157C35.6707 29.5399 35.4323 29.4412 35.1836 29.4412C34.935 29.4412 34.6965 29.5399 34.5207 29.7157C34.3449 29.8916 34.2461 30.13 34.2461 30.3787V32.1974C33.8453 32.0829 33.4235 32.0621 33.0133 32.1365L26.0899 33.5427V30.3787C26.0899 30.13 25.9911 29.8916 25.8153 29.7157C25.6395 29.5399 25.401 29.4412 25.1524 29.4412C24.9037 29.4412 24.6653 29.5399 24.4895 29.7157C24.3136 29.8916 24.2149 30.13 24.2149 30.3787V34.6771C24.2143 34.815 24.2443 34.9513 24.3027 35.0762C24.3612 35.2011 24.4466 35.3115 24.5529 35.3994C24.6592 35.4873 24.7836 35.5505 24.9173 35.5845C25.0509 35.6184 25.1905 35.6223 25.3258 35.5958L33.3649 33.9787C33.5442 33.9371 33.7326 33.9648 33.8924 34.056C34.0523 34.1472 34.1719 34.2953 34.2274 34.4708C34.2613 34.6335 34.2303 34.803 34.1409 34.9432C34.0516 35.0833 33.911 35.1829 33.7492 35.2209L22.6305 38.5724C22.4476 38.6297 22.2538 38.643 22.0648 38.6112C21.8758 38.5795 21.697 38.5035 21.543 38.3896C21.4134 38.2986 21.3075 38.178 21.2341 38.0377C21.1607 37.8975 21.122 37.7417 21.1211 37.5833V29.1083C21.122 28.7543 21.2227 28.4077 21.4118 28.1083C21.6008 27.809 21.8705 27.5691 22.1898 27.4162L26.493 25.363L29.4555 27.6505C29.6188 27.7781 29.8201 27.8474 30.0273 27.8474C30.2346 27.8474 30.4359 27.7781 30.5992 27.6505L33.5617 25.363L37.8648 27.4162C38.1842 27.5691 38.4539 27.809 38.6429 28.1083C38.832 28.4077 38.9327 28.7543 38.9336 29.1083Z" fill="#FC785E"/>
<path d="M32.3711 22.9163V23.9147L30.0273 25.7241L27.6836 23.9147V22.9163C28.377 23.3808 29.1927 23.6288 30.0273 23.6288C30.8619 23.6288 31.6777 23.3808 32.3711 22.9163Z" fill="#E1EBF4"/>
<path d="M32.3711 16.5974V19.4099C32.3711 20.0315 32.1242 20.6277 31.6846 21.0672C31.2451 21.5067 30.6489 21.7537 30.0273 21.7537C29.4057 21.7537 28.8096 21.5067 28.3701 21.0672C27.9305 20.6277 27.6836 20.0315 27.6836 19.4099V16.5974C27.6836 15.9758 27.9305 15.3797 28.3701 14.9401C28.8096 14.5006 29.4057 14.2537 30.0273 14.2537C30.6489 14.2537 31.2451 14.5006 31.6846 14.9401C32.1242 15.3797 32.3711 15.9758 32.3711 16.5974Z" fill="#E1EBF4"/>
<path opacity="0.5" d="M58.1523 11.4412C58.1523 11.5912 58.1477 11.7458 58.1383 11.8958C58.0149 9.49636 56.9749 7.23584 55.2329 5.58108C53.4909 3.92632 51.18 3.00368 48.7773 3.00368C46.3747 3.00368 44.0638 3.92632 42.3218 5.58108C40.5798 7.23584 39.5397 9.49636 39.4164 11.8958C39.407 11.7458 39.4023 11.5912 39.4023 11.4412C39.4023 8.95476 40.3901 6.57019 42.1482 4.81204C43.9064 3.05388 46.2909 2.06616 48.7773 2.06616C51.2637 2.06616 53.6483 3.05388 55.4065 4.81204C57.1646 6.57019 58.1523 8.95476 58.1523 11.4412Z" fill="white"/>
<path opacity="0.5" d="M27.6836 17.5349V16.5974C27.6836 15.9758 27.9305 15.3797 28.3701 14.9401C28.8096 14.5006 29.4057 14.2537 30.0273 14.2537C30.6489 14.2537 31.2451 14.5006 31.6846 14.9401C32.1242 15.3797 32.3711 15.9758 32.3711 16.5974V17.5349C32.3711 16.9133 32.1242 16.3172 31.6846 15.8776C31.2451 15.4381 30.6489 15.1912 30.0273 15.1912C29.4057 15.1912 28.8096 15.4381 28.3701 15.8776C27.9305 16.3172 27.6836 16.9133 27.6836 17.5349Z" fill="white"/>
<path opacity="0.3" d="M38.9336 29.1083V30.0458C38.9327 29.6918 38.832 29.3452 38.6429 29.0458C38.4539 28.7465 38.1842 28.5065 37.8648 28.3536L33.5617 26.3005L30.5992 28.588C30.4359 28.7156 30.2346 28.7849 30.0273 28.7849C29.8201 28.7849 29.6188 28.7156 29.4555 28.588L26.493 26.3005L22.1898 28.3536C21.8705 28.5065 21.6008 28.7465 21.4118 29.0458C21.2227 29.3452 21.122 29.6918 21.1211 30.0458V29.1083C21.122 28.7543 21.2227 28.4077 21.4118 28.1083C21.6008 27.809 21.8705 27.569 22.1898 27.4161L26.493 25.363L29.4555 27.6505C29.6188 27.7781 29.8201 27.8474 30.0273 27.8474C30.2346 27.8474 30.4359 27.7781 30.5992 27.6505L33.5617 25.363L37.8648 27.4161C38.1842 27.569 38.4539 27.809 38.6429 28.1083C38.832 28.4077 38.9327 28.7543 38.9336 29.1083Z" fill="#F9DBD7"/>
<path opacity="0.5" d="M58.1523 11.441C58.1523 13.9274 57.1646 16.312 55.4065 18.0701C53.6483 19.8283 51.2637 20.816 48.7773 20.816C46.2909 20.816 43.9064 19.8283 42.1482 18.0701C40.3901 16.312 39.4023 13.9274 39.4023 11.441C39.4023 11.291 39.407 11.1363 39.4164 10.9863C39.5397 13.3858 40.5798 15.6463 42.3218 17.3011C44.0638 18.9559 46.3747 19.8785 48.7773 19.8785C51.18 19.8785 53.4909 18.9559 55.2329 17.3011C56.9749 15.6463 58.0149 13.3858 58.1383 10.9863C58.1476 11.1363 58.1523 11.291 58.1523 11.441Z" fill="#9FA5AA"/>
<path opacity="0.5" d="M58.1523 48.941C58.1523 51.4274 57.1646 53.812 55.4065 55.5701C53.6483 57.3283 51.2637 58.316 48.7773 58.316C46.2909 58.316 43.9064 57.3283 42.1482 55.5701C40.3901 53.812 39.4023 51.4274 39.4023 48.941C39.4023 48.791 39.407 48.6363 39.4164 48.4863C39.5397 50.8858 40.5798 53.1463 42.3218 54.8011C44.0638 56.4559 46.3747 57.3785 48.7773 57.3785C51.18 57.3785 53.4909 56.4559 55.2329 54.8011C56.9749 53.1463 58.0149 50.8858 58.1383 48.4863C58.1476 48.6363 58.1523 48.791 58.1523 48.941Z" fill="#9FA5AA"/>
<path opacity="0.5" d="M58.1523 48.9412C58.1523 49.0912 58.1477 49.2459 58.1383 49.3959C58.0149 46.9964 56.9749 44.7358 55.2329 43.0811C53.4909 41.4263 51.18 40.5037 48.7773 40.5037C46.3747 40.5037 44.0638 41.4263 42.3218 43.0811C40.5798 44.7358 39.5397 46.9964 39.4164 49.3959C39.407 49.2459 39.4023 49.0912 39.4023 48.9412C39.4023 46.4548 40.3901 44.0702 42.1482 42.312C43.9064 40.5539 46.2909 39.5662 48.7773 39.5662C51.2637 39.5662 53.6483 40.5539 55.4065 42.312C57.1646 44.0702 58.1523 46.4548 58.1523 48.9412Z" fill="white"/>
<path opacity="0.5" d="M20.6523 11.441C20.6523 13.9274 19.6646 16.312 17.9065 18.0701C16.1483 19.8283 13.7637 20.816 11.2773 20.816C8.79094 20.816 6.40637 19.8283 4.64822 18.0701C2.89006 16.312 1.90234 13.9274 1.90234 11.441C1.90234 11.291 1.90703 11.1363 1.91641 10.9863C2.03973 13.3858 3.07978 15.6463 4.82177 17.3011C6.56376 18.9559 8.87468 19.8785 11.2773 19.8785C13.68 19.8785 15.9909 18.9559 17.7329 17.3011C19.4749 15.6463 20.515 13.3858 20.6383 10.9863C20.6477 11.1363 20.6523 11.291 20.6523 11.441Z" fill="#9FA5AA"/>
<path opacity="0.5" d="M20.6523 11.4412C20.6523 11.5912 20.6477 11.7458 20.6383 11.8958C20.515 9.49636 19.4749 7.23584 17.7329 5.58108C15.9909 3.92632 13.68 3.00368 11.2773 3.00368C8.87468 3.00368 6.56376 3.92632 4.82177 5.58108C3.07978 7.23584 2.03973 9.49636 1.91641 11.8958C1.90703 11.7458 1.90234 11.5912 1.90234 11.4412C1.90234 8.95476 2.89006 6.57019 4.64822 4.81204C6.40637 3.05388 8.79094 2.06616 11.2773 2.06616C13.7637 2.06616 16.1483 3.05388 17.9065 4.81204C19.6646 6.57019 20.6523 8.95476 20.6523 11.4412Z" fill="white"/>
<path opacity="0.5" d="M20.6523 48.9412C20.6523 49.0912 20.6477 49.2459 20.6383 49.3959C20.515 46.9964 19.4749 44.7358 17.7329 43.0811C15.9909 41.4263 13.68 40.5037 11.2773 40.5037C8.87468 40.5037 6.56376 41.4263 4.82177 43.0811C3.07978 44.7358 2.03973 46.9964 1.91641 49.3959C1.90703 49.2459 1.90234 49.0912 1.90234 48.9412C1.90234 46.4548 2.89006 44.0702 4.64822 42.312C6.40637 40.5539 8.79094 39.5662 11.2773 39.5662C13.7637 39.5662 16.1483 40.5539 17.9065 42.312C19.6646 44.0702 20.6523 46.4548 20.6523 48.9412Z" fill="white"/>
<path opacity="0.5" d="M20.6523 48.941C20.6523 51.4274 19.6646 53.812 17.9065 55.5701C16.1483 57.3283 13.7637 58.316 11.2773 58.316C8.79094 58.316 6.40637 57.3283 4.64822 55.5701C2.89006 53.812 1.90234 51.4274 1.90234 48.941C1.90234 48.791 1.90703 48.6363 1.91641 48.4863C2.03973 50.8858 3.07978 53.1463 4.82177 54.8011C6.56376 56.4559 8.87468 57.3785 11.2773 57.3785C13.68 57.3785 15.9909 56.4559 17.7329 54.8011C19.4749 53.1463 20.515 50.8858 20.6383 48.4863C20.6477 48.6363 20.6523 48.791 20.6523 48.941Z" fill="#9FA5AA"/>
<path opacity="0.4" d="M54.341 10.6676C54.2931 10.6999 54.2491 10.7377 54.2097 10.7801C54.196 10.7929 54.1834 10.8071 54.1722 10.8223C53.9856 10.1592 53.6755 9.53741 53.2582 8.98945C53.2013 9.00264 53.1431 9.00893 53.0847 9.0082C52.8367 9.0064 52.5992 8.90705 52.4238 8.73163C52.2484 8.5562 52.149 8.31879 52.1472 8.0707C52.1491 8.0125 52.1554 7.95452 52.166 7.89727C51.4023 7.31651 50.5011 6.94346 49.5504 6.81445C49.4646 6.94064 49.3493 7.04394 49.2145 7.11533C49.0797 7.18673 48.9295 7.22405 48.7769 7.22405C48.6244 7.22405 48.4741 7.18673 48.3393 7.11533C48.2045 7.04394 48.0892 6.94064 48.0035 6.81445C47.0527 6.94346 46.1516 7.31651 45.3879 7.89727C45.401 7.95412 45.4073 8.01235 45.4066 8.0707C45.4048 8.31879 45.3055 8.55621 45.1301 8.73164C44.9546 8.90707 44.7172 9.00642 44.4691 9.0082C44.4108 9.00893 44.3525 9.00264 44.2957 8.98945C43.8802 9.53683 43.5702 10.1568 43.3816 10.8176C43.3719 10.8041 43.3609 10.7915 43.3488 10.7801C43.3069 10.7387 43.2614 10.7011 43.2129 10.6676C43.3428 9.71707 43.7158 8.81616 44.2957 8.05195C44.3526 8.06514 44.4108 8.07143 44.4691 8.0707C44.7172 8.06892 44.9547 7.96957 45.1301 7.79414C45.3055 7.61871 45.4049 7.38129 45.4066 7.1332C45.4074 7.07485 45.4011 7.01662 45.3879 6.95977C46.1516 6.37901 47.0528 6.00596 48.0035 5.87695C48.0892 6.00314 48.2045 6.10644 48.3394 6.17783C48.4742 6.24923 48.6244 6.28655 48.777 6.28655C48.9295 6.28655 49.0797 6.24923 49.2146 6.17783C49.3494 6.10644 49.4647 6.00314 49.5504 5.87695C50.5011 6.00596 51.4023 6.37901 52.166 6.95977C52.1554 7.01702 52.1491 7.075 52.1473 7.1332C52.1491 7.38129 52.2484 7.6187 52.4238 7.79413C52.5993 7.96955 52.8367 8.0689 53.0848 8.0707C53.1431 8.07143 53.2014 8.06514 53.2582 8.05195C53.8382 8.81615 54.2111 9.71707 54.341 10.6676Z" fill="#E8FBFC"/>
<path opacity="0.3" d="M54.341 12.2145C54.2096 13.1691 53.8333 14.0734 53.2488 14.8395C53.1148 14.8134 52.9766 14.8174 52.8443 14.851C52.7119 14.8847 52.5887 14.9472 52.4834 15.0342C52.3781 15.1211 52.2934 15.2303 52.2352 15.3538C52.1771 15.4774 52.1471 15.6123 52.1472 15.7488C52.1491 15.807 52.1554 15.865 52.166 15.9223C51.4018 16.5022 50.5009 16.8752 49.5504 17.0051C49.5168 16.9581 49.4791 16.9142 49.4379 16.8738C49.3293 16.7647 49.1955 16.6841 49.0483 16.6391C48.9011 16.5942 48.7451 16.5862 48.5941 16.616C48.5336 16.6289 48.4741 16.6461 48.416 16.6676C48.3604 16.6926 48.3071 16.7224 48.2566 16.7566C48.204 16.7902 48.1553 16.8295 48.1113 16.8738C48.0715 16.9142 48.0354 16.9582 48.0035 17.0051C47.0533 16.8739 46.1527 16.5011 45.3879 15.9223C45.3985 15.865 45.4048 15.807 45.4066 15.7488C45.4043 15.5009 45.305 15.2636 45.1301 15.0879C45.0223 14.9805 44.8901 14.9009 44.7447 14.856C44.5994 14.8111 44.4453 14.8022 44.2957 14.8301C43.7169 14.0652 43.344 13.1646 43.2129 12.2145C43.2613 12.1826 43.3068 12.1465 43.3488 12.1066C43.3626 12.095 43.3738 12.0807 43.3816 12.0645C43.5722 12.7245 43.882 13.3441 44.2957 13.8926C44.4452 13.8647 44.5993 13.8736 44.7447 13.9185C44.89 13.9634 45.0223 14.043 45.1301 14.1504C45.305 14.3261 45.4043 14.5634 45.4066 14.8113C45.4048 14.8695 45.3985 14.9275 45.3879 14.9848C46.1527 15.5636 47.0533 15.9364 48.0035 16.0676C48.0354 16.0207 48.0715 15.9767 48.1113 15.9363C48.1552 15.892 48.204 15.8527 48.2566 15.8191C48.3071 15.7849 48.3604 15.7551 48.416 15.7301C48.474 15.7086 48.5336 15.6914 48.5941 15.6785C48.7451 15.6487 48.9011 15.6567 49.0483 15.7016C49.1955 15.7466 49.3293 15.8272 49.4378 15.9363C49.4791 15.9767 49.5168 16.0206 49.5503 16.0676C50.5008 15.9377 51.4018 15.5647 52.166 14.9848C52.1553 14.9275 52.1491 14.8695 52.1472 14.8113C52.147 14.6748 52.1771 14.5399 52.2352 14.4163C52.2933 14.2928 52.3781 14.1836 52.4834 14.0967C52.5887 14.0097 52.7119 13.9472 52.8443 13.9135C52.9766 13.8799 53.1147 13.8759 53.2488 13.902C53.6682 13.3522 53.9814 12.7291 54.1722 12.0645C54.1834 12.0797 54.1959 12.0938 54.2097 12.1066C54.2501 12.1465 54.2941 12.1825 54.341 12.2145Z" fill="#0F423C"/>
<path opacity="0.4" d="M53.9346 48.4488V49.3863C53.9346 49.3217 53.9219 49.2577 53.8972 49.198C53.8724 49.1382 53.8362 49.084 53.7905 49.0383C53.7448 48.9926 53.6905 48.9563 53.6308 48.9316C53.5711 48.9069 53.5071 48.8941 53.4424 48.8941C53.3436 48.8941 53.2473 48.8628 53.1673 48.8047C53.0873 48.7466 53.0277 48.6647 52.9971 48.5707C52.9192 48.3125 52.8156 48.0628 52.6877 47.8254C52.6417 47.7369 52.6251 47.636 52.6402 47.5374C52.6554 47.4388 52.7016 47.3475 52.7721 47.277V47.2723C52.7949 47.2494 52.8153 47.2243 52.833 47.1973C52.8974 47.3387 52.9522 47.4844 52.9971 47.6332C53.0277 47.7272 53.0873 47.8091 53.1673 47.8672C53.2473 47.9253 53.3436 47.9566 53.4424 47.9566C53.5071 47.9566 53.5711 47.9694 53.6308 47.9941C53.6905 48.0188 53.7448 48.0551 53.7905 48.1008C53.8362 48.1465 53.8724 48.2007 53.8972 48.2605C53.9219 48.3202 53.9346 48.3842 53.9346 48.4488Z" fill="#E8FBFC"/>
<path opacity="0.4" d="M52.7703 46.3349V46.3396C52.7293 46.3801 52.6959 46.4278 52.6719 46.4802L52.0766 45.8849C51.9836 45.7941 51.8596 45.7422 51.7297 45.7396C51.5994 45.7404 51.4748 45.7926 51.3828 45.8849H51.3781C51.3088 45.9574 51.2174 46.005 51.1182 46.0202C51.0191 46.0355 50.9176 46.0176 50.8297 45.9693C50.5935 45.8423 50.3454 45.7387 50.0891 45.6599C49.9941 45.6303 49.911 45.5712 49.852 45.4911C49.7929 45.411 49.7611 45.3141 49.7609 45.2146C49.761 45.15 49.7482 45.086 49.7235 45.0262C49.6988 44.9665 49.6625 44.9123 49.6168 44.8666C49.5711 44.8208 49.5168 44.7846 49.4571 44.7599C49.3974 44.7351 49.3334 44.7224 49.2688 44.7224H48.2844C48.2197 44.7224 48.1557 44.7351 48.096 44.7599C48.0363 44.7846 47.982 44.8208 47.9363 44.8665C47.8906 44.9123 47.8544 44.9665 47.8296 45.0262C47.8049 45.086 47.7922 45.15 47.7922 45.2146C47.7921 45.3135 47.7608 45.4098 47.7027 45.4897C47.6446 45.5697 47.5627 45.6293 47.4688 45.6599C47.2106 45.7378 46.9609 45.8415 46.7234 45.9693C46.6355 46.0176 46.5341 46.0355 46.4349 46.0202C46.3357 46.005 46.2444 45.9574 46.175 45.8849H46.1703C46.0784 45.7926 45.9537 45.7404 45.8234 45.7396C45.6936 45.7422 45.5695 45.7941 45.4766 45.8849L44.8813 46.4802C44.8572 46.4278 44.8239 46.3801 44.7828 46.3396V46.3349C44.7371 46.2894 44.7009 46.2354 44.6761 46.1759C44.6514 46.1163 44.6387 46.0525 44.6387 45.988C44.6387 45.9236 44.6514 45.8597 44.6761 45.8002C44.7009 45.7407 44.7371 45.6866 44.7828 45.6412L45.4766 44.9474C45.5695 44.8566 45.6936 44.8047 45.8234 44.8021C45.9537 44.8029 46.0784 44.8551 46.1703 44.9474H46.175C46.2444 45.0199 46.3357 45.0675 46.4349 45.0827C46.5341 45.098 46.6355 45.0801 46.7234 45.0318C46.9609 44.904 47.2106 44.8003 47.4688 44.7224C47.5627 44.6918 47.6446 44.6322 47.7027 44.5522C47.7608 44.4723 47.7921 44.376 47.7922 44.2771C47.7922 44.2125 47.8049 44.1485 47.8296 44.0887C47.8544 44.029 47.8906 43.9748 47.9363 43.929C47.982 43.8833 48.0363 43.8471 48.096 43.8224C48.1557 43.7976 48.2197 43.7849 48.2844 43.7849H49.2688C49.3334 43.7849 49.3974 43.7976 49.4571 43.8224C49.5168 43.8471 49.5711 43.8833 49.6168 43.9291C49.6625 43.9748 49.6988 44.029 49.7235 44.0887C49.7482 44.1485 49.761 44.2125 49.7609 44.2771C49.7611 44.3766 49.7929 44.4735 49.852 44.5536C49.911 44.6337 49.9941 44.6928 50.0891 44.7224C50.3454 44.8012 50.5935 44.9048 50.8297 45.0318C50.9176 45.0801 51.0191 45.098 51.1182 45.0827C51.2174 45.0675 51.3088 45.0199 51.3781 44.9474H51.3828C51.4748 44.8551 51.5994 44.8029 51.7297 44.8021C51.8596 44.8047 51.9836 44.8566 52.0766 44.9474L52.7703 45.6412C52.816 45.6866 52.8523 45.7407 52.877 45.8002C52.9017 45.8598 52.9145 45.9236 52.9145 45.988C52.9145 46.0525 52.9017 46.1163 52.877 46.1759C52.8523 46.2354 52.816 46.2894 52.7703 46.3349Z" fill="#E8FBFC"/>
<path opacity="0.4" d="M44.868 47.8254C44.7401 48.0628 44.6365 48.3125 44.5586 48.5707C44.528 48.6647 44.4684 48.7466 44.3884 48.8047C44.3084 48.8628 44.2121 48.8941 44.1133 48.8941C44.0486 48.8941 43.9846 48.9069 43.9249 48.9316C43.8652 48.9563 43.8109 48.9926 43.7652 49.0383C43.7195 49.084 43.6833 49.1383 43.6586 49.198C43.6338 49.2577 43.6211 49.3217 43.6211 49.3863V48.4488C43.6211 48.3842 43.6338 48.3202 43.6586 48.2605C43.6833 48.2008 43.7195 48.1465 43.7652 48.1008C43.8109 48.0551 43.8652 48.0188 43.9249 47.9941C43.9846 47.9694 44.0486 47.9566 44.1133 47.9566C44.2121 47.9566 44.3084 47.9253 44.3884 47.8672C44.4684 47.8091 44.528 47.7272 44.5586 47.6332C44.6035 47.4844 44.6583 47.3387 44.7227 47.1973C44.7403 47.2243 44.7608 47.2494 44.7836 47.2723V47.277C44.8541 47.3475 44.9003 47.4388 44.9155 47.5374C44.9306 47.636 44.914 47.7369 44.868 47.8254Z" fill="#E8FBFC"/>
<path opacity="0.3" d="M44.7836 50.6052V50.6099C44.7608 50.6328 44.7403 50.6579 44.7227 50.6849C44.6583 50.5434 44.6035 50.3978 44.5586 50.249C44.528 50.155 44.4684 50.0731 44.3884 50.015C44.3084 49.9569 44.2121 49.9256 44.1133 49.9255C44.0486 49.9255 43.9846 49.9128 43.9249 49.8881C43.8652 49.8634 43.8109 49.8271 43.7652 49.7814C43.7195 49.7357 43.6833 49.6814 43.6585 49.6217C43.6338 49.562 43.6211 49.498 43.6211 49.4333V48.4958C43.6211 48.5605 43.6338 48.6245 43.6585 48.6842C43.6833 48.7439 43.7195 48.7982 43.7652 48.8439C43.8109 48.8896 43.8652 48.9259 43.9249 48.9506C43.9846 48.9753 44.0486 48.988 44.1133 48.988C44.2121 48.9881 44.3084 49.0194 44.3884 49.0775C44.4684 49.1356 44.528 49.2175 44.5586 49.3115C44.6365 49.5697 44.7401 49.8193 44.868 50.0568C44.914 50.1453 44.9306 50.2462 44.9155 50.3448C44.9003 50.4434 44.8541 50.5346 44.7836 50.6052Z" fill="#0F423C"/>
<path opacity="0.3" d="M53.9346 48.4958V49.4333C53.9346 49.498 53.9219 49.562 53.8972 49.6217C53.8724 49.6814 53.8362 49.7357 53.7905 49.7814C53.7448 49.8271 53.6905 49.8634 53.6308 49.8881C53.5711 49.9128 53.5071 49.9255 53.4424 49.9255C53.3436 49.9256 53.2473 49.9569 53.1673 50.015C53.0873 50.0731 53.0277 50.155 52.9971 50.249C52.9523 50.3978 52.8974 50.5434 52.833 50.6849C52.8153 50.6579 52.7949 50.6328 52.7721 50.6099V50.6052C52.7016 50.5346 52.6554 50.4434 52.6402 50.3448C52.6251 50.2462 52.6417 50.1453 52.6877 50.0568C52.8156 49.8193 52.9192 49.5697 52.9971 49.3115C53.0277 49.2175 53.0873 49.1356 53.1673 49.0775C53.2473 49.0194 53.3436 48.9881 53.4424 48.988C53.5071 48.988 53.5711 48.9753 53.6308 48.9506C53.6905 48.9259 53.7448 48.8896 53.7905 48.8439C53.8362 48.7982 53.8724 48.7439 53.8972 48.6842C53.9219 48.6245 53.9346 48.5605 53.9346 48.4958Z" fill="#0F423C"/>
<path opacity="0.3" d="M52.7704 52.2412L52.0766 52.9349C51.9836 53.0257 51.8596 53.0776 51.7297 53.0802C51.5994 53.0794 51.4748 53.0272 51.3828 52.9349H51.3781C51.3088 52.8624 51.2174 52.8148 51.1183 52.7996C51.0191 52.7843 50.9177 52.8022 50.8297 52.8505C50.5935 52.9775 50.3454 53.0812 50.0891 53.1599C49.9941 53.1895 49.911 53.2486 49.852 53.3287C49.793 53.4089 49.7611 53.5057 49.761 53.6052C49.761 53.6699 49.7482 53.7339 49.7235 53.7936C49.6988 53.8533 49.6625 53.9076 49.6168 53.9533C49.5711 53.999 49.5168 54.0352 49.4571 54.06C49.3974 54.0847 49.3334 54.0974 49.2688 54.0974H48.2844C48.2198 54.0974 48.1558 54.0847 48.096 54.06C48.0363 54.0352 47.9821 53.999 47.9363 53.9533C47.8906 53.9076 47.8544 53.8533 47.8297 53.7936C47.8049 53.7339 47.7922 53.6699 47.7922 53.6052C47.7921 53.5064 47.7608 53.4101 47.7027 53.3301C47.6446 53.2501 47.5628 53.1905 47.4688 53.1599C47.2106 53.082 46.9609 52.9784 46.7235 52.8505C46.6355 52.8022 46.5341 52.7843 46.4349 52.7996C46.3357 52.8148 46.2444 52.8624 46.175 52.9349H46.1703C46.0784 53.0272 45.9537 53.0794 45.8235 53.0802C45.6936 53.0776 45.5695 53.0257 45.4766 52.9349L44.7828 52.2412C44.7371 52.1957 44.7009 52.1416 44.6761 52.0821C44.6514 52.0226 44.6387 51.9587 44.6387 51.8943C44.6387 51.8298 44.6514 51.766 44.6761 51.7065C44.7009 51.6469 44.7371 51.5929 44.7828 51.5474V51.5427C44.8239 51.5022 44.8572 51.4545 44.8813 51.4021L45.4766 51.9974C45.5695 52.0882 45.6936 52.1401 45.8235 52.1427C45.9537 52.1419 46.0784 52.0897 46.1703 51.9974H46.175C46.2444 51.9249 46.3357 51.8773 46.4349 51.8621C46.5341 51.8468 46.6355 51.8647 46.7235 51.913C46.9609 52.0409 47.2106 52.1445 47.4688 52.2224C47.5628 52.253 47.6446 52.3126 47.7027 52.3926C47.7608 52.4726 47.7921 52.5689 47.7922 52.6677C47.7922 52.7324 47.8049 52.7964 47.8297 52.8561C47.8544 52.9158 47.8906 52.9701 47.9363 53.0158C47.9821 53.0615 48.0363 53.0977 48.096 53.1225C48.1558 53.1472 48.2198 53.1599 48.2844 53.1599H49.2688C49.3334 53.1599 49.3974 53.1472 49.4571 53.1225C49.5168 53.0977 49.5711 53.0615 49.6168 53.0158C49.6625 52.9701 49.6988 52.9158 49.7235 52.8561C49.7482 52.7964 49.761 52.7324 49.761 52.6677C49.7611 52.5682 49.793 52.4714 49.852 52.3912C49.911 52.3111 49.9941 52.252 50.0891 52.2224C50.3454 52.1437 50.5935 52.04 50.8297 51.913C50.9177 51.8647 51.0191 51.8468 51.1183 51.8621C51.2174 51.8773 51.3088 51.9249 51.3781 51.9974H51.3828C51.4748 52.0897 51.5994 52.1419 51.7297 52.1427C51.8596 52.1401 51.9836 52.0882 52.0766 51.9974L52.6719 51.4021C52.696 51.4545 52.7293 51.5022 52.7704 51.5427V51.5474C52.816 51.5929 52.8523 51.6469 52.877 51.7065C52.9018 51.766 52.9145 51.8298 52.9145 51.8943C52.9145 51.9587 52.9018 52.0226 52.877 52.0821C52.8523 52.1416 52.816 52.1957 52.7704 52.2412Z" fill="#0F423C"/>
<path opacity="0.4" d="M7.52734 44.7224H15.0273V45.6599H7.52734V44.7224Z" fill="#E8FBFC"/>
<path opacity="0.3" d="M7.52734 52.2224H15.0273V53.1599H7.52734V52.2224Z" fill="#0F423C"/>
<path opacity="0.5" d="M38.9332 36.6458V37.5833C38.9323 37.7416 38.8936 37.8974 38.8202 38.0376C38.7468 38.1779 38.6409 38.2985 38.5113 38.3895C38.3573 38.5036 38.1785 38.5797 37.9895 38.6114C37.8005 38.6432 37.6067 38.6298 37.4238 38.5723L33.2754 37.3254L34.2926 37.0161C34.4501 36.969 34.6024 36.9062 34.7473 36.8286L37.4238 37.6348C37.6067 37.6923 37.8005 37.7057 37.9895 37.6739C38.1785 37.6422 38.3573 37.5661 38.5113 37.452C38.6409 37.361 38.7468 37.2404 38.8202 37.1001C38.8936 36.9599 38.9323 36.8041 38.9332 36.6458Z" fill="#A54B3F"/>
<path opacity="0.5" d="M33.7492 35.2207L22.6305 38.5723C22.4476 38.6296 22.2538 38.6429 22.0648 38.6111C21.8758 38.5793 21.697 38.5034 21.543 38.3895C21.4134 38.2985 21.3075 38.1778 21.2341 38.0376C21.1607 37.8973 21.122 37.7415 21.1211 37.5832V36.6457C21.122 36.804 21.1607 36.9598 21.2341 37.1001C21.3075 37.2403 21.4134 37.361 21.543 37.452C21.697 37.5659 21.8758 37.6418 22.0648 37.6736C22.2538 37.7054 22.4476 37.6921 22.6305 37.6348L33.7492 34.2832C33.8471 34.2555 33.9381 34.2076 34.0164 34.1426C34.1204 34.2262 34.1944 34.3414 34.2273 34.4707C34.2613 34.6334 34.2302 34.8029 34.1409 34.943C34.0516 35.0831 33.911 35.1828 33.7492 35.2207Z" fill="#A54B3F"/>
<path opacity="0.5" d="M32.3711 18.4724V19.4099C32.3711 20.0315 32.1242 20.6277 31.6846 21.0672C31.2451 21.5067 30.6489 21.7537 30.0273 21.7537C29.4057 21.7537 28.8096 21.5067 28.3701 21.0672C27.9305 20.6277 27.6836 20.0315 27.6836 19.4099V18.4724C27.6836 19.094 27.9305 19.6902 28.3701 20.1297C28.8096 20.5692 29.4057 20.8162 30.0273 20.8162C30.6489 20.8162 31.2451 20.5692 31.6846 20.1297C32.1242 19.6902 32.3711 19.094 32.3711 18.4724Z" fill="#9FA5AA"/>
<path d="M35.9726 51.8162C32.0809 52.8867 27.9722 52.8867 24.0805 51.8162C23.9439 52.4257 23.7636 53.0247 23.541 53.6084C27.7841 54.7893 32.269 54.7893 36.5121 53.6084C36.2895 53.0247 36.1092 52.4257 35.9726 51.8162Z" fill="#2D4356"/>
<path d="M23.541 6.7739C23.7636 7.35757 23.9439 7.95652 24.0805 8.5661C27.9722 7.49554 32.0809 7.49554 35.9726 8.5661C36.1092 7.95652 36.2895 7.35757 36.5121 6.7739C32.269 5.59295 27.7841 5.59295 23.541 6.7739Z" fill="#2D4356"/>
</g>
<defs>
<clipPath id="clip0_1_37075">
<rect width="60" height="60" fill="white" transform="translate(0.0273438 0.191162)"/>
</clipPath>
</defs>
</svg>
