<svg width="60" height="60" viewBox="0 0 60 60" fill="none" xmlns="http://www.w3.org/2000/svg">
<path fill-rule="evenodd" clip-rule="evenodd" d="M3.92967 30.2591H28.8399C29.5379 30.2591 30.1364 29.959 30.552 29.3995C30.9677 28.8399 31.0848 28.1775 30.8824 27.5115C29.0051 21.2843 23.2255 16.748 16.3857 16.748C9.54578 16.748 3.76449 21.2843 1.88708 27.5115C1.68637 28.1775 1.8019 28.8399 2.21743 29.3995C2.63308 29.959 3.23343 30.2591 3.92967 30.2591Z" fill="#8AC9FE"/>
<path fill-rule="evenodd" clip-rule="evenodd" d="M28.8394 30.2591C29.5374 30.2591 30.1358 29.959 30.5515 29.3995C30.9671 28.8399 31.0843 28.1775 30.8818 27.5115C29.0045 21.2843 23.225 16.748 16.3851 16.748C15.6604 16.748 14.9482 16.7996 14.252 16.8973C20.1381 17.7285 24.9371 21.9432 26.6156 27.5115C26.8181 28.1775 26.7027 28.8399 26.287 29.3995C25.8714 29.959 25.271 30.2591 24.5748 30.2591H28.8394Z" fill="#60B7FF"/>
<path fill-rule="evenodd" clip-rule="evenodd" d="M16.3856 16.7472C20.6021 16.7472 24.0407 13.3087 24.0407 9.09207C24.0407 4.8756 20.6021 1.43701 16.3856 1.43701C12.1691 1.43701 8.73047 4.8756 8.73047 9.09207C8.73047 13.3087 12.1691 16.7472 16.3856 16.7472Z" fill="#F6DCCD"/>
<path fill-rule="evenodd" clip-rule="evenodd" d="M16.3859 1.43701C20.6131 1.43701 24.0409 4.86489 24.0409 9.09207C24.0409 13.321 20.6131 16.7472 16.3859 16.7472C16.0235 16.7472 15.6665 16.7223 15.3184 16.6744C19.0412 16.154 21.9079 12.9587 21.9079 9.09207C21.9079 5.22725 19.0412 2.03019 15.3184 1.5116C15.6665 1.4636 16.0235 1.43701 16.3859 1.43701Z" fill="#F1CBBC"/>
<path fill-rule="evenodd" clip-rule="evenodd" d="M42.0336 39.8491C41.3187 40.8719 40.4771 41.7978 39.5312 42.6071L46.3381 49.2799L48.9298 46.6088L42.0336 39.8491Z" fill="#A79BA7"/>
<path fill-rule="evenodd" clip-rule="evenodd" d="M42.0821 39.8042C41.948 40.2436 41.6973 40.5763 41.3398 40.7973L48.102 47.5171L48.9311 46.6086L42.0821 39.8042Z" fill="#837683"/>
<path fill-rule="evenodd" clip-rule="evenodd" d="M54.9606 57.9433L57.885 54.9272C58.3989 54.3985 58.3864 53.5445 57.8577 53.0306L49.755 45.1687C49.2263 44.6549 48.3723 44.6698 47.8584 45.1985L44.9341 48.2123C44.4203 48.741 44.4326 49.595 44.9614 50.1087L53.0641 57.9707C53.5929 58.4845 54.4468 58.4722 54.9606 57.9433Z" fill="#F1BA84"/>
<path fill-rule="evenodd" clip-rule="evenodd" d="M48.5558 45.1689L56.6585 53.0308C57.1873 53.5447 57.1996 54.3987 56.6858 54.9274L53.7615 57.9435C53.6522 58.0528 53.5306 58.1421 53.3991 58.2067C53.908 58.4599 54.5434 58.3706 54.9605 57.9435L57.8848 54.9274C58.3987 54.3987 58.3862 53.5447 57.8575 53.0308L49.7548 45.1689C49.3378 44.7643 48.7172 44.6873 48.2207 44.933C48.3424 44.9927 48.454 45.0721 48.5558 45.1689Z" fill="#E3A76F"/>
<path fill-rule="evenodd" clip-rule="evenodd" d="M30.9797 17.6709C39.1271 17.6709 45.7329 24.2742 45.7329 32.4241C45.7329 40.5714 39.1271 47.1773 30.9797 47.1773C22.8299 47.1773 16.2266 40.5714 16.2266 32.4241C16.2266 24.2742 22.8299 17.6709 30.9797 17.6709Z" fill="#837683"/>
<path fill-rule="evenodd" clip-rule="evenodd" d="M30.9791 17.6709C39.1265 17.6709 45.7323 24.2742 45.7323 32.4241C45.7323 40.5714 39.1265 47.1773 30.9791 47.1773C30.7383 47.1773 30.5001 47.1697 30.2617 47.1598C38.0764 46.785 44.3 40.3307 44.3 32.4241C44.3 24.515 38.0764 18.0607 30.2617 17.6883C30.5001 17.6758 30.7383 17.6709 30.9791 17.6709Z" fill="#685E68"/>
<path fill-rule="evenodd" clip-rule="evenodd" d="M30.9802 21.0396C37.2657 21.0396 42.3646 26.136 42.3646 32.424C42.3646 38.7095 37.2657 43.8085 30.9802 43.8085C24.6922 43.8085 19.5957 38.7095 19.5957 32.424C19.5957 26.136 24.6922 21.0396 30.9802 21.0396Z" fill="#ECEFF1"/>
<path fill-rule="evenodd" clip-rule="evenodd" d="M30.9802 21.0396C31.2384 21.0396 31.4941 21.047 31.7497 21.0644C25.8192 21.4616 21.1349 26.3941 21.1349 32.424C21.1349 38.4513 25.8192 43.3865 31.7497 43.7812C31.4941 43.7985 31.2384 43.8085 30.9802 43.8085C24.6922 43.8085 19.5957 38.712 19.5957 32.424C19.5957 26.136 24.6922 21.0396 30.9802 21.0396Z" fill="#D1D1D6"/>
<path fill-rule="evenodd" clip-rule="evenodd" d="M46.2894 31.749H41.6914V33.8648C41.6914 34.6311 42.3182 35.2597 43.0862 35.2597H44.8962C45.6626 35.2597 46.2894 34.6311 46.2894 33.8648V31.749Z" fill="#B1B1B5"/>
<path fill-rule="evenodd" clip-rule="evenodd" d="M40.2305 29.0312L40.2625 31.0748C40.2742 31.8411 40.8893 32.4697 41.6573 32.4697H46.3276C47.094 32.4697 47.7326 31.8411 47.7208 31.0748L47.6906 29.0312C45.2554 29.1085 42.6825 29.0312 40.2305 29.0312Z" fill="#D1D1D6"/>
<path fill-rule="evenodd" clip-rule="evenodd" d="M49.0701 26.8903C49.4818 19.8655 52.5271 20.1496 52.5271 15.3835C52.5271 10.6442 48.6852 6.80078 43.9443 6.80078C39.205 6.80078 35.3633 10.6442 35.3633 15.3835C35.3633 20.1496 38.4068 19.8655 38.8202 26.8903C39.005 28.2784 39.7967 28.591 40.2554 28.591C47.0853 28.591 48.2953 29.2667 49.0701 26.8903Z" fill="#FFE177"/>
<path fill-rule="evenodd" clip-rule="evenodd" d="M49.0702 26.8903C49.4818 19.8655 52.5271 20.1496 52.5271 15.3835C52.5271 10.6442 48.6852 6.80078 43.9444 6.80078C43.7847 6.80078 43.6268 6.80584 43.4688 6.81419C47.9862 7.0629 51.5742 10.8038 51.5742 15.3835C51.5742 20.1496 48.529 19.8655 48.1156 26.8903C47.6567 28.3003 47.0433 28.6364 45.1913 28.6751C47.803 28.7137 48.5391 28.5188 49.0702 26.8903Z" fill="#FFD064"/>
<path fill-rule="evenodd" clip-rule="evenodd" d="M45.373 32.4697H46.3276C47.094 32.4697 47.7326 31.8411 47.7208 31.0748L47.6906 29.0312C47.3746 29.0414 47.0569 29.0481 46.7376 29.0548L46.7679 31.0748C46.7796 31.8411 46.141 32.4697 45.373 32.4697Z" fill="#B1B1B5"/>
<path fill-rule="evenodd" clip-rule="evenodd" d="M38.8203 26.8904V28.2853C38.8203 29.0533 39.4489 29.6801 40.2153 29.6801H47.6753C48.4416 29.6801 49.0702 29.0533 49.0702 28.2853V26.8904H38.8203Z" fill="#ECEFF1"/>
<path fill-rule="evenodd" clip-rule="evenodd" d="M46.7207 29.6801H47.6753C48.4416 29.6801 49.0702 29.0533 49.0702 28.2853V26.8904H48.1156V28.2853C48.1156 29.0533 47.4887 29.6801 46.7207 29.6801Z" fill="#D1D1D6"/>
<path fill-rule="evenodd" clip-rule="evenodd" d="M15.3785 30.7624H1.79274C1.52568 30.7624 1.27109 30.6489 1.09262 30.4502C0.91403 30.2515 0.828383 29.9863 0.856971 29.7208C1.53909 23.3688 6.02568 18.1551 11.9919 16.4077C9.61521 14.9297 8.02791 12.2933 8.02791 9.29844C8.02791 4.6928 11.7824 0.934326 16.3881 0.934326C20.998 0.934326 24.7523 4.69291 24.7523 9.29844C24.7523 12.2934 23.1647 14.9301 20.7869 16.4081C22.1349 16.8028 23.4073 17.3744 24.5773 18.0959C26.5333 17.2202 28.7014 16.7329 30.9834 16.7329C32.2177 16.7329 33.4186 16.8755 34.5707 17.145C34.4766 16.6284 34.4233 16.0506 34.4233 15.3839C34.4233 10.1235 38.6878 5.85903 43.9482 5.85903C49.2085 5.85903 53.473 10.1235 53.473 15.3839C53.473 17.5062 52.9329 18.7296 52.2525 19.9333C51.3858 21.4666 50.2471 22.9607 50.0137 26.9451L50.0125 28.2853C50.0125 29.2364 49.4378 30.0581 48.6202 30.4219V31.0755C48.6202 32.0409 48.0259 32.8733 47.1877 33.2284V33.8657C47.1877 34.585 46.8577 35.2336 46.3409 35.6634C45.9559 37.4979 45.2509 39.2144 44.2865 40.752L47.7539 44.1187C48.6038 43.6709 49.6884 43.7934 50.4124 44.4943L50.4131 44.495L58.5136 52.3564C59.4132 53.2275 59.4384 54.6768 58.5602 55.5836L58.5593 55.5844L55.636 58.5959L55.6352 58.5967C54.7647 59.4947 53.3173 59.5193 52.4116 58.6493C52.4104 58.6481 52.4091 58.6469 52.4079 58.6457L44.3119 50.7847C43.5832 50.0823 43.427 49.0019 43.8506 48.1384L40.5094 44.8962C37.8681 46.9166 34.5661 48.117 30.9834 48.117C22.3163 48.117 15.2914 41.0922 15.2914 32.425C15.2914 31.8634 15.321 31.3088 15.3785 30.7624ZM16.3881 17.6627C9.66332 17.6627 4.06674 22.4966 2.88097 28.8801H15.6937C16.6366 24.7966 19.1727 21.3229 22.6125 19.1496C20.7441 18.1987 18.6289 17.6627 16.3881 17.6627ZM16.3881 15.7803C19.9606 15.7803 22.8699 12.8676 22.8699 9.29844C22.8699 5.72938 19.9606 2.81668 16.3881 2.81668C12.8191 2.81668 9.91026 5.7295 9.91026 9.29844C9.91026 12.8675 12.8191 15.7803 16.3881 15.7803ZM35.3067 19.3051C33.9467 18.8574 32.4934 18.6153 30.9834 18.6153C28.8083 18.6153 26.7505 19.1177 24.9204 20.0135C21.0329 21.9162 18.1709 25.591 17.3883 29.9862C17.2472 30.7779 17.1738 31.5928 17.1738 32.425C17.1738 40.0526 23.3559 46.2347 30.9834 46.2347C34.4081 46.2347 37.5416 44.9886 39.9546 42.9247C40.8404 42.167 41.6292 41.2994 42.2998 40.3428C43.1726 39.0977 43.8452 37.7019 44.2706 36.2021H43.042C42.9094 36.2021 42.7792 36.1909 42.6523 36.1693C41.0698 41.1043 36.4441 44.6768 30.9834 44.6768C24.2167 44.6768 18.7316 39.1917 18.7316 32.425C18.7316 25.6583 24.2167 20.1731 30.9834 20.1731C32.9809 20.1731 34.8666 20.6511 36.5326 21.4989C36.2345 20.9236 35.9249 20.4306 35.6438 19.9333C35.5266 19.726 35.4136 19.5181 35.3067 19.3051ZM43.1793 42.3006C42.7925 42.7777 42.3781 43.2317 41.9389 43.6602L45.0826 46.711L46.3632 45.392L43.1793 42.3006ZM48.1305 27.8313H39.7632V28.2853C39.7632 28.5351 39.9673 28.7393 40.2172 28.7393H47.679C47.9274 28.7393 48.1301 28.5347 48.1301 28.2848L48.1305 27.8313ZM37.8809 26.918C37.8227 25.9447 37.7104 25.1206 37.5612 24.4083C35.7714 22.938 33.4805 22.0555 30.9834 22.0555C25.2564 22.0555 20.6139 26.698 20.6139 32.425C20.6139 38.1521 25.2564 42.7944 30.9834 42.7944C35.809 42.7944 39.8647 39.499 41.0218 35.0355C40.8207 34.6906 40.7057 34.2904 40.7057 33.8657V33.2281C39.8672 32.8727 39.276 32.0406 39.276 31.0755V30.4228C38.4559 30.0595 37.8809 29.237 37.8809 28.2853V26.918ZM46.7378 30.6216H41.1584V31.0755C41.1584 31.3254 41.3625 31.5295 41.6124 31.5295H46.2839C46.5329 31.5295 46.7378 31.3254 46.7378 31.0755V30.6216ZM45.3053 33.4119H42.588V33.8657C42.588 33.9867 42.638 34.0964 42.7164 34.178C42.7991 34.2641 42.9144 34.3197 43.042 34.3197H44.8543C44.927 34.3197 44.9957 34.3017 45.0564 34.2701C45.2027 34.1937 45.3053 34.0413 45.3053 33.8657V33.4119ZM46.3707 25.9489H48.2027C48.5057 22.8066 49.3498 21.1868 50.143 19.8182C50.879 18.5484 51.5906 17.5414 51.5906 15.3839C51.5906 11.1631 48.1689 7.74138 43.9482 7.74138C39.7273 7.74138 36.3057 11.1631 36.3057 15.3839C36.3057 17.5414 37.0173 18.5484 37.7533 19.8182C38.5465 21.1868 39.3906 22.8066 39.6934 25.9489H41.5256V18.3817H40.4704C38.857 18.3817 37.5357 17.0606 37.5357 15.4472C37.5357 13.8299 38.8573 12.5096 40.4704 12.5096C42.0872 12.5096 43.4079 13.8302 43.4079 15.4472V16.4994H44.4884V15.4472C44.4884 13.8302 45.809 12.5096 47.4259 12.5096C49.039 12.5096 50.3605 13.8299 50.3605 15.4472C50.3605 17.0606 49.0393 18.3817 47.4259 18.3817H46.3707V25.9489ZM43.4079 25.9489H44.4884V18.3817H43.4079V25.9489ZM46.3707 16.4994H47.4259C48.0044 16.4994 48.4781 16.0257 48.4781 15.4472C48.4781 14.8668 48.0047 14.392 47.4259 14.392C46.8451 14.392 46.3707 14.8663 46.3707 15.4472V16.4994ZM41.5256 16.4994V15.4472C41.5256 14.8663 41.0512 14.392 40.4704 14.392C39.8914 14.392 39.418 14.8668 39.418 15.4472C39.418 16.0257 39.8918 16.4994 40.4704 16.4994H41.5256ZM54.2846 57.2855L57.208 54.274C57.3618 54.1151 57.3618 53.8613 57.2041 53.7087L57.2034 53.708L49.1029 45.8466C48.9452 45.694 48.6902 45.6969 48.5376 45.8546L48.5366 45.8554L45.6125 48.8676C45.6119 48.8683 45.6113 48.8689 45.6106 48.8695C45.4583 49.0256 45.4612 49.2784 45.6186 49.4296C45.6198 49.4308 45.621 49.432 45.6222 49.4331C45.6222 49.4331 53.7164 57.2926 53.7179 57.294C53.8777 57.445 54.1311 57.444 54.2837 57.2864L54.2846 57.2855ZM44.8893 3.89774C44.8893 4.41727 44.4676 4.83891 43.9482 4.83891C43.4286 4.83891 43.007 4.41727 43.007 3.89774V1.8755C43.007 1.35609 43.4286 0.934326 43.9482 0.934326C44.4676 0.934326 44.8893 1.35609 44.8893 1.8755V3.89774ZM38.2884 5.16233C38.5478 5.61244 38.393 6.18833 37.943 6.44774C37.4929 6.70715 36.917 6.55233 36.6576 6.10233L35.6479 4.35044C35.3885 3.90044 35.5433 3.32444 35.9933 3.06503C36.4433 2.80562 37.0193 2.96044 37.2787 3.41056L38.2884 5.16233ZM33.2063 9.55809C33.656 9.81797 33.81 10.3942 33.5501 10.8439C33.2901 11.2936 32.714 11.4477 32.2643 11.1877L30.5125 10.1751C30.0627 9.91527 29.9086 9.33915 30.1686 8.88938C30.4285 8.43962 31.0047 8.2855 31.4544 8.5455L33.2063 9.55809ZM51.2352 6.10327C50.9753 6.55303 50.3991 6.70715 49.9494 6.44715C49.4997 6.18727 49.3456 5.61103 49.6056 5.16138L50.618 3.4095C50.878 2.95974 51.4541 2.80574 51.9039 3.06562C52.3537 3.32562 52.5078 3.90174 52.2478 4.3515L51.2352 6.10327ZM55.6325 11.1874C55.183 11.4477 54.6067 11.294 54.3465 10.8444C54.0861 10.3949 54.2399 9.81868 54.6894 9.55844L56.4384 8.54586C56.8879 8.28562 57.4641 8.43927 57.7244 8.8888C57.9847 9.33833 57.831 9.91456 57.3814 10.1749L55.6325 11.1874ZM9.77438 35.2609C9.77438 34.7415 10.1961 34.3197 10.7156 34.3197C11.235 34.3197 11.6567 34.7415 11.6567 35.2609V51.2159H39.3285C39.8479 51.2159 40.2697 51.6375 40.2697 52.157C40.2697 52.6764 39.8479 53.0982 39.3285 53.0982H10.7156C10.1958 53.0982 9.77438 52.6768 9.77438 52.157V35.2609Z" fill="black"/>
</svg>
