<svg width="61" height="61" viewBox="0 0 61 61" fill="none" xmlns="http://www.w3.org/2000/svg">
<path d="M50.8605 17.3648L45.5871 26.271C45.047 27.1832 44.0777 27.1304 44.066 27.1335C43.4414 27.13 42.866 26.796 42.5531 26.257L37.3969 17.3507C36.7192 16.1818 37.5635 14.7117 38.918 14.7117H42.3164V3.57886H17.707V7.97573C16.5538 7.8364 15.3614 7.82702 14.1914 7.95933V1.82104C14.1914 0.850732 14.9789 0.0632324 15.9492 0.0632324H44.0742C45.0445 0.0632324 45.832 0.850732 45.832 1.82104V14.7117H49.3477C50.7063 14.7117 51.5534 16.1939 50.8605 17.3648Z" fill="#CEE8FF"/>
<path d="M50.8605 17.3648L45.5871 26.271C45.0469 27.1828 44.0777 27.13 44.066 27.1335C43.4414 27.13 42.866 26.796 42.5531 26.257L37.3969 17.3507C36.7195 16.1824 37.5633 14.7117 38.918 14.7117H42.3164V3.57886H30.0117V0.0632324H44.0742C45.0445 0.0632324 45.832 0.850732 45.832 1.82104V14.7117H49.3477C50.7059 14.7117 51.5531 16.1941 50.8605 17.3648Z" fill="#AEDAFF"/>
<path d="M10.6211 53.095V54.7627C10.6211 57.69 12.9941 60.0632 15.9216 60.0632C18.8489 60.0632 21.2221 57.6901 21.2221 54.7627V53.095H10.6211Z" fill="#004692"/>
<path d="M21.2227 53.0952V54.7628C21.2227 57.7034 18.8398 60.0492 15.9492 60.0632V53.0952H21.2227Z" fill="#00204D"/>
<path d="M24.7373 40.7097L24.7096 37.9349C24.7116 36.9086 25.1097 35.977 25.7757 35.4417C29.5354 32.4193 31.6916 27.9221 31.6916 23.1031C31.6916 14.2978 24.528 7.21588 15.7546 7.28022C7.19055 7.34045 0.0437501 14.5095 0.044922 23.1052C0.045508 27.8697 2.16273 32.3344 5.85355 35.3546C6.67117 36.0236 7.15926 36.9901 7.15926 37.9399V40.7273L15.9484 42.5935L24.7373 40.7097Z" fill="#FFDA2D"/>
<path d="M31.6922 23.1034C31.6922 27.9221 29.5359 32.4186 25.7766 35.442C25.1109 35.9764 24.7125 36.9081 24.7102 37.9346L24.7383 40.7096L15.9492 42.594V7.27954C24.6328 7.32056 31.6922 14.3624 31.6922 23.1034Z" fill="#FFAA17"/>
<path d="M21.2215 21.2742H10.6746C9.50483 21.2742 8.66882 22.3918 8.98241 23.5078L13.9898 41.3132H17.9062L22.9137 23.5078C23.2275 22.3906 22.3897 21.2742 21.2215 21.2742ZM15.948 35.2898L12.9949 24.7898H18.9012L15.948 35.2898Z" fill="#FF7900"/>
<path d="M21.2227 21.2742H15.9492V24.7898H18.9023L15.9492 35.2898V41.3132H17.9074L22.9148 23.5078C23.2289 22.391 22.391 21.2742 21.2227 21.2742Z" fill="#FF4800"/>
<path d="M58.2539 39.0954H55.309C55.0309 38.5098 54.703 37.9371 54.3171 37.3774L55.7895 34.827C56.275 33.9863 55.9869 32.9113 55.1461 32.4259L49.0569 28.9102C48.2161 28.4246 47.1411 28.7128 46.6557 29.5536L45.1835 32.1034C44.5219 32.049 43.8589 32.0486 43.1984 32.1021L41.727 29.5536C41.2419 28.7135 40.1664 28.4247 39.3258 28.9102L33.2366 32.4259C32.3958 32.9113 32.1077 33.9863 32.5932 34.827L34.0645 37.3755C33.6879 37.9209 33.3568 38.4952 33.073 39.0955H30.1289C29.1581 39.0955 28.3711 39.8825 28.3711 40.8533V47.8845C28.3711 48.8553 29.1581 49.6423 30.1289 49.6423H33.0738C33.3586 50.2416 33.6888 50.8139 34.0657 51.3603L32.5934 53.9107C32.1079 54.7514 32.3959 55.8264 33.2367 56.3118L39.3259 59.8275C40.1629 60.3107 41.2396 60.0286 41.7271 59.1841L43.1993 56.6343C43.8609 56.6887 44.5239 56.6892 45.1845 56.6356L46.6559 59.1841C47.1414 60.0249 48.2163 60.3127 49.057 59.8275L55.1462 56.3118C55.9864 55.8267 56.275 54.7513 55.7896 53.9107L54.3182 51.3623C54.6948 50.8169 55.026 50.2425 55.3098 49.6423H58.2539C59.2247 49.6423 60.0117 48.8553 60.0117 47.8845V40.8533C60.0117 39.8824 59.2247 39.0954 58.2539 39.0954ZM46.8281 48.9359C44.299 50.3962 41.0715 49.5121 39.6245 47.0057C38.1707 44.4875 39.0364 41.2559 41.5547 39.8021C44.0794 38.3448 47.3011 39.2083 48.7583 41.7323C50.2121 44.2505 49.3463 47.4821 46.8281 48.9359Z" fill="#4EC9FF"/>
<path d="M58.2539 39.0961H55.309C55.0312 38.5101 54.7031 37.9371 54.3176 37.3769L55.7895 34.8269C56.2746 33.9867 55.9875 32.9109 55.1461 32.4258L49.057 28.9101C48.2156 28.425 47.141 28.7133 46.6559 29.5535L45.184 32.1035C44.8523 32.0766 44.523 32.0625 44.1914 32.0625V39.0937C46.0113 39.0949 47.7809 40.0418 48.7582 41.7328C50.2125 44.2512 49.3465 47.482 46.8281 48.9363C45.9949 49.4168 45.0867 49.6441 44.1914 49.6418V56.6754C44.523 56.6754 44.8535 56.6625 45.184 56.6355L46.6559 59.1844C47.141 60.0246 48.2168 60.3129 49.057 59.8277L55.1461 56.3121C55.9863 55.8269 56.2746 54.7512 55.7895 53.9109L54.3187 51.3621C54.6949 50.8172 55.0266 50.243 55.3102 49.643H58.2539C59.2242 49.643 60.0117 48.8555 60.0117 47.8851V40.8539C60.0117 39.8824 59.2242 39.0961 58.2539 39.0961Z" fill="#0095FF"/>
<path d="M7.16016 40.7273V44.2429L15.9942 45.1985L24.7382 44.2429V40.7273H7.16016Z" fill="#EDF5FF"/>
<path d="M24.7383 40.7273V44.2429L15.9938 45.198L15.9492 45.1933V40.7273H24.7383Z" fill="#CEE8FF"/>
<path d="M7.16016 44.2429V52.3289C7.16016 53.2996 7.94719 54.0867 8.91797 54.0867H22.9805C23.9513 54.0867 24.7383 53.2996 24.7383 52.3289V44.2429H7.16016Z" fill="#CEE8FF"/>
<path d="M24.7383 44.2429V52.3289C24.7383 53.2992 23.9508 54.0867 22.9805 54.0867H15.9492V44.2429H24.7383Z" fill="#AEDAFF"/>
</svg>
