<svg width="61" height="61" viewBox="0 0 61 61" fill="none" xmlns="http://www.w3.org/2000/svg">
<g clip-path="url(#clip0_1_37018)">
<path d="M51.3093 30.4813C51.3093 32.8974 50.9411 35.2289 50.2555 37.4193C50.1814 37.6637 50.1013 37.9054 50.0154 38.1455C49.7447 38.9285 49.4304 39.6912 49.0782 40.4335C48.7827 41.0594 48.4595 41.6691 48.1089 42.2615C47.4104 43.4506 46.6098 44.5712 45.7162 45.6119C44.7818 46.7019 43.7484 47.7048 42.6306 48.6072C38.6413 51.8193 33.5691 53.7434 28.0472 53.7434C15.2002 53.7434 4.78516 43.3283 4.78516 30.4813C4.78516 17.6343 15.2 7.21924 28.0471 7.21924C40.8943 7.21924 51.3093 17.6343 51.3093 30.4813Z" fill="url(#paint0_linear_1_37018)"/>
<path d="M28.0473 14.7214C27.1346 14.7214 26.3945 27.9158 26.3945 28.8286C26.3945 29.4102 26.6957 29.9208 27.1499 30.2153L44.1769 47.2423C47.0494 44.4773 49.2121 40.981 50.3668 37.0529C46.5646 33.2784 28.0473 14.7214 28.0473 14.7214Z" fill="url(#paint1_linear_1_37018)"/>
<path d="M28.047 31.7962C28.7731 31.7962 29.3616 31.2076 29.3616 30.4816C29.3616 29.7556 28.7731 29.167 28.047 29.167C27.321 29.167 26.7324 29.7556 26.7324 30.4816C26.7324 31.2076 27.321 31.7962 28.047 31.7962Z" fill="url(#paint2_linear_1_37018)"/>
<path d="M28.0468 12.0059C27.8872 12.0059 27.7427 12.0705 27.6381 12.1752C27.5336 12.2797 27.4688 12.4242 27.4688 12.5839V16.8223C27.4688 16.9419 27.5051 17.0531 27.5674 17.1454C27.6089 17.2069 27.662 17.26 27.7235 17.3014C27.7542 17.3223 27.7871 17.3401 27.8217 17.3548C27.8909 17.3839 27.9669 17.4002 28.0466 17.4002C28.2062 17.4002 28.3507 17.3355 28.4554 17.2309C28.5599 17.1263 28.6247 16.9819 28.6247 16.8221V12.5838C28.6248 12.2646 28.3659 12.0059 28.0468 12.0059Z" fill="url(#paint3_linear_1_37018)"/>
<path d="M28.0467 43.5625C27.7275 43.5625 27.4688 43.8214 27.4688 44.1405V48.3788C27.4688 48.4339 27.4788 48.486 27.4932 48.5364C27.5621 48.7784 27.7826 48.9568 28.0466 48.9568C28.1264 48.9568 28.2025 48.9405 28.2715 48.9113C28.4789 48.8235 28.6246 48.6181 28.6246 48.3787V44.1404C28.6247 43.8212 28.3658 43.5625 28.0467 43.5625Z" fill="url(#paint4_linear_1_37018)"/>
<path d="M45.9452 29.9036H41.7069C41.3877 29.9036 41.1289 30.1623 41.1289 30.4815C41.1289 30.8008 41.3877 31.0595 41.7069 31.0595H45.9452C46.2644 31.0595 46.5232 30.8008 46.5232 30.4815C46.5233 30.1623 46.2644 29.9036 45.9452 29.9036Z" fill="url(#paint5_linear_1_37018)"/>
<path d="M14.9668 30.4813C14.9668 30.3616 14.9304 30.2503 14.8681 30.1581C14.8266 30.0966 14.7735 30.0435 14.712 30.002C14.6198 29.9396 14.5086 29.9033 14.3888 29.9033H10.1504C9.99074 29.9033 9.84625 29.968 9.7416 30.0727C9.63707 30.1773 9.57227 30.3217 9.57227 30.4814C9.57227 30.8006 9.83102 31.0594 10.1502 31.0594H14.3886C14.5482 31.0594 14.6927 30.9947 14.7973 30.89C14.902 30.7854 14.9668 30.641 14.9668 30.4813Z" fill="url(#paint6_linear_1_37018)"/>
<path d="M38.1157 21.2317L41.1126 18.2347C41.3383 18.009 41.3383 17.6431 41.1126 17.4174C40.8869 17.1915 40.5209 17.1917 40.2952 17.4174L37.2983 20.4143C37.0725 20.6401 37.0725 21.006 37.2983 21.2317C37.524 21.4574 37.89 21.4574 38.1157 21.2317Z" fill="url(#paint7_linear_1_37018)"/>
<path d="M18.7974 39.7313C18.5717 39.5056 18.2058 39.5056 17.9801 39.7313L14.9831 42.7282C14.7885 42.9229 14.7627 43.2215 14.9038 43.445C14.9217 43.4733 14.9431 43.4998 14.9665 43.5254C14.9724 43.5319 14.9767 43.5393 14.9831 43.5457C15.0933 43.6559 15.2368 43.7114 15.3812 43.714C15.3847 43.7141 15.3882 43.7151 15.3917 43.7151C15.5396 43.7151 15.6875 43.6586 15.8005 43.5457L18.7974 40.5488C18.8821 40.4642 18.935 40.3599 18.9561 40.2505C18.9632 40.2141 18.9667 40.1772 18.9667 40.1402C18.9668 39.992 18.9104 39.844 18.7974 39.7313Z" fill="url(#paint8_linear_1_37018)"/>
<path d="M41.1125 42.7278L38.1155 39.7309C38.045 39.6603 37.9601 39.6145 37.8708 39.588C37.7849 39.5626 37.695 39.5558 37.6071 39.571C37.494 39.5908 37.3856 39.6433 37.2983 39.7306C37.0725 39.9565 37.0725 40.3223 37.2983 40.548L40.2952 43.545C40.3291 43.5788 40.3667 43.6059 40.406 43.6296C40.6282 43.7639 40.9208 43.7369 41.1127 43.545C41.2047 43.453 41.2572 43.3373 41.2741 43.2177C41.2986 43.0442 41.2462 42.8617 41.1125 42.7278Z" fill="url(#paint9_linear_1_37018)"/>
<path d="M15.8012 17.4174C15.6883 17.3045 15.5403 17.248 15.3924 17.248C15.3555 17.248 15.3185 17.2516 15.282 17.2586C15.1727 17.2798 15.0684 17.3325 14.9838 17.4173C14.8709 17.5301 14.8145 17.6781 14.8145 17.826C14.8145 17.8629 14.818 17.9 14.825 17.9364C14.8462 18.0457 14.8989 18.15 14.9837 18.2346L17.9806 21.2316C17.9858 21.2368 17.9919 21.2402 17.9973 21.2451C18.05 21.2941 18.1087 21.3329 18.1719 21.3585C18.2414 21.3868 18.3154 21.4008 18.3894 21.4008C18.5373 21.4008 18.6853 21.3443 18.7981 21.2315C18.8827 21.1469 18.9357 21.0425 18.9568 20.9332C18.9638 20.8968 18.9673 20.8599 18.9673 20.8229C18.9673 20.675 18.9109 20.527 18.798 20.4141L15.8012 17.4174Z" fill="url(#paint10_linear_1_37018)"/>
<path d="M49.0789 40.4337C48.7834 41.0596 48.4602 41.6693 48.1096 42.2617C47.4111 43.4508 46.6105 44.5714 45.7169 45.6121C44.7825 46.7021 43.7491 47.705 42.6313 48.6074L26.2663 32.263C25.281 31.2791 25.281 29.6839 26.2663 28.7C26.3099 28.6564 26.3536 28.6155 26.4002 28.5763C27.3432 27.7555 28.7521 27.7555 29.6952 28.5763C29.7419 28.6155 29.7855 28.6563 29.8291 28.7C29.8727 28.7436 29.9164 28.7903 29.9542 28.8369H29.9556C29.9847 28.8383 30.0139 28.8398 30.0459 28.8412C30.1012 28.8456 30.1623 28.8485 30.2277 28.8528C30.5712 28.8746 31.0414 28.9111 31.5871 28.9605C31.7501 28.9751 31.9204 28.9911 32.0965 29.0086C32.2231 29.0216 32.3527 29.0333 32.4851 29.0478C32.5973 29.0594 32.7108 29.0712 32.8271 29.0828C32.9114 29.0914 32.9973 29.1017 33.0832 29.1104C33.2201 29.125 33.3569 29.141 33.4952 29.1571C34.153 29.2328 34.8341 29.3185 35.4846 29.4148C35.5735 29.4278 35.6622 29.441 35.7496 29.4554C35.7626 29.4568 35.7773 29.4583 35.7903 29.4613C35.8921 29.4773 35.9927 29.4933 36.0916 29.5079C36.1905 29.5254 36.2881 29.5414 36.3842 29.5574C36.4482 29.569 36.5123 29.5793 36.5763 29.5909C36.6737 29.6084 36.7713 29.6258 36.8673 29.6448C36.9154 29.6535 36.9634 29.6623 37.01 29.671C37.1089 29.6914 37.2034 29.7103 37.2967 29.7293C37.3258 29.7351 37.3536 29.7409 37.3812 29.7467C37.4191 29.7554 37.4569 29.7643 37.4934 29.7715C37.5108 29.7744 37.5283 29.7787 37.5457 29.7831C37.5996 29.7961 37.6534 29.8078 37.7043 29.8194C37.7406 29.8281 37.7755 29.837 37.8091 29.8441C37.9444 29.8791 38.0711 29.9125 38.1904 29.946C38.218 29.9546 38.2457 29.9634 38.272 29.9707C38.2939 29.9766 38.3141 29.9837 38.3345 29.9897C38.3651 29.9999 38.3942 30.0101 38.4234 30.0189C38.4336 30.0218 38.4438 30.0246 38.4539 30.0291C38.5122 30.0494 38.5661 30.0683 38.617 30.0887C38.6213 30.0901 38.6256 30.093 38.6315 30.0944C38.6591 30.106 38.6868 30.1178 38.713 30.128C38.7756 30.1556 38.8309 30.1819 38.8805 30.2095C38.9024 30.2225 38.9212 30.2342 38.9402 30.2459C39.0012 30.2851 39.0479 30.3245 39.0784 30.3637C39.0886 30.3739 39.0959 30.3857 39.1018 30.3957C39.1032 30.3987 39.1047 30.4001 39.1047 30.4016C39.112 30.4146 39.1177 30.4278 39.1207 30.4423C39.1251 30.4553 39.1265 30.4685 39.1265 30.4815L49.0789 40.4337Z" fill="url(#paint11_linear_1_37018)"/>
<path d="M29.6997 32.1342C28.7869 32.1342 28.0469 31.3942 28.0469 30.4814C28.0469 29.5687 28.7869 28.8286 29.6997 28.8286C30.6125 28.8286 39.125 29.5687 39.125 30.4814C39.1251 31.3943 30.6125 32.1342 29.6997 32.1342Z" fill="url(#paint12_linear_1_37018)"/>
<path d="M29.7002 28.8283C29.7002 29.7411 28.9601 30.4812 28.0473 30.4812C27.1346 30.4812 26.3945 29.7411 26.3945 28.8283C26.3945 27.9156 27.1346 14.7212 28.0473 14.7212C28.9601 14.7213 29.7002 27.9156 29.7002 28.8283Z" fill="url(#paint13_linear_1_37018)"/>
<path d="M28.0473 33.0017C29.4391 33.0017 30.5673 31.8734 30.5673 30.4817C30.5673 29.0899 29.4391 27.9617 28.0473 27.9617C26.6556 27.9617 25.5273 29.0899 25.5273 30.4817C25.5273 31.8734 26.6556 33.0017 28.0473 33.0017Z" fill="url(#paint14_linear_1_37018)"/>
<path d="M26.8907 50.4235C26.1732 51.3677 25.8145 52.3342 25.8145 53.3226V53.6365C26.5491 53.7064 27.2935 53.7436 28.0466 53.7436C33.5685 53.7436 38.6407 51.8195 42.63 48.6074C43.7478 47.705 44.7813 46.7021 45.7156 45.612C46.093 45.1725 46.4528 44.7179 46.7963 44.2508L37.9366 35.3974C36.5621 34.1717 34.8962 33.5591 32.9392 33.5591C31.092 33.5591 29.5032 34.1033 28.173 35.1917C26.8423 36.2802 26.1774 37.6821 26.1774 39.3972C26.1774 40.2466 26.4051 40.8159 26.8572 41.1094L31.8769 46.1542L29.5418 47.8538C28.4921 48.6229 27.6081 49.4794 26.8907 50.4235Z" fill="url(#paint15_linear_1_37018)"/>
<path d="M25.8164 56.5181V53.3226C25.8164 52.334 26.1751 51.3678 26.8927 50.4235C27.61 49.4794 28.4939 48.6228 29.5438 47.8538L32.7103 45.549C33.7659 44.781 34.6616 43.9358 35.3987 43.0138C36.1352 42.0923 36.5037 41.1702 36.5037 40.2481C36.5037 39.3267 36.2012 38.52 35.5966 37.8283C34.9916 37.1373 34.1067 36.7915 32.9413 36.7915C31.9518 36.7915 31.1488 37.0646 30.5336 37.6103C29.9175 38.1562 29.6099 38.9638 29.6099 40.0332C29.6099 40.3828 29.4393 40.6888 29.0986 40.9507C28.7576 41.2126 28.3121 41.3435 27.7627 41.3435C26.7071 41.3435 26.1795 40.695 26.1795 39.3972C26.1795 37.6821 26.8444 36.2803 28.175 35.1917C29.5052 34.1033 31.0941 33.5591 32.9413 33.5591C34.8982 33.5591 36.5641 34.1716 37.9386 35.3973C39.3125 36.6229 40.0002 38.2066 40.0002 40.1496C40.0002 41.4669 39.6318 42.7013 38.8952 43.8537C38.1581 45.0061 37.2676 45.9828 36.2234 46.7837C35.1786 47.5851 34.134 48.3422 33.0899 49.0555C32.0452 49.7688 31.1548 50.4878 30.4181 51.212C29.681 51.9367 29.3132 52.6391 29.3132 53.3194V54.5702H39.0107C39.3184 54.5702 39.5878 54.7187 39.8188 55.0155C40.0498 55.3125 40.1653 55.6703 40.1653 56.0877C40.1653 56.5057 40.0504 56.8741 39.821 57.1926C39.5917 57.5117 39.3241 57.6711 39.0185 57.6711H27.3561C27.0067 57.6711 26.6624 57.5612 26.3244 57.3417C25.9855 57.1221 25.8164 56.8479 25.8164 56.5181Z" fill="url(#paint16_linear_1_37018)"/>
<path d="M40.2969 50.9547C40.2969 50.7136 40.3629 50.4719 40.4949 50.2302L48.4773 34.5144C48.8071 33.8775 49.3127 33.5591 49.9946 33.5591C50.3681 33.5591 50.7533 33.6908 51.149 33.9548C51.5448 34.2188 51.7428 34.5376 51.7428 34.9114C51.7428 35.0433 51.6875 35.2195 51.5777 35.4392L44.7829 48.9958H49.6317V44.4178C49.6317 43.6435 50.214 43.2566 51.3799 43.2566C51.8633 43.2566 52.2755 43.3565 52.6168 43.5555C52.9575 43.7545 53.1281 44.042 53.1281 44.4179V48.996H54.7443C55.1179 48.996 55.409 49.1594 55.6183 49.4862C55.827 49.8129 55.9317 50.1938 55.9317 50.6287C55.9317 51.0204 55.8105 51.3853 55.5687 51.7223C55.3266 52.0598 55.0518 52.2285 54.7442 52.2285H53.128V56.5092C53.128 56.8638 52.9517 57.1458 52.6002 57.3561C52.248 57.5662 51.8415 57.6711 51.3796 57.6711C50.8958 57.6711 50.4834 57.5665 50.1427 57.3561C49.8015 57.1458 49.6314 56.8638 49.6314 56.5092V52.2285H41.5173C41.1651 52.2285 40.874 52.1146 40.6433 51.8858C40.4124 51.6568 40.2969 51.3465 40.2969 50.9547Z" fill="url(#paint17_linear_1_37018)"/>
<path d="M58.3214 26.4988H55.6548H55.531C53.5934 13.0663 42.008 2.71118 28.0476 2.71118C12.735 2.71118 0.277344 15.1687 0.277344 30.4812C0.277344 36.7996 2.45668 42.9837 6.41387 47.8942C10.3114 52.7308 15.7735 56.1577 21.7939 57.5439C21.9587 57.582 22.1233 57.6001 22.2856 57.6001C23.2797 57.6001 24.1786 56.9164 24.4112 55.9063C24.6816 54.7313 23.9485 53.5597 22.7734 53.2892C17.7024 52.1215 13.1 49.2327 9.81359 45.1547C6.43133 40.9577 4.64363 35.8838 4.64363 30.4815C4.64363 17.5764 15.1426 7.07759 28.0476 7.07759C39.5953 7.07759 49.215 15.4844 51.1111 26.499H48.8082C47.069 26.499 46.1981 28.6017 47.4279 29.8313L52.1845 34.5879C52.9468 35.3502 54.1829 35.3502 54.9452 34.5879L59.7018 29.8313C60.9315 28.6015 60.0604 26.4988 58.3214 26.4988Z" fill="url(#paint18_linear_1_37018)"/>
</g>
<defs>
<linearGradient id="paint0_linear_1_37018" x1="29.0763" y1="31.5117" x2="59.4686" y2="61.904" gradientUnits="userSpaceOnUse">
<stop stop-color="white"/>
<stop offset="1" stop-color="#C3C3C3"/>
</linearGradient>
<linearGradient id="paint1_linear_1_37018" x1="37.4656" y1="31.1345" x2="12.5043" y2="28.3323" gradientUnits="userSpaceOnUse">
<stop stop-color="#C3C3C3" stop-opacity="0"/>
<stop offset="0.267" stop-color="#A4A4A4" stop-opacity="0.267"/>
<stop offset="0.542" stop-color="#8B8B8B" stop-opacity="0.542"/>
<stop offset="0.794" stop-color="#7C7C7C" stop-opacity="0.794"/>
<stop offset="1" stop-color="#777777"/>
</linearGradient>
<linearGradient id="paint2_linear_1_37018" x1="28.0464" y1="29.8388" x2="28.0464" y2="33.7622" gradientUnits="userSpaceOnUse">
<stop stop-color="#F18D00"/>
<stop offset="1" stop-color="#ED7103"/>
</linearGradient>
<linearGradient id="paint3_linear_1_37018" x1="32.2058" y1="27.8049" x2="33.3623" y2="31.4472" gradientUnits="userSpaceOnUse">
<stop stop-color="#A7F3CE"/>
<stop offset="1" stop-color="#61DB99"/>
</linearGradient>
<linearGradient id="paint4_linear_1_37018" x1="23.1053" y1="30.6945" x2="24.2617" y2="34.3368" gradientUnits="userSpaceOnUse">
<stop stop-color="#A7F3CE"/>
<stop offset="1" stop-color="#61DB99"/>
</linearGradient>
<linearGradient id="paint5_linear_1_37018" x1="41.4291" y1="28.8643" x2="46.8231" y2="32.5066" gradientUnits="userSpaceOnUse">
<stop stop-color="#A7F3CE"/>
<stop offset="1" stop-color="#61DB99"/>
</linearGradient>
<linearGradient id="paint6_linear_1_37018" x1="9.87333" y1="28.8641" x2="15.2673" y2="32.5064" gradientUnits="userSpaceOnUse">
<stop stop-color="#A7F3CE"/>
<stop offset="1" stop-color="#61DB99"/>
</linearGradient>
<linearGradient id="paint7_linear_1_37018" x1="42.9803" y1="22.6369" x2="47.1332" y2="26.2792" gradientUnits="userSpaceOnUse">
<stop stop-color="#A7F3CE"/>
<stop offset="1" stop-color="#61DB99"/>
</linearGradient>
<linearGradient id="paint8_linear_1_37018" x1="9.60489" y1="35.2476" x2="13.7566" y2="38.8899" gradientUnits="userSpaceOnUse">
<stop stop-color="#A7F3CE"/>
<stop offset="1" stop-color="#61DB99"/>
</linearGradient>
<linearGradient id="paint9_linear_1_37018" x1="31.9191" y1="35.245" x2="36.0696" y2="38.8873" gradientUnits="userSpaceOnUse">
<stop stop-color="#A7F3CE"/>
<stop offset="1" stop-color="#61DB99"/>
</linearGradient>
<linearGradient id="paint10_linear_1_37018" x1="20.6666" y1="22.6363" x2="24.8194" y2="26.2785" gradientUnits="userSpaceOnUse">
<stop stop-color="#A7F3CE"/>
<stop offset="1" stop-color="#61DB99"/>
</linearGradient>
<linearGradient id="paint11_linear_1_37018" x1="37.2299" y1="35.8656" x2="27.0678" y2="24.7035" gradientUnits="userSpaceOnUse">
<stop stop-color="#C3C3C3" stop-opacity="0"/>
<stop offset="0.267" stop-color="#A4A4A4" stop-opacity="0.267"/>
<stop offset="0.542" stop-color="#8B8B8B" stop-opacity="0.542"/>
<stop offset="0.794" stop-color="#7C7C7C" stop-opacity="0.794"/>
<stop offset="1" stop-color="#777777"/>
</linearGradient>
<linearGradient id="paint12_linear_1_37018" x1="36.0151" y1="29.8815" x2="0.33471" y2="33.412" gradientUnits="userSpaceOnUse">
<stop stop-color="#FFB92D"/>
<stop offset="1" stop-color="#F59500"/>
</linearGradient>
<linearGradient id="paint13_linear_1_37018" x1="31.3733" y1="37.2042" x2="34.9039" y2="50.5239" gradientUnits="userSpaceOnUse">
<stop stop-color="#FFB92D"/>
<stop offset="1" stop-color="#F59500"/>
</linearGradient>
<linearGradient id="paint14_linear_1_37018" x1="28.0467" y1="29.3094" x2="28.0467" y2="32.9517" gradientUnits="userSpaceOnUse">
<stop stop-color="#A7F3CE"/>
<stop offset="1" stop-color="#61DB99"/>
</linearGradient>
<linearGradient id="paint15_linear_1_37018" x1="36.5134" y1="49.1526" x2="22.6513" y2="35.2905" gradientUnits="userSpaceOnUse">
<stop stop-color="#C3C3C3" stop-opacity="0"/>
<stop offset="0.267" stop-color="#A4A4A4" stop-opacity="0.267"/>
<stop offset="0.542" stop-color="#8B8B8B" stop-opacity="0.542"/>
<stop offset="0.794" stop-color="#7C7C7C" stop-opacity="0.794"/>
<stop offset="1" stop-color="#777777"/>
</linearGradient>
<linearGradient id="paint16_linear_1_37018" x1="32.9901" y1="40.2834" x2="32.9901" y2="54.2701" gradientUnits="userSpaceOnUse">
<stop stop-color="#62E1FB"/>
<stop offset="1" stop-color="#00A2F3"/>
</linearGradient>
<linearGradient id="paint17_linear_1_37018" x1="48.1133" y1="40.2833" x2="48.1133" y2="54.27" gradientUnits="userSpaceOnUse">
<stop stop-color="#62E1FB"/>
<stop offset="1" stop-color="#00A2F3"/>
</linearGradient>
<linearGradient id="paint18_linear_1_37018" x1="35.9575" y1="38.4012" x2="49.2772" y2="51.7209" gradientUnits="userSpaceOnUse">
<stop stop-color="#FFB92D"/>
<stop offset="1" stop-color="#F59500"/>
</linearGradient>
<clipPath id="clip0_1_37018">
<rect width="60" height="60" fill="white" transform="translate(0.277344 0.191162)"/>
</clipPath>
</defs>
</svg>
