<svg width="51" height="49" viewBox="0 0 51 49" fill="none" xmlns="http://www.w3.org/2000/svg">
<path d="M19.6523 1.59521H24.1836V21.7515H19.6523V1.59521Z" stroke="#16171A" stroke-width="2" stroke-miterlimit="10" stroke-linecap="round" stroke-linejoin="round"/>
<path d="M33.2461 30.6577C36.918 30.0327 41.2148 29.6421 42.4648 29.6421C44.8086 29.6421 49.4961 31.0483 49.4961 32.7671C49.4961 34.4858 44.8086 35.8921 42.4648 35.8921C41.1367 35.8921 36.4492 35.4233 32.6211 34.7202" stroke="#16171A" stroke-width="2" stroke-miterlimit="10" stroke-linecap="round" stroke-linejoin="round"/>
<path d="M19.2612 40.6577C17.23 42.689 15.2769 44.4077 14.4956 45.0327C12.6206 46.439 8.01124 48.1577 6.99562 46.7515C5.97999 45.3452 8.87061 41.439 10.7456 40.0327C11.2144 39.7202 12.1519 39.0952 13.3237 38.3921" stroke="#16171A" stroke-width="2" stroke-miterlimit="10" stroke-linecap="round" stroke-linejoin="round"/>
<path d="M17.0742 23.314C17.3867 22.3765 18.2461 21.6733 19.3398 21.6733H24.4961C25.8242 21.6733 26.8398 22.689 26.8398 24.0171V30.189" stroke="#16171A" stroke-width="2" stroke-miterlimit="10" stroke-linecap="round" stroke-linejoin="round"/>
<path d="M26.8398 30.2671V24.0952C26.8398 22.8452 25.8242 21.7515 24.4961 21.7515H24.1836H19.6523H19.3398C18.3242 21.7515 17.3867 22.4546 17.1523 23.3921" stroke="#16171A" stroke-width="2" stroke-miterlimit="10" stroke-linecap="round" stroke-linejoin="round"/>
<path d="M15.1992 35.5015L14.2617 33.7046" stroke="#16171A" stroke-width="2" stroke-miterlimit="10" stroke-linecap="round" stroke-linejoin="round"/>
<path d="M23.6367 30.2671H26.8398H28.6367C29.8867 30.2671 30.7461 31.5952 30.1211 32.7671L28.6367 35.5796" stroke="#16171A" stroke-width="2" stroke-miterlimit="10" stroke-linecap="round" stroke-linejoin="round"/>
<path d="M21.918 37.689C25.6286 37.689 28.6367 36.7096 28.6367 35.5015C28.6367 34.2933 25.6286 33.314 21.918 33.314C18.2073 33.314 15.1992 34.2933 15.1992 35.5015C15.1992 36.7096 18.2073 37.689 21.918 37.689Z" stroke="#16171A" stroke-width="2" stroke-miterlimit="10" stroke-linecap="round" stroke-linejoin="round"/>
<path d="M9.26172 1.59521H34.4961" stroke="#16171A" stroke-width="2" stroke-miterlimit="10" stroke-linecap="round" stroke-linejoin="round"/>
<path d="M5.82277 26.8296C7.85402 28.0015 19.8071 33.0796 20.6665 31.5171C21.5259 30.0328 10.9009 22.4546 8.86964 21.3609C6.83839 20.189 2.07277 19.1734 1.21339 20.6578C0.354017 22.2203 3.79152 25.7359 5.82277 26.8296Z" stroke="#16171A" stroke-width="2" stroke-miterlimit="10" stroke-linecap="round" stroke-linejoin="round"/>
</svg>
