<svg width="51" height="51" viewBox="0 0 51 51" fill="none" xmlns="http://www.w3.org/2000/svg">
<g clip-path="url(#clip0_1_38558)">
<path d="M29.875 10.8353C28.9768 10.3187 28.0808 9.79795 27.1838 9.27891C27.6731 8.12959 28.1792 6.94482 28.6392 5.75811C28.8158 5.30234 28.7553 4.79023 28.4774 4.38818C27.9133 3.57187 26.8299 3.52412 26.1002 4.21836C24.1799 6.04531 22.2834 7.83115 20.3723 9.64189C20.0036 9.99121 19.8218 10.4656 19.8734 10.9435C19.9246 11.4167 20.1996 11.8363 20.6278 12.0948C21.5404 12.6457 22.46 13.1646 23.3718 13.6857C22.9178 14.7561 22.3589 16.0536 21.9147 17.2017C21.6328 17.9303 21.9559 18.7391 22.666 19.0829C23.2238 19.353 23.8668 19.3007 24.453 18.7428C26.3203 16.9657 28.3078 15.0969 30.1826 13.3182C30.5555 12.9644 30.7366 12.4868 30.6795 12.0079C30.6218 11.5234 30.3286 11.0961 29.875 10.8353ZM29.1743 12.2553C27.1693 14.1573 23.5145 17.6769 23.3214 17.7717C23.3071 17.7661 23.272 17.7531 23.2808 17.7301C23.7876 16.4063 24.4168 14.9752 24.9333 13.7516C25.0784 13.4077 25.0209 12.9435 24.565 12.6811C23.5064 12.0719 22.4364 11.4756 21.3849 10.8406C21.3067 10.7935 21.3101 10.7713 21.3799 10.7051C22.6366 9.51426 26.7904 5.48105 27.2201 5.1915C27.2588 5.1998 27.2732 5.2207 27.2733 5.229C26.7556 6.56396 26.1779 7.89639 25.6229 9.20742C25.4477 9.62148 25.5943 10.0523 25.9881 10.2797C27.0407 10.8873 28.0909 11.4997 29.1448 12.1051C29.2521 12.1668 29.256 12.1779 29.1743 12.2553ZM45.1504 38.3354C45.555 38.3354 45.8828 38.0075 45.8828 37.603V21.4744L48.5268 22.7511C48.9063 22.9341 49.3473 22.9103 49.7058 22.6852C50.0637 22.4604 50.2773 22.0737 50.2773 21.6509V17.2671C50.2773 16.8006 50.0058 16.3689 49.5871 16.1681L36.208 9.70742C35.3566 4.4418 30.7796 0.407715 25.2773 0.407715C19.1715 0.407715 14.2039 5.3752 14.2039 11.4812C14.2039 12.7006 14.4025 13.8743 14.7684 14.9724L1.74219 21.2624V17.4208L12.1882 12.3765C12.5523 12.2006 12.7051 11.7627 12.5292 11.3984C12.3534 11.0343 11.9157 10.8814 11.5511 11.0573L0.969336 16.1673C0.548926 16.3689 0.277344 16.8007 0.277344 17.2671V21.6509C0.277344 22.0737 0.491016 22.4604 0.848926 22.6852C1.20762 22.9104 1.64873 22.934 2.02852 22.7509L4.67188 21.4744V46.0132H1.5957C0.86875 46.0132 0.277344 46.6046 0.277344 47.3315V49.0894C0.277344 49.8163 0.86875 50.4077 1.5957 50.4077H48.959C49.6859 50.4077 50.2773 49.8163 50.2773 49.0894V47.3315C50.2773 46.6046 49.6859 46.0132 48.959 46.0132H45.8828V40.5327C45.8828 40.1282 45.555 39.8003 45.1504 39.8003C44.7458 39.8003 44.418 40.1282 44.418 40.5327V46.0132H26.0098V40.6112C28.7478 40.2512 30.8686 37.9041 30.8686 35.0695V30.2768C30.8686 29.5084 30.2436 28.8833 29.4751 28.8833H28.207V26.3463C28.207 25.9418 27.8792 25.6139 27.4746 25.6139C27.07 25.6139 26.7422 25.9418 26.7422 26.3463V28.8833H23.8125V26.3463C23.8125 25.9418 23.4847 25.6139 23.0801 25.6139C22.6755 25.6139 22.3477 25.9418 22.3477 26.3463V28.8833H21.0796C20.3112 28.8833 19.6861 29.5084 19.6861 30.2768V35.0695C19.6861 37.9041 21.8069 40.2512 24.5449 40.6112V46.0132H6.13672V20.7671L15.324 16.3308C17.1253 20.0126 20.9099 22.5544 25.2773 22.5544C29.6448 22.5544 33.4294 20.0125 35.2307 16.3308L44.418 20.7671V37.603C44.418 38.0075 44.7458 38.3354 45.1504 38.3354ZM21.151 35.0695V30.3481H29.4037V35.0695C29.4037 37.3448 27.5526 39.1959 25.2773 39.1959C23.0021 39.1959 21.151 37.3447 21.151 35.0695ZM48.8125 47.478V48.9429H1.74219V47.478H48.8125ZM25.2773 21.0896C19.9792 21.0896 15.6687 16.7793 15.6687 11.4812C15.6687 6.18291 19.9792 1.87256 25.2773 1.87256C30.5755 1.87256 34.8859 6.18291 34.8859 11.4812C34.8859 16.7793 30.5755 21.0896 25.2773 21.0896ZM35.7863 14.9724C36.1521 13.8742 36.3508 12.7005 36.3508 11.4812C36.3508 11.4549 36.35 11.4288 36.3498 11.4026L48.8125 17.4208V21.2624L35.7863 14.9724Z" fill="#16171A"/>
</g>
<defs>
<clipPath id="clip0_1_38558">
<rect width="50" height="50" fill="white" transform="translate(0.277344 0.407715)"/>
</clipPath>
</defs>
</svg>
