<svg width="49" height="49" viewBox="0 0 49 49" fill="none" xmlns="http://www.w3.org/2000/svg">
<path d="M20.24 31.5159H28.7593C29.1743 31.5159 29.511 31.1792 29.511 30.7642V22.9966V18.2357V14.7278C29.511 14.3128 29.1743 13.9761 28.7593 13.9761H20.24C19.8247 13.9761 19.4883 14.3128 19.4883 14.7278V18.2357V22.9966V30.7642C19.4883 31.1792 19.8248 31.5159 20.24 31.5159ZM20.9917 30.0125V23.7483H28.0076V30.0126H20.9917V30.0125ZM20.9917 18.9875H28.0076V22.2449H20.9917V18.9875ZM28.0077 15.4796V17.4842H20.9918V15.4796H28.0077Z" fill="black"/>
<path d="M43.0836 9.96704H42.2122L41.2812 3.10087C41.2309 2.72798 40.9127 2.44995 40.5363 2.44995H8.46367C8.08735 2.44995 7.76875 2.72847 7.71858 3.10136L6.79552 9.96704H5.91616C4.28133 9.96704 2.95117 11.2972 2.95117 12.9323V36.0678C2.95117 37.7028 4.28133 39.033 5.91616 39.033H6.77974L7.71887 45.9001C7.76973 46.2725 8.08784 46.55 8.46367 46.55H40.5364C40.9123 46.55 41.2304 46.2726 41.2813 45.9001L42.2204 39.033H43.0837C44.7188 39.033 46.0489 37.7028 46.0489 36.0678V12.9322C46.0488 11.2972 44.7187 9.96704 43.0836 9.96704ZM9.12115 3.95337H39.8796L40.6952 9.96704H8.31256L9.12115 3.95337ZM39.8805 45.0465H9.11939L8.29717 39.0329H40.7027L39.8805 45.0465ZM44.5454 36.0677C44.5454 36.8737 43.8897 37.5295 43.0836 37.5295H5.91616C5.11011 37.5295 4.45459 36.8737 4.45459 36.0677V12.9322C4.45459 12.1262 5.11011 11.4705 5.91616 11.4705H43.0837C43.8898 11.4705 44.5455 12.1262 44.5455 12.9322L44.5454 36.0677Z" fill="black"/>
<path d="M40.0351 33.0193H8.96455C8.54932 33.0193 8.21289 33.356 8.21289 33.771C8.21289 34.1861 8.54932 34.5227 8.96455 34.5227H40.035C40.45 34.5227 40.7866 34.1861 40.7866 33.771C40.7867 33.356 40.45 33.0193 40.0351 33.0193Z" fill="black"/>
<path d="M26.0027 19.7393H22.9959C22.5807 19.7393 22.2441 20.076 22.2441 20.4909C22.2441 20.9059 22.5806 21.2427 22.9959 21.2427H26.0027C26.4178 21.2427 26.7545 20.9059 26.7545 20.4909C26.7545 20.0759 26.4178 19.7393 26.0027 19.7393Z" fill="black"/>
<path d="M14.4773 24.5H11.4705C11.0553 24.5 10.7188 24.8367 10.7188 25.2517C10.7188 25.6667 11.0552 26.0034 11.4705 26.0034H14.4773C14.8926 26.0034 15.2291 25.6667 15.2291 25.2517C15.2291 24.8367 14.8927 24.5 14.4773 24.5Z" fill="black"/>
<path d="M34.5231 21.2427H37.53C37.9449 21.2427 38.2816 20.9059 38.2816 20.4909C38.2816 20.0759 37.9449 19.7393 37.53 19.7393H34.5231C34.1081 19.7393 33.7715 20.076 33.7715 20.4909C33.7714 20.9059 34.1081 21.2427 34.5231 21.2427Z" fill="black"/>
<path d="M17.2339 31.5159C17.6491 31.5159 17.9856 31.1792 17.9856 30.7642V27.2563V22.4954V14.7278C17.9856 14.3128 17.6492 13.9761 17.2339 13.9761H8.71465C8.29942 13.9761 7.96289 14.3128 7.96289 14.7278V22.4954V27.2563V30.7642C7.96289 31.1792 8.29932 31.5159 8.71465 31.5159H17.2339ZM9.46631 30.0125V28.0079H16.4822V30.0125H9.46631ZM9.46631 23.2472H16.4822V26.5046H9.46631V23.2472ZM16.4822 15.4796V21.7438H9.46631V15.4796H16.4822Z" fill="black"/>
<path d="M40.2866 13.9761H31.7673C31.3523 13.9761 31.0156 14.3128 31.0156 14.7278V18.2357V22.9966V30.7642C31.0156 31.1792 31.3523 31.5159 31.7673 31.5159H40.2866C40.7017 31.5159 41.0383 31.1792 41.0383 30.7642V22.9966V18.2357V14.7278C41.0383 14.3128 40.7017 13.9761 40.2866 13.9761ZM39.5349 15.4795V17.4841H32.5189V15.4795H39.5349ZM39.5349 22.2448H32.5189V18.9874H39.5349V22.2448ZM32.5189 30.0124V23.7482H39.5349V30.0125H32.5189V30.0124Z" fill="black"/>
<path d="M32.5174 44.5455C33.899 44.5455 35.023 43.4213 35.023 42.0398C35.023 40.6583 33.8989 39.5342 32.5174 39.5342C31.1359 39.5342 30.0117 40.6583 30.0117 42.0398C30.0117 43.4213 31.1359 44.5455 32.5174 44.5455ZM32.5174 41.0375C33.0699 41.0375 33.5196 41.4872 33.5196 42.0397C33.5196 42.5923 33.0699 43.042 32.5174 43.042C31.9649 43.042 31.5151 42.5923 31.5151 42.0397C31.5151 41.4872 31.9649 41.0375 32.5174 41.0375Z" fill="black"/>
<path d="M24.4998 44.5455C25.8813 44.5455 27.0055 43.4213 27.0055 42.0398C27.0055 40.6583 25.8814 39.5342 24.4998 39.5342C23.1182 39.5342 21.9941 40.6583 21.9941 42.0398C21.9941 43.4213 23.1183 44.5455 24.4998 44.5455ZM24.4998 41.0375C25.0523 41.0375 25.502 41.4872 25.502 42.0397C25.502 42.5923 25.0523 43.042 24.4998 43.042C23.947 43.042 23.4976 42.5923 23.4976 42.0397C23.4976 41.4872 23.947 41.0375 24.4998 41.0375Z" fill="black"/>
<path d="M16.4822 44.5455C17.8637 44.5455 18.9879 43.4213 18.9879 42.0398C18.9879 40.6583 17.8638 39.5342 16.4822 39.5342C15.1006 39.5342 13.9766 40.6583 13.9766 42.0398C13.9765 43.4213 15.1006 44.5455 16.4822 44.5455ZM16.4822 41.0375C17.0349 41.0375 17.4845 41.4872 17.4845 42.0397C17.4845 42.5923 17.0349 43.042 16.4822 43.042C15.9295 43.042 15.48 42.5923 15.48 42.0397C15.48 41.4872 15.9295 41.0375 16.4822 41.0375Z" fill="black"/>
<path d="M32.5174 4.45459C31.1358 4.45459 30.0117 5.57875 30.0117 6.96025C30.0117 8.34176 31.1358 9.46592 32.5174 9.46592C33.899 9.46592 35.023 8.34176 35.023 6.96025C35.0231 5.57875 33.899 4.45459 32.5174 4.45459ZM32.5174 7.9625C31.9649 7.9625 31.5151 7.51278 31.5151 6.96025C31.5151 6.40773 31.965 5.95801 32.5174 5.95801C33.0699 5.95801 33.5196 6.40773 33.5196 6.96025C33.5196 7.51278 33.0699 7.9625 32.5174 7.9625Z" fill="black"/>
<path d="M24.4998 4.45459C23.1183 4.45459 21.9941 5.57875 21.9941 6.96025C21.9941 8.34176 23.1183 9.46592 24.4998 9.46592C25.8813 9.46592 27.0055 8.34176 27.0055 6.96025C27.0055 5.57875 25.8814 4.45459 24.4998 4.45459ZM24.4998 7.9625C23.947 7.9625 23.4976 7.51278 23.4976 6.96025C23.4976 6.40773 23.9471 5.95801 24.4998 5.95801C25.0523 5.95801 25.502 6.40773 25.502 6.96025C25.502 7.51278 25.0523 7.9625 24.4998 7.9625Z" fill="black"/>
<path d="M16.4822 4.45459C15.1006 4.45459 13.9766 5.57875 13.9766 6.96025C13.9766 8.34176 15.1007 9.46592 16.4822 9.46592C17.8637 9.46592 18.9879 8.34176 18.9879 6.96025C18.9879 5.57875 17.8637 4.45459 16.4822 4.45459ZM16.4822 7.9625C15.9295 7.9625 15.48 7.51278 15.48 6.96025C15.48 6.40773 15.9295 5.95801 16.4822 5.95801C17.0349 5.95801 17.4845 6.40773 17.4845 6.96025C17.4845 7.51278 17.0349 7.9625 16.4822 7.9625Z" fill="black"/>
</svg>
