<svg width="51" height="51" viewBox="0 0 51 51" fill="none" xmlns="http://www.w3.org/2000/svg">
<path fill-rule="evenodd" clip-rule="evenodd" d="M24.2344 2.49101V4.57434C24.2344 5.14934 24.701 5.61601 25.276 5.61601C25.851 5.61601 26.3177 5.14934 26.3177 4.57434V2.49101C26.3177 1.91601 25.851 1.44934 25.276 1.44934C24.701 1.44934 24.2344 1.91601 24.2344 2.49101Z" fill="#16171A"/>
<path fill-rule="evenodd" clip-rule="evenodd" d="M13.9564 5.7993L14.998 7.60347C15.2855 8.10142 15.923 8.27222 16.421 7.98472C16.9189 7.69722 17.0897 7.05975 16.8022 6.5618L15.7605 4.75763C15.473 4.25968 14.8356 4.08888 14.3376 4.37638C13.8397 4.66388 13.6689 5.30135 13.9564 5.7993Z" fill="#16171A"/>
<path fill-rule="evenodd" clip-rule="evenodd" d="M6.71068 13.8118L8.51484 14.8535C9.01279 15.141 9.65026 14.9702 9.93776 14.4723C10.2253 13.9743 10.0545 13.3368 9.55651 13.0493L7.75234 12.0077C7.25439 11.7202 6.61693 11.891 6.32943 12.3889C6.04193 12.8869 6.21273 13.5243 6.71068 13.8118Z" fill="#16171A"/>
<path fill-rule="evenodd" clip-rule="evenodd" d="M4.44401 24.366H6.52734C7.10234 24.366 7.56901 23.8993 7.56901 23.3243C7.56901 22.7493 7.10234 22.2826 6.52734 22.2826H4.44401C3.86901 22.2826 3.40234 22.7493 3.40234 23.3243C3.40234 23.8993 3.86901 24.366 4.44401 24.366Z" fill="#16171A"/>
<path fill-rule="evenodd" clip-rule="evenodd" d="M7.75365 34.6451L9.55781 33.6034C10.0558 33.3159 10.2266 32.6784 9.93906 32.1805C9.65156 31.6825 9.0141 31.5117 8.51615 31.7992L6.71198 32.8409C6.21403 33.1284 6.04323 33.7659 6.33073 34.2638C6.61823 34.7618 7.2557 34.9326 7.75365 34.6451Z" fill="#16171A"/>
<path fill-rule="evenodd" clip-rule="evenodd" d="M43.8358 32.841L42.0316 31.7993C41.5337 31.5118 40.8962 31.6826 40.6087 32.1806C40.3212 32.6785 40.492 33.316 40.99 33.6035L42.7941 34.6451C43.2921 34.9326 43.9296 34.7618 44.2171 34.2639C44.5046 33.7659 44.3338 33.1285 43.8358 32.841Z" fill="#16171A"/>
<path fill-rule="evenodd" clip-rule="evenodd" d="M46.1094 22.2828H44.026C43.451 22.2828 42.9844 22.7494 42.9844 23.3244C42.9844 23.8994 43.451 24.3661 44.026 24.3661H46.1094C46.6844 24.3661 47.151 23.8994 47.151 23.3244C47.151 22.7494 46.6844 22.2828 46.1094 22.2828Z" fill="#16171A"/>
<path fill-rule="evenodd" clip-rule="evenodd" d="M42.7935 12.0077L40.9893 13.0494C40.4914 13.3369 40.3206 13.9744 40.6081 14.4723C40.8956 14.9703 41.533 15.1411 42.031 14.8536L43.8352 13.8119C44.3331 13.5244 44.5039 12.8869 44.2164 12.389C43.9289 11.891 43.2914 11.7202 42.7935 12.0077Z" fill="#16171A"/>
<path fill-rule="evenodd" clip-rule="evenodd" d="M34.7935 4.76612L33.7518 6.57029C33.4643 7.06824 33.6351 7.7057 34.1331 7.9932C34.631 8.2807 35.2685 8.1099 35.556 7.61195L36.5977 5.80779C36.8852 5.30984 36.7144 4.67237 36.2164 4.38487C35.7185 4.09737 35.081 4.26817 34.7935 4.76612Z" fill="#16171A"/>
<path fill-rule="evenodd" clip-rule="evenodd" d="M16.4148 36.191C16.0909 36.6837 15.9023 37.2723 15.9023 37.9056V37.9098C15.9023 38.7087 16.2023 39.4389 16.6971 39.991C16.2023 40.5431 15.9023 41.2733 15.9023 42.0723V42.0764C15.9023 43.8014 17.3002 45.1993 19.0252 45.1993H20.1732C20.6565 47.5754 22.7596 49.366 25.2773 49.366C27.7951 49.366 29.8982 47.5754 30.3815 45.1993H31.5294C33.2544 45.1993 34.6523 43.8014 34.6523 42.0764V42.0723C34.6523 41.2733 34.3523 40.5431 33.8576 39.991C34.3523 39.4389 34.6523 38.7087 34.6523 37.9098V37.9056C34.6523 37.2723 34.4638 36.6837 34.1398 36.191C38.2242 33.3723 40.9023 28.6587 40.9023 23.3243C40.9023 14.7004 33.9013 7.69934 25.2773 7.69934C16.6534 7.69934 9.65234 14.7004 9.65234 23.3243C9.65234 28.6587 12.3305 33.3723 16.4148 36.191ZM28.2242 45.1993H22.3305C22.7596 46.4129 23.918 47.2827 25.2773 47.2827C26.6367 47.2827 27.7951 46.4129 28.2242 45.1993ZM31.5294 41.0327H19.0252C18.4513 41.0327 17.9857 41.4983 17.9857 42.0723V42.0764C17.9857 42.6504 18.4513 43.116 19.0252 43.116H31.5294C32.1034 43.116 32.569 42.6504 32.569 42.0764V42.0723C32.569 41.4983 32.1034 41.0327 31.5294 41.0327ZM19.0252 38.9493H31.5294C32.1034 38.9493 32.569 38.4837 32.569 37.9098V37.9056C32.569 37.3316 32.1034 36.866 31.5294 36.866C28.3274 36.866 22.2273 36.866 19.0252 36.866C18.4513 36.866 17.9857 37.3316 17.9857 37.9056V37.9098C17.9857 38.4837 18.4513 38.9493 19.0252 38.9493ZM28.4023 34.7827H32.494C36.293 32.3827 38.819 28.1462 38.819 23.3243C38.819 15.8504 32.7513 9.78267 25.2773 9.78267C17.8034 9.78267 11.7357 15.8504 11.7357 23.3243C11.7357 28.1462 14.2617 32.3827 18.0607 34.7816L18.0617 34.7827H22.1523V26.4441C22.1523 26.4441 21.1753 26.4493 21.1107 26.4493C19.3857 26.4493 17.9857 25.0493 17.9857 23.3243C17.9857 21.5993 19.3857 20.1993 21.1107 20.1993C22.8357 20.1993 24.2357 21.5993 24.2357 23.3243V24.3618L26.319 24.3639V23.3243C26.319 21.5993 27.719 20.1993 29.444 20.1993C31.169 20.1993 32.569 21.5993 32.569 23.3243C32.569 25.0493 31.169 26.4493 29.444 26.4493L28.4023 26.4483V34.7827ZM24.2357 34.7827H26.319V26.4473L24.2357 26.4452V34.7827ZM21.1107 22.2827C21.6857 22.2827 22.1523 22.7493 22.1523 23.3243C22.1523 23.8993 21.6857 24.366 21.1107 24.366C20.5357 24.366 20.069 23.8993 20.069 23.3243C20.069 22.7493 20.5357 22.2827 21.1107 22.2827ZM29.444 22.2827C30.019 22.2827 30.4857 22.7493 30.4857 23.3243C30.4857 23.8993 30.019 24.366 29.444 24.366C28.869 24.366 28.4023 23.8993 28.4023 23.3243C28.4023 22.7493 28.869 22.2827 29.444 22.2827Z" fill="#16171A"/>
</svg>
