<svg width="58" height="61" viewBox="0 0 58 61" fill="none" xmlns="http://www.w3.org/2000/svg">
<path d="M8.05426 19.4691C8.05426 19.9545 7.66074 20.348 7.17535 20.348C6.68996 20.348 6.29645 19.9545 6.29645 19.4691V9.25501C6.29645 9.24974 6.29715 9.2447 6.29727 9.23954C6.29703 9.23509 6.29633 9.23064 6.29609 9.22619C6.26199 8.21181 5.42059 7.41728 4.38066 7.41728C3.86633 7.41728 3.3827 7.61427 3.01895 7.97193C2.66047 8.32443 2.46289 8.79294 2.46289 9.29122V21.5415C2.46289 22.0269 2.06938 22.4204 1.58398 22.4204C1.09859 22.4204 0.705078 22.0269 0.705078 21.5415V9.29122C0.705078 8.31775 1.0891 7.40404 1.78648 6.71837C2.48105 6.03552 3.40238 5.65935 4.38055 5.65935C5.08309 5.65935 5.73852 5.85083 6.29551 6.18494V6.08275C6.29551 5.11208 6.67977 4.19861 7.37738 3.51083C8.07207 2.82798 8.99328 2.4524 9.97238 2.4524C10.7004 2.4524 11.378 2.65829 11.9478 3.01548C12.0813 2.29583 12.432 1.63361 12.9679 1.10521C13.6932 0.393998 14.6521 0.0197011 15.6721 0.0484121C17.6389 0.106068 19.2384 1.75572 19.2384 3.72576V3.784C19.8377 3.4206 20.5337 3.23556 21.2584 3.25537C23.2275 3.30951 24.8289 4.95927 24.8289 6.93271V18.7111L38.0554 5.48486C38.7437 4.7965 39.6625 4.42208 40.6393 4.43029C41.6134 4.43849 42.5307 4.82404 43.2225 5.5158C43.7192 6.01255 44.0472 6.61138 44.2048 7.2415L44.277 7.16931C44.9634 6.48283 45.8817 6.10853 46.8608 6.11568C47.8347 6.124 48.7517 6.50978 49.4441 7.20212C49.9589 7.71705 50.2924 8.34165 50.4426 8.9972C51.0459 8.58259 51.7625 8.36193 52.5147 8.36767C53.5304 8.37775 54.474 8.79142 55.1741 9.53251C56.5241 10.9641 56.4886 13.2617 55.0956 14.6547L55.0544 14.6958C55.7352 14.8626 56.357 15.2231 56.8565 15.7504C58.2105 17.1811 58.1764 19.4801 56.7809 20.8754L50.0519 27.6045C49.8804 27.776 49.6554 27.8619 49.4305 27.8619C49.2056 27.8619 48.9806 27.7761 48.809 27.6045C48.4658 27.2612 48.4658 26.7047 48.809 26.3616L55.538 19.6326C56.2668 18.9039 56.2857 17.7045 55.5802 16.959C55.2107 16.5692 54.716 16.352 54.1876 16.3483C53.7144 16.3415 53.2633 16.5154 52.9171 16.8319C52.9134 16.8353 52.9093 16.8382 52.9054 16.8416C52.9027 16.8444 52.9004 16.8475 52.8977 16.8502L43.9623 25.7856C43.7907 25.9572 43.5657 26.0431 43.3408 26.0431C43.1159 26.0431 42.8909 25.9573 42.7194 25.7856C42.3761 25.4424 42.3761 24.8858 42.7194 24.5427L53.8527 13.4119C54.58 12.6844 54.5994 11.4854 53.8958 10.7392C53.5271 10.349 53.0313 10.1309 52.4998 10.1256C52.4953 10.1256 52.4907 10.1256 52.4861 10.1256C51.9894 10.1256 51.5234 10.317 51.1749 10.6655L40.0086 21.8322C39.837 22.0037 39.612 22.0896 39.3871 22.0896C39.1623 22.0896 38.9373 22.0038 38.7657 21.8322C38.4225 21.4889 38.4225 20.9324 38.7657 20.5893L48.2579 11.0971C48.2623 11.0926 48.2673 11.0889 48.2717 11.0845C48.2735 11.0827 48.275 11.0804 48.2768 11.0786C48.969 10.3367 48.9358 9.18001 48.2011 8.44536C47.8367 8.08115 47.3558 7.87806 46.847 7.87372C46.8423 7.87372 46.8376 7.87372 46.8329 7.87372C46.3338 7.87372 45.8676 8.06474 45.5198 8.41255L36.0549 17.8786C35.8834 18.0502 35.6584 18.1361 35.4335 18.1361C35.2086 18.1361 34.9836 18.0503 34.812 17.8786C34.4688 17.5354 34.4688 16.9788 34.812 16.6357L42.0344 9.41333C42.038 9.4097 42.0419 9.40677 42.0455 9.40326C42.0487 9.39974 42.0513 9.39599 42.0546 9.39259C42.7477 8.65126 42.7146 7.49451 41.9792 6.75904C41.6155 6.39529 41.1343 6.19267 40.6242 6.18833C40.6188 6.18833 40.6133 6.18833 40.6078 6.18833C40.1111 6.18833 39.6466 6.3797 39.2981 6.72822L24.8289 21.1972V26.6024L26.7478 23.6585C27.8375 21.9858 30.1092 21.4922 31.8113 22.5585C32.8783 23.2277 33.5151 24.371 33.5151 25.617C33.5151 26.2934 33.3214 26.9554 32.9545 27.534L26.9165 38.911C26.294 40.0848 25.3878 41.115 24.296 41.8901C23.3411 42.5679 22.771 43.6352 22.771 44.7451V49.6423L27.3355 44.9249C27.3389 44.9215 27.3423 44.918 27.3457 44.9146C28.5324 43.7278 30.2652 43.193 31.9797 43.484C33.031 43.6626 34.1203 43.5928 35.1297 43.2829L47.4788 39.497C47.5036 39.4894 47.5286 39.4828 47.5541 39.4776C47.9053 39.403 48.2216 39.2331 48.4685 38.9861C48.9189 38.5356 49.1012 37.8883 48.9561 37.2546C48.7196 36.2255 47.6956 35.5634 46.6738 35.779L40.3407 37.1141C39.9602 37.1945 39.572 37.0149 39.3867 36.6728C39.2013 36.3308 39.2629 35.9077 39.538 35.6326L46.1005 29.0701C46.4437 28.7269 47.0002 28.7269 47.3435 29.0701C47.6867 29.4134 47.6867 29.9699 47.3435 30.313L42.8727 34.7838L46.3112 34.059C48.2641 33.6467 50.2197 34.904 50.6695 36.8616C50.9507 38.0893 50.5926 39.3481 49.7116 40.2291C49.2332 40.7074 48.6283 41.0385 47.9596 41.1883L35.6454 44.9635C34.3753 45.3533 33.0059 45.441 31.6858 45.2172C30.5333 45.0217 29.3782 45.3714 28.5935 46.1529L22.771 52.1702V54.3666C23.7202 54.791 24.3836 55.7435 24.3836 56.8487V57.3291C24.3836 58.8278 23.1643 60.0471 21.6656 60.0471H18.8991C18.4138 60.0471 18.0202 59.6536 18.0202 59.1682C18.0202 58.6828 18.4138 58.2893 18.8991 58.2893H21.6656C22.195 58.2893 22.6258 57.8585 22.6258 57.3291V56.8487C22.6258 56.3193 22.195 55.8885 21.6656 55.8885H5.09059C4.56113 55.8885 4.13035 56.3193 4.13035 56.8487V57.3291C4.13035 57.8585 4.56113 58.2893 5.09059 58.2893H15.0688C15.5541 58.2893 15.9477 58.6828 15.9477 59.1682C15.9477 59.6536 15.5541 60.0471 15.0688 60.0471H5.09059C3.59188 60.0471 2.37254 58.8278 2.37254 57.3291V56.8487C2.37254 55.7542 3.02328 54.8093 3.95785 54.3789V43.1775C3.95785 42.272 3.62914 41.4254 3.03219 40.7938C1.53148 39.206 0.705078 37.1378 0.705078 34.9703V25.372C0.705078 24.8867 1.09859 24.4931 1.58398 24.4931C2.06938 24.4931 2.46289 24.8867 2.46289 25.372V34.9703C2.46289 36.6868 3.11879 38.3263 4.30977 39.5864C5.21633 40.5457 5.71566 41.8211 5.71566 43.1775V54.1307H21.0132V44.7452C21.0132 43.0669 21.86 41.4638 23.2784 40.4569C24.1477 39.8397 24.8688 39.0203 25.3637 38.0872L31.4187 26.6781C31.4308 26.6552 31.4441 26.633 31.4581 26.6113C31.6538 26.3101 31.7573 25.9664 31.7573 25.6171C31.7573 24.9801 31.4285 24.3934 30.8778 24.0479C29.9829 23.4876 28.7905 23.7433 28.2205 24.6183L24.6863 30.0406C24.4739 30.3663 24.0726 30.514 23.6996 30.4031C23.3267 30.2924 23.071 29.9496 23.071 29.5607V6.93294C23.071 5.90228 22.2364 5.04095 21.2104 5.01271C20.6741 4.99818 20.1702 5.19458 19.7938 5.5656C19.4553 5.89747 19.2583 6.3374 19.2375 6.8058C19.2372 6.81083 19.2364 6.81564 19.2361 6.82068C19.2362 6.82466 19.2366 6.82853 19.2366 6.83263V19.4692C19.2366 19.9546 18.8431 20.3481 18.3577 20.3481C17.8723 20.3481 17.4788 19.9546 17.4788 19.4692L17.4805 3.72611C17.4805 2.69732 16.6463 1.83587 15.6212 1.80576C15.0834 1.79076 14.5796 1.98681 14.2003 2.35888C13.8429 2.71126 13.645 3.18013 13.645 3.67736L13.6453 19.4691C13.6453 19.9545 13.2518 20.348 12.7664 20.348C12.281 20.348 11.8875 19.9545 11.8875 19.4691V6.04513C11.8875 6.03892 11.8883 6.03294 11.8884 6.02685C11.8883 6.02404 11.8878 6.02146 11.8877 6.01865C11.8527 5.00462 11.0113 4.21033 9.97227 4.21033C9.45711 4.21033 8.97348 4.40685 8.61055 4.76369C8.25148 5.11771 8.0532 5.58646 8.0532 6.08298L8.05426 19.4691Z" fill="white"/>
</svg>
