<svg width="40" height="40" viewBox="0 0 40 40" fill="none" xmlns="http://www.w3.org/2000/svg">
<path d="M16.5229 25.7274H23.4773C23.8161 25.7274 24.091 25.4525 24.091 25.1137V18.7729V14.8865V12.0229C24.091 11.6841 23.8161 11.4092 23.4773 11.4092H16.5229C16.1838 11.4092 15.9092 11.6841 15.9092 12.0229V14.8865V18.7729V25.1137C15.9092 25.4525 16.1839 25.7274 16.5229 25.7274ZM17.1365 24.5001V19.3865H22.8637V24.5002H17.1365V24.5001ZM17.1365 15.5001H22.8637V18.1593H17.1365V15.5001ZM22.8638 12.6365V14.2729H17.1365V12.6365H22.8638Z" fill="white"/>
<path d="M35.1704 8.1364H34.459L33.699 2.53136C33.6579 2.22696 33.3982 2 33.0909 2H6.90918C6.60198 2 6.3419 2.22736 6.30094 2.53176L5.54742 8.1364H4.82958C3.49502 8.1364 2.40918 9.22224 2.40918 10.557V29.4431C2.40918 30.7778 3.49502 31.8637 4.82958 31.8637H5.53454L6.30118 37.4695C6.3427 37.7735 6.60238 38.0001 6.90918 38.0001H33.091C33.3978 38.0001 33.6575 37.7736 33.6991 37.4695L34.4657 31.8637H35.1705C36.5052 31.8637 37.591 30.7778 37.591 29.4431V10.557C37.5909 9.22224 36.5051 8.1364 35.1704 8.1364ZM7.4459 3.22728H32.5549L33.2206 8.1364H6.78582L7.4459 3.22728ZM32.5556 36.7727H7.44446L6.77326 31.8636H33.2268L32.5556 36.7727ZM36.3637 29.443C36.3637 30.101 35.8284 30.6364 35.1704 30.6364H4.82958C4.17158 30.6364 3.63646 30.101 3.63646 29.443V10.557C3.63646 9.89896 4.17158 9.36368 4.82958 9.36368H35.1705C35.8285 9.36368 36.3637 9.89896 36.3637 10.557L36.3637 29.443Z" fill="white"/>
<path d="M32.6824 26.9546H7.31868C6.97972 26.9546 6.70508 27.2295 6.70508 27.5683C6.70508 27.9071 6.97972 28.1819 7.31868 28.1819H32.6823C33.0211 28.1819 33.2959 27.9071 33.2959 27.5683C33.296 27.2295 33.0211 26.9546 32.6824 26.9546Z" fill="white"/>
<path d="M21.2274 16.1138H18.7729C18.4339 16.1138 18.1592 16.3886 18.1592 16.7274C18.1592 17.0662 18.4338 17.341 18.7729 17.341H21.2274C21.5662 17.341 21.8411 17.0662 21.8411 16.7274C21.8411 16.3886 21.5662 16.1138 21.2274 16.1138Z" fill="white"/>
<path d="M11.8182 20H9.36368C9.02472 20 8.75 20.2749 8.75 20.6136C8.75 20.9524 9.02464 21.2273 9.36368 21.2273H11.8182C12.1572 21.2273 12.4319 20.9524 12.4319 20.6136C12.4319 20.2749 12.1573 20 11.8182 20Z" fill="white"/>
<path d="M28.182 17.341H30.6365C30.9752 17.341 31.2501 17.0662 31.2501 16.7274C31.2501 16.3886 30.9752 16.1138 30.6365 16.1138H28.182C27.8432 16.1138 27.5684 16.3886 27.5684 16.7274C27.5683 17.0662 27.8432 17.341 28.182 17.341Z" fill="white"/>
<path d="M14.0682 25.7274C14.4071 25.7274 14.6818 25.4525 14.6818 25.1137V22.2501V18.3637V12.0229C14.6818 11.6841 14.4072 11.4092 14.0682 11.4092H7.11368C6.77472 11.4092 6.5 11.6841 6.5 12.0229V18.3637V22.2501V25.1137C6.5 25.4525 6.77464 25.7274 7.11368 25.7274H14.0682ZM7.72728 24.5001V22.8637H13.4546V24.5001H7.72728ZM7.72728 18.9774H13.4546V21.6365H7.72728V18.9774ZM13.4546 12.6365V17.7502H7.72728V12.6365H13.4546Z" fill="white"/>
<path d="M32.8865 11.4092H25.932C25.5932 11.4092 25.3184 11.6841 25.3184 12.0229V14.8865V18.7729V25.1137C25.3184 25.4525 25.5932 25.7274 25.932 25.7274H32.8865C33.2253 25.7274 33.5001 25.4525 33.5001 25.1137V18.7729V14.8865V12.0229C33.5001 11.6841 33.2253 11.4092 32.8865 11.4092ZM32.2728 12.6365V14.2729H26.5456V12.6365H32.2728ZM32.2728 18.1592H26.5456V15.5001H32.2728V18.1592ZM26.5456 24.5001V19.3865H32.2728V24.5001H26.5456V24.5001Z" fill="white"/>
<path d="M26.5454 36.3638C27.6733 36.3638 28.5909 35.4461 28.5909 34.3184C28.5909 33.1906 27.6732 32.2729 26.5454 32.2729C25.4177 32.2729 24.5 33.1906 24.5 34.3184C24.5 35.4461 25.4177 36.3638 26.5454 36.3638ZM26.5454 33.5001C26.9965 33.5001 27.3636 33.8673 27.3636 34.3183C27.3636 34.7693 26.9965 35.1365 26.5454 35.1365C26.0944 35.1365 25.7273 34.7693 25.7273 34.3183C25.7273 33.8673 26.0944 33.5001 26.5454 33.5001Z" fill="white"/>
<path d="M20.0005 36.3638C21.1283 36.3638 22.046 35.4461 22.046 34.3184C22.046 33.1906 21.1284 32.2729 20.0005 32.2729C18.8727 32.2729 17.9551 33.1906 17.9551 34.3184C17.9551 35.4461 18.8728 36.3638 20.0005 36.3638ZM20.0005 33.5001C20.4516 33.5001 20.8187 33.8673 20.8187 34.3183C20.8187 34.7693 20.4516 35.1365 20.0005 35.1365C19.5492 35.1365 19.1824 34.7693 19.1824 34.3183C19.1824 33.8673 19.5492 33.5001 20.0005 33.5001Z" fill="white"/>
<path d="M13.4546 36.3638C14.5824 36.3638 15.5001 35.4461 15.5001 34.3184C15.5001 33.1906 14.5825 32.2729 13.4546 32.2729C12.3268 32.2729 11.4092 33.1906 11.4092 34.3184C11.4091 35.4461 12.3268 36.3638 13.4546 36.3638ZM13.4546 33.5001C13.9058 33.5001 14.2728 33.8673 14.2728 34.3183C14.2728 34.7693 13.9058 35.1365 13.4546 35.1365C13.0034 35.1365 12.6365 34.7693 12.6365 34.3183C12.6365 33.8673 13.0034 33.5001 13.4546 33.5001Z" fill="white"/>
<path d="M26.5454 3.63623C25.4176 3.63623 24.5 4.55391 24.5 5.68167C24.5 6.80943 25.4176 7.72711 26.5454 7.72711C27.6733 7.72711 28.5909 6.80943 28.5909 5.68167C28.591 4.55391 27.6733 3.63623 26.5454 3.63623ZM26.5454 6.49983C26.0944 6.49983 25.7273 6.13271 25.7273 5.68167C25.7273 5.23063 26.0945 4.86351 26.5454 4.86351C26.9965 4.86351 27.3636 5.23063 27.3636 5.68167C27.3636 6.13271 26.9965 6.49983 26.5454 6.49983Z" fill="white"/>
<path d="M20.0005 3.63623C18.8728 3.63623 17.9551 4.55391 17.9551 5.68167C17.9551 6.80943 18.8728 7.72711 20.0005 7.72711C21.1283 7.72711 22.046 6.80943 22.046 5.68167C22.046 4.55391 21.1284 3.63623 20.0005 3.63623ZM20.0005 6.49983C19.5492 6.49983 19.1824 6.13271 19.1824 5.68167C19.1824 5.23063 19.5493 4.86351 20.0005 4.86351C20.4516 4.86351 20.8187 5.23063 20.8187 5.68167C20.8187 6.13271 20.4516 6.49983 20.0005 6.49983Z" fill="white"/>
<path d="M13.4546 3.63623C12.3268 3.63623 11.4092 4.55391 11.4092 5.68167C11.4092 6.80943 12.3269 7.72711 13.4546 7.72711C14.5824 7.72711 15.5001 6.80943 15.5001 5.68167C15.5001 4.55391 14.5824 3.63623 13.4546 3.63623ZM13.4546 6.49983C13.0034 6.49983 12.6365 6.13271 12.6365 5.68167C12.6365 5.23063 13.0034 4.86351 13.4546 4.86351C13.9058 4.86351 14.2728 5.23063 14.2728 5.68167C14.2728 6.13271 13.9058 6.49983 13.4546 6.49983Z" fill="white"/>
</svg>
