<svg width="40" height="40" viewBox="0 0 40 40" fill="none" xmlns="http://www.w3.org/2000/svg">
<path fill-rule="evenodd" clip-rule="evenodd" d="M22.4622 19.1402C22.522 19.2404 22.5686 19.3507 22.5995 19.4693L23.1409 21.5558C23.3152 22.2276 22.9139 22.9133 22.2399 23.0882C20.6582 23.4987 20.3614 25.6214 21.7704 26.4499C22.3683 26.8014 22.5686 27.5735 22.2171 28.1713L21.1247 30.0294C20.7732 30.6272 20.001 30.8276 19.4032 30.4761C17.9942 29.6477 16.2835 30.9392 16.6941 32.5211C16.869 33.195 16.4649 33.8791 15.7931 34.0534L13.7065 34.5949C13.0348 34.7692 12.349 34.3679 12.1741 33.6939C11.7632 32.1103 9.64158 31.8142 8.81249 33.2243C8.4608 33.8225 7.69045 34.0225 7.09249 33.6709L5.23296 32.5787C4.63515 32.2272 4.43476 31.455 4.78621 30.8572C5.61468 29.4482 4.32402 27.7373 2.74135 28.148C2.06958 28.3223 1.38331 27.9189 1.20896 27.2471L0.667544 25.1605C0.493191 24.4887 0.896642 23.8025 1.56849 23.6281C3.15115 23.2174 3.447 21.0949 2.03798 20.2665C1.43986 19.9148 1.23994 19.1444 1.59162 18.5462L2.68496 16.6866C3.03664 16.0884 3.807 15.8885 4.40519 16.2402C5.38472 16.8161 6.5095 16.3679 6.96801 15.5102C6.84998 14.9749 6.7866 14.4264 6.7866 13.8681V6.67188C6.7866 6.38552 7.00676 6.14725 7.29225 6.12458C9.487 5.9507 11.3956 4.98537 12.8402 3.9536C12.9333 3.88717 13.045 3.85141 13.1593 3.85141H17.9855C18.0999 3.85141 18.2115 3.88717 18.3046 3.9536C18.9544 4.41768 19.698 4.86827 20.5193 5.23948C21.5835 5.47658 22.5462 4.3976 22.1006 3.32811C21.8612 2.7536 22.133 2.09345 22.7075 1.85399L24.3346 1.17603C24.9092 0.936661 25.5693 1.20843 25.8087 1.78301C26.2881 2.93329 27.9221 2.93039 28.3966 1.7776C28.6337 1.20192 29.2929 0.927249 29.8685 1.16427L31.4972 1.83494C32.0729 2.07196 32.3475 2.73109 32.1105 3.3067C31.6359 4.45948 32.7941 5.61211 33.9444 5.13274C34.5186 4.89352 35.1803 5.16592 35.4195 5.74011L36.0965 7.36678C36.3359 7.94129 36.0641 8.60152 35.4896 8.8409C34.3392 9.32019 34.3428 10.9545 35.4949 11.4288C36.0725 11.6666 36.3453 12.325 36.1083 12.9007L35.4377 14.5294C35.2006 15.1051 34.5433 15.3805 33.9658 15.1427C32.8137 14.6683 31.6604 15.8262 32.1398 16.9766C32.379 17.5508 32.1066 18.2123 31.5324 18.4516L29.9067 19.1291C29.3326 19.3683 28.6709 19.0959 28.4316 18.5217C27.9523 17.3714 26.3181 17.375 25.8437 18.5271C25.6059 19.1047 24.9475 19.3774 24.3719 19.1404L22.8857 18.5285C22.7517 18.7366 22.6103 18.9406 22.4622 19.1402ZM7.35766 16.7824C6.47249 17.6183 5.08739 17.9151 3.84864 17.1868C3.77319 17.1424 3.67594 17.1676 3.63154 17.2432L2.53813 19.1028C2.49374 19.1782 2.519 19.2755 2.59452 19.32C4.84574 20.6435 4.37303 24.0348 1.84425 24.691C1.75931 24.7131 1.70833 24.7998 1.73037 24.8847L2.27178 26.9712C2.29382 27.0562 2.38056 27.1072 2.46551 27.0852C4.99429 26.429 7.05641 29.1625 5.7328 31.4137C5.68825 31.4895 5.71366 31.5875 5.7895 31.6321L7.6488 32.7242C7.72433 32.7686 7.82158 32.7434 7.86598 32.6679C9.19068 30.4147 12.5804 30.8879 13.237 33.4181C13.2592 33.5033 13.3458 33.5541 13.4308 33.532L15.5173 32.9906C15.6022 32.9686 15.6533 32.8821 15.6312 32.7968C14.9754 30.2696 17.7085 28.206 19.9597 29.5296C20.0355 29.5742 20.1335 29.5487 20.1781 29.4729L21.2705 27.6149C21.3152 27.539 21.2897 27.4411 21.2139 27.3964C18.9627 26.0728 19.4369 22.6812 21.9642 22.0254C22.0494 22.0032 22.1001 21.9166 22.0781 21.8316L21.6381 20.1362C21.562 20.2191 21.4847 20.301 21.4065 20.3818C20.277 21.5498 18.9411 22.5003 17.6301 23.1503C17.7242 25.7747 15.9866 28.2179 13.3439 28.9036C10.2892 29.6963 7.15225 27.8509 6.35994 24.7975C5.76378 22.5003 6.65884 20.1565 8.43884 18.7985C8.003 18.1638 7.635 17.4886 7.35766 16.7824ZM22.301 5.86678C22.7995 5.99274 23.3175 6.08223 23.8526 6.12458C24.0126 6.13729 24.1521 6.21768 24.2438 6.33635C25.5499 5.35611 27.3262 5.06694 28.9409 5.7318C31.3754 6.73415 32.5446 9.53784 31.5417 11.9734C30.5393 14.408 27.7346 15.5767 25.3001 14.5742C24.9598 14.4342 24.6443 14.2589 24.3559 14.0544C24.3248 15.2884 23.9864 16.4726 23.436 17.5676L24.7899 18.1251C24.805 18.1312 24.8221 18.1241 24.8283 18.1091C25.6746 16.0538 28.5901 16.0472 29.4452 18.0994C29.4515 18.1146 29.4691 18.1218 29.4844 18.1155L31.1101 17.4381C31.1253 17.4317 31.1326 17.4142 31.1262 17.3989C30.2711 15.3467 32.3286 13.2811 34.3839 14.1273C34.3989 14.1336 34.4161 14.1264 34.4223 14.1113L35.0929 12.4826C35.0991 12.4676 35.0919 12.4504 35.0769 12.4442C33.0216 11.5979 33.015 8.68246 35.0672 7.82733C35.0821 7.82113 35.0891 7.80403 35.0829 7.78913L34.4059 6.16246C34.3995 6.14725 34.382 6.13995 34.3668 6.14631C32.3146 7.00144 30.2484 4.94521 31.0952 2.88866C31.1013 2.8736 31.0942 2.85643 31.0792 2.85023L29.4504 2.17964C29.4354 2.17345 29.4182 2.18058 29.412 2.19564C28.5653 4.25219 25.6503 4.25752 24.7952 2.20537C24.789 2.19047 24.7719 2.18341 24.757 2.1896L23.1299 2.86756C23.115 2.87376 23.1079 2.89094 23.1141 2.90576C23.597 4.06435 23.1509 5.22639 22.301 5.86678ZM24.3582 7.71674V12.5876C24.7196 12.9997 25.1784 13.3367 25.7181 13.5589C27.5935 14.3311 29.7542 13.4308 30.5264 11.5554C31.2989 9.67909 30.3982 7.51933 28.5228 6.74717C27.0352 6.13462 25.3696 6.5736 24.3582 7.71674ZM16.5275 23.6283C16.2518 23.7304 15.9803 23.8174 15.7152 23.8884C15.6221 23.9134 15.5239 23.9134 15.4308 23.8884C13.5886 23.3944 11.4316 22.1325 9.73852 20.3819C9.5179 20.1538 9.30519 19.9174 9.10213 19.6735C7.66433 20.7716 6.94103 22.6653 7.42276 24.5218C8.06323 26.9898 10.5989 28.4816 13.0681 27.8408C15.0563 27.3249 16.4108 25.5782 16.5275 23.6283ZM7.88464 7.16623V13.8681C7.88464 16.0483 9.00762 18.0467 10.5278 19.6185C12.0292 21.1709 13.9245 22.3116 15.573 22.7883C17.221 22.3115 19.1159 21.1709 20.6172 19.6185C22.1372 18.0468 23.2602 16.0483 23.2602 13.8681V7.16623C21.1323 6.88921 19.2662 5.96341 17.8114 4.94945H13.3335C11.8786 5.96341 10.0126 6.88921 7.88464 7.16623ZM15.409 21.8862C13.4907 21.2858 11.4398 19.8221 10.1079 17.9883C9.19602 16.7327 8.62229 15.3055 8.62229 13.8669V8.27619C8.62229 8.01093 8.81194 7.78364 9.07288 7.73611C10.6322 7.45195 12.0982 6.78403 13.4112 5.89384C13.5021 5.83219 13.6094 5.79925 13.7192 5.79925H17.4257C17.5355 5.79925 17.6429 5.83219 17.7338 5.89384C19.0468 6.78403 20.5138 7.45195 22.0731 7.73611C22.3341 7.78364 22.5237 8.01093 22.5237 8.27619V13.8669C22.5237 15.306 21.95 16.7331 21.0381 17.9887C19.7062 19.8225 17.6554 21.2858 15.737 21.8862C15.6302 21.9196 15.5158 21.9196 15.409 21.8862ZM15.573 20.7847C17.2418 20.2168 18.9953 18.9327 20.1496 17.3435C20.9204 16.2822 21.4257 15.0832 21.4257 13.8669V8.72419C19.9391 8.38709 18.5337 7.74058 17.2589 6.89729H13.8861C12.6113 7.74058 11.2068 8.38709 9.72033 8.72419V13.8669C9.72033 15.0829 10.2256 16.2818 10.9964 17.343C12.1507 18.9323 13.904 20.2167 15.573 20.7847ZM11.3229 13.4245C11.0888 13.2321 11.0549 12.8859 11.2473 12.6518C11.4397 12.4177 11.786 12.3838 12.0201 12.5762L14.7388 14.8102L19.0945 10.6335C19.3132 10.4238 19.661 10.4311 19.8708 10.6498C20.0805 10.8685 20.0732 11.2163 19.8544 11.4261L15.1469 15.9402C14.9461 16.1327 14.6332 16.1447 14.4184 15.9681L11.3229 13.4245ZM38.3301 32.6577C37.3405 32.6577 36.8435 33.857 37.5435 34.5569C37.9501 34.9634 37.9501 35.6247 37.5435 36.0312L36.4822 37.0925C36.0757 37.499 35.4144 37.499 35.0079 37.0925C34.308 36.3925 33.1087 36.8894 33.1087 37.8791C33.1087 38.4563 32.6421 38.9211 32.0668 38.9211H30.5656C29.9903 38.9211 29.5236 38.4563 29.5236 37.8791C29.5236 36.8883 28.325 36.392 27.6244 37.0925C27.2177 37.4992 26.5578 37.4992 26.1512 37.0927L25.0888 36.0312C24.6824 35.6247 24.6824 34.9634 25.0888 34.5569C25.7888 33.857 25.2925 32.6577 24.3022 32.6577C23.7268 32.6577 23.2602 32.191 23.2602 31.6157V30.1145C23.2602 29.5392 23.7268 29.0726 24.3022 29.0726C25.2925 29.0726 25.7888 27.8733 25.0888 27.1734C24.6821 26.7666 24.6821 26.1068 25.0888 25.7L26.1511 24.6378C26.5578 24.231 27.2177 24.231 27.6244 24.6378C28.3243 25.3378 29.5236 24.8414 29.5236 23.8512C29.5236 23.2758 29.9903 22.8091 30.5656 22.8091H32.0668C32.6421 22.8091 33.1087 23.2758 33.1087 23.8512C33.1087 24.8414 34.308 25.3378 35.0079 24.6378C35.4144 24.2312 36.0757 24.2312 36.4822 24.6378L37.5435 25.7C37.9503 26.1068 37.9503 26.7666 37.5435 27.1734C36.8435 27.8733 37.3405 29.0726 38.3301 29.0726C38.9074 29.0726 39.3722 29.5392 39.3722 30.1145V31.6157C39.3722 32.191 38.9074 32.6577 38.3301 32.6577ZM24.3582 30.17V31.5603C26.27 31.6046 27.2245 33.9111 25.9042 35.2935L26.8882 36.2767C28.2719 34.9559 30.5768 35.9103 30.621 37.8231H32.0114C32.0557 35.9124 34.3621 34.9569 35.7446 36.2772L36.7283 35.2936C35.4079 33.9111 36.3635 31.6047 38.2741 31.5603V30.17C36.3637 30.1257 35.4081 27.8196 36.7279 26.4371L35.7446 25.4531C34.3621 26.7734 32.0556 25.8189 32.0114 23.9072H30.621C30.5767 25.8188 28.2708 26.7732 26.8882 25.4535L25.9046 26.4371C27.2243 27.8197 26.2698 30.1257 24.3582 30.17ZM31.3166 35.0215C29.0272 35.0215 27.1606 33.154 27.1606 30.8656C27.1606 28.5761 29.0272 26.7096 31.3166 26.7096C33.605 26.7096 35.4726 28.5761 35.4726 30.8656C35.4726 33.154 33.605 35.0215 31.3166 35.0215ZM31.3166 33.9235C33.0004 33.9235 34.3745 32.5494 34.3745 30.8656C34.3745 29.181 33.0004 27.8076 31.3166 27.8076C29.632 27.8076 28.2587 29.181 28.2587 30.8656C28.2587 32.5494 29.632 33.9235 31.3166 33.9235Z" fill="white"/>
</svg>
