<svg width="61" height="61" viewBox="0 0 61 61" fill="none" xmlns="http://www.w3.org/2000/svg">
<g clip-path="url(#clip0_1_22615)">
<path d="M47.7402 31.2028C47.0931 31.2028 46.5684 30.6781 46.5684 30.0309V30.0632C46.5684 29.4247 47.1017 28.8914 47.7402 28.8914C48.3788 28.8914 48.9121 29.4247 48.9121 30.0632V30.0309C48.9121 30.678 48.3873 31.2028 47.7402 31.2028Z" fill="white"/>
<path d="M32.5499 60.0471H28.032C25.9517 60.0471 24.1975 58.4893 23.9519 56.4236L23.6935 54.2506C21.6482 53.6945 19.6867 52.8813 17.8435 51.8254L16.1225 53.1805C14.488 54.4676 12.1461 54.3287 10.675 52.8577L7.48047 49.6631C6.00953 48.192 5.87078 45.8501 7.15773 44.2157L8.51289 42.4948C7.4568 40.6515 6.64375 38.6902 6.0877 36.6449L3.91469 36.3864C1.84879 36.1405 0.291016 34.3863 0.291016 32.306V27.7881C0.291016 25.7078 1.84879 23.9536 3.91457 23.708L6.08758 23.4495C6.64363 21.4042 7.4568 19.4428 8.51277 17.5996L7.15762 15.8786C5.87066 14.2442 6.00941 11.9022 7.48035 10.4312L10.675 7.23657C12.1462 5.76563 14.4879 5.62665 16.1225 6.91384L17.8435 8.26899C19.6867 7.2129 21.6482 6.39985 23.6935 5.8438L23.9519 3.67091C24.1976 1.60489 25.9518 0.0471191 28.0321 0.0471191H32.55C34.6304 0.0471191 36.3845 1.60489 36.6302 3.67067L36.8887 5.84368C38.9338 6.39974 40.8953 7.2129 42.7386 8.26888L44.4595 6.91372C46.0939 5.62665 48.436 5.76552 49.9068 7.23645L53.1016 10.4311C54.5725 11.9023 54.7113 14.2442 53.4243 15.8786L52.0691 17.5996C53.1252 19.4428 53.9383 21.4043 54.4943 23.4495L56.6673 23.708C58.7332 23.9537 60.291 25.7079 60.291 27.7882V32.3061C60.291 34.3865 58.7332 36.1406 56.6675 36.3863L54.4945 36.6448C53.9384 38.6899 53.1252 40.6514 52.0693 42.4947L53.4244 44.2156C54.7114 45.85 54.5726 48.192 53.1017 49.6629L49.907 52.8575C48.4359 54.3287 46.0941 54.4676 44.4596 53.1804L42.7387 51.8252C40.8954 52.8813 38.9339 53.6944 36.8888 54.2504L36.6303 56.4234C36.3844 58.4893 34.6302 60.0471 32.5499 60.0471ZM17.7509 49.2349C17.9635 49.2349 18.1769 49.2927 18.3663 49.4095C20.4332 50.6854 22.6758 51.615 25.0321 52.1728C25.5108 52.2863 25.8678 52.6865 25.9258 53.1749L26.2792 56.1467C26.3848 57.034 27.1384 57.7033 28.0321 57.7033H32.55C33.4437 57.7033 34.1973 57.034 34.3029 56.1465L34.6565 53.1748C34.7145 52.6863 35.0714 52.2863 35.5502 52.1728C37.9062 51.615 40.1489 50.6854 42.2159 49.4095C42.6343 49.1514 43.1699 49.1818 43.5563 49.4861L45.9095 51.3389C46.6116 51.8916 47.6177 51.8322 48.2498 51.2001L51.4444 48.0055C52.0764 47.3735 52.1359 46.3675 51.5832 45.6653L49.7303 43.312C49.426 42.9256 49.3955 42.3901 49.6538 41.9717C50.9296 39.9047 51.8593 37.6621 52.4171 35.3059C52.5305 34.8272 52.9306 34.4702 53.419 34.4122L56.3908 34.0587C57.2782 33.9531 57.9475 33.1995 57.9475 32.3058V27.7879C57.9475 26.8942 57.2782 26.1406 56.3908 26.035L53.419 25.6814C52.9306 25.6234 52.5305 25.2665 52.4171 24.7877C51.8593 22.4317 50.9296 20.189 49.6538 18.122C49.3955 17.7035 49.4261 17.168 49.7303 16.7815L51.5832 14.4283C52.1361 13.7261 52.0764 12.72 51.4444 12.0879L48.2498 8.89337C47.6179 8.26126 46.6116 8.20208 45.9095 8.75462L43.5562 10.6081C43.1697 10.9124 42.6344 10.9427 42.2158 10.6846C40.1488 9.40876 37.9062 8.47911 35.55 7.9213C35.0713 7.80786 34.7144 7.40778 34.6564 6.91935L34.3028 3.94759C34.1972 3.06013 33.4436 2.39087 32.5499 2.39087H28.032C27.1383 2.39087 26.3847 3.06013 26.2791 3.94759L25.9257 6.91923C25.8677 7.40767 25.5107 7.80786 25.032 7.9213C22.6758 8.47911 20.4331 9.40876 18.3661 10.6846C17.9479 10.9427 17.4121 10.9123 17.0256 10.6081L14.6724 8.75509C13.9703 8.20231 12.9643 8.26185 12.332 8.89384L9.1375 12.0885C8.50551 12.7205 8.44598 13.7265 8.99875 14.4287L10.8518 16.782C11.1563 17.1684 11.1866 17.7039 10.9284 18.1225C9.65242 20.1893 8.72277 22.4318 8.16508 24.7881C8.05176 25.2667 7.65156 25.6238 7.16313 25.6818L4.19125 26.0353C3.30402 26.1409 2.63477 26.8945 2.63477 27.7882V32.3061C2.63477 33.1998 3.30402 33.9534 4.19148 34.059L7.16336 34.4126C7.6518 34.4706 8.05199 34.8277 8.16531 35.3063C8.72301 37.6624 9.65266 39.905 10.9286 41.9719C11.1869 42.3905 11.1564 42.926 10.8521 43.3124L8.99898 45.6656C8.44609 46.3678 8.50574 47.3739 9.13773 48.006L12.3324 51.2004C12.9643 51.8325 13.9705 51.8918 14.6726 51.3393L17.0259 49.4864C17.2374 49.3195 17.4937 49.2349 17.7509 49.2349ZM30.291 48.6679C20.0235 48.6679 11.6703 40.3146 11.6703 30.0471C11.6703 19.7796 20.0235 11.4264 30.291 11.4264C34.4288 11.4264 38.3464 12.7549 41.6206 15.2685C44.7903 17.7018 47.131 21.1484 48.212 24.9734C48.388 25.5962 48.0258 26.2438 47.4031 26.4198C46.7796 26.5957 46.1327 26.2335 45.9566 25.6109C43.9864 18.6392 37.5446 13.7701 30.291 13.7701C21.3159 13.7701 14.014 21.0721 14.014 30.0471C14.014 39.0222 21.3159 46.3241 30.291 46.3241C37.5525 46.3241 43.9963 41.4483 45.9612 34.4667C46.1365 33.8439 46.783 33.4808 47.4067 33.6561C48.0297 33.8315 48.3926 34.4786 48.2173 35.1017C47.1395 38.9315 44.7994 42.3827 41.6281 44.8199C38.3525 47.3373 34.4322 48.6679 30.291 48.6679Z" fill="white"/>
<path d="M25.7238 42.2443C25.547 42.2443 25.3685 42.2044 25.2022 42.1216C24.7252 41.8843 24.4684 41.355 24.577 40.8335L26.3322 32.4085H22.3203C21.9139 32.4085 21.5366 32.1981 21.3232 31.8524C21.1098 31.5067 21.0906 31.0749 21.2726 30.7117L27.3933 18.4971C27.5919 18.1005 27.9975 17.8501 28.4409 17.8501H36.3502C36.7755 17.8501 37.1674 18.0805 37.3741 18.4521C37.5811 18.8237 37.5703 19.2781 37.3462 19.6396L33.6801 25.5524H38.2609C38.7206 25.5524 39.1377 25.8211 39.3277 26.2396C39.5178 26.658 39.4458 27.1492 39.1433 27.4953L26.6067 41.8435C26.3784 42.1049 26.0542 42.2443 25.7238 42.2443ZM24.2183 30.0648H27.7734C28.1261 30.0648 28.46 30.2236 28.6827 30.4973C28.9051 30.771 28.9926 31.1303 28.9207 31.4756L27.7834 36.9348L35.681 27.896H31.5749C31.1496 27.896 30.7577 27.6656 30.551 27.294C30.344 26.9224 30.3548 26.4679 30.5789 26.1065L34.245 20.1937H29.1645L24.2183 30.0648Z" fill="white"/>
</g>
<defs>
<clipPath id="clip0_1_22615">
<rect width="60" height="60" fill="white" transform="translate(0.291016 0.0471191)"/>
</clipPath>
</defs>
</svg>
