<svg width="40" height="40" viewBox="0 0 40 40" fill="none" xmlns="http://www.w3.org/2000/svg">
<g clip-path="url(#clip0_5899_296)">
<path d="M12.6948 11.3437H14.2255C14.21 11.5168 14.2009 11.6907 14.2009 11.8648C14.2009 15.0627 16.8026 17.6644 20.0005 17.6644C23.1984 17.6644 25.8 15.0627 25.8 11.8648C25.8 11.6908 25.7909 11.5169 25.7754 11.3437H27.3052C27.6073 11.3437 27.8521 11.0989 27.8521 10.7969V8.25156C27.8521 7.94953 27.6073 7.70469 27.3052 7.70469H26.5523C26.0255 5.53453 24.4473 3.76133 22.3561 2.98187V2.66539C22.3561 1.58344 21.4759 0.703125 20.3939 0.703125H19.6062C18.5242 0.703125 17.644 1.58344 17.644 2.66539V2.9818C15.5491 3.76187 13.9754 5.53148 13.4484 7.70469H12.6949C12.3929 7.70469 12.148 7.94953 12.148 8.25156V10.7969C12.148 11.0989 12.3928 11.3437 12.6948 11.3437ZM24.7062 11.8648C24.7062 14.4596 22.5952 16.5706 20.0005 16.5706C17.4057 16.5706 15.2946 14.4596 15.2946 11.8648C15.2946 11.6905 15.305 11.5164 15.324 11.3437H24.6768C24.6959 11.5165 24.7062 11.6905 24.7062 11.8648ZM17.6439 4.16508V5.93992C17.6439 6.24195 17.8887 6.4868 18.1908 6.4868C18.4928 6.4868 18.7377 6.24195 18.7377 5.93992V2.66547C18.7377 2.18656 19.1273 1.79695 19.6061 1.79695H20.3938C20.8727 1.79695 21.2623 2.18656 21.2623 2.66547V5.93992C21.2623 6.24195 21.5071 6.4868 21.8091 6.4868C22.1112 6.4868 22.356 6.24195 22.356 5.93992V4.16531C23.8365 4.84453 24.9593 6.13734 25.4198 7.70469H14.5798C15.0402 6.13508 16.161 4.8443 17.6439 4.16508ZM13.2417 8.79852H26.7583V10.2501H13.2417V8.79852ZM39.2969 22.6443C39.2969 22.9463 39.052 23.1912 38.75 23.1912H37.4333C37.1312 23.1912 36.8864 22.9463 36.8864 22.6443C36.8864 22.3423 37.1312 22.0974 37.4333 22.0974H38.75C39.052 22.0974 39.2969 22.3422 39.2969 22.6443ZM30.3822 16.14V14.8233C30.3822 14.5213 30.627 14.2764 30.9291 14.2764C31.2311 14.2764 31.4759 14.5213 31.4759 14.8233V16.14C31.4759 16.442 31.2311 16.6869 30.9291 16.6869C30.627 16.6869 30.3822 16.442 30.3822 16.14ZM26.7166 26.8567C26.9302 27.0703 26.9302 27.4166 26.7166 27.6301L25.7855 28.5612C25.6787 28.668 25.5387 28.7213 25.3988 28.7213C25.2588 28.7213 25.1188 28.668 25.012 28.5612C24.7984 28.3476 24.7984 28.0013 25.012 27.7878L25.9431 26.8567C26.1568 26.6432 26.5031 26.6432 26.7166 26.8567ZM35.1415 18.4318C34.9279 18.2183 34.9279 17.872 35.1415 17.6584L36.0726 16.7273C36.2861 16.5138 36.6324 16.5138 36.8459 16.7273C37.0595 16.9409 37.0595 17.2872 36.8459 17.5007L35.9148 18.4318C35.808 18.5386 35.6681 18.592 35.5281 18.592C35.3881 18.592 35.2483 18.5385 35.1415 18.4318ZM24.9717 22.6442C24.9717 22.9463 24.7269 23.1911 24.4248 23.1911H23.1081C22.8061 23.1911 22.5612 22.9463 22.5612 22.6442C22.5612 22.3422 22.8061 22.0973 23.1081 22.0973H24.4248C24.7269 22.0973 24.9717 22.3422 24.9717 22.6442ZM25.7855 16.7273L26.7166 17.6584C26.9302 17.8719 26.9302 18.2182 26.7166 18.4317C26.6098 18.5385 26.4698 18.5919 26.3298 18.5919C26.1898 18.5919 26.0499 18.5384 25.9431 18.4317L25.012 17.5006C24.7984 17.2871 24.7984 16.9408 25.012 16.7273C25.2256 16.5137 25.572 16.5137 25.7855 16.7273ZM36.8459 27.7878C37.0595 28.0013 37.0595 28.3477 36.8459 28.5612C36.7391 28.668 36.5992 28.7213 36.4592 28.7213C36.3192 28.7213 36.1793 28.6679 36.0725 28.5612L35.1414 27.6301C34.9278 27.4166 34.9278 27.0702 35.1414 26.8567C35.3549 26.6432 35.7013 26.6432 35.9148 26.8567L36.8459 27.7878ZM35.5715 22.6443C35.5715 20.0845 33.4888 18.0018 30.929 18.0018C28.7701 18.0018 26.9507 19.4831 26.4337 21.4827C24.5163 20.247 22.3102 19.5977 20.0004 19.5977C13.432 19.5977 8.08828 24.941 8.08828 31.5089C8.08828 33.7142 10.348 35.3929 14.4512 36.2357C16.1613 36.587 18.0775 36.7641 19.9993 36.7641C21.6078 36.7641 23.2203 36.6399 24.7182 36.3899C27.2211 35.9723 29.1541 35.2466 30.3821 34.2866V38.203H3.78805V32.9865C4.92547 32.7356 5.77922 31.7202 5.77922 30.5084V19.7585C5.77922 19.4565 5.53437 19.2116 5.23234 19.2116H4.52648V10.9053L5.38891 9.84578C5.49102 9.72039 5.53234 9.55617 5.5018 9.39734L4.84344 5.97125C4.79398 5.71375 4.56859 5.52758 4.30641 5.52758H2.17594C1.91375 5.52758 1.68836 5.71375 1.63891 5.97125L0.980547 9.39734C0.95 9.55617 0.991406 9.72031 1.09344 9.8457L1.95586 10.9053V19.2116H1.25C0.947969 19.2116 0.703125 19.4565 0.703125 19.7585V30.5086C0.703125 31.7203 1.55687 32.7358 2.6943 32.9866V38.75C2.6943 39.052 2.93914 39.2969 3.24117 39.2969H30.9291C31.2311 39.2969 31.4759 39.052 31.4759 38.75V33.0827C31.483 33.0706 31.4908 33.0588 31.4977 33.0466H31.8574C32.5112 33.0466 33.043 32.5148 33.043 31.861V31.7291H33.1922C33.867 31.7291 34.4161 31.18 34.4161 30.5051V29.0438C34.4161 28.5664 34.1408 28.1531 33.7413 27.9514C33.9172 26.5012 34.3334 25.8567 34.7371 25.2318C35.1473 24.5968 35.5715 23.9403 35.5715 22.6443ZM2.9268 10.3657L2.10273 9.3532L2.62766 6.62133H3.85461L4.37961 9.3532L3.55547 10.3656C3.47609 10.4632 3.43273 10.5851 3.43273 10.7109V19.2116H3.04961V10.7109C3.04961 10.5851 3.00617 10.4632 2.9268 10.3657ZM4.68547 20.3054V20.7689H1.79688V20.3054H4.68547ZM1.79688 30.5085V21.8627H4.68547V30.5085C4.68547 31.3048 4.03758 31.9527 3.24117 31.9527C2.44477 31.9527 1.79688 31.3049 1.79688 30.5085ZM24.5382 35.3112C21.3764 35.8388 17.6878 35.7839 14.6713 35.1644C11.1828 34.4478 9.18203 33.1155 9.18203 31.5089C9.18203 25.5441 14.0352 20.6914 20.0004 20.6914C22.2797 20.6914 24.4469 21.3888 26.2878 22.7077C26.3017 23.961 26.7177 24.6076 27.121 25.2318C27.5248 25.8566 27.9409 26.5011 28.1169 27.9513C27.7173 28.153 27.442 28.5663 27.442 29.0437V30.505C27.442 31.1799 27.991 31.729 28.6659 31.729H28.815V31.8609C28.815 32.5147 29.3469 33.0466 30.0006 33.0466H30.1376C29.1683 34.0621 27.202 34.8666 24.5382 35.3112ZM33.3223 30.505C33.3223 30.5755 33.2627 30.6352 33.1921 30.6352H32.4961C32.1941 30.6352 31.9492 30.8801 31.9492 31.1821V31.8609C31.9492 31.9098 31.9063 31.9528 31.8573 31.9528H30.0006C29.9517 31.9528 29.9088 31.9099 29.9088 31.8609V31.1821C29.9088 30.8801 29.6639 30.6352 29.3619 30.6352H28.6659C28.5953 30.6352 28.5357 30.5756 28.5357 30.505V29.0437C28.5357 28.9731 28.5953 28.9134 28.6659 28.9134H33.192C33.2626 28.9134 33.3222 28.973 33.3222 29.0437V30.505H33.3223ZM33.8184 24.6381C33.3894 25.302 32.8647 26.1149 32.6559 27.8198H31.4759V23.7223L32.9588 22.8662C33.2204 22.7152 33.31 22.3807 33.159 22.1191C33.008 21.8576 32.6736 21.768 32.412 21.919L30.9291 22.7751L29.4462 21.919C29.1847 21.7679 28.8502 21.8576 28.6992 22.1191C28.5482 22.3807 28.6378 22.7152 28.8994 22.8662L30.3822 23.7223V27.8198H29.2023C28.9934 26.115 28.4687 25.3021 28.0398 24.6382C27.657 24.0458 27.3804 23.6177 27.3804 22.6443C27.3804 20.6875 28.9723 19.0955 30.9291 19.0955C32.8859 19.0955 34.4779 20.6875 34.4779 22.6443C34.4777 23.6177 34.2012 24.0457 33.8184 24.6381ZM3.24117 30.4694C2.93914 30.4694 2.6943 30.2245 2.6943 29.9225V23.8929C2.6943 23.5909 2.93914 23.346 3.24117 23.346C3.5432 23.346 3.78805 23.5909 3.78805 23.8929V29.9225C3.78805 30.2246 3.5432 30.4694 3.24117 30.4694Z" fill="white"/>
</g>
<defs>
<clipPath id="clip0_5899_296">
<rect width="40" height="40" fill="white"/>
</clipPath>
</defs>
</svg>
