<svg width="61" height="61" viewBox="0 0 61 61" fill="none" xmlns="http://www.w3.org/2000/svg">
<g clip-path="url(#clip0_1_22774)">
<path d="M13.3211 21.938C13.3211 20.1252 12.0182 18.6507 10.4166 18.6507H8.1975V2.74349C8.1975 2.17577 7.79121 1.71631 7.29023 1.71631C6.78926 1.71631 6.38297 2.17577 6.38297 2.74349V18.6505H4.16379C2.56266 18.6505 1.25977 20.1252 1.25977 21.9379V33.5605C1.25977 35.3733 2.56266 36.8489 4.16379 36.8489H10.4166C12.018 36.8489 13.3211 35.3733 13.3211 33.5605V21.938ZM11.5064 33.5605C11.5064 34.2406 11.0173 34.7944 10.4166 34.7944H4.16379C3.56309 34.7944 3.07441 34.2406 3.07441 33.5605V21.9379C3.07441 21.2578 3.56309 20.705 4.16379 20.705H10.4166C11.0173 20.705 11.5064 21.2578 11.5064 21.9379V33.5605Z" fill="white"/>
<path d="M21.9189 41.7704H19.6998V2.74349C19.6998 2.17577 19.2935 1.71631 18.7925 1.71631C18.2914 1.71631 17.8853 2.17577 17.8853 2.74349V41.7703H15.6662C14.0647 41.7703 12.7617 43.2459 12.7617 45.0587V56.6813C12.7617 58.4941 14.0646 59.9697 15.6662 59.9697H21.919C23.5201 59.9697 24.823 58.4941 24.823 56.6813V45.0587C24.8228 43.2461 23.5199 41.7704 21.9189 41.7704ZM23.0082 56.6813C23.0082 57.3614 22.5196 57.9152 21.9189 57.9152H15.6661C15.0654 57.9152 14.5763 57.3614 14.5763 56.6813V45.0587C14.5763 44.3786 15.0654 43.8248 15.6661 43.8248H21.9189C22.5196 43.8248 23.0082 44.3786 23.0082 45.0587V56.6813Z" fill="white"/>
<path d="M36.325 21.938C36.325 20.1252 35.0221 18.6507 33.4209 18.6507H31.2018V2.74349C31.2018 2.17577 30.7955 1.71631 30.2945 1.71631C29.7935 1.71631 29.3872 2.17577 29.3872 2.74349V18.6505H27.1677C25.5666 18.6505 24.2637 20.1252 24.2637 21.9379V33.5605C24.2637 35.3733 25.5666 36.8489 27.1677 36.8489H33.4209C35.0221 36.8489 36.325 35.3733 36.325 33.5605V21.938ZM34.5103 33.5605C34.5103 34.2406 34.0216 34.7944 33.4209 34.7944H27.1677C26.567 34.7944 26.0783 34.2406 26.0783 33.5605V21.9379C26.0783 21.2578 26.567 20.705 27.1677 20.705H33.4209C34.0216 20.705 34.5103 21.2578 34.5103 21.9379V33.5605Z" fill="white"/>
<path d="M44.9204 41.7704H42.7013V2.74349C42.7013 2.17577 42.295 1.71631 41.794 1.71631C41.293 1.71631 40.8868 2.17577 40.8868 2.74349V41.7703H38.6677C37.0666 41.7703 35.7637 43.2459 35.7637 45.0587V56.6813C35.7637 58.4941 37.0666 59.9697 38.6677 59.9697H44.9205C46.522 59.9697 47.825 58.4941 47.825 56.6813V45.0587C47.8248 43.2461 46.5218 41.7704 44.9204 41.7704ZM46.0102 56.6813C46.0102 57.3614 45.5211 57.9152 44.9204 57.9152H38.6676C38.0669 57.9152 37.5782 57.3614 37.5782 56.6813V45.0587C37.5782 44.3786 38.0669 43.8248 38.6676 43.8248H44.9204C45.5211 43.8248 46.0102 44.3786 46.0102 45.0587V56.6813Z" fill="white"/>
<path d="M56.4795 18.7149H54.2033V2.74349C54.2033 2.17577 53.797 1.71631 53.296 1.71631C52.795 1.71631 52.3887 2.17577 52.3887 2.74349V18.7147H50.2268C48.6253 18.7147 47.3223 20.1904 47.3223 22.0031V33.6247C47.3223 35.4375 48.6252 36.9131 50.2268 36.9131H56.4795C58.0807 36.9131 59.3836 35.4375 59.3836 33.6247V22.0031C59.3836 20.1905 58.0805 18.7149 56.4795 18.7149ZM57.5689 33.6247C57.5689 34.3048 57.0802 34.8586 56.4795 34.8586H50.2268C49.6261 34.8586 49.1369 34.3048 49.1369 33.6247V22.0031C49.1369 21.323 49.6261 20.7693 50.2268 20.7693H56.4795C57.0802 20.7693 57.5689 21.323 57.5689 22.0031V33.6247Z" fill="white"/>
<path d="M81.4953 -46.4908C81.4953 -61.9597 70.3773 -74.5428 56.7143 -74.5428H37.7773V-210.284C37.7773 -215.129 34.3103 -219.049 30.0353 -219.049C25.7603 -219.049 22.2933 -215.129 22.2933 -210.284V-74.5439H3.35327C-10.3097 -74.5439 -21.4277 -61.9597 -21.4277 -46.4919V52.6879C-21.4277 68.1569 -10.3097 80.749 3.35327 80.749H56.7143C70.3773 80.749 81.4953 68.1569 81.4953 52.6879V-46.4908ZM66.0103 52.6879C66.0103 58.4915 61.8403 63.2172 56.7143 63.2172H3.35327C-1.77273 63.2172 -5.94273 58.4915 -5.94273 52.6879V-46.4919C-5.94273 -52.2955 -1.77273 -57.0121 3.35327 -57.0121H56.7143C61.8403 -57.0121 66.0103 -52.2955 66.0103 -46.4919V52.6879Z" fill="white"/>
</g>
<defs>
<clipPath id="clip0_1_22774">
<rect width="60" height="59.97" fill="white" transform="translate(0.277344 0.0620117)"/>
</clipPath>
</defs>
</svg>
