<svg width="61" height="61" viewBox="0 0 61 61" fill="none" xmlns="http://www.w3.org/2000/svg">
<g clip-path="url(#clip0_1_22631)">
<path d="M30.459 0.547119C24.5256 0.547119 18.7254 2.30659 13.7919 5.60303C8.85842 8.89947 5.01324 13.5848 2.74261 19.0666C0.471983 24.5484 -0.122117 30.5804 1.03544 36.3998C2.193 42.2193 5.05022 47.5648 9.2458 51.7603C13.4414 55.9559 18.7869 58.8131 24.6063 59.9707C30.4257 61.1282 36.4577 60.5341 41.9395 58.2635C47.4213 55.9929 52.1067 52.1477 55.4031 47.2142C58.6995 42.2808 60.459 36.4806 60.459 30.5471C60.45 22.5934 57.2864 14.968 51.6623 9.34386C46.0381 3.71971 38.4127 0.556118 30.459 0.547119ZM30.459 58.5471C24.9211 58.5471 19.5076 56.905 14.903 53.8283C10.2985 50.7516 6.70963 46.3786 4.59037 41.2623C2.47112 36.1459 1.91662 30.5161 2.99701 25.0846C4.0774 19.6531 6.74414 14.664 10.66 10.7481C14.5759 6.83226 19.565 4.16552 24.9965 3.08513C30.4279 2.00475 36.0578 2.55924 41.1741 4.67849C46.2905 6.79775 50.6635 10.3866 53.7402 14.9912C56.8168 19.5957 58.459 25.0092 58.459 30.5471C58.4505 37.9706 55.4978 45.0876 50.2486 50.3368C44.9995 55.5859 37.8825 58.5387 30.459 58.5471Z" fill="white"/>
<path d="M47.1697 15.247L15.1597 47.257C14.8482 47.5681 14.6087 47.9437 14.4578 48.3572C14.307 48.7708 14.2486 49.2124 14.2867 49.651C14.3219 50.0784 14.4502 50.4929 14.6627 50.8653C14.8752 51.2378 15.1667 51.5592 15.5167 51.807C19.8711 54.9026 25.0841 56.5599 30.4267 56.547C31.1557 56.547 31.8917 56.517 32.6267 56.457C38.7404 55.9137 44.4685 53.238 48.8089 48.8982C53.1492 44.5584 55.8256 38.8307 56.3697 32.717C56.8986 26.6404 55.2506 20.5737 51.7197 15.6C51.4719 15.25 51.1505 14.9585 50.778 14.746C50.4056 14.5336 49.9911 14.4052 49.5637 14.37C49.1246 14.3299 48.6821 14.3878 48.2681 14.5395C47.8541 14.6911 47.479 14.9328 47.1697 15.247ZM28.4427 36.798L38.6937 26.547H41.6157C41.7601 26.5463 41.902 26.5845 42.0266 26.6575C42.1511 26.7305 42.2537 26.8357 42.3237 26.962C42.4106 27.1061 42.4582 27.2705 42.4618 27.4388C42.4653 27.6071 42.4246 27.7734 42.3437 27.921L28.9837 50.105C28.906 50.2765 28.7676 50.4131 28.5951 50.4885C28.4226 50.5638 28.2283 50.5726 28.0497 50.513C27.8434 50.4546 27.665 50.324 27.547 50.145C27.4289 49.966 27.3792 49.7506 27.4067 49.538L28.4427 36.798ZM50.0847 16.753C53.3439 21.344 54.8654 26.9439 54.3777 32.553C53.8765 38.1956 51.407 43.4823 47.4015 47.4881C43.3959 51.4938 38.1093 53.9635 32.4667 54.465C26.8575 54.9537 21.2573 53.432 16.6667 50.172C16.5545 50.0926 16.4611 49.9894 16.3934 49.8698C16.3256 49.7502 16.2851 49.6171 16.2747 49.48C16.262 49.3318 16.2819 49.1826 16.3328 49.0429C16.3838 48.9032 16.4646 48.7763 16.5697 48.671L26.2597 38.983L25.4147 49.383C25.3789 49.7841 25.427 50.1884 25.5557 50.57C25.6844 50.9516 25.8911 51.3022 26.1626 51.5998C26.434 51.8973 26.7643 52.1351 27.1326 52.2982C27.5008 52.4612 27.899 52.546 28.3017 52.547C28.7976 52.5467 29.2841 52.4118 29.7094 52.1568C30.1346 51.9018 30.4828 51.5362 30.7167 51.099L44.0697 28.929C44.3281 28.4729 44.4618 27.9568 44.4574 27.4327C44.453 26.9085 44.3107 26.3947 44.0447 25.943C43.7884 25.5204 43.4283 25.1703 42.9986 24.926C42.5689 24.6816 42.084 24.5512 41.5897 24.547H40.6897L48.5797 16.657C48.6742 16.562 48.7866 16.4866 48.9103 16.4351C49.034 16.3836 49.1667 16.3571 49.3007 16.357H49.3887C49.5268 16.3674 49.6608 16.4083 49.7812 16.4768C49.9015 16.5453 50.0052 16.6396 50.0847 16.753Z" fill="white"/>
<path d="M46.6351 11.447C46.6005 11.0189 46.4723 10.6035 46.2596 10.2303C46.0469 9.85703 45.7548 9.53505 45.4041 9.28704C40.4297 5.75826 34.3643 4.10973 28.2881 4.63504C22.1742 5.17826 16.4461 7.854 12.1058 12.1941C7.76554 16.5342 5.08957 22.2622 4.54608 28.376C4.01721 34.4532 5.66605 40.5205 9.19808 45.494C9.44587 45.844 9.76729 46.1355 10.1398 46.348C10.5122 46.5605 10.9267 46.6888 11.3541 46.724C11.4411 46.732 11.5281 46.735 11.6141 46.735C12.0107 46.7347 12.4034 46.656 12.7696 46.5037C13.1357 46.3513 13.4683 46.1281 13.7481 45.847L45.7581 13.837C46.0697 13.5267 46.3097 13.152 46.4612 12.7391C46.6127 12.3263 46.6721 11.8853 46.6351 11.447ZM20.3981 35.547C20.2844 35.5459 20.1722 35.5208 20.0688 35.4734C19.9654 35.426 19.8732 35.3574 19.7981 35.272C19.7109 35.1786 19.6438 35.0683 19.601 34.9479C19.5582 34.8275 19.5405 34.6995 19.5491 34.572L21.6061 13.397C21.6181 13.1752 21.7118 12.9656 21.8691 12.8087C22.0264 12.6518 22.2362 12.5586 22.4581 12.547H34.2481C34.4505 12.5459 34.6501 12.5937 34.8301 12.6864C35.01 12.779 35.165 12.9137 35.2817 13.079C35.3984 13.2443 35.4735 13.4354 35.5006 13.636C35.5276 13.8365 35.5058 14.0407 35.4371 14.231L31.5171 25.211C31.5117 25.2294 31.5074 25.2481 31.5041 25.267L21.2241 35.547H20.3981ZM44.3481 12.423L34.7941 21.976L37.3181 14.906C37.4953 14.4139 37.5513 13.8864 37.4814 13.368C37.4115 12.8497 37.2178 12.3558 36.9166 11.9282C36.6155 11.5006 36.2157 11.1518 35.7512 10.9114C35.2867 10.671 34.7711 10.546 34.2481 10.547H22.4581C21.7333 10.5549 21.0381 10.8354 20.5108 11.3328C19.9836 11.8302 19.6631 12.5079 19.6131 13.231L17.5581 34.396C17.5257 34.8011 17.5774 35.2084 17.7099 35.5925C17.8424 35.9766 18.0529 36.3291 18.3281 36.628C18.6297 36.9502 19.0017 37.1984 19.4151 37.353L12.3341 44.437C12.2288 44.5423 12.102 44.6236 11.9623 44.6754C11.8227 44.7271 11.6736 44.7482 11.5251 44.737C11.3881 44.7266 11.2551 44.6862 11.1355 44.6186C11.0159 44.5511 10.9127 44.458 10.8331 44.346C7.57384 39.755 6.0523 34.1551 6.54008 28.546C7.03979 22.9025 9.50847 17.6146 13.514 13.6077C17.5195 9.60092 22.8067 7.13054 28.4501 6.62904C29.1321 6.57437 29.8104 6.54704 30.4851 6.54704C35.4178 6.53467 40.2309 8.0647 44.2511 10.923C44.3633 11.0024 44.4567 11.1056 44.5244 11.2252C44.5922 11.3448 44.6327 11.478 44.6431 11.615C44.6556 11.7631 44.6357 11.912 44.5847 12.0516C44.5338 12.1911 44.453 12.3179 44.3481 12.423Z" fill="white"/>
</g>
<defs>
<clipPath id="clip0_1_22631">
<rect width="60" height="60" fill="white" transform="translate(0.458984 0.547119)"/>
</clipPath>
</defs>
</svg>
