<svg width="40" height="40" viewBox="0 0 40 40" fill="none" xmlns="http://www.w3.org/2000/svg">
<path d="M36.1306 34.9624C35.1311 34.9624 34.2852 35.6307 34.015 36.5438H28.3149L28.2863 34.5437H34.1657C34.5109 34.5437 34.7907 34.2638 34.7907 33.9187V31.6143C34.7907 31.2692 34.5109 30.9893 34.1657 30.9893H33.087V20.7944H34.1192C34.5585 20.7944 34.93 20.4938 35.0225 20.0635C35.115 19.6333 34.9 19.2067 34.4997 19.026L28.2777 16.2177L28.3149 13.622H34.015C34.2852 14.535 35.1311 15.2033 36.1306 15.2033C37.3472 15.2033 38.3369 14.2135 38.3369 12.997C38.3369 11.7804 37.3472 10.7906 36.1306 10.7906C35.1311 10.7906 34.2852 11.4589 34.015 12.372H27.6987C27.357 12.372 27.0786 12.6463 27.0738 12.9881L27.0356 15.6571L23.6311 14.1205C23.4677 14.0467 23.2804 14.0467 23.1169 14.1205L19.4559 15.7729V15.4631C19.4559 15.1179 19.1761 14.8381 18.8309 14.8381H16.0597C15.7146 14.8381 15.4347 15.1179 15.4347 15.4631V17.5879L12.2482 19.0262C11.8479 19.207 11.633 19.6337 11.7257 20.0639C11.8183 20.4941 12.1897 20.7946 12.6289 20.7946H13.6611V22.5441L7.26941 22.6355C6.92777 22.6403 6.65332 22.9187 6.65332 23.2604L6.65324 26.4138C5.7402 26.6841 5.07199 27.5299 5.07199 28.5295C5.07199 29.746 6.06176 30.7358 7.27824 30.7358C8.4948 30.7358 9.48457 29.746 9.48457 28.5295C9.48457 27.53 8.81629 26.6841 7.90324 26.4138L7.90332 23.8765L13.6611 23.7942V30.9895H12.5823C12.2371 30.9895 11.9573 31.2693 11.9573 31.6145V33.9188C11.9573 34.264 12.2371 34.5438 12.5823 34.5438H16.5339L16.5054 36.544H10.8053C10.535 35.631 9.68918 34.9627 8.68965 34.9627C7.47309 34.9627 6.48332 35.9524 6.48332 37.169C6.48332 38.3856 7.47309 39.3753 8.68965 39.3753C9.68918 39.3753 10.535 38.707 10.8053 37.794H17.1215C17.4632 37.794 17.7416 37.5196 17.7464 37.1779L17.7841 34.5438H27.0361L27.0738 37.1778C27.0786 37.5196 27.357 37.7939 27.6987 37.7939H34.015C34.2852 38.7068 35.1311 39.3751 36.1306 39.3751C37.3472 39.3751 38.3369 38.3853 38.3369 37.1688C38.3369 35.9522 37.3472 34.9624 36.1306 34.9624ZM36.1306 12.0406C36.6579 12.0406 37.0869 12.4695 37.0869 12.9969C37.0869 13.5242 36.6579 13.9532 36.1306 13.9532C35.6032 13.9532 35.1743 13.5242 35.1743 12.9969C35.1742 12.4695 35.6032 12.0406 36.1306 12.0406ZM8.23457 28.5293C8.23457 29.0567 7.80559 29.4856 7.27824 29.4856C6.75098 29.4856 6.32199 29.0567 6.32199 28.5293C6.32199 28.002 6.75098 27.573 7.27824 27.573C7.80559 27.573 8.23457 28.002 8.23457 28.5293ZM8.68973 38.1251C8.16238 38.1251 7.7334 37.6961 7.7334 37.1688C7.7334 36.6414 8.16238 36.2124 8.68973 36.2124C9.21707 36.2124 9.64605 36.6414 9.64605 37.1688C9.64605 37.6961 9.21707 38.1251 8.68973 38.1251ZM16.6847 16.088H18.2059V16.3371L16.6847 17.0236V16.088ZM14.2861 19.5444H14.1382L23.374 15.3758L32.6097 19.5444H32.4619C32.1168 19.5444 31.8369 19.8242 31.8369 20.1694V30.9893H22.8992V24.6706C22.8992 24.3254 22.6193 24.0456 22.2742 24.0456H17.2229C16.8778 24.0456 16.5979 24.3254 16.5979 24.6706V30.9893H14.9111V20.1694C14.9111 19.8242 14.6312 19.5444 14.2861 19.5444ZM21.6492 30.9893H17.8479V25.2956H21.6492V30.9893ZM13.2074 32.2393H33.5407V33.2937H13.2074V32.2393ZM36.1306 38.1251C35.6032 38.1251 35.1743 37.6961 35.1743 37.1688C35.1743 36.6414 35.6032 36.2124 36.1306 36.2124C36.6579 36.2124 37.0869 36.6414 37.0869 37.1688C37.0869 37.6961 36.6579 38.1251 36.1306 38.1251ZM24.4704 26.2231H29.3254C29.6705 26.2231 29.9504 25.9433 29.9504 25.5981V22.081C29.9504 21.7358 29.6705 21.456 29.3254 21.456H24.4704C24.1252 21.456 23.8454 21.7358 23.8454 22.081V25.5981C23.8454 25.9433 24.1252 26.2231 24.4704 26.2231ZM25.0954 22.706H28.7004V24.9731H25.0954V22.706ZM5.7716 13.5046C5.9516 13.6846 6.02777 13.9323 5.97559 14.1671L5.61262 15.7983C5.55332 16.0647 5.67379 16.3388 5.9102 16.4753C6.14645 16.6117 6.4441 16.5792 6.64527 16.3946L7.87527 15.2658C8.13082 15.0312 8.43332 15.0795 8.55152 15.1112C8.79777 15.1772 8.98801 15.3537 9.0602 15.5833L9.56098 17.1759C9.64293 17.4363 9.88426 17.6134 10.1572 17.6134C10.4302 17.6134 10.6715 17.4363 10.7535 17.1759L11.2542 15.5836C11.3582 15.2526 11.6444 15.1432 11.7626 15.1116C12.0094 15.0456 12.2621 15.1034 12.4394 15.2661L13.6692 16.3947C13.8702 16.5792 14.1678 16.612 14.4043 16.4755C14.6406 16.339 14.7611 16.0649 14.7018 15.7985L14.3389 14.1673C14.2636 13.8287 14.4563 13.5913 14.5425 13.505C14.7226 13.325 14.9705 13.2489 15.2051 13.3011L16.8363 13.664C17.1027 13.7231 17.3768 13.6028 17.5132 13.3664C17.6497 13.13 17.6171 12.8324 17.4325 12.6313L16.3037 11.4014C16.0691 11.1458 16.1174 10.8433 16.1491 10.7252C16.2151 10.4788 16.3916 10.2887 16.6212 10.2164L18.2138 9.71564C18.4742 9.63377 18.6514 9.39236 18.6514 9.11947C18.6514 8.84658 18.4742 8.60518 18.2138 8.5233L16.6215 8.0226C16.2906 7.91846 16.1811 7.63229 16.1495 7.51408C16.0834 7.26768 16.1412 7.01463 16.304 6.83729L17.4326 5.60752C17.6171 5.40643 17.6498 5.10885 17.5133 4.87244C17.3769 4.63604 17.1026 4.51564 16.8364 4.57486L15.2052 4.93783C14.9706 4.9901 14.7226 4.91385 14.5426 4.73385C14.4564 4.64752 14.2636 4.41018 14.3389 4.07158L14.7019 2.44049C14.7612 2.17408 14.6407 1.90002 14.4043 1.76346C14.1679 1.62697 13.8704 1.65955 13.6693 1.84424L12.4393 2.97299C12.2619 3.1358 12.0092 3.19361 11.7627 3.12752C11.6445 3.09588 11.3584 2.9865 11.2543 2.65549L10.7536 1.06299C10.6716 0.802598 10.4303 0.625488 10.1573 0.625488C9.88441 0.625488 9.64301 0.802676 9.56105 1.06299L9.06027 2.65541C8.98809 2.88502 8.79793 3.0615 8.55152 3.12752C8.4334 3.15916 8.13082 3.20752 7.8752 2.97291L6.64535 1.84393C6.44426 1.65932 6.14668 1.62666 5.91027 1.76314C5.67395 1.89963 5.55348 2.17369 5.6127 2.44018L5.97566 4.07143C6.05098 4.40994 5.85832 4.64736 5.77199 4.73369C5.59215 4.91361 5.34465 4.98986 5.10957 4.9376L3.47816 4.57455C3.21184 4.51541 2.9377 4.63564 2.80121 4.87213C2.66473 5.10854 2.69738 5.40611 2.88191 5.60721L4.01082 6.83729C4.24543 7.09283 4.19715 7.39525 4.16543 7.51338C4.09941 7.75971 3.92293 7.94986 3.69324 8.02205L2.10059 8.52291C1.84027 8.60479 1.66309 8.84619 1.66309 9.11908C1.66309 9.39197 1.84027 9.63338 2.10066 9.71525L3.69293 10.216C4.02387 10.3201 4.13332 10.6063 4.16496 10.7245C4.23105 10.9709 4.17324 11.2239 4.01051 11.4013L2.88191 12.631C2.69738 12.8321 2.66465 13.1297 2.80105 13.3661C2.93754 13.6024 3.21152 13.7228 3.47809 13.6637L5.10934 13.3008C5.44801 13.2255 5.68527 13.4183 5.7716 13.5046ZM5.37246 10.401C5.21855 9.8269 4.83066 9.36307 4.31262 9.11916C4.83105 8.87525 5.21902 8.41135 5.37293 7.83689C5.52676 7.26283 5.42269 6.66729 5.0959 6.19705C5.66738 6.24557 6.23543 6.03783 6.6559 5.61736C7.07621 5.19705 7.28363 4.62885 7.23527 4.05768C7.70559 4.38439 8.30098 4.4883 8.87512 4.33447C9.44949 4.18057 9.9134 3.7926 10.1573 3.27439C10.4011 3.79268 10.865 4.18064 11.4392 4.33447C12.013 4.4883 12.6089 4.38439 13.0793 4.05768C13.031 4.62885 13.2384 5.19697 13.6588 5.61729C14.0794 6.03783 14.6482 6.24557 15.2188 6.19697C14.8921 6.66736 14.7882 7.26299 14.9421 7.83729C15.0961 8.41143 15.4839 8.87518 16.0019 9.11908C15.4836 9.36307 15.0956 9.82697 14.9418 10.4013C14.7879 10.9754 14.892 11.5709 15.2188 12.0412C14.6479 11.993 14.0793 12.2003 13.6588 12.6209C13.2384 13.0413 13.031 13.6096 13.0794 14.1806C12.6091 13.854 12.0137 13.7501 11.4392 13.9039C10.865 14.0578 10.4013 14.4456 10.1573 14.9638C9.9134 14.4455 9.44949 14.0575 8.87512 13.9036C8.70027 13.8567 8.5234 13.8338 8.34871 13.8338C7.94996 13.8338 7.5623 13.9534 7.23527 14.1806C7.28363 13.6094 7.07605 13.0412 6.65551 12.6206C6.2352 12.2003 5.66762 11.9927 5.09582 12.0412C5.42238 11.571 5.52629 10.9753 5.37246 10.401ZM10.1573 12.6352C12.0961 12.6352 13.6734 11.0579 13.6734 9.11916C13.6734 7.18041 12.0961 5.60314 10.1573 5.60314C8.21863 5.60314 6.64129 7.18041 6.64129 9.11916C6.64129 11.0579 8.21855 12.6352 10.1573 12.6352ZM10.1573 6.85314C11.4068 6.85314 12.4234 7.86971 12.4234 9.11916C12.4234 10.3687 11.4068 11.3852 10.1573 11.3852C8.90785 11.3852 7.89129 10.3686 7.89129 9.11916C7.89129 7.86971 8.90785 6.85314 10.1573 6.85314Z" fill="white"/>
</svg>
