<svg width="41" height="41" viewBox="0 0 41 41" fill="none" xmlns="http://www.w3.org/2000/svg">
<path d="M30.8983 32.9768V21.8005C32.1179 21.1234 32.8854 19.8385 32.8854 18.4202C32.8854 16.9551 32.073 15.633 30.7653 14.9699C30.5715 14.8716 30.3406 14.881 30.1556 14.9947C29.9704 15.1084 29.8577 15.3101 29.8577 15.5273V18.4258L29.0186 18.9103L28.1795 18.4258V15.5273C28.1795 15.3101 28.0667 15.1084 27.8816 14.9947C27.6965 14.8811 27.4657 14.8716 27.2718 14.9699C25.9641 15.633 25.1518 16.9551 25.1518 18.4202C25.1518 18.528 25.1568 18.6349 25.1655 18.7409H22.4023V17.8847C22.4023 17.5395 22.1225 17.2597 21.7773 17.2597H19.1186C18.7734 17.2597 18.4936 17.5395 18.4936 17.8847V18.7409H15.9455C15.4481 18.3194 14.8781 17.9743 14.251 17.724C14.2014 17.5298 14.1114 17.3497 13.9806 17.1902C13.6096 16.738 12.9469 16.4762 12.0107 16.4126C11.9824 16.4106 11.954 16.4106 11.9257 16.4126C10.9896 16.4762 10.3268 16.738 9.9559 17.1902C9.82512 17.3498 9.73512 17.5298 9.68551 17.724C7.39402 18.6384 5.87043 20.8297 5.82871 23.3193C5.3066 23.517 4.93449 24.0222 4.93449 24.6127C4.93449 25.3463 5.50949 25.9466 6.23238 25.9907C6.57801 27.6177 7.59051 28.9778 8.95762 29.7955C7.3523 30.2521 5.86105 31.0727 4.60066 32.2124C2.59324 34.0278 1.32973 36.5035 1.04293 39.1834C1.02402 39.3598 1.08098 39.5359 1.19949 39.6677C1.31801 39.7996 1.48691 39.875 1.66426 39.875L22.272 39.8749C22.4493 39.8749 22.6183 39.7996 22.7368 39.6677C22.8554 39.5359 22.9123 39.3598 22.8934 39.1834C22.6534 36.9414 21.7294 34.8426 20.2584 33.1534H26.8519C25.8002 33.8632 25.1517 35.0536 25.1517 36.357C25.1517 37.8222 25.964 39.1443 27.2717 39.8074C27.4654 39.9056 27.6964 39.8962 27.8814 39.7827C28.0666 39.669 28.1793 39.4673 28.1793 39.2501V36.3515L29.0184 35.867L29.8575 36.3515V39.2501C29.8575 39.4673 29.9703 39.669 30.1554 39.7827C30.2554 39.8441 30.3688 39.8751 30.4825 39.8751C30.5792 39.8751 30.6761 39.8527 30.7651 39.8075C32.0728 39.1444 32.8851 37.8223 32.8851 36.3571C32.8854 34.9387 32.1179 33.6538 30.8983 32.9768ZM25.4839 19.9909C25.7252 20.535 26.09 21.0177 26.5521 21.3996H22.4022V19.9909H25.4839ZM27.1388 31.9034H18.9782C17.797 30.9237 16.435 30.2098 14.9789 29.7956C16.346 28.9779 17.3585 27.6178 17.7041 25.9908C18.4269 25.9467 19.0019 25.3464 19.0019 24.6127C19.0019 24.0223 18.6298 23.5171 18.1077 23.3194C18.1039 23.0934 18.087 22.8701 18.0593 22.6497H27.1387V31.9034H27.1388ZM18.8238 38.6249L5.11246 38.625V33.4366C5.37574 33.1763 5.65402 32.9312 5.94535 32.7025V34.6258C5.94535 34.9709 6.2252 35.2508 6.57035 35.2508H17.366C17.7111 35.2508 17.991 34.9709 17.991 34.6258V32.7025C18.2823 32.9312 18.5606 33.1763 18.8239 33.4366V38.6249H18.8238ZM21.1522 18.5097V21.3996H19.7435V18.5097H21.1522ZM18.4934 21.3997H17.7678C17.5939 20.899 17.3565 20.426 17.0636 19.991H18.4934V21.3997ZM10.9224 17.9829C11.02 17.8639 11.3519 17.7105 11.9682 17.6627C12.5845 17.7105 12.9164 17.8638 13.014 17.9829C13.0305 18.003 13.0555 18.0334 13.0428 18.1316L12.7699 20.2326C12.7505 20.382 12.627 20.4905 12.4762 20.4905H11.4602C11.3094 20.4905 11.1858 20.382 11.1664 20.2325L10.8936 18.1317C10.8809 18.0335 10.9058 18.003 10.9224 17.9829ZM9.75402 19.0625L9.92684 20.3934C10.0265 21.1613 10.6857 21.7405 11.4602 21.7405H12.4762C13.2507 21.7405 13.9098 21.1613 14.0094 20.3934L14.1823 19.0625C15.7526 19.8562 16.7848 21.4396 16.8547 23.2303H7.0816C7.15145 21.4397 8.18371 19.8563 9.75402 19.0625ZM6.31691 24.4803H17.6196C17.6914 24.4803 17.752 24.5409 17.752 24.6127C17.752 24.6844 17.6914 24.745 17.6196 24.745H6.31691C6.24512 24.745 6.18449 24.6844 6.18449 24.6127C6.18449 24.5409 6.24512 24.4803 6.31691 24.4803ZM7.52035 25.9951H16.4161C15.8739 27.9639 14.0731 29.3755 11.9704 29.3765C11.9696 29.3765 11.9689 29.3765 11.9682 29.3765C11.9675 29.3765 11.9667 29.3765 11.966 29.3765C9.86324 29.3755 8.06254 27.9639 7.52035 25.9951ZM11.9682 30.6266C11.9689 30.6266 11.9696 30.6265 11.9704 30.6265C13.6988 30.6269 15.3277 31.0759 16.7409 31.8684V34.0008H7.19535V31.8684C8.60855 31.076 10.2375 30.627 11.966 30.6266C11.9667 30.6265 11.9675 30.6266 11.9682 30.6266ZM3.86246 34.9522V38.625H2.38449C2.62574 37.2788 3.13887 36.0366 3.86246 34.9522ZM20.0738 38.6249V34.9521C20.7974 36.0366 21.3105 37.2787 21.5518 38.6249H20.0738ZM31.1076 37.9361V35.9906C31.1076 35.7673 30.9885 35.561 30.7951 35.4494L29.3311 34.6041C29.2344 34.5482 29.1264 34.5203 29.0186 34.5203C28.9107 34.5203 28.8027 34.5482 28.7061 34.6041L27.242 35.4494C27.0486 35.561 26.9295 35.7673 26.9295 35.9906V37.9361C26.5922 37.4907 26.4018 36.9406 26.4018 36.357C26.4018 35.3002 27.0314 34.3528 28.006 33.9433C28.2379 33.8459 28.3889 33.6188 28.3889 33.3671V21.4102C28.3889 21.1585 28.2379 20.9314 28.006 20.834C27.0314 20.4245 26.4018 19.4771 26.4018 18.4202C26.4018 17.8366 26.5923 17.2866 26.9295 16.8412V18.7866C26.9295 19.0099 27.0486 19.2162 27.242 19.3279L28.7061 20.1732C28.8996 20.2849 29.1378 20.2849 29.3311 20.1732L30.7952 19.3279C30.9886 19.2162 31.1077 19.01 31.1077 18.7866V16.8412C31.4449 17.2866 31.6354 17.8366 31.6354 18.4202C31.6354 19.4771 31.0057 20.4245 30.0313 20.834C29.7993 20.9314 29.6484 21.1585 29.6484 21.4102V33.367C29.6484 33.6187 29.7993 33.8458 30.0313 33.9432C31.0058 34.3527 31.6354 35.3002 31.6354 36.357C31.6354 36.9405 31.4449 37.4906 31.1076 37.9361ZM37.9639 29.235V19.7339L38.6371 18.27C38.6948 18.1445 38.7093 18.0034 38.6782 17.8687L37.9479 14.6971C37.8826 14.4134 37.63 14.2123 37.3389 14.2123L35.2111 14.2123C34.92 14.2123 34.6674 14.4133 34.6021 14.697L33.8718 17.8687C33.8407 18.0034 33.8553 18.1445 33.9129 18.27L34.5861 19.7339V29.235C34.0011 29.3505 33.5586 29.867 33.5586 30.4852V39.25C33.5586 39.5952 33.8384 39.875 34.1836 39.875H38.3664C38.7115 39.875 38.9914 39.5952 38.9914 39.25V30.4852C38.9914 29.867 38.5488 29.3505 37.9639 29.235ZM35.7086 15.4623L36.8414 15.4624L37.4123 17.9415L36.7711 19.3361C36.7334 19.418 36.7139 19.507 36.7139 19.5972V29.2105H35.8361V19.5971C35.8361 19.507 35.8166 19.4179 35.779 19.336L35.1378 17.9414L35.7086 15.4623ZM37.7414 38.625H34.8086V30.4852C34.8086 30.473 34.8211 30.4605 34.8333 30.4605H37.7166C37.7289 30.4605 37.7414 30.473 37.7414 30.4852V38.625ZM38.5909 6.34531L37.8948 6.07734C37.7839 5.70859 37.6362 5.35258 37.4536 5.01305L37.7565 4.33094C37.8615 4.09469 37.8101 3.8182 37.6273 3.63531L36.4811 2.48906C36.2983 2.30625 36.0217 2.25508 35.7854 2.35984L35.1031 2.66297C34.7636 2.48031 34.4077 2.33266 34.0392 2.22188L33.7711 1.52555C33.6782 1.28422 33.4464 1.125 33.1879 1.125H31.5668C31.3082 1.125 31.0764 1.28422 30.9835 1.52547L30.7154 2.2218C30.3469 2.33266 29.991 2.48031 29.6515 2.66289L28.9691 2.35977C28.7328 2.25477 28.4563 2.30609 28.2735 2.48906L27.1272 3.63539C26.9444 3.8182 26.893 4.09469 26.998 4.33094L27.3011 5.0132C27.1184 5.35266 26.9708 5.70859 26.86 6.07719L26.1637 6.34523C25.9225 6.43805 25.7632 6.66992 25.7632 6.92852V8.54961C25.7632 8.8082 25.9225 9.04 26.1637 9.13289L26.8598 9.40086C26.9707 9.76969 27.1183 10.1257 27.301 10.4651L26.998 11.1472C26.893 11.3834 26.9444 11.6599 27.1272 11.8428L28.2735 12.9891C28.4564 13.1719 28.7329 13.2233 28.969 13.1183L29.6515 12.8152C29.991 12.9978 30.3469 13.1455 30.7154 13.2563L30.9835 13.9526C31.0763 14.1938 31.3082 14.353 31.5668 14.353H33.1879C33.4464 14.353 33.6782 14.1938 33.7711 13.9526L34.0391 13.2565C34.4079 13.1456 34.7639 12.998 35.1034 12.8153L35.7855 13.1183C36.0218 13.2233 36.2983 13.172 36.4811 12.9891L37.6274 11.8428C37.8102 11.6599 37.8616 11.3834 37.7567 11.1472L37.4536 10.4648C37.6362 10.1252 37.7838 9.76937 37.8946 9.40094L38.5911 9.13281C38.8323 9.04 38.9915 8.80812 38.9915 8.54953V6.92859C38.9914 6.67008 38.8322 6.4382 38.5909 6.34531ZM37.7414 8.12055L37.1494 8.34844C36.9571 8.42242 36.8136 8.58656 36.7659 8.78695C36.6554 9.25094 36.4722 9.69305 36.2212 10.1006C36.1132 10.2762 36.0986 10.4936 36.1822 10.682L36.44 11.2623L35.9006 11.8017L35.3205 11.5441C35.1321 11.4603 34.9146 11.475 34.7391 11.5831C34.3317 11.8341 33.8895 12.0174 33.425 12.128C33.2246 12.1756 33.0604 12.3191 32.9864 12.5114L32.7586 13.1031H31.9958L31.7679 12.5112C31.6939 12.3189 31.5299 12.1754 31.3294 12.1277C30.8653 12.0173 30.4232 11.8339 30.0156 11.583C29.8401 11.475 29.6227 11.4603 29.4343 11.544L28.8539 11.8017L28.3145 11.2624L28.5721 10.6823C28.6558 10.4939 28.6412 10.2763 28.5331 10.1009C28.2822 9.69352 28.0989 9.25141 27.9883 8.78687C27.9406 8.58648 27.7971 8.42234 27.6048 8.34836L27.0131 8.12055V7.35773L27.605 7.12984C27.7973 7.05586 27.9408 6.89172 27.9886 6.69133C28.099 6.22711 28.2823 5.785 28.5332 5.3775C28.6413 5.20203 28.6559 4.98453 28.5722 4.79617L28.3145 4.21586L28.8539 3.67648L29.4343 3.9343C29.6226 4.01789 29.8401 4.00336 30.0157 3.89523C30.4232 3.6443 30.8652 3.46102 31.3293 3.35063C31.5297 3.30289 31.6939 3.15945 31.7679 2.96711L31.9959 2.375H32.7587L32.9866 2.96703C33.0606 3.15937 33.2247 3.30281 33.4252 3.35047C33.8893 3.46094 34.3313 3.64422 34.7389 3.89516C34.9144 4.00336 35.1319 4.01797 35.3203 3.93422L35.9007 3.67641L36.44 4.2157L36.1824 4.79586C36.0987 4.98422 36.1133 5.20172 36.2214 5.37727C36.4724 5.78477 36.6557 6.22687 36.7662 6.69133C36.8139 6.89172 36.9574 7.05586 37.1497 7.12984L37.7414 7.35766V8.12055ZM32.3773 4.28703C30.4738 4.28703 28.9252 5.83563 28.9252 7.73922C28.9252 9.64266 30.4738 11.1913 32.3773 11.1913C34.2808 11.1913 35.8294 9.64273 35.8294 7.73922C35.8294 5.83563 34.2808 4.28703 32.3773 4.28703ZM32.3773 9.94125C31.1631 9.94125 30.1752 8.95336 30.1752 7.73914C30.1752 6.52484 31.1631 5.53695 32.3773 5.53695C33.5915 5.53695 34.5794 6.52484 34.5794 7.73914C34.5794 8.95336 33.5915 9.94125 32.3773 9.94125ZM3.92793 15.4745H13.8316C14.875 15.4745 15.8095 14.935 16.3312 14.0312C16.8529 13.1275 16.8529 12.0486 16.3312 11.1449L11.3794 2.56813C10.8577 1.66445 9.92324 1.125 8.8798 1.125C7.83637 1.125 6.90199 1.66445 6.3802 2.56813L1.4284 11.1449C0.90668 12.0486 0.90668 13.1276 1.4284 14.0312C1.95012 14.9349 2.88457 15.4745 3.92793 15.4745ZM2.5109 11.7699L7.46277 3.19313C7.75855 2.68086 8.28824 2.375 8.8798 2.375C9.47137 2.375 10.0011 2.68086 10.2968 3.19313L15.2487 11.7699C15.5445 12.2823 15.5445 12.894 15.2487 13.4062C14.9529 13.9185 14.4232 14.2245 13.8316 14.2245H3.92793C3.33645 14.2245 2.80668 13.9186 2.5109 13.4062C2.21512 12.8939 2.21512 12.2822 2.5109 11.7699ZM5.89832 9.81969H7.82863L7.52473 12.4239C7.49246 12.7003 7.64676 12.9647 7.90332 13.0726C7.98176 13.1055 8.06402 13.1214 8.14535 13.1214C8.32996 13.1214 8.5102 13.0395 8.6316 12.8893L12.3475 8.29266C12.4989 8.10539 12.5292 7.84781 12.4254 7.63039C12.3217 7.41312 12.1022 7.27469 11.8614 7.27469H9.89145L10.0398 4.72711C10.0557 4.45414 9.89231 4.2025 9.63637 4.10602C9.38059 4.00945 9.0916 4.09063 8.92324 4.30617L5.40582 8.81C5.25879 8.99828 5.23191 9.25398 5.33668 9.46875C5.44137 9.68344 5.65941 9.81969 5.89832 9.81969ZM8.67543 6.65422L8.60504 7.86344C8.59504 8.03516 8.65629 8.20352 8.77434 8.32867C8.89238 8.45383 9.05684 8.52477 9.22894 8.52477H10.5525L9.01645 10.4248L9.15152 9.26711C9.17223 9.08992 9.11621 8.91242 8.99762 8.77914C8.87902 8.64594 8.70918 8.56969 8.53074 8.56969H7.17949L8.67543 6.65422ZM19.3753 27.4287C19.25 27.4013 19.1202 27.3866 18.9869 27.3866C17.9824 27.3866 17.1651 28.2038 17.1651 29.2084C17.1651 30.2129 17.9824 31.0302 18.9869 31.0302C19.9914 31.0302 20.8087 30.2129 20.8087 29.2084C20.8087 28.791 20.6673 28.4062 20.4304 28.0988L21.1079 27.0302C21.2331 27.0576 21.3629 27.0723 21.4962 27.0723C21.8704 27.0723 22.2184 26.9588 22.508 26.7647L23.3802 27.4024C23.3337 27.563 23.3083 27.7324 23.3083 27.9077C23.3083 28.9123 24.1256 29.7295 25.1301 29.7295C26.1346 29.7295 26.9519 28.9123 26.9519 27.9077C26.9519 26.9033 26.1346 26.086 25.1301 26.086C24.756 26.086 24.4079 26.1995 24.1183 26.3937L23.2461 25.7559C23.2925 25.5953 23.318 25.4259 23.318 25.2505C23.318 24.246 22.5007 23.4288 21.4962 23.4288C20.4917 23.4288 19.6744 24.246 19.6744 25.2505C19.6744 25.6679 19.8158 26.0527 20.0527 26.3602L19.3753 27.4287ZM18.9869 29.7802C18.6716 29.7802 18.4151 29.5237 18.4151 29.2084C18.4151 28.8931 18.6716 28.6366 18.9869 28.6366C19.3022 28.6366 19.5587 28.8931 19.5587 29.2084C19.5587 29.5237 19.3022 29.7802 18.9869 29.7802ZM25.1302 27.336C25.4455 27.336 25.702 27.5925 25.702 27.9077C25.702 28.223 25.4455 28.4795 25.1302 28.4795C24.8149 28.4795 24.5584 28.223 24.5584 27.9077C24.5583 27.5925 24.8149 27.336 25.1302 27.336ZM21.4962 24.6787C21.8115 24.6787 22.068 24.9352 22.068 25.2505C22.068 25.5658 21.8115 25.8223 21.4962 25.8223C21.1809 25.8223 20.9244 25.5658 20.9244 25.2505C20.9244 24.9352 21.1809 24.6787 21.4962 24.6787Z" fill="white"/>
</svg>
