<svg width="46" height="46" viewBox="0 0 46 46" fill="none" xmlns="http://www.w3.org/2000/svg">
<g clip-path="url(#clip0_1_3623)">
<path d="M36.2893 28.1195C35.368 27.1603 34.2568 26.6474 33.0791 26.6474C31.9109 26.6474 30.7902 27.1508 29.8309 28.11L26.8297 31.1018C26.5828 30.9688 26.3358 30.8453 26.0984 30.7219C25.7565 30.5509 25.4336 30.3895 25.1581 30.2185C22.3469 28.433 19.792 26.1061 17.3416 23.0953C16.1544 21.5947 15.3566 20.3315 14.7773 19.0494C15.5561 18.3371 16.2779 17.5962 16.9807 16.8839C17.2467 16.618 17.5126 16.3426 17.7785 16.0766C19.773 14.0821 19.773 11.4988 17.7785 9.50432L15.1857 6.91149C14.8913 6.61707 14.5873 6.31314 14.3024 6.00922C13.7326 5.42037 13.1342 4.81253 12.5169 4.24268C11.5956 3.33091 10.4939 2.84654 9.3352 2.84654C8.1765 2.84654 7.05578 3.33091 6.10603 4.24268L6.08703 4.26167L2.85786 7.51933C1.64218 8.73502 0.948854 10.2166 0.796894 11.9357C0.568952 14.709 1.38574 17.2923 2.01258 18.9829C3.55119 23.1333 5.84959 26.9798 9.27821 31.1018C13.4381 36.069 18.4434 39.9915 24.1609 42.7553C26.3453 43.7905 29.2611 45.0157 32.5187 45.2246C32.7182 45.2341 32.9271 45.2436 33.1171 45.2436C35.311 45.2436 37.1535 44.4553 38.5972 42.8882C38.6067 42.8692 38.6257 42.8597 38.6352 42.8408C39.129 42.2424 39.6989 41.701 40.2972 41.1217C40.7056 40.7323 41.1235 40.3239 41.5319 39.8965C42.4722 38.9183 42.966 37.7786 42.966 36.6104C42.966 35.4327 42.4627 34.3024 41.5034 33.3527L36.2893 28.1195ZM39.6894 38.1205C39.6799 38.1205 39.6799 38.13 39.6894 38.1205C39.319 38.5194 38.9391 38.8803 38.5307 39.2792C37.9133 39.868 37.2865 40.4854 36.6977 41.1787C35.7384 42.2044 34.6082 42.6888 33.1266 42.6888C32.9841 42.6888 32.8322 42.6888 32.6897 42.6793C29.8689 42.4988 27.2476 41.3971 25.2816 40.4569C19.906 37.8545 15.1857 34.16 11.2632 29.4777C8.02454 25.5742 5.85909 21.9651 4.42496 18.0901C3.54169 15.7252 3.21877 13.8827 3.36123 12.1446C3.45621 11.0334 3.8836 10.1122 4.6719 9.32387L7.91056 6.0852C8.37594 5.64831 8.86982 5.41088 9.35419 5.41088C9.95254 5.41088 10.4369 5.77178 10.7408 6.0757L10.7693 6.1042C11.3487 6.64556 11.8995 7.20591 12.4789 7.80426C12.7733 8.10818 13.0772 8.4121 13.3812 8.72552L15.974 11.3184C16.9807 12.3251 16.9807 13.2559 15.974 14.2626C15.6986 14.538 15.4326 14.8135 15.1572 15.0794C14.3594 15.8962 13.5996 16.656 12.7733 17.3968C12.7543 17.4158 12.7353 17.4253 12.7258 17.4443C11.909 18.2611 12.061 19.0589 12.232 19.6002L12.2604 19.6857C12.9348 21.3193 13.8845 22.8579 15.3282 24.6909L15.3377 24.7004C17.959 27.9296 20.7228 30.4464 23.7715 32.3744C24.1609 32.6214 24.5598 32.8208 24.9397 33.0108C25.2816 33.1817 25.6045 33.3432 25.8799 33.5141C25.9179 33.5331 25.9559 33.5616 25.9939 33.5806C26.3168 33.7421 26.6208 33.8181 26.9342 33.8181C27.7225 33.8181 28.2163 33.3242 28.3778 33.1627L31.626 29.9146C31.9489 29.5917 32.4618 29.2023 33.0601 29.2023C33.6489 29.2023 34.1333 29.5727 34.4277 29.8956L34.4467 29.9146L39.6799 35.1477C40.6581 36.1165 40.6581 37.1137 39.6894 38.1205ZM25.0442 10.948C27.5325 11.3658 29.7929 12.5435 31.5975 14.3481C33.402 16.1526 34.5702 18.413 34.9976 20.9014C35.1021 21.5282 35.6434 21.9651 36.2608 21.9651C36.3368 21.9651 36.4032 21.9556 36.4792 21.9461C37.182 21.8322 37.6474 21.1673 37.5334 20.4645C37.0206 17.4538 35.5959 14.709 33.421 12.534C31.2461 10.3591 28.5013 8.93447 25.4905 8.4216C24.7877 8.30763 24.1324 8.77301 24.0089 9.46633C23.8855 10.1597 24.3413 10.834 25.0442 10.948ZM45.6729 20.0941C44.8276 15.1364 42.4912 10.625 38.9011 7.03496C35.311 3.44488 30.7997 1.10848 25.842 0.2632C25.1486 0.139731 24.4933 0.614609 24.3698 1.30793C24.2559 2.01075 24.7212 2.66608 25.4241 2.78955C29.8499 3.53986 33.8864 5.63882 37.0966 8.83949C40.3067 12.0497 42.3962 16.0861 43.1465 20.512C43.251 21.1388 43.7923 21.5757 44.4097 21.5757C44.4857 21.5757 44.5521 21.5662 44.6281 21.5567C45.3214 21.4523 45.7963 20.7874 45.6729 20.0941Z" fill="#C90F16"/>
</g>
<defs>
<clipPath id="clip0_1_3623">
<rect width="45" height="45" fill="white" transform="translate(0.722656 0.243652)"/>
</clipPath>
</defs>
</svg>
