<svg width="13" height="13" viewBox="0 0 13 13" fill="none" xmlns="http://www.w3.org/2000/svg">
<g clip-path="url(#clip0_1_34122)">
<path d="M4.68747 7.42811C4.5044 7.61113 4.5044 7.90794 4.68747 8.09101C4.87054 8.27409 5.16733 8.27404 5.35037 8.09099L6.60991 6.83146C6.79436 6.64703 6.79063 6.34928 6.60991 6.16855L5.35035 4.90902C5.1673 4.72595 4.87052 4.72598 4.68744 4.90902C4.50437 5.09207 4.50437 5.38888 4.68744 5.57195L5.14677 6.03126L1.26367 6.03123C1.0048 6.03123 0.794922 6.24109 0.794922 6.49998C0.794922 6.75887 1.00478 6.96873 1.26367 6.96873L5.1468 6.96876L4.68747 7.42811Z" fill="#C90F16"/>
<path d="M11.623 0.5H3.98242C3.72353 0.5 3.51367 0.709859 3.51367 0.96875V2.75C3.51367 3.00889 3.72353 3.21875 3.98242 3.21875C4.24131 3.21875 4.45117 3.00889 4.45117 2.75V1.4375H11.1543V11.5625H4.45117V10.25C4.45117 9.99111 4.24131 9.78125 3.98242 9.78125C3.72353 9.78125 3.51367 9.99111 3.51367 10.25V12.0312C3.51367 12.2901 3.72353 12.5 3.98242 12.5H11.623C11.8819 12.5 12.0918 12.2901 12.0918 12.0312V0.96875C12.0918 0.709859 11.8819 0.5 11.623 0.5Z" fill="#C90F16"/>
</g>
<defs>
<clipPath id="clip0_1_34122">
<rect width="12" height="12" fill="white" transform="translate(0.443359 0.5)"/>
</clipPath>
</defs>
</svg>
