<svg width="972" height="763" viewBox="0 0 972 763" fill="none" xmlns="http://www.w3.org/2000/svg">
<g clip-path="url(#clip0_1_836)">
<g opacity="0.2">
<path d="M217.652 186.799C205.457 181.063 185.287 190.39 178.854 204.038C166.576 230.09 206.284 267.821 220.722 263.772C236.858 259.246 240.043 197.329 217.652 186.799Z" stroke="#16171A" stroke-width="20" stroke-miterlimit="10" stroke-linecap="round" stroke-dasharray="50 50"/>
<path d="M156.645 245.807C152.292 243.289 106.185 216.614 80.0933 237.726C61.7713 252.548 61.5971 284.233 75.365 302.039C102.634 337.306 187.191 321.494 195.964 296.258C201.872 279.266 174.133 255.927 156.645 245.807Z" stroke="#16171A" stroke-width="20" stroke-miterlimit="10" stroke-linecap="round" stroke-dasharray="50 50"/>
<path d="M215.973 681.304C328.2 653.445 455.719 625.083 653.732 629.914C764.474 632.615 789.568 598.246 873.497 555.513C948.304 517.427 985.045 441.692 962.48 398.769C939.699 355.436 870.31 372.688 813.483 308.183C787.603 278.805 792.157 258.214 777.216 225.635C729.9 122.478 552.562 41.8486 465.114 84.52C349.583 140.892 448.351 384.47 319.209 451.008C237.521 493.099 175.778 412.298 95.1199 473.979C55.1547 504.542 6.2756 547.414 2.49565 593.963C2.49565 593.963 -2.79717 707.771 215.973 681.304Z" stroke="#16171A" stroke-width="20" stroke-miterlimit="10" stroke-linecap="round" stroke-dasharray="50 50"/>
<path opacity="0.55" d="M836.018 554.549C836.018 554.549 815.689 581.505 795.355 618.491C776.275 653.207 757.984 701.802 755.712 740.193C688.67 732.914 592.429 732.252 485.686 732.252C341.272 732.252 273.279 736.789 214.65 739.751C140.789 647.276 -18.6309 479.621 123.115 411.665C123.115 411.665 133.332 408.553 148.651 401.868C197.133 380.705 296.761 323.759 285.679 216.389C285.679 216.389 281.904 196.354 281.904 168.475C281.904 103.287 302.539 -4.76858 440.302 0.163101C523.728 3.15387 600.56 45.6113 647.011 113.57C692.573 180.224 765.425 262.235 824.753 215.414C838.448 204.603 856.556 200.597 873.462 205.35C916.166 217.347 964.679 279.449 836.018 554.549Z" fill="#C90F16"/>
</g>
<path opacity="0.15" d="M759.237 740.323C759.237 746.22 636.803 751 485.775 751C400.558 751 324.447 749.478 274.294 747.092C262.742 746.542 252.569 745.947 243.979 745.314C238.32 744.897 233.349 744.463 229.124 744.015C218.251 742.868 212.312 741.624 212.312 740.323C212.312 738.669 221.952 737.1 239.154 735.704C246.2 735.131 254.512 734.586 263.951 734.079C313.619 731.392 394.471 729.646 485.772 729.646C566.084 729.646 638.309 730.995 688.339 733.15C732.393 735.045 759.237 737.561 759.237 740.323Z" fill="black"/>
<path d="M507.697 740.843L464.021 740.859L463.91 399.607L463.833 158.2L463.824 128.868C463.822 121.894 469.472 116.239 476.445 116.236L494.873 116.232C501.846 116.23 507.501 121.88 507.503 128.854L507.512 158.184L507.589 399.592L507.697 740.843Z" fill="#C90F16"/>
<path opacity="0.1" d="M507.554 158.191H463.875V399.598H507.554V158.191Z" fill="black"/>
<path d="M649.504 391.641L322.122 391.744C314.63 391.746 308.557 385.677 308.554 378.184L308.488 174.056C308.486 166.563 314.555 160.489 322.047 160.487L649.429 160.383C656.921 160.381 662.994 166.451 662.997 173.943L663.063 378.072C663.065 385.562 656.996 391.638 649.504 391.641Z" fill="#C90F16"/>
<path d="M433.012 282.901L419.59 282.905L419.597 306.5L387.085 306.512L387.079 282.916L338.478 282.932L338.469 258.754L389.13 184.62L419.557 184.611L419.581 258.313L433.003 258.309L433.012 282.901ZM387.07 258.32L387.066 244.147C387.066 241.478 387.16 237.88 387.355 233.35C387.546 228.82 387.699 226.445 387.811 226.222H386.894C385.006 230.503 382.867 234.506 380.478 238.229L366.979 258.326L387.07 258.32Z" fill="white"/>
<path d="M529.619 245.684C529.625 267.25 526.017 283.051 518.797 293.084C511.575 303.119 500.517 308.139 485.622 308.144C471.06 308.148 460.082 302.914 452.688 292.438C445.293 281.964 441.593 266.388 441.586 245.71C441.579 224.034 445.185 208.136 452.408 198.017C459.628 187.9 470.688 182.836 485.582 182.832C500.087 182.827 511.052 188.09 518.475 198.621C525.898 209.155 529.612 224.841 529.619 245.684ZM474.348 245.702C474.353 259.486 475.217 268.962 476.942 274.132C478.667 279.299 481.558 281.884 485.616 281.882C489.729 281.88 492.631 279.211 494.324 273.876C496.018 268.538 496.863 259.147 496.858 245.695C496.854 232.188 495.989 222.726 494.265 217.307C492.54 211.888 489.649 209.179 485.593 209.182C481.536 209.184 478.647 211.797 476.927 217.022C475.202 222.247 474.344 231.809 474.348 245.702Z" fill="white"/>
<path d="M633.084 282.837L619.662 282.841L619.669 306.437L587.157 306.448L587.151 282.852L538.55 282.868L538.543 258.69L589.204 184.556L619.631 184.547L619.655 258.249L633.077 258.245L633.084 282.837ZM587.142 258.256L587.138 244.083C587.138 241.414 587.232 237.817 587.427 233.286C587.618 228.756 587.771 226.381 587.883 226.158H586.966C585.078 230.439 582.939 234.442 580.55 238.165L567.051 258.262L587.142 258.256Z" fill="white"/>
<path d="M436.695 368.87H419.551V338.111H436.695V341.287H423.126V351.197H435.875V354.353H423.126V365.672H436.695V368.87Z" fill="white"/>
<path d="M447.089 356.077V368.87H443.512V338.111H451.947C455.721 338.111 458.508 338.834 460.31 340.279C462.112 341.724 463.014 343.898 463.014 346.801C463.014 350.868 460.952 353.618 456.828 355.047L465.179 368.87H460.952L453.504 356.077H447.089ZM447.089 353.007H451.991C454.516 353.007 456.367 352.507 457.544 351.503C458.722 350.5 459.311 348.995 459.311 346.991C459.311 344.957 458.711 343.49 457.511 342.593C456.312 341.695 454.386 341.245 451.735 341.245H447.087V353.007H447.089Z" fill="white"/>
<path d="M473.722 356.077V368.87H470.145V338.111H478.58C482.353 338.111 485.141 338.834 486.943 340.279C488.744 341.724 489.646 343.898 489.646 346.801C489.646 350.868 487.584 353.618 483.46 355.047L491.812 368.87H487.584L480.137 356.077H473.722ZM473.722 353.007H478.624C481.149 353.007 482.999 352.507 484.177 351.503C485.355 350.5 485.944 348.995 485.944 346.991C485.944 344.957 485.344 343.49 484.144 342.593C482.944 341.695 481.019 341.245 478.368 341.245H473.719V353.007H473.722Z" fill="white"/>
<path d="M523.474 353.449C523.474 358.371 522.23 362.242 519.741 365.063C517.251 367.882 513.791 369.291 509.358 369.291C504.828 369.291 501.333 367.906 498.871 365.136C496.41 362.366 495.18 358.455 495.18 353.407C495.18 348.4 496.415 344.518 498.882 341.761C501.35 339.004 504.857 337.628 509.402 337.628C513.819 337.628 517.271 339.031 519.752 341.836C522.233 344.639 523.474 348.51 523.474 353.449ZM498.966 353.449C498.966 357.615 499.853 360.773 501.628 362.926C503.401 365.079 505.979 366.155 509.36 366.155C512.767 366.155 515.341 365.083 517.081 362.937C518.821 360.791 519.69 357.628 519.69 353.449C519.69 349.311 518.823 346.172 517.092 344.033C515.361 341.894 512.796 340.824 509.402 340.824C505.995 340.824 503.403 341.9 501.628 344.053C499.853 346.208 498.966 349.34 498.966 353.449Z" fill="white"/>
<path d="M533.909 356.077V368.87H530.332V338.111H538.767C542.541 338.111 545.328 338.834 547.13 340.279C548.932 341.724 549.834 343.898 549.834 346.801C549.834 350.868 547.772 353.618 543.648 355.047L551.999 368.87H547.772L540.324 356.077H533.909ZM533.909 353.007H538.812C541.337 353.007 543.187 352.507 544.365 351.503C545.542 350.5 546.131 348.995 546.131 346.991C546.131 344.957 545.531 343.49 544.332 342.593C543.132 341.695 541.207 341.245 538.556 341.245H533.907V353.007H533.909Z" fill="white"/>
<path d="M692.77 696.055C692.77 696.055 694.625 718.882 691.414 723.931L712.989 728.662L708.25 691.141L692.77 696.055Z" fill="#DB965F"/>
<path d="M691.462 738.325C691.462 738.325 673.418 741.697 659.915 737.769C657.904 737.184 656.719 735.213 657.26 733.296C657.915 730.974 660.314 728.25 667.673 727.451C667.673 727.451 687.704 720.299 693.478 714.167C693.478 714.167 704.533 719.99 711.482 716.15C711.482 716.15 716.446 719.851 716.951 726.739C717.318 731.75 713.277 736.084 707.962 736.452C702.387 736.836 694.984 737.476 691.462 738.325Z" fill="#040C2B"/>
<path d="M721.665 694.718C721.665 694.718 723.52 717.546 720.309 722.595L741.883 727.326L737.144 689.804L721.665 694.718Z" fill="#DB965F"/>
<path d="M719.853 739.511C719.853 739.511 701.809 742.884 688.305 738.955C686.294 738.371 685.11 736.399 685.65 734.483C686.305 732.16 688.705 729.436 696.064 728.638C696.064 728.638 716.095 721.485 721.868 715.354C721.868 715.354 733.57 719.987 740.521 716.148C740.521 716.148 744.839 721.035 745.342 727.923C745.708 732.934 741.668 737.268 736.353 737.636C730.778 738.022 723.375 738.662 719.853 739.511Z" fill="#040C2B"/>
<path d="M724.3 525.747L706.278 609.843L710.431 698.62L706.045 699.057L688.093 700.841L675.573 614.837C674.297 606.061 673.946 597.188 674.524 588.345L679.413 513.695L725.176 521.675L724.3 525.747Z" fill="#040C2B"/>
<path opacity="0.15" d="M706.279 609.843L710.431 698.62L706.045 699.056L694.688 611.352L695.83 524.507L724.301 525.746L706.279 609.843Z" fill="black"/>
<path d="M744.24 519.207C744.24 519.207 750.294 534.037 745.392 569.54L740.535 614.435L741.541 703.166L718.116 703.439L705.87 627.633C703.693 613.892 702.829 599.995 703.287 586.109L705.722 512.442L744.24 519.207Z" fill="#040C2B"/>
<path d="M675.562 490.819L676.489 488.338L686.536 460.803L678.493 459.601L674.852 459.056L667.407 457.943L663.834 472.554L662.943 476.2L624.423 464.407C624.423 464.407 622.469 458.443 616.325 452.347C614.949 452.689 614.336 454.354 615.143 455.556L617.513 459.087C617.513 459.087 607.819 451.531 601.379 453.915C601.379 453.915 592.476 457.89 596.241 465.947C596.241 465.947 597.418 474.255 615.937 476.683L669.632 493.651C672.018 494.403 674.57 493.183 675.562 490.819Z" fill="#DB965F"/>
<path d="M728.941 420.973L728.848 437.792L703.859 442.354L689.344 434.941L695.622 426.795L699.094 422.294C699.788 421.392 700.084 420.229 699.905 419.091L696.877 399.781L721.224 388.853L719.171 404.197L718.836 406.718C718.099 414.892 728.941 420.973 728.941 420.973Z" fill="#C9885B"/>
<path opacity="0.15" d="M721.225 388.853L718.929 406.244C710.394 421.59 699.592 425.185 695.625 426.795L699.096 422.294C699.791 421.392 700.086 420.229 699.908 419.091L696.88 399.781L721.225 388.853Z" fill="black"/>
<path d="M724.717 390.564L721.868 397.88C718.756 402.582 715.678 406.195 712.824 408.968C704.722 416.841 698.441 417.931 698.441 417.931C695.748 418.379 693.556 416.339 691.792 413.083C686.814 403.904 685.211 385.052 685.211 385.052L716.267 381.252L724.717 390.564Z" fill="#DB965F"/>
<path d="M724.868 396.274C724.515 408.176 718.805 407.393 718.805 407.393L719.297 401.683L721.41 398.167C724.718 389.803 718.838 390.754 718.838 390.754C714.062 392.084 714.245 398.167 714.245 398.167H712.591C711.488 396.455 711.12 390.564 711.12 390.564C699.478 376.676 685.895 391.153 685.895 391.153C674.983 383.136 683.89 377.567 683.89 377.567C682.331 365.985 693.689 368.213 693.689 368.213C693.689 368.213 701.26 361.532 705.714 365.762C705.714 365.762 712.617 365.317 715.067 372.443C715.067 372.443 721.302 371.107 723.306 377.567C723.306 377.567 723.481 377.778 723.756 378.175C726.751 382.472 727.43 387.957 725.693 392.9C725.254 394.144 724.892 395.416 724.868 396.274Z" fill="black"/>
<path d="M680.065 478.179L674.958 476.346L664.387 472.552L662.059 471.716C667.87 440.13 673.511 433.71 676.089 432.521C677.02 432.093 677.549 432.345 677.549 432.345L679.044 459.601L680.065 478.179Z" fill="white"/>
<path opacity="0.15" d="M687.089 461.749L677.041 488.719L674.957 476.975L675.403 460.038L676.088 434.047C677.019 433.628 677.548 433.875 677.548 433.875L679.044 460.572L687.089 461.749Z" fill="black"/>
<path d="M750.807 467.151L750.502 482.828L750.366 489.791L750.125 502.081L750.028 507.105L749.991 509.068L749.894 514.068L749.823 517.698L749.847 519.319L749.947 526.307L750.033 532.359L673.203 529.24L673.463 525.987L674.024 519L674.42 514.068L674.917 508.753L675.071 507.107L675.569 501.767L676.688 489.791L677.281 483.452C677.298 483.245 677.309 483.036 677.301 482.828V482.791L676.738 465.514L676.509 458.551L676.068 445.022L675.841 438.059L675.711 434.12C675.68 433.181 676.207 432.32 677.038 431.948L692.91 424.863L693.547 424.579L699.323 422C697.098 427.836 699.314 431.001 702.084 432.704C703.374 433.498 704.801 433.959 706.255 434.096C706.603 434.127 706.947 434.142 707.295 434.136C708.755 434.122 710.224 433.78 711.583 433.128C728.473 425.013 724.804 417.991 724.804 417.991L729.962 421.48L730.822 422.062L749.159 434.466L749.342 438.062L749.698 445.025L750.386 458.554L750.553 461.842L750.741 465.514L750.805 466.783C750.807 466.906 750.809 467.027 750.807 467.151Z" fill="white"/>
<path d="M749.694 445.024H676.067L675.84 438.061H749.339L749.694 445.024Z" fill="#E3E9F7"/>
<path d="M750.735 465.514H676.737L676.508 458.551H750.382L750.55 461.842L750.735 465.514Z" fill="#E3E9F7"/>
<path d="M750.499 482.828L750.362 489.791H676.684L677.277 483.452C677.295 483.245 677.306 483.035 677.297 482.828H750.499Z" fill="#E3E9F7"/>
<path d="M750.127 502.081L750.027 507.105L749.99 509.066L674.918 508.75L675.07 507.105L675.571 501.765L750.127 502.081Z" fill="#E3E9F7"/>
<path d="M749.944 526.304L673.461 525.985L674.023 518.997L749.843 519.317L749.944 526.304Z" fill="#E3E9F7"/>
<path opacity="0.15" d="M750.808 466.966L749.818 517.698L746.583 517.901L739.199 461.017L750.548 461.84L750.808 466.966Z" fill="black"/>
<path d="M687.801 525.974C687.801 525.974 694.73 532.315 726.928 554.15C745.135 566.499 759.578 591.94 767.727 612.377C782.502 649.431 750.084 671.266 780.077 718.025C780.077 718.025 791.544 745.815 853.073 743.83H971.169" stroke="#696969" stroke-width="45" stroke-miterlimit="10"/>
<path d="M677.227 505.526L665.148 521.14L686.824 537.911L698.903 522.297L677.227 505.526Z" fill="#C90F16"/>
<path opacity="0.1" d="M677.223 505.525L665.145 521.139L674.696 528.53L686.775 512.916L677.223 505.525Z" fill="black"/>
<path d="M691.238 501.82L665.124 535.579C660.994 540.919 653.319 541.898 647.98 537.767L609.336 507.866L650.406 454.773L689.05 484.674C694.387 488.803 695.366 496.481 691.238 501.82Z" fill="#C90F16"/>
<path opacity="0.1" d="M672.631 471.97L631.561 525.063L629.724 523.642L626.385 527.959L614.836 519.024C614.959 518.83 615.094 518.64 615.237 518.455L662.134 457.83C662.277 457.645 662.427 457.466 662.584 457.296L674.133 466.231L670.794 470.547L672.631 471.97Z" fill="black"/>
<path d="M674.135 466.233L626.387 527.961L584.706 495.711C580.944 492.799 580.254 487.387 583.165 483.626L620.371 435.527C623.282 431.764 628.694 431.074 632.454 433.985L674.135 466.233Z" fill="#C90F16"/>
<path opacity="0.1" d="M636.788 438.216L589.891 498.841C589.748 499.026 589.598 499.204 589.441 499.374L584.706 495.711C580.944 492.799 580.254 487.387 583.165 483.626L620.371 435.527C623.282 431.764 628.694 431.074 632.454 433.985L637.189 437.649C637.065 437.841 636.931 438.03 636.788 438.216Z" fill="black"/>
<path d="M579.175 498.333L579.667 498.713C582.22 500.689 585.89 500.219 587.866 497.667L635.142 436.551C637.118 433.997 636.648 430.326 634.097 428.352L633.605 427.973C631.051 425.997 627.381 426.467 625.405 429.019L578.129 490.135C576.153 492.687 576.621 496.357 579.175 498.333Z" fill="#C90F16"/>
<path opacity="0.1" d="M677.017 487.124L674.629 485.277L644.928 523.671L647.315 525.518L677.017 487.124Z" fill="black"/>
<path opacity="0.1" d="M683.634 492.238L681.246 490.39L651.545 528.784L653.933 530.632L683.634 492.238Z" fill="black"/>
<path d="M759.262 458.983L742.358 468.677L752.832 494.145L728.946 536.907C728.946 536.907 722.881 537.476 715.716 542.229C715.716 543.691 717.138 544.697 718.455 544.167L722.33 542.608C722.33 542.608 712.959 550.59 713.693 557.621C713.693 557.621 715.347 567.505 723.8 565.603C723.8 565.603 731.885 566.364 738.501 548.307L766.247 498.772C767.601 496.355 767.978 493.481 767.294 490.777L759.262 458.983Z" fill="#DB965F"/>
<path d="M748.189 434.385C748.189 434.385 759.443 434.087 763.485 473.999L744.008 481.412C744.008 481.41 729.033 436.963 748.189 434.385Z" fill="white"/>
<path opacity="0.15" d="M709.072 436.414C707.61 436.07 707.367 434.321 707.352 434.191C707.603 435.218 708.34 435.935 709.072 436.414Z" fill="black"/>
<path d="M714.177 398.056L713.072 406.974C712.909 408.299 712.272 409.523 711.275 410.414C703.936 416.978 698.442 417.933 698.442 417.933C695.749 418.381 693.557 416.341 691.793 413.085C702.919 412.055 712.417 397.194 712.417 397.194L714.177 398.056Z" fill="black"/>
<path d="M261.151 709.498L258.531 727.098L268.826 730.96L275.742 723.872L272.842 708.721L261.151 709.498Z" fill="#DB965F"/>
<path d="M269.984 719.897C269.984 719.897 272.394 715.799 274.17 715.662C274.17 715.662 291.804 729.057 293.903 732.136C293.903 732.136 302.235 740.674 285.203 740.859L266.877 735.826C266.877 735.826 251.064 734.414 257.239 721.882L259.712 719.18C259.709 719.178 262.239 725.905 269.984 719.897Z" fill="#040C2B"/>
<path d="M292.808 598.676L284.837 646.937L275.127 714.632L262.901 713.684L259.328 713.408L262.138 644.466L254.75 538.887L287.559 536.708C287.557 536.708 295.897 567.304 292.808 598.676Z" fill="#040C2B"/>
<path opacity="0.15" d="M271.127 580.227C271.127 580.227 297.056 641.295 271.242 661.853L262.897 713.682L259.324 713.406L262.134 644.464L254.746 538.885L276.835 537.418L271.127 580.227Z" fill="black"/>
<path d="M228.789 684.182L218.969 696.011L231.12 707.894L234.139 704.853L239.009 686.913L228.789 684.182Z" fill="#DB965F"/>
<path d="M214.28 693.858C214.28 693.858 211.828 696.862 213.221 706.43C213.221 706.43 214.34 709.008 213.535 713.986C213.535 713.986 213.632 726.86 225.823 733.627C225.823 733.627 232.737 735.063 233.255 722.905C233.255 722.905 233.91 708.249 235.478 699.921C235.478 699.921 227.294 702.835 223.051 691.094C223.051 691.092 220.329 687.965 214.28 693.858Z" fill="#040C2B"/>
<path d="M231.36 531.728C231.36 531.728 218.09 557.231 231.344 585.71L252.518 633.262C254.026 636.65 253.718 640.569 251.695 643.679L225.207 684.42L237.261 693.349L271.065 656.143C277.69 648.851 280.305 638.767 278.058 629.175L266.052 577.913L273.431 534.994L231.36 531.728Z" fill="#040C2B"/>
<path d="M238.828 408.171C238.828 408.171 228.624 441.244 232.781 451.829C236.938 462.413 237.317 462.601 237.317 462.601C237.317 462.601 253.568 466.191 254.135 466.568C254.702 466.946 274.733 449.369 274.733 449.369L269.442 416.484L252.245 405.333L238.828 408.171Z" fill="black"/>
<path d="M272.748 453.057L269.725 467.61L260.857 467.808L244.403 468.176L237.789 460.428C238.799 459.334 239.538 457.142 240.076 454.398C240.552 451.961 240.872 449.089 241.082 446.16C241.697 437.57 241.379 428.489 241.379 428.489L264.434 435.86C265.19 446.82 272.748 453.057 272.748 453.057Z" fill="#C9885B"/>
<path d="M239.49 412.234C239.49 412.234 229.672 441.875 252.305 449.072C253.28 449.383 254.33 449.367 255.3 449.041C259.468 447.638 270.109 441.903 269.348 419.982C269.348 419.984 259.711 385.966 239.49 412.234Z" fill="#DB965F"/>
<path d="M283.141 456.522V488.589H282.007L280.801 455.744L283.141 456.522Z" fill="#16171A"/>
<path d="M297.692 522.039L289.444 526.282L285.223 528.455L284.465 528.843L284.566 526.763L284.725 523.589L285.102 515.951L286.273 492.272L286.637 484.903L294.102 482.729L296.839 512.696L297.384 518.642L297.692 522.039Z" fill="#DB965F"/>
<path d="M350.31 501.099C347.596 506.706 335.802 511.973 335.802 511.973L299.411 535.947C297.08 537.485 294.332 537.736 291.924 536.944C289.56 536.172 287.522 534.39 286.532 531.832L285.222 528.455L284.567 526.763L283.52 524.061L284.726 523.592L288.687 522.041L297.382 518.642L317.442 510.801C321.039 508.88 324.486 505.777 326.612 503.664C327.765 502.519 328.782 501.24 329.6 499.835C331.265 496.986 333.625 494.229 335.568 492.182C337.513 490.137 339.039 488.805 339.039 488.805C340.042 489.791 340.128 491.381 339.235 492.469L335.524 496.997L340.395 494.123C342.045 493.15 343.944 492.652 345.856 492.766C353.01 493.19 350.31 501.099 350.31 501.099Z" fill="#DB965F"/>
<path d="M305.659 509.502L295.735 512.255L286.645 514.776L283.998 515.51L283.174 515.74L282.117 515.848L283.041 490.294L284.252 456.8C294.48 460.688 295.834 471.516 295.834 471.516L305.659 509.502Z" fill="#F6471E"/>
<path opacity="0.15" d="M289.445 526.282C289.161 524.827 288.909 523.411 288.687 522.039C288.294 519.633 287.985 517.356 287.749 515.217C286.212 501.368 286.448 498.32 286.448 498.32L285.692 493.973L284.369 484.524C284.426 489.482 285.233 504.399 285.083 515.958L285.101 515.951L285.079 516.428L284.726 523.589L283.52 524.059L284.567 526.761L284.466 528.841L285.224 528.45L286.534 531.827C286.922 532.826 287.465 533.709 288.131 534.454C289.165 535.623 290.484 536.468 291.926 536.94C290.91 533.192 290.096 529.63 289.445 526.282Z" fill="black"/>
<path d="M291.139 554.968C290.486 548.096 289.291 540.7 288.131 534.458C286.656 526.518 285.235 520.442 285.052 519.666C285.039 519.608 285.033 519.553 285.035 519.494C285.05 518.444 285.066 517.425 285.081 516.428C285.081 516.271 285.127 506.415 285.127 506.258C285.24 497.592 285.218 496.392 285.187 494.246C285.158 492.325 285.026 490.404 284.79 488.496L284.353 484.99L285.304 458.679L285.357 457.241C285.024 457.115 284.68 456.996 284.329 456.886C284.064 456.8 283.795 456.721 283.522 456.648L283.145 456.522L280.805 455.744L272.751 453.057C272.751 453.057 268.204 460.711 259.819 462.138C254.645 463.018 248.007 461.527 240.077 454.396C240.07 454.389 240.064 454.385 240.057 454.378L226.624 458.988L224.07 459.866L220.782 460.995C220.782 460.995 220.665 461.061 220.449 461.231C222.066 464.91 224.593 471.524 226.291 480.133C227.564 486.578 228.371 494.14 227.987 502.422C227.253 503.946 226.957 504.959 226.873 505.281C226.856 505.349 226.849 505.42 226.854 505.49C227.063 509.895 227.176 514.165 227.213 518.243L227.081 521.975L227.224 521.959C227.215 528.009 227.045 533.585 226.807 538.506C226.441 545.989 224.657 552.749 225.034 556.34L291.139 554.968Z" fill="#F6471E"/>
<path opacity="0.15" d="M229.396 521.741C229.046 527.577 228.256 533.34 226.803 538.506C227.043 533.585 227.211 528.009 227.22 521.959L227.076 521.975L227.209 518.243C227.171 514.132 227.057 509.829 226.845 505.387C226.845 505.387 227.085 504.284 227.985 502.422C228.371 494.14 227.562 486.578 226.289 480.133L226.461 480.056C226.461 480.056 228.164 488.779 229.068 500.404C229.579 506.944 229.837 514.401 229.396 521.741Z" fill="black"/>
<path d="M216.244 478.004L213.789 523.742L226.45 526.576L227.017 496.337L216.244 478.004Z" fill="#DB965F"/>
<path d="M227.586 507.676L227.081 521.975L226.452 522.039L199.051 512.778L210.578 481.026C214.759 466.546 219.216 462.201 220.449 461.229C223.53 468.24 229.908 485.894 227.586 507.676Z" fill="#F6471E"/>
<path d="M243.739 541.801C243.739 541.801 225.215 545.33 216.834 576.428C216.834 576.428 212.834 599.797 211.762 605.321C194.119 696.191 144.671 740.874 63.1154 740.497C39.5293 740.389 16.188 740.303 0.710938 740.303" stroke="#696969" stroke-width="45" stroke-miterlimit="10"/>
<path d="M259.026 520.95L234.824 533.811L244.086 551.245L268.288 538.385L259.026 520.95Z" fill="#16171A"/>
<path opacity="0.1" d="M259.024 520.95L248.359 526.617L257.621 544.051L268.286 538.384L259.024 520.95Z" fill="black"/>
<path d="M286.527 490.009L292.303 500.881L365.417 462.027C366.919 461.229 367.953 459.901 368.414 458.392C368.875 456.884 368.76 455.205 367.964 453.703C366.369 450.702 362.645 449.561 359.641 451.156L286.527 490.009Z" fill="#696969"/>
<path d="M303.527 522.008L309.303 532.879L382.417 494.026C383.919 493.227 384.953 491.9 385.414 490.391C385.875 488.882 385.76 487.204 384.964 485.702C383.369 482.7 379.645 481.56 376.641 483.154L303.527 522.008Z" fill="#696969"/>
<path opacity="0.1" d="M344.971 458.97L286.52 490.029L292.294 500.899L350.746 469.84L344.971 458.97Z" fill="black"/>
<path opacity="0.1" d="M361.971 490.971L303.52 522.03L309.294 532.901L367.746 501.841L361.971 490.971Z" fill="black"/>
<path d="M245.857 514.941L265.881 552.632C269.048 558.592 276.447 560.857 282.408 557.69L325.556 534.761L294.061 475.483L250.914 498.413C244.955 501.58 242.69 508.98 245.857 514.941Z" fill="#C90F16"/>
<path d="M268.738 482.762L305.354 551.68L351.891 526.948C356.092 524.716 357.686 519.5 355.454 515.299L326.922 461.597C324.69 457.396 319.474 455.801 315.273 458.033L268.738 482.762Z" fill="#C90F16"/>
<path opacity="0.1" d="M269.248 488.673L300.742 547.95L302.793 546.86L305.354 551.68L318.248 544.827C318.158 544.613 318.058 544.406 317.948 544.198L281.986 476.511C281.876 476.304 281.759 476.103 281.633 475.909L268.738 482.762L271.299 487.581L269.248 488.673Z" fill="black"/>
<path d="M313.622 553.466L313.073 553.757C310.224 555.273 306.684 554.19 305.169 551.338L268.915 483.104C267.4 480.254 268.483 476.714 271.335 475.199L271.884 474.908C274.733 473.393 278.273 474.476 279.788 477.327L316.041 545.561C317.556 548.413 316.473 551.951 313.622 553.466Z" fill="#C90F16"/>
<path opacity="0.1" d="M285.111 545.72L287.777 544.303L265.003 501.433L262.336 502.85L285.111 545.72Z" fill="black"/>
<path opacity="0.1" d="M277.732 549.64L280.398 548.223L257.624 505.353L254.957 506.77L277.732 549.64Z" fill="black"/>
<path d="M283.99 532.193C279.088 536.035 266.18 535.586 266.18 535.586L222.957 541.128C220.187 541.483 217.609 540.502 215.794 538.733C214.01 536.999 212.963 534.505 213.196 531.772L213.503 528.164L213.657 526.355L213.904 523.468L215.195 523.576L219.433 523.925L228.737 524.694L250.202 526.465C254.278 526.32 258.737 525.047 261.577 524.083C263.117 523.561 264.592 522.859 265.944 521.957C268.692 520.129 272.024 518.689 274.666 517.705C277.31 516.723 279.268 516.196 279.268 516.196C279.736 517.524 279.116 518.989 277.835 519.575L272.511 522.012L278.15 521.571C280.06 521.421 281.983 521.809 283.65 522.751C289.889 526.276 283.99 532.193 283.99 532.193Z" fill="#DB965F"/>
<path d="M245.443 412.141C245.443 412.141 254.514 425.37 267.741 422.157C267.741 422.157 270.765 429.149 263.584 444.647C263.584 444.647 259.804 453.719 262.64 466.571C262.64 466.571 281.727 458.823 278.891 438.979C278.891 438.979 275.491 389.651 248.846 398.535C248.846 398.535 235.429 396.078 229.571 421.592C229.571 421.592 218.044 457.312 240.532 466.573C240.532 466.573 235.808 455.044 239.303 434.16C239.301 434.158 248.184 418.094 245.443 412.141Z" fill="black"/>
<path d="M242.574 433.5C242.971 435.682 242.144 437.66 240.73 437.916C239.315 438.174 237.848 436.612 237.451 434.431C237.054 432.25 237.881 430.271 239.295 430.015C240.711 429.757 242.179 431.319 242.574 433.5Z" fill="#DB965F"/>
<path d="M278.324 441.246C278.324 441.246 278.701 455.988 272.844 462.603C272.844 462.601 279.837 456.932 278.324 441.246Z" fill="black"/>
<path d="M229.058 430.049C229.058 430.049 225.179 454.405 233.431 466.666C233.431 466.666 223.09 455.722 229.058 430.049Z" fill="black"/>
</g>
<defs>
<clipPath id="clip0_1_836">
<rect width="971" height="763" fill="white" transform="translate(0.277344)"/>
</clipPath>
</defs>
</svg>
