<svg width="240" height="40" viewBox="0 0 240 40" fill="none" xmlns="http://www.w3.org/2000/svg">
<path d="M26.9121 14.415C26.9687 14.6001 27 14.7964 27 15V25C27 26.1046 26.1046 27 25 27H16.9775L26.585 19.0762H21.8809L26.9121 14.415ZM14.1055 22.1895H19.2451L14.5996 26.959C13.687 26.7735 13 25.9674 13 25V15C13 13.8954 13.8954 13 15 13H23.7822L14.1055 22.1895Z" fill="white"/>
<mask id="mask0_25718_276" style="mask-type:alpha" maskUnits="userSpaceOnUse" x="25" y="2" width="14" height="11">
<path d="M31.5 2.5L25 11.5L29.5 13L33.5 10C35 9.16667 38.1 7.5 38.5 7.5C39 7.5 39 4 39 3.5C39 3.1 37.3333 2.33333 36.5 2L31.5 2.5Z" fill="#D9D9D9"/>
</mask>
<g mask="url(#mask0_25718_276)">
<path d="M13.2479 30.4973C13.2479 30.2695 13.1783 30.0579 13.0597 29.8806L28.5849 17.0762H23.8808L35.162 6.62824C35.162 6.62824 35.6151 6.77945 35.8972 6.77945C36.8239 6.77945 37.5752 6.04396 37.5752 5.13663C37.5752 4.22937 36.8239 3.49382 35.8972 3.49382C34.9705 3.49382 34.2192 4.22931 34.2192 5.13663C34.2192 5.51629 34.4869 6.07382 34.4869 6.07382L30.349 9.82655H28.4325L31.2636 6.93736C31.2636 6.93736 31.4125 6.91255 31.6099 6.91255C32.2458 6.91255 32.7614 6.40776 32.7614 5.78513C32.7614 5.16251 32.2458 4.65772 31.6099 4.65772C30.9739 4.65772 30.4583 5.16251 30.4583 5.78513C30.4583 6.06035 30.6103 6.41499 30.6103 6.41499L16.1058 20.1892H21.2456L12.3164 29.3578C12.3164 29.3578 12.1889 29.3699 12.0964 29.3699C11.4604 29.3699 10.9448 29.8747 10.9448 30.4973C10.9448 31.1199 11.4604 31.6247 12.0964 31.6247C12.7323 31.6247 13.2479 31.1199 13.2479 30.4973ZM35.8972 4.391C36.3178 4.391 36.6588 4.72487 36.6588 5.13663C36.6588 5.54847 36.3178 5.88227 35.8972 5.88227C35.4766 5.88227 35.1355 5.5484 35.1355 5.13663C35.1355 4.7248 35.4766 4.391 35.8972 4.391ZM31.6099 5.27345C31.8986 5.27345 32.1326 5.50255 32.1326 5.7852C32.1326 6.06785 31.8986 6.29696 31.6099 6.29696C31.3212 6.29696 31.0872 6.06785 31.0872 5.7852C31.0872 5.50255 31.3212 5.27345 31.6099 5.27345ZM11.5737 30.4973C11.5737 30.2146 11.8077 29.9855 12.0964 29.9855C12.3851 29.9855 12.6191 30.2146 12.6191 30.4973C12.6191 30.7799 12.3851 31.009 12.0964 31.009C11.8077 31.009 11.5737 30.7799 11.5737 30.4973Z" fill="white"/>
</g>
<mask id="mask1_25718_276" style="mask-type:alpha" maskUnits="userSpaceOnUse" x="8" y="28" width="8" height="7">
<path d="M11 35L15.5 29L13 28L8 32V33.5L8.5 35H11Z" fill="#D9D9D9"/>
</mask>
<g mask="url(#mask1_25718_276)">
<path d="M10.7479 32.9973C10.7479 32.7695 10.6784 32.5579 10.5597 32.3806L26.0849 19.5762H21.3808L32.662 9.12824C32.662 9.12824 33.1151 9.27945 33.3972 9.27945C34.3239 9.27945 35.0752 8.54396 35.0752 7.63664C35.0752 6.72937 34.3239 5.99382 33.3972 5.99382C32.4705 5.99382 31.7192 6.72931 31.7192 7.63664C31.7192 8.01629 31.9869 8.57382 31.9869 8.57382L27.849 12.3266H25.9325L28.7636 9.43736C28.7636 9.43736 28.9125 9.41255 29.1099 9.41255C29.7458 9.41255 30.2614 8.90776 30.2614 8.28513C30.2614 7.66251 29.7458 7.15772 29.1099 7.15772C28.4739 7.15772 27.9583 7.66251 27.9583 8.28513C27.9583 8.56035 28.1103 8.91499 28.1103 8.91499L13.6058 22.6892H18.7456L9.8164 31.8578C9.8164 31.8578 9.68893 31.8699 9.59635 31.8699C8.96041 31.8699 8.44482 32.3747 8.44482 32.9973C8.44482 33.6199 8.96041 34.1247 9.59635 34.1247C10.2323 34.1247 10.7479 33.6199 10.7479 32.9973ZM33.3972 6.891C33.8178 6.891 34.1588 7.22487 34.1588 7.63664C34.1588 8.04847 33.8178 8.38227 33.3972 8.38227C32.9766 8.38227 32.6355 8.0484 32.6355 7.63664C32.6355 7.2248 32.9766 6.891 33.3972 6.891ZM29.1099 7.77345C29.3986 7.77345 29.6326 8.00255 29.6326 8.2852C29.6326 8.56785 29.3986 8.79696 29.1099 8.79696C28.8212 8.79696 28.5872 8.56785 28.5872 8.2852C28.5872 8.00255 28.8212 7.77345 29.1099 7.77345ZM9.07372 32.9973C9.07372 32.7146 9.30772 32.4855 9.59642 32.4855C9.88512 32.4855 10.1191 32.7146 10.1191 32.9973C10.1191 33.2799 9.88512 33.509 9.59642 33.509C9.30772 33.509 9.07372 33.2799 9.07372 32.9973Z" fill="white"/>
</g>
<path d="M38.3073 18.6911C37.6218 18.6911 37.0319 19.0926 36.7657 19.6697H31.2395L31.1737 18.2174H34.2365L35.3851 17.1587C35.5217 17.2654 35.6941 17.3295 35.882 17.3295C36.3246 17.3295 36.6834 16.9761 36.6834 16.5402C36.6834 16.1043 36.3246 15.7509 35.882 15.7509C35.5615 15.7509 35.2858 15.9366 35.1576 16.2043L34.1048 17.1469H31.1737V15.8169L31.8982 15.7412L33.588 13.9947C33.7533 14.0937 33.9466 14.1517 34.1542 14.1517C34.7575 14.1517 35.2465 13.6701 35.2465 13.0759C35.2465 12.4817 34.7575 12 34.1542 12C33.5509 12 33.0619 12.4817 33.0619 13.0759C33.0619 13.2248 33.0926 13.3666 33.1482 13.4956L31.7116 14.9735L31.1737 15.0168V12.865C31.1737 12.865 29.0329 14.7789 29 14.9411V25.2238L29.988 26.3592L30.2514 29.457L32.376 31.7804C32.2835 31.9791 32.2307 32.1993 32.2307 32.4322C32.2307 33.2981 32.9433 34 33.8225 34C34.7017 34 35.4143 33.2981 35.4143 32.4322C35.4143 31.5662 34.7017 30.8643 33.8225 30.8643C33.4984 30.8643 33.1973 30.9603 32.9459 31.1241L31.2944 29.2299L31.1737 25.5157L31.6348 25.4509L33.0754 26.749C33.048 26.8477 33.0321 26.9512 33.0321 27.0584C33.0321 27.7063 33.5654 28.2316 34.2233 28.2316C34.8811 28.2316 35.4144 27.7064 35.4144 27.0584C35.4144 26.4105 34.8811 25.8853 34.2233 25.8853C33.9804 25.8853 33.7548 25.9572 33.5665 26.0801L32.1288 24.5102H31.1737V23.1802L34.1707 23.1154L35.0928 23.9912H35.6181C35.7418 24.1333 35.9252 24.2237 36.1303 24.2237C36.5032 24.2237 36.8054 23.926 36.8054 23.5587C36.8054 23.1914 36.5032 22.8937 36.1303 22.8937C35.8078 22.8937 35.5385 23.1165 35.4715 23.4143L34.5658 22.3044H31.1737V20.7474H36.6614C36.8394 21.4804 37.5085 22.0254 38.3073 22.0254C39.2421 22.0254 40 21.279 40 20.3582C40 19.4375 39.2422 18.6911 38.3073 18.6911ZM35.882 16.1713C36.0888 16.1713 36.2565 16.3364 36.2565 16.5402C36.2565 16.744 36.0889 16.9091 35.882 16.9091C35.6752 16.9091 35.5074 16.744 35.5074 16.5402C35.5074 16.3364 35.6752 16.1713 35.882 16.1713ZM34.1542 12.5732C34.4362 12.5732 34.6647 12.7983 34.6647 13.076C34.6647 13.3537 34.4362 13.5788 34.1542 13.5788C33.8723 13.5788 33.6437 13.3537 33.6437 13.076C33.6437 12.7983 33.8723 12.5732 34.1542 12.5732ZM33.8226 31.8301C34.1603 31.8301 34.434 32.0997 34.434 32.4323C34.434 32.7649 34.1602 33.0345 33.8226 33.0345C33.4848 33.0345 33.2111 32.7649 33.2111 32.4323C33.2111 32.0997 33.4848 31.8301 33.8226 31.8301ZM34.2233 26.5905C34.4857 26.5905 34.6984 26.8001 34.6984 27.0585C34.6984 27.317 34.4856 27.5264 34.2233 27.5264C33.9608 27.5264 33.7482 27.3169 33.7482 27.0585C33.7481 26.8001 33.9608 26.5905 34.2233 26.5905ZM36.1303 23.2481C36.3045 23.2481 36.4458 23.3872 36.4458 23.5588C36.4458 23.7304 36.3045 23.8696 36.1303 23.8696C35.956 23.8696 35.8147 23.7304 35.8147 23.5588C35.8147 23.3872 35.956 23.2481 36.1303 23.2481ZM38.3073 20.9695C37.9645 20.9695 37.6867 20.6958 37.6867 20.3583C37.6867 20.0207 37.9646 19.7471 38.3073 19.7471C38.65 19.7471 38.9278 20.0207 38.9278 20.3583C38.9278 20.6958 38.65 20.9695 38.3073 20.9695Z" fill="white"/>
<path d="M9.74855 29.4557L10.012 26.357L11 25.2214V14.9358C10.9835 14.8543 10.4361 14.3316 9.89483 13.8311V10.4152L7.52359 8.1223L7.39671 8.27698C7.51416 8.05997 7.58118 7.81247 7.58118 7.54936C7.58118 6.6937 6.87713 6 6.00855 6C5.14005 6 4.43592 6.69364 4.43592 7.54936C4.43592 8.40508 5.13998 9.09871 6.00855 9.09871C6.39594 9.09871 6.74998 8.96012 7.02409 8.73133L6.93814 8.83613L8.82634 10.8046V12.8592V15.0115L8.28845 14.9682L6.85185 13.4899C6.90739 13.3609 6.93814 13.219 6.93814 13.07C6.93814 12.4757 6.44909 11.9939 5.84581 11.9939C5.24253 11.9939 4.75348 12.4757 4.75348 13.07C4.75348 13.6644 5.24253 14.1462 5.84581 14.1462C6.05337 14.1462 6.24672 14.0881 6.41199 13.9891L8.10179 15.7361L8.82634 15.8119V17.1422H5.89521L4.84244 16.1993C4.7142 15.9315 4.43852 15.7458 4.11802 15.7458C3.67544 15.7458 3.31661 16.0993 3.31661 16.5353C3.31661 16.9714 3.67544 17.3249 4.11802 17.3249C4.30591 17.3249 4.47828 17.2607 4.61493 17.154L5.76348 18.213H8.82634L8.76048 19.6657H3.23428C2.9681 19.0884 2.37821 18.6868 1.69274 18.6868C0.757891 18.6868 0 19.4334 0 20.3545C0 21.2755 0.757891 22.0221 1.69274 22.0221C2.49149 22.0221 3.16056 21.4769 3.33861 20.7438H8.82634V22.3012H5.43411L4.40019 23.1452C4.2766 22.9904 4.08516 22.8907 3.86974 22.8907C3.49684 22.8907 3.19458 23.1884 3.19458 23.5558C3.19458 23.9232 3.49684 24.221 3.86974 24.221C4.07478 24.221 4.25808 24.1306 4.38195 23.9884H4.90721L5.82935 23.1124L8.82634 23.1773V24.5076H7.87128L6.43358 26.0779C6.24522 25.955 6.01962 25.883 5.77681 25.883C5.11894 25.883 4.58569 26.4084 4.58569 27.0565C4.58569 27.7046 5.11894 28.23 5.77681 28.23C6.43461 28.23 6.96793 27.7046 6.96793 27.0565C6.96793 26.9492 6.95208 26.8458 6.92468 26.747L8.36531 25.4485L8.82642 25.5134L8.70562 29.2286L7.05415 31.1233C6.80266 30.9594 6.50163 30.8635 6.17751 30.8635C5.29835 30.8635 4.58569 31.5656 4.58569 32.4317C4.58569 33.2979 5.29835 34 6.17751 34C7.05668 34 7.76934 33.2979 7.76934 32.4317C7.76934 32.1988 7.71639 31.9785 7.62395 31.7797L9.74855 29.4557ZM6.00862 8.27342C5.66244 8.27342 5.38177 7.9969 5.38177 7.65584C5.38177 7.31478 5.66244 7.03827 6.00862 7.03827C6.35481 7.03827 6.63547 7.31478 6.63547 7.65584C6.63547 7.9969 6.35481 8.27342 6.00862 8.27342ZM5.84588 13.573C5.56392 13.573 5.33538 13.3478 5.33538 13.07C5.33538 12.7922 5.56392 12.5671 5.84588 12.5671C6.12778 12.5671 6.35638 12.7922 6.35638 13.07C6.35638 13.3478 6.12778 13.573 5.84588 13.573ZM4.11809 16.9042C3.91121 16.9042 3.74355 16.739 3.74355 16.5352C3.74355 16.3314 3.91121 16.1662 4.11809 16.1662C4.3249 16.1662 4.49263 16.3314 4.49263 16.5352C4.49263 16.739 4.3249 16.9042 4.11809 16.9042ZM1.69281 20.9658C1.35004 20.9658 1.07224 20.692 1.07224 20.3544C1.07224 20.0168 1.35011 19.743 1.69281 19.743C2.03551 19.743 2.31337 20.0168 2.31337 20.3544C2.31337 20.692 2.03551 20.9658 1.69281 20.9658ZM3.86981 23.8666C3.69552 23.8666 3.5543 23.7274 3.5543 23.5558C3.5543 23.384 3.69559 23.2449 3.86981 23.2449C4.04403 23.2449 4.18532 23.3841 4.18532 23.5558C4.18532 23.7275 4.0441 23.8666 3.86981 23.8666ZM5.77681 27.5246C5.51438 27.5246 5.3017 27.315 5.3017 27.0565C5.3017 26.798 5.51445 26.5884 5.77681 26.5884C6.03923 26.5884 6.25192 26.798 6.25192 27.0565C6.25198 27.315 6.03923 27.5246 5.77681 27.5246ZM6.17751 33.0341C5.8398 33.0341 5.5661 32.7644 5.5661 32.4317C5.5661 32.0991 5.83987 31.8294 6.17751 31.8294C6.51523 31.8294 6.78892 32.0991 6.78892 32.4317C6.78892 32.7644 6.51523 33.0341 6.17751 33.0341Z" fill="white"/>
<path d="M29.9745 32.0242L29.9882 32.0191L26.8724 29H17.8738L16 30.7906H16.7408V32.9076H16.7954C16.5112 33.0626 16.3192 33.3542 16.3192 33.6893C16.3192 34.1863 16.7408 34.5891 17.2609 34.5891C17.781 34.5891 18.2026 34.1863 18.2026 33.6893C18.2026 33.3542 18.0105 33.0626 17.7263 32.9076H17.743V30.7906H19.6604V36.944C19.0401 37.1719 18.5997 37.7463 18.5997 38.4194C18.5997 39.2923 19.3402 40 20.2537 40C21.1672 40 21.9078 39.2924 21.9078 38.4194C21.9078 37.7486 21.4702 37.1758 20.8531 36.9463V30.7906H22.6327V32.7672C22.3057 32.9465 22.0849 33.2827 22.0849 33.6689C22.0849 34.2431 22.5721 34.7086 23.173 34.7086C23.7739 34.7086 24.261 34.2431 24.261 33.6689C24.261 33.274 24.0306 32.9304 23.6913 32.7545V30.7906H25.5651V34.8922C25.143 35.0748 24.8488 35.48 24.8488 35.9516C24.8488 36.5942 25.3938 37.115 26.0662 37.115C26.7386 37.115 27.2836 36.5942 27.2836 35.9516C27.2836 35.48 26.9894 35.0749 26.5674 34.8923V30.7906H27.1884L28.9423 32.4147L29.0147 32.3873C28.8384 32.5783 28.7306 32.8285 28.7306 33.1033C28.7306 33.7022 29.2386 34.1876 29.8653 34.1876C30.492 34.1876 31 33.7022 31 33.1033C31.0001 32.5396 30.5499 32.0768 29.9745 32.0242ZM17.2609 34.0073C17.0771 34.0073 16.928 33.8649 16.928 33.6893C16.928 33.5136 17.0771 33.3712 17.2609 33.3712C17.4447 33.3712 17.5937 33.5136 17.5937 33.6893C17.5937 33.8649 17.4447 34.0073 17.2609 34.0073ZM20.2537 38.978C19.9308 38.978 19.6691 38.7279 19.6691 38.4194C19.6691 38.1109 19.9308 37.8608 20.2537 37.8608C20.5766 37.8608 20.8383 38.1109 20.8383 38.4194C20.8383 38.7279 20.5766 38.978 20.2537 38.978ZM23.173 34.0363C22.9606 34.0363 22.7884 33.8718 22.7884 33.6688C22.7884 33.4659 22.9606 33.3013 23.173 33.3013C23.3853 33.3013 23.5575 33.4658 23.5575 33.6688C23.5575 33.8718 23.3854 34.0363 23.173 34.0363ZM26.0662 36.3628C25.8286 36.3628 25.6359 36.1787 25.6359 35.9516C25.6359 35.7246 25.8286 35.5405 26.0662 35.5405C26.3038 35.5405 26.4965 35.7246 26.4965 35.9516C26.4965 36.1787 26.3038 36.3628 26.0662 36.3628ZM29.8653 33.6689C29.5384 33.6689 29.2735 33.4157 29.2735 33.1033C29.2735 32.791 29.5384 32.5378 29.8653 32.5378C30.1922 32.5378 30.4571 32.791 30.4571 33.1033C30.4571 33.4157 30.1922 33.6689 29.8653 33.6689Z" fill="white"/>
<path d="M14.4456 34.9186H14.5177V32.312H13.4234V34.9186H13.4955C13.058 35.1 12.751 35.5242 12.751 36.0186C12.751 36.6781 13.297 37.2127 13.9705 37.2127C14.6441 37.2127 15.1901 36.6781 15.1901 36.0186C15.19 35.5242 14.8831 35.1 14.4456 34.9186ZM13.9705 36.4406C13.7324 36.4406 13.5395 36.2517 13.5395 36.0186C13.5395 35.7855 13.7325 35.5966 13.9705 35.5966C14.2085 35.5966 14.4015 35.7856 14.4015 36.0186C14.4015 36.2517 14.2085 36.4406 13.9705 36.4406Z" fill="white"/>
<path d="M10.5465 35.2356C10.1157 35.2356 9.7666 35.5774 9.7666 35.9991C9.7666 36.4208 10.1157 36.7627 10.5465 36.7627C10.9772 36.7627 11.3264 36.4208 11.3264 35.9991C11.3264 35.5774 10.9772 35.2356 10.5465 35.2356ZM10.5465 36.269C10.3943 36.269 10.2709 36.1482 10.2709 35.9991C10.2709 35.8501 10.3943 35.7293 10.5465 35.7293C10.6987 35.7293 10.8221 35.8501 10.8221 35.9991C10.8221 36.1482 10.6988 36.269 10.5465 36.269Z" fill="white"/>
<path d="M10.0255 7.97576L10.0118 7.98095L13.1275 11H22.1262L24 9.20942H23.2592V7.09236H23.2046C23.4888 6.93745 23.6808 6.64577 23.6808 6.31074C23.6808 5.81374 23.2592 5.41088 22.7391 5.41088C22.219 5.41088 21.7974 5.81374 21.7974 6.31074C21.7974 6.64577 21.9895 6.93745 22.2737 7.09236H22.257V9.20942H20.3396V3.05605C20.9599 2.82812 21.4003 2.2537 21.4003 1.5806C21.4003 0.707694 20.6598 0 19.7463 0C18.8328 0 18.0922 0.707629 18.0922 1.5806C18.0922 2.25143 18.5298 2.82423 19.1469 3.05372V9.20935H17.3673V7.23282C17.6943 7.05349 17.9151 6.71729 17.9151 6.33115C17.9151 5.75692 17.4279 5.29141 16.827 5.29141C16.2261 5.29141 15.7389 5.75692 15.7389 6.33115C15.7389 6.72604 15.9693 7.06955 16.3087 7.24552V9.20935H14.4349V5.1078C14.857 4.92516 15.1512 4.52003 15.1512 4.04836C15.1512 3.40585 14.6061 2.88501 13.9338 2.88501C13.2614 2.88501 12.7163 3.40585 12.7163 4.04836C12.7163 4.51997 13.0105 4.92509 13.4326 5.10773V9.20935H12.8117L11.0577 7.58534L10.9853 7.61275C11.1615 7.42162 11.2694 7.17147 11.2694 6.8967C11.2694 6.29785 10.7614 5.81238 10.1347 5.81238C9.50803 5.81238 9 6.29785 9 6.8967C8.99993 7.46036 9.45006 7.92322 10.0255 7.97576ZM22.7391 5.99263C22.9229 5.99263 23.072 6.13503 23.072 6.31068C23.072 6.48632 22.9229 6.62873 22.7391 6.62873C22.5553 6.62873 22.4063 6.48632 22.4063 6.31068C22.4063 6.13503 22.5553 5.99263 22.7391 5.99263ZM19.7463 1.02199C20.0691 1.02199 20.3309 1.27207 20.3309 1.5806C20.3309 1.88913 20.0691 2.13922 19.7463 2.13922C19.4234 2.13922 19.1617 1.88913 19.1617 1.5806C19.1617 1.27214 19.4234 1.02199 19.7463 1.02199ZM16.827 5.96366C17.0394 5.96366 17.2116 6.12816 17.2116 6.33115C17.2116 6.53407 17.0394 6.69863 16.827 6.69863C16.6147 6.69863 16.4424 6.53413 16.4424 6.33115C16.4424 6.12823 16.6146 5.96366 16.827 5.96366ZM13.9338 3.63721C14.1714 3.63721 14.364 3.82128 14.364 4.04836C14.364 4.27545 14.1714 4.45952 13.9338 4.45952C13.6961 4.45952 13.5035 4.27545 13.5035 4.04836C13.5035 3.82134 13.6961 3.63721 13.9338 3.63721ZM10.1346 6.33115C10.4615 6.33115 10.7265 6.58435 10.7265 6.8967C10.7265 7.20905 10.4615 7.46224 10.1346 7.46224C9.80777 7.46224 9.54281 7.20905 9.54281 6.8967C9.54281 6.58435 9.80777 6.33115 10.1346 6.33115Z" fill="white"/>
<path d="M25.3588 5.08139H25.2867V7.68806H26.381V5.08139H26.3089C26.7464 4.90005 27.0534 4.47582 27.0534 3.98138C27.0534 3.32193 26.5074 2.78735 25.8338 2.78735C25.1603 2.78735 24.6143 3.32193 24.6143 3.98138C24.6143 4.47582 24.9213 4.90005 25.3588 5.08139ZM25.8339 3.5594C26.072 3.5594 26.2649 3.74836 26.2649 3.98138C26.2649 4.21447 26.0719 4.40336 25.8339 4.40336C25.5958 4.40336 25.4029 4.2144 25.4029 3.98138C25.4029 3.74829 25.5958 3.5594 25.8339 3.5594Z" fill="white"/>
<path d="M227.63 32C225.785 32 224.108 31.6755 222.598 31.0264C221.088 30.3492 219.789 29.4462 218.698 28.3175C217.608 27.1605 216.769 25.8624 216.182 24.4233C215.595 22.9841 215.302 21.5026 215.302 19.9788C215.302 18.3986 215.609 16.903 216.224 15.4921C216.839 14.0529 217.706 12.7831 218.824 11.6825C219.942 10.5538 221.256 9.6649 222.766 9.01587C224.275 8.36684 225.925 8.04233 227.714 8.04233C229.559 8.04233 231.236 8.39506 232.746 9.10053C234.255 9.77778 235.541 10.6949 236.603 11.8519C237.694 12.9806 238.532 14.2645 239.119 15.7037C239.706 17.1429 240 18.6102 240 20.1058C240 21.6578 239.693 23.1534 239.077 24.5926C238.462 26.0035 237.596 27.2734 236.478 28.4021C235.387 29.5309 234.088 30.4197 232.578 31.0688C231.096 31.6896 229.447 32 227.63 32ZM220.418 20.0212C220.418 20.9806 220.585 21.9118 220.921 22.8148C221.256 23.6896 221.731 24.4797 222.346 25.1852C222.961 25.8906 223.716 26.455 224.611 26.8783C225.533 27.2734 226.554 27.4709 227.672 27.4709C228.818 27.4709 229.838 27.2593 230.733 26.836C231.627 26.3845 232.368 25.806 232.955 25.1005C233.57 24.3668 234.032 23.5626 234.339 22.6878C234.675 21.7848 234.842 20.8818 234.842 19.9788C234.842 19.0194 234.675 18.1023 234.339 17.2275C234.004 16.3527 233.528 15.5767 232.913 14.8995C232.298 14.194 231.544 13.6437 230.649 13.2487C229.755 12.8254 228.748 12.6138 227.63 12.6138C226.484 12.6138 225.463 12.8254 224.569 13.2487C223.674 13.672 222.919 14.2363 222.304 14.9418C221.689 15.6473 221.214 16.4515 220.879 17.3545C220.571 18.2293 220.418 19.1182 220.418 20.0212Z" fill="white"/>
<path d="M201.166 32C199.516 32 197.965 31.6755 196.511 31.0264C195.086 30.3492 193.828 29.4462 192.737 28.3175C191.675 27.1887 190.836 25.9048 190.221 24.4656C189.606 22.9982 189.299 21.4603 189.299 19.8518C189.299 18.2152 189.606 16.6914 190.221 15.2804C190.836 13.8413 191.689 12.5855 192.779 11.5132C193.897 10.4127 195.197 9.55203 196.679 8.93122C198.161 8.31041 199.768 8 201.501 8C203.849 8 205.862 8.47972 207.539 9.43915C209.217 10.3704 210.475 11.612 211.313 13.164L207.456 16.0423C206.897 14.9136 206.058 14.0529 204.94 13.4603C203.821 12.8677 202.619 12.5714 201.333 12.5714C200.299 12.5714 199.349 12.769 198.482 13.164C197.643 13.5591 196.917 14.0952 196.302 14.7725C195.714 15.4497 195.253 16.2399 194.918 17.1429C194.582 18.0459 194.415 19.0053 194.415 20.0212C194.415 21.0653 194.596 22.0388 194.96 22.9418C195.323 23.8448 195.826 24.6349 196.469 25.3122C197.112 25.9894 197.867 26.5115 198.734 26.8783C199.628 27.2451 200.593 27.4286 201.627 27.4286C202.829 27.4286 203.989 27.1323 205.107 26.5397C206.254 25.9471 207.33 25.1005 208.336 24V29.037C207.274 30.0529 206.156 30.8007 204.982 31.2804C203.835 31.7601 202.563 32 201.166 32ZM207.959 23.2804H202.759V19.5556H212.152V31.8307H207.959V23.2804Z" fill="white"/>
<path d="M180.039 31.8307V8.16931H185.112V31.8307H180.039Z" fill="white"/>
<path d="M155.141 31.8307V8.16931H166.673C168.294 8.16931 169.72 8.56437 170.95 9.3545C172.208 10.1446 173.186 11.1464 173.885 12.3598C174.584 13.5732 174.933 14.8289 174.933 16.127C174.933 17.1146 174.738 18.06 174.346 18.963C173.983 19.8377 173.452 20.6279 172.753 21.3333C172.082 22.0388 171.257 22.5891 170.279 22.9841L176.401 31.8307H170.614L165.163 24.0847H160.215V31.8307H155.141ZM160.215 19.5979H166.547C167.162 19.5979 167.721 19.4568 168.224 19.1746C168.727 18.8642 169.119 18.4409 169.398 17.9048C169.678 17.3686 169.817 16.776 169.817 16.127C169.817 15.4215 169.65 14.8148 169.314 14.3069C169.007 13.7989 168.587 13.4039 168.056 13.1217C167.525 12.8113 166.952 12.6561 166.337 12.6561H160.215V19.5979Z" fill="white"/>
<path d="M150.774 27.3439V31.8307H132.701V8.16931H150.439V12.6561H137.775V17.6931H148.719V21.8836H137.775V27.3439H150.774Z" fill="white"/>
<path d="M109.564 31.8307V8.16931H120.592C122.186 8.16931 123.611 8.56437 124.869 9.3545C126.127 10.1446 127.106 11.1464 127.805 12.3598C128.531 13.545 128.895 14.8007 128.895 16.127C128.895 17.4815 128.545 18.7654 127.847 19.9788C127.176 21.1922 126.239 22.1799 125.037 22.9418C123.835 23.7037 122.423 24.0847 120.802 24.0847H114.638V31.8307H109.564ZM114.638 19.5979H120.466C121.081 19.5979 121.641 19.4709 122.144 19.2169C122.647 18.9347 123.038 18.5397 123.318 18.0317C123.597 17.4956 123.737 16.8607 123.737 16.127C123.737 15.3651 123.569 14.7302 123.234 14.2222C122.899 13.7143 122.465 13.3333 121.934 13.0794C121.431 12.7972 120.872 12.6561 120.257 12.6561H114.638V19.5979Z" fill="white"/>
<path d="M98.8004 31.8307V17.0582L92.0912 27.8942H89.3236L82.6564 17.0582V31.8307H77.5825V8.16931H83.0757L90.7493 20.9524L98.423 8.16931H103.832V31.8307H98.8004Z" fill="white"/>
<path d="M50 31.8307L60.2315 8.16931H64.3829L74.5725 31.8307H69.2051L66.8569 26.2857H57.7575L55.4093 31.8307H50ZM62.3282 14.3915L58.8897 21.8413H65.6408L62.3282 14.3915Z" fill="white"/>
</svg>
